<svg xmlns="http://www.w3.org/2000/svg" xmlns:xlink="http://www.w3.org/1999/xlink" viewBox="0 0 1200 655.88"><defs><style>.cls-1{fill:url(#Nuovo_campione_sfumatura_1);}.cls-2{fill:url(#Nuovo_campione_sfumatura_1-2);}</style><linearGradient id="Nuovo_campione_sfumatura_1" y1="287" x2="648.32" y2="287" gradientUnits="userSpaceOnUse"><stop offset="0" stop-color="#ff2a00"/><stop offset="0.29" stop-color="#ff2e00"/><stop offset="0.59" stop-color="#ff3b00"/><stop offset="0.89" stop-color="#ff4f00"/><stop offset="1" stop-color="#ff5900"/></linearGradient><linearGradient id="Nuovo_campione_sfumatura_1-2" x1="551.68" y1="368.88" x2="1200" y2="368.88" xlink:href="#Nuovo_campione_sfumatura_1"/></defs><title>bg</title><g id="Livello_2" data-name="Livello 2"><g id="Livello_1-2" data-name="Livello 1"><path class="cls-1" d="M0,0V530.84A329.64,329.64,0,0,0,254.87,561L339,536.57A329.59,329.59,0,0,0,517.15,409.14l40-57a329.6,329.6,0,0,0,55.25-135.27L648.32,0Z"/><path class="cls-2" d="M945.13,94.92,861,119.3A329.69,329.69,0,0,0,682.85,246.73l-40,57A329.65,329.65,0,0,0,587.63,439l-36,216.84H1200V125A329.69,329.69,0,0,0,945.13,94.92"/></g></g></svg>