<svg width="128px" height="128px" viewBox="0 0 128 128" version="1.1" xmlns="http://www.w3.org/2000/svg" xmlns:xlink="http://www.w3.org/1999/xlink">
    <path
        d="M58.8201003,62.5785249 L58.4750102,74.0788962 L51.7242195,80.8553237 C58.7521388,88.5973092 58.5295859,100.616208 51.0565609,108.08732 L36.9216738,122.224179 C33.0704692,126.075384 28.0124356,128 22.9544019,128 C17.8963682,128 12.8383346,126.075384 8.98712999,122.224179 L5.77680687,119.011884 C-1.92560229,111.311447 -1.92560229,98.7797494 5.77680687,91.0793122 L19.9116939,76.9424532 C27.0463602,69.8096135 38.3229294,69.2838534 46.0681932,75.365173 L58.8201003,62.5785249 Z M33.8789658,79.0504602 C30.8402018,79.0504602 27.8014377,80.2060187 25.4903205,82.5191078 L11.3534615,96.6559668 C6.72728337,101.282145 6.72728337,108.809051 11.3534615,113.435229 L14.5657566,116.645552 C19.1919348,121.271731 26.716869,121.273703 31.3450191,116.645552 L45.4799062,102.510665 C49.8721248,98.1184469 50.0942523,91.1114782 46.1462889,86.4547882 L43.1234344,89.4876584 C42.3543766,90.26066 41.3447418,90.643217 40.3351071,90.643217 C39.3254723,90.643217 38.3158375,90.26066 37.5467797,89.4876584 C36.0066923,87.947571 36.0066923,85.4510912 37.5467797,83.9110037 L40.4331465,81.0171288 C38.455566,79.7057357 36.1672659,79.0504602 33.8789658,79.0504602 Z M62.7919877,74.4547485 C67.2702702,79.9111147 71.5395267,85.1150721 75.9823141,90.5280555 C70.7468056,92.066171 65.6828561,93.553016 60.3684699,95.1128229 C61.1769665,88.22877 61.9637717,81.5202201 62.7919877,74.4547485 Z M73.3572637,70.9839317 C77.4293259,72.7823437 81.191793,74.4427197 85.236248,76.227328 C82.9251309,78.163776 80.7993764,79.9444405 78.5099506,81.863141 C76.7726689,78.1953271 75.1458159,74.7602025 73.3572637,70.9839317 Z M118.128651,5.77532791 L121.338974,8.98762298 C129.041383,16.6880602 129.041383,29.2197576 121.338974,36.9201949 L107.204087,51.0570539 C103.352882,54.9082584 98.2948486,56.8328748 93.2368149,56.8328748 C88.7196812,56.8328748 84.2025475,55.2978809 80.545,52.2264888 L65.3590631,67.5470324 L65.3590631,56.2083604 L74.9323995,46.6201855 C68.3771662,38.8686406 68.752773,27.2167632 76.0592199,19.9121869 L90.194107,5.77532791 C97.8965161,-1.9251093 110.426242,-1.9251093 118.128651,5.77532791 Z M36.8662622,52.8465921 C42.7051853,55.234615 48.4455112,57.583199 54.5960013,60.0974263 C47.1558605,61.5546921 40.1061645,62.9350522 32.8257511,64.360767 C34.2258306,60.3734983 35.5292849,56.6583578 36.8662622,52.8465921 Z M62.3851759,37.7050281 C61.1704591,44.3406162 59.997153,50.7494308 58.823847,57.1582453 C58.7311656,57.1779648 58.6384843,57.1957123 58.545803,57.2154317 C55.6490188,51.2443884 52.7522346,45.2733452 49.7371338,39.0617249 C54.0261098,38.6022622 58.1001439,38.1644909 62.3851759,37.7050281 Z M104.161379,7.88333493 C101.122615,7.88333493 98.0838507,9.03889349 95.7727336,11.3519826 L81.6358746,25.4888416 C77.409888,29.7148282 77.0443153,36.3613898 80.5391567,41.0061643 L83.5167138,38.0231025 C85.0548293,36.4810432 87.553281,36.4810432 89.0933684,38.0231025 C90.6334559,39.561218 90.6334559,42.0596698 89.0933684,43.5997572 L86.1299678,46.5901272 C90.7735357,50.069251 97.4056783,49.7001811 101.627432,45.4784273 L115.762319,31.3435402 C120.388497,26.717362 120.388497,19.1904558 115.762319,14.5642776 L112.550024,11.3519826 C110.238907,9.03889349 107.200143,7.88333493 104.161379,7.88333493 Z"
        class="fill-current"></path>
</svg>
