<svg xmlns="http://www.w3.org/2000/svg" xmlns:xlink="http://www.w3.org/1999/xlink" viewBox="0 0 1125 2310">
  <defs>
    <linearGradient id="linear-gradient" x1="-1514.61" y1="10766.25" x2="-1513.5" y2="10766.25" gradientTransform="matrix(118.81, -118.81, -118.81, -118.81, 1459894.92, 1100371.85)" gradientUnits="userSpaceOnUse">
      <stop offset="0" stop-color="#ff2a00"/>
      <stop offset="0.29" stop-color="#ff2e00"/>
      <stop offset="0.59" stop-color="#ff3b00"/>
      <stop offset="0.89" stop-color="#ff4f00"/>
      <stop offset="1" stop-color="#ff5900"/>
    </linearGradient>
    <linearGradient id="linear-gradient-2" x1="-1515.09" y1="10766.26" x2="-1513.98" y2="10766.26" gradientTransform="matrix(118.81, -118.81, -118.81, -118.81, 1459373.65, 1100862.95)" xlink:href="#linear-gradient"/>
    <linearGradient id="linear-gradient-3" x1="-1514.84" y1="10766.01" x2="-1513.73" y2="10766.01" gradientTransform="matrix(118.81, -118.81, -118.81, -118.81, 1459894.44, 1100862.95)" xlink:href="#linear-gradient"/>
    <linearGradient id="linear-gradient-4" x1="-1515.29" y1="10766.06" x2="-1514.18" y2="10766.06" gradientTransform="matrix(118.81, -118.81, -118.81, -118.81, 1459373.65, 1101293.15)" xlink:href="#linear-gradient"/>
    <linearGradient id="linear-gradient-5" x1="-1515.04" y1="10765.81" x2="-1513.93" y2="10765.81" gradientTransform="matrix(118.81, -118.81, -118.81, -118.81, 1459894.92, 1101293.15)" xlink:href="#linear-gradient"/>
    <linearGradient id="linear-gradient-6" x1="-1514.64" y1="10766.71" x2="-1513.53" y2="10766.71" gradientTransform="matrix(118.81, -118.81, -118.81, -118.81, 1459373.65, 1099911.2)" xlink:href="#linear-gradient"/>
    <linearGradient id="linear-gradient-7" x1="-1514.39" y1="10766.46" x2="-1513.28" y2="10766.46" gradientTransform="matrix(118.81, -118.81, -118.81, -118.81, 1459895.46, 1099911.2)" xlink:href="#linear-gradient"/>
    <linearGradient id="linear-gradient-8" x1="-1514.86" y1="10766.49" x2="-1513.74" y2="10766.49" gradientTransform="matrix(118.81, -118.81, -118.81, -118.81, 1459374.13, 1100371.85)" xlink:href="#linear-gradient"/>
  </defs>
  <title>come_funziona_mobile</title>
  <g id="Layer_3" data-name="Layer 3">
    <g>
      <path d="M176.65,253.3h5.42l3.43,10,8.84-10h6L194,277h-5.29l4.14-15.48-9.29,10.13h-.13l-3.79-10L175.5,277h-5.21Zm29.64,0h5.22L205.14,277h-5.21Zm29.17-.17h5L244.23,277h-5.35l-.75-5.32h-10L224.52,277h-5.63Zm2.06,13.92-1.08-7.83-5.22,7.83Zm16-13.75h5.22l-5.08,19h11.82L264.18,277h-17Zm21.21,0h5.21l-5.08,19h11.82L285.39,277h-17Zm21.2,0h17.72l-1.26,4.64H299.85l-1.29,4.84h11l-1.25,4.57h-11l-1.36,5h12.74L307.44,277H289.55Zm22.53,0h4.81l6.91,15.07,4.06-15.07h5.15L333,277h-4.44l-7.18-15.55L317.23,277h-5.15ZM347,276.62a9.82,9.82,0,0,1-3.42-2.22,10,10,0,0,1-2.21-3.34,10.87,10.87,0,0,1-.78-4.15,13.47,13.47,0,0,1,1-5.16,14.34,14.34,0,0,1,2.91-4.49,14.5,14.5,0,0,1,4.51-3.17,13.78,13.78,0,0,1,5.8-1.2,11.9,11.9,0,0,1,4.44.8,10.14,10.14,0,0,1,3.42,2.21,9.91,9.91,0,0,1,2.2,3.34,10.91,10.91,0,0,1,.78,4.15,13.55,13.55,0,0,1-1,5.17,14.3,14.3,0,0,1-2.91,4.48,14.62,14.62,0,0,1-4.51,3.17,13.79,13.79,0,0,1-5.81,1.2A11.88,11.88,0,0,1,347,276.62Zm8.44-4.83a8.88,8.88,0,0,0,2.61-2.08,9.83,9.83,0,0,0,1.66-2.86,8.84,8.84,0,0,0,.6-3.12,7.18,7.18,0,0,0-.39-2.42,5.43,5.43,0,0,0-1.16-1.92,5.08,5.08,0,0,0-1.91-1.25,7.23,7.23,0,0,0-2.6-.44,7.14,7.14,0,0,0-3.4.81,8.76,8.76,0,0,0-2.61,2.09,9.49,9.49,0,0,0-1.66,2.86,8.79,8.79,0,0,0-.6,3.11,7.29,7.29,0,0,0,.39,2.43,5.39,5.39,0,0,0,1.16,1.91,5,5,0,0,0,1.9,1.25,7.72,7.72,0,0,0,6-.37Z" style="fill: #fff"/>
      <path d="M710.68,253.3h4.81l6.91,15.07,4.06-15.07h5.15L725.24,277h-4.43l-7.18-15.55L709.46,277h-5.15Zm28.52,23.32a9.86,9.86,0,0,1-5.62-5.56,10.87,10.87,0,0,1-.78-4.15,13.46,13.46,0,0,1,1-5.16,14.34,14.34,0,0,1,2.91-4.49,14.79,14.79,0,0,1,4.51-3.17,13.82,13.82,0,0,1,5.81-1.2,12,12,0,0,1,4.44.8,9.88,9.88,0,0,1,5.62,5.55,10.91,10.91,0,0,1,.78,4.15,13.56,13.56,0,0,1-1,5.17,14.17,14.17,0,0,1-2.91,4.49,14.43,14.43,0,0,1-4.5,3.16,13.82,13.82,0,0,1-5.81,1.2A11.9,11.9,0,0,1,739.2,276.62Zm8.44-4.83a8.6,8.6,0,0,0,2.61-2.08,9.86,9.86,0,0,0,1.67-2.86,9,9,0,0,0,.59-3.12,7.18,7.18,0,0,0-.39-2.42,5.43,5.43,0,0,0-1.16-1.92,5,5,0,0,0-1.9-1.25,7.28,7.28,0,0,0-2.61-.44,7.17,7.17,0,0,0-3.4.81,8.74,8.74,0,0,0-2.6,2.09,9.51,9.51,0,0,0-1.67,2.86,8.8,8.8,0,0,0-.6,3.12,7,7,0,0,0,.4,2.42,5.37,5.37,0,0,0,1.15,1.91,5.08,5.08,0,0,0,1.91,1.25,7.05,7.05,0,0,0,2.6.44A7.14,7.14,0,0,0,747.64,271.79Zm17.85-18.49h4.81l6.91,15.07,4.06-15.07h5.15L780.05,277h-4.44l-7.18-15.55L764.27,277h-5.15Zm36.78,0h5.42l3.42,10,8.84-10h6L819.61,277h-5.28l4.13-15.48-9.28,10.13h-.13l-3.8-10L801.12,277H795.9Zm29.64,0h5.22L830.76,277h-5.22Zm29.16-.17h5L869.85,277h-5.36l-.74-5.32h-10L850.13,277h-5.62Zm2.07,13.92-1.08-7.83-5.22,7.83Zm16-13.75h5.21l-5.08,19h11.83L889.8,277h-17Zm21.2,0h5.22l-5.08,19h11.82L911,277H894Zm21.21,0h17.71L938,257.94H925.47l-1.29,4.84h11l-1.26,4.57h-11l-1.35,5h12.74L933.05,277H915.17Zm22.52,0h4.81l6.91,15.07,4.07-15.07H965L958.63,277h-4.44L947,261.46,942.84,277h-5.15Zm28.52,23.32a9.86,9.86,0,0,1-5.62-5.56,10.87,10.87,0,0,1-.78-4.15,13.46,13.46,0,0,1,1-5.16,14.2,14.2,0,0,1,2.92-4.49,14.62,14.62,0,0,1,4.5-3.17,13.82,13.82,0,0,1,5.81-1.2,11.9,11.9,0,0,1,4.44.8,9.88,9.88,0,0,1,5.62,5.55,10.91,10.91,0,0,1,.78,4.15,13.55,13.55,0,0,1-1,5.17,14.2,14.2,0,0,1-2.92,4.49,14.43,14.43,0,0,1-4.5,3.16,13.82,13.82,0,0,1-5.81,1.2A11.9,11.9,0,0,1,972.58,276.62Zm8.45-4.83a8.56,8.56,0,0,0,2.6-2.08,9.86,9.86,0,0,0,1.67-2.86,8.78,8.78,0,0,0,.59-3.12,7.18,7.18,0,0,0-.39-2.42,5.41,5.41,0,0,0-1.15-1.92,5.16,5.16,0,0,0-1.91-1.25,7.27,7.27,0,0,0-2.6-.44,7.18,7.18,0,0,0-3.41.81,8.74,8.74,0,0,0-2.6,2.09,9.51,9.51,0,0,0-1.67,2.86,8.78,8.78,0,0,0-.59,3.12A7.23,7.23,0,0,0,972,269a5.37,5.37,0,0,0,1.15,1.91,5.08,5.08,0,0,0,1.91,1.25,7.05,7.05,0,0,0,2.6.44A7.18,7.18,0,0,0,981,271.79Z" style="fill: #fff"/>
      <path d="M204.24,725.79l3.93-3.32a10.68,10.68,0,0,0,3,2.32,8,8,0,0,0,3.62.8,4.64,4.64,0,0,0,2.61-.68,2.06,2.06,0,0,0,1-1.79,1.75,1.75,0,0,0-.19-.8,2.28,2.28,0,0,0-.64-.71,7.59,7.59,0,0,0-1.24-.75c-.52-.26-1.17-.54-2-.86s-1.51-.66-2.21-1a9.14,9.14,0,0,1-1.86-1.32,6,6,0,0,1-1.29-1.75,5.3,5.3,0,0,1-.47-2.3,6.86,6.86,0,0,1,.76-3.27,7.71,7.71,0,0,1,2-2.46,9.48,9.48,0,0,1,3-1.55,11.6,11.6,0,0,1,3.61-.55,12.83,12.83,0,0,1,5.21,1,10.93,10.93,0,0,1,3.66,2.58l-3.59,3.59a11.28,11.28,0,0,0-2.66-1.9,6.76,6.76,0,0,0-3-.64,3.84,3.84,0,0,0-2.56.76,2.16,2.16,0,0,0-.9,1.64,1.6,1.6,0,0,0,.21.83,2.22,2.22,0,0,0,.68.7,8.61,8.61,0,0,0,1.27.71c.53.25,1.2.54,2,.88a23.6,23.6,0,0,1,2.25,1.08,8.9,8.9,0,0,1,1.8,1.32,5.48,5.48,0,0,1,1.2,1.73,5.57,5.57,0,0,1,.44,2.27,7.06,7.06,0,0,1-.78,3.34,7.9,7.9,0,0,1-2.06,2.49,9.26,9.26,0,0,1-3,1.54,12.11,12.11,0,0,1-3.58.52Q207.64,730.16,204.24,725.79Zm30.34,3.71a10.3,10.3,0,0,1-3.53-2.06,9.15,9.15,0,0,1-2.3-3.26,10.68,10.68,0,0,1-.83-4.28,13.32,13.32,0,0,1,1.13-5.41,15,15,0,0,1,3.06-4.52,14.52,14.52,0,0,1,4.57-3.11,13.84,13.84,0,0,1,5.64-1.15,11.26,11.26,0,0,1,5.74,1.35,10.49,10.49,0,0,1,3.74,3.69l-4.3,3a8.89,8.89,0,0,0-2.37-2.37,6.1,6.1,0,0,0-3.46-.89,7.18,7.18,0,0,0-3.13.73,9.07,9.07,0,0,0-2.68,2,9.48,9.48,0,0,0-1.86,2.91,9.3,9.3,0,0,0-.69,3.57,6.25,6.25,0,0,0,.42,2.34,5.12,5.12,0,0,0,1.2,1.81,5.31,5.31,0,0,0,1.83,1.17,6.46,6.46,0,0,0,2.34.41,6.58,6.58,0,0,0,3-.63,13.31,13.31,0,0,0,2.57-1.71l3.39,3.53a15.31,15.31,0,0,1-3.86,2.6,11.76,11.76,0,0,1-5.11,1A13.18,13.18,0,0,1,234.58,729.5ZM257,706.11h17.71l-1.25,4.64H261l-1.29,4.85h11l-1.26,4.57h-11l-1.36,5h12.74l-1.26,4.64H250.65Zm25.06,23.51a10.4,10.4,0,0,1-3.56-1.88,9.69,9.69,0,0,1-2.54-3.22,10.15,10.15,0,0,1-1-4.59,13.23,13.23,0,0,1,1.11-5.33,14.76,14.76,0,0,1,7.73-7.71,14.67,14.67,0,0,1,5.93-1.18,16.11,16.11,0,0,1,3.39.33,13.25,13.25,0,0,1,2.71.9,9.57,9.57,0,0,1,2.08,1.31,9.15,9.15,0,0,1,1.51,1.55l-3.86,3.43a9.44,9.44,0,0,0-2.52-2,7.78,7.78,0,0,0-3.71-.8,8.39,8.39,0,0,0-3.54.76,9.16,9.16,0,0,0-2.85,2,9.72,9.72,0,0,0-1.9,2.94,9.23,9.23,0,0,0-.69,3.54,6.1,6.1,0,0,0,.47,2.46,5,5,0,0,0,1.31,1.78,5.78,5.78,0,0,0,1.93,1.08,7.23,7.23,0,0,0,2.35.37,9.56,9.56,0,0,0,2.42-.27,10.13,10.13,0,0,0,1.82-.64l1.11-3.86h-5.25l1.22-4.51h10.3L294.72,728a18.68,18.68,0,0,1-3.85,1.61,16.43,16.43,0,0,1-4.76.63A13.69,13.69,0,0,1,282.08,729.62ZM306,706.11h5.22l-5.08,19h11.82l-1.29,4.74h-17Zm21.44,0h5.22l-6.37,23.71H321ZM155.06,740h5.22l-5.08,19H167l-1.29,4.75h-17Zm29.06-.16h5l3.76,23.88h-5.36l-.74-5.32h-10l-3.59,5.32h-5.62Zm2.07,13.92-1.08-7.83-5.22,7.83ZM212.34,740h7.52a15,15,0,0,1,4.35.56,7.45,7.45,0,0,1,3.1,1.85,6.58,6.58,0,0,1,1.83,4.88,8.4,8.4,0,0,1-.9,3.93,8.68,8.68,0,0,1-2.44,2.91,10.68,10.68,0,0,1-3.64,1.79,16.08,16.08,0,0,1-4.54.61h-4.5l-1.93,7.19H206Zm5.55,12a7.27,7.27,0,0,0,4.2-1.1,3.57,3.57,0,0,0,1.6-3.13,2.68,2.68,0,0,0-.78-2,3.29,3.29,0,0,0-1.31-.79,6.15,6.15,0,0,0-1.94-.26h-3.39l-1.93,7.25Zm23.48-12.12h5l3.76,23.88h-5.35l-.75-5.32H234l-3.59,5.32H224.8Zm2.06,13.92-1.08-7.83-5.22,7.83Zm16-13.76h5.22l-5.08,19h11.82l-1.29,4.75h-17Zm21.21,0h17.71l-1.25,4.65H284.56l-1.29,4.84h11L293,754H282l-1.36,5H293.4l-1.26,4.65H274.26ZM296,759.66l3.93-3.32a10.64,10.64,0,0,0,3,2.32,7.88,7.88,0,0,0,3.63.8,4.51,4.51,0,0,0,2.6-.68,2.06,2.06,0,0,0,1-1.79,1.66,1.66,0,0,0-.19-.8,2.27,2.27,0,0,0-.64-.71,7.48,7.48,0,0,0-1.23-.74c-.52-.26-1.18-.55-2-.87a23.42,23.42,0,0,1-2.2-1,8.42,8.42,0,0,1-1.86-1.32,5.64,5.64,0,0,1-1.29-1.75,5.16,5.16,0,0,1-.48-2.3,6.86,6.86,0,0,1,.77-3.27,7.45,7.45,0,0,1,2.05-2.45,9.15,9.15,0,0,1,3-1.56,12,12,0,0,1,3.61-.54,12.89,12.89,0,0,1,5.22.94,11.28,11.28,0,0,1,3.66,2.58l-3.6,3.59a11.45,11.45,0,0,0-2.65-1.9,6.77,6.77,0,0,0-3-.64,3.81,3.81,0,0,0-2.55.76,2.17,2.17,0,0,0-.9,1.64,1.67,1.67,0,0,0,.2.83,2.34,2.34,0,0,0,.68.7,9.17,9.17,0,0,0,1.27.71c.53.25,1.2.54,2,.88a23.6,23.6,0,0,1,2.25,1.08,8.56,8.56,0,0,1,1.79,1.32,5.81,5.81,0,0,1,1.21,1.73,5.57,5.57,0,0,1,.44,2.27,7,7,0,0,1-.78,3.34,7.8,7.8,0,0,1-2.07,2.49,9.26,9.26,0,0,1-3,1.54,12.09,12.09,0,0,1-3.57.52Q299.43,764,296,759.66Zm31.36-14.87h-7.21l1.29-4.81h19.64l-1.28,4.81h-7.22l-5.08,18.91h-5.22ZM344.71,740h8.64a14.66,14.66,0,0,1,4.49.6,7.44,7.44,0,0,1,3,1.77,6.48,6.48,0,0,1,1.83,4.78,7.82,7.82,0,0,1-1.93,5.4A10.61,10.61,0,0,1,355,755.6l4,8.1h-5.93l-3.66-7.59h-3.9l-2,7.59h-5.22Zm6.78,11.49a9.62,9.62,0,0,0,2.27-.26,5.8,5.8,0,0,0,1.83-.74,3.71,3.71,0,0,0,1.22-1.21,3.23,3.23,0,0,0,.44-1.7,2.53,2.53,0,0,0-.75-1.89,4.84,4.84,0,0,0-3.45-1h-4.37l-1.83,6.78Zm25.37-11.65h5l3.76,23.88h-5.35l-.75-5.32h-10l-3.59,5.32h-5.63Zm2.06,13.92-1.08-7.83-5.22,7.83Z" style="fill: #ff2a00"/>
      <path d="M167.73,1238.18l3.93-3.32a10.64,10.64,0,0,0,3,2.32,8,8,0,0,0,3.63.8,4.58,4.58,0,0,0,2.6-.68,2.06,2.06,0,0,0,1-1.79,1.63,1.63,0,0,0-.19-.8,2.16,2.16,0,0,0-.64-.71,7.44,7.44,0,0,0-1.23-.75c-.52-.26-1.18-.54-2-.86s-1.5-.66-2.2-1a8.8,8.8,0,0,1-1.86-1.33,5.48,5.48,0,0,1-1.29-1.74,5.16,5.16,0,0,1-.48-2.3,6.86,6.86,0,0,1,.77-3.27,7.58,7.58,0,0,1,2-2.46,9.13,9.13,0,0,1,3-1.55,11.65,11.65,0,0,1,3.61-.55,12.88,12.88,0,0,1,5.22.95,11.13,11.13,0,0,1,3.66,2.58l-3.6,3.59a11.45,11.45,0,0,0-2.65-1.9,6.77,6.77,0,0,0-3-.64,3.81,3.81,0,0,0-2.55.76,2.16,2.16,0,0,0-.9,1.64,1.7,1.7,0,0,0,.2.83,2.34,2.34,0,0,0,.68.7,9.17,9.17,0,0,0,1.27.71c.53.25,1.2.54,2,.88a23.6,23.6,0,0,1,2.25,1.08,8.22,8.22,0,0,1,1.79,1.32,5.68,5.68,0,0,1,1.21,1.73,5.54,5.54,0,0,1,.44,2.27,7.06,7.06,0,0,1-.78,3.34,7.8,7.8,0,0,1-2.07,2.49,9.26,9.26,0,0,1-3,1.54,12.09,12.09,0,0,1-3.57.52Q171.12,1242.55,167.73,1238.18Zm30.33,3.71a10.12,10.12,0,0,1-3.52-2.07,9.17,9.17,0,0,1-2.31-3.25,10.68,10.68,0,0,1-.82-4.28,13.31,13.31,0,0,1,1.12-5.41,15.07,15.07,0,0,1,3.07-4.52,14.36,14.36,0,0,1,4.56-3.11,13.85,13.85,0,0,1,5.64-1.16,11.24,11.24,0,0,1,5.74,1.36,10.52,10.52,0,0,1,3.75,3.69l-4.31,3a8.89,8.89,0,0,0-2.37-2.37,6.09,6.09,0,0,0-3.45-.89,7.22,7.22,0,0,0-3.14.73,9.15,9.15,0,0,0-2.67,2,9.3,9.3,0,0,0-1.86,2.91,9.13,9.13,0,0,0-.7,3.57,6.25,6.25,0,0,0,.42,2.34,5.31,5.31,0,0,0,3,3,6.4,6.4,0,0,0,2.33.41,6.52,6.52,0,0,0,3-.63,14,14,0,0,0,2.58-1.71l3.39,3.52a15.14,15.14,0,0,1-3.87,2.61,11.73,11.73,0,0,1-5.11,1A13.22,13.22,0,0,1,198.06,1241.89Zm23.69-.07a9.88,9.88,0,0,1-5.62-5.55,10.91,10.91,0,0,1-.78-4.15,13.56,13.56,0,0,1,1-5.17,14.23,14.23,0,0,1,7.41-7.65,13.83,13.83,0,0,1,5.81-1.21,11.9,11.9,0,0,1,4.44.8,9.86,9.86,0,0,1,5.62,5.56,10.84,10.84,0,0,1,.78,4.15,13.46,13.46,0,0,1-1,5.16,14.34,14.34,0,0,1-2.91,4.49,14.79,14.79,0,0,1-4.51,3.17,13.82,13.82,0,0,1-5.81,1.2A12,12,0,0,1,221.75,1241.82Zm8.45-4.82a8.74,8.74,0,0,0,2.6-2.09,9.51,9.51,0,0,0,1.67-2.86,8.8,8.8,0,0,0,.6-3.12,7.23,7.23,0,0,0-.39-2.42,5.39,5.39,0,0,0-1.16-1.91,5.08,5.08,0,0,0-1.91-1.25,7.05,7.05,0,0,0-2.6-.45,7.15,7.15,0,0,0-3.4.82,8.6,8.6,0,0,0-2.61,2.08,9.86,9.86,0,0,0-1.67,2.86,9.05,9.05,0,0,0-.59,3.12,7.18,7.18,0,0,0,.39,2.42,5.43,5.43,0,0,0,1.16,1.92,5,5,0,0,0,1.9,1.25,7.28,7.28,0,0,0,2.61.44A7.14,7.14,0,0,0,230.2,1237ZM248,1218.5h7.52a15,15,0,0,1,4.35.56,7.35,7.35,0,0,1,3.1,1.85,6.58,6.58,0,0,1,1.83,4.87,8.37,8.37,0,0,1-.9,3.93,8.71,8.71,0,0,1-2.44,2.92,10.68,10.68,0,0,1-3.64,1.79,16.08,16.08,0,0,1-4.54.61h-4.5l-1.93,7.18h-5.22Zm5.56,12a7.32,7.32,0,0,0,4.2-1.1,3.6,3.6,0,0,0,1.59-3.14,2.65,2.65,0,0,0-.78-2,3.31,3.31,0,0,0-1.31-.8,6.18,6.18,0,0,0-1.94-.25H252l-1.93,7.25Zm17.44-12h8.64a14.92,14.92,0,0,1,4.48.59,7.43,7.43,0,0,1,3,1.78,6.46,6.46,0,0,1,1.83,4.78,7.91,7.91,0,0,1-1.93,5.4,10.61,10.61,0,0,1-5.73,3.07l4,8.09h-5.93l-3.66-7.58h-3.89l-2,7.58h-5.22Zm6.77,11.48a9.57,9.57,0,0,0,2.27-.25,6,6,0,0,0,1.83-.74,3.71,3.71,0,0,0,1.22-1.21,3.18,3.18,0,0,0,.44-1.71,2.55,2.55,0,0,0-.74-1.88,4.87,4.87,0,0,0-3.46-1H275l-1.83,6.77Zm18.09-11.48h5.22l-6.37,23.71h-5.22ZM319.75,1242a10.4,10.4,0,0,1-3.56-1.88,9.72,9.72,0,0,1-2.55-3.22,10.15,10.15,0,0,1-1-4.59,13.23,13.23,0,0,1,1.11-5.33,14.74,14.74,0,0,1,13.66-8.9,15.91,15.91,0,0,1,3.38.34,13.25,13.25,0,0,1,2.71.9,9.64,9.64,0,0,1,2.09,1.31,8.71,8.71,0,0,1,1.5,1.55l-3.86,3.42a9.61,9.61,0,0,0-2.52-1.94,7.75,7.75,0,0,0-3.71-.8,8.46,8.46,0,0,0-3.54.76,9.43,9.43,0,0,0-5.44,8.52,5.93,5.93,0,0,0,.48,2.46,5.1,5.1,0,0,0,1.3,1.78,6,6,0,0,0,1.93,1.08,7.29,7.29,0,0,0,2.36.37,9.67,9.67,0,0,0,2.42-.27,10,10,0,0,0,1.81-.64l1.12-3.86h-5.25l1.22-4.51h10.3l-3.36,11.82a18.91,18.91,0,0,1-3.84,1.61,16.48,16.48,0,0,1-4.76.63A13.59,13.59,0,0,1,319.75,1242Zm23.88-23.51h5.22l-5.09,19h11.83l-1.29,4.74h-17Zm21.44,0h5.22l-6.37,23.71H358.7Zm-214.79,33.7h5l3.76,23.88h-5.35l-.75-5.31h-10l-3.59,5.31h-5.62Zm2.07,13.93-1.08-7.83-5.22,7.83Zm16-13.76h9.21a12.73,12.73,0,0,1,3.61.46,7.27,7.27,0,0,1,2.49,1.25,5.09,5.09,0,0,1,1.46,1.86,5.57,5.57,0,0,1,.47,2.25,5.41,5.41,0,0,1-1.39,3.86,7,7,0,0,1-3.69,2,6.45,6.45,0,0,1,2.4,1.83,4.68,4.68,0,0,1,.92,3,6.34,6.34,0,0,1-.68,2.92,6.76,6.76,0,0,1-2,2.29,9.53,9.53,0,0,1-3.19,1.49,16.42,16.42,0,0,1-4.37.52H162Zm6.06,19.14a5.33,5.33,0,0,0,3.1-.79,2.53,2.53,0,0,0,1.14-2.19,1.9,1.9,0,0,0-.82-1.64,4.08,4.08,0,0,0-2.44-.59h-5.72l-1.39,5.21Zm1.7-9.58a6,6,0,0,0,3.15-.69,2.38,2.38,0,0,0,1.11-2.17,1.86,1.86,0,0,0-.78-1.52,4.12,4.12,0,0,0-2.5-.6h-4.91l-1.32,5Zm16.53-9.56h9.21a12.73,12.73,0,0,1,3.61.46,7.27,7.27,0,0,1,2.49,1.25,5,5,0,0,1,1.45,1.86,5.85,5.85,0,0,1-.91,6.11,7,7,0,0,1-3.69,2,6.45,6.45,0,0,1,2.4,1.83,4.68,4.68,0,0,1,.92,3,6.34,6.34,0,0,1-.68,2.92,6.68,6.68,0,0,1-2,2.29,9.57,9.57,0,0,1-3.18,1.49,16.47,16.47,0,0,1-4.37.52H186.26Zm6.06,19.14a5.33,5.33,0,0,0,3.1-.79,2.54,2.54,0,0,0,1.13-2.19,1.91,1.91,0,0,0-.81-1.64,4.11,4.11,0,0,0-2.44-.59H194l-1.39,5.21Zm1.69-9.58a6,6,0,0,0,3.15-.69,2.36,2.36,0,0,0,1.12-2.17,1.86,1.86,0,0,0-.78-1.52,4.14,4.14,0,0,0-2.51-.6h-4.91l-1.32,5Zm18.43,13.76a10.14,10.14,0,0,1-3.42-2.21,9.81,9.81,0,0,1-2.2-3.34,10.91,10.91,0,0,1-.78-4.15,13.46,13.46,0,0,1,1-5.16,14.23,14.23,0,0,1,2.91-4.49,14.62,14.62,0,0,1,4.51-3.17,13.79,13.79,0,0,1,5.81-1.2,11.88,11.88,0,0,1,4.43.79,10,10,0,0,1,3.43,2.22,10.12,10.12,0,0,1,2.2,3.34,10.87,10.87,0,0,1,.78,4.15,13.47,13.47,0,0,1-1,5.16,14.23,14.23,0,0,1-2.91,4.49,14.46,14.46,0,0,1-4.5,3.17,13.82,13.82,0,0,1-5.81,1.2A11.7,11.7,0,0,1,218.81,1275.69Zm8.44-4.82a8.88,8.88,0,0,0,2.61-2.08,9.66,9.66,0,0,0,1.66-2.87,8.79,8.79,0,0,0,.6-3.11,7.29,7.29,0,0,0-.39-2.43,5.39,5.39,0,0,0-1.16-1.91,5,5,0,0,0-1.9-1.25,7.72,7.72,0,0,0-6,.37,8.71,8.71,0,0,0-2.6,2.08,9.56,9.56,0,0,0-1.67,2.87,8.79,8.79,0,0,0-.6,3.11,7.18,7.18,0,0,0,.39,2.42,5.49,5.49,0,0,0,1.16,1.92,5.08,5.08,0,0,0,1.91,1.25,7.23,7.23,0,0,0,2.6.44A7.14,7.14,0,0,0,227.25,1270.87Zm17.84-18.5h4.81l6.91,15.08,4.07-15.08H266l-6.37,23.71h-4.44L248,1260.54l-4.17,15.54h-5.14Zm34.49-.17h5l3.76,23.88H283l-.75-5.31h-10l-3.6,5.31H263Zm2.06,13.93-1.08-7.83-5.22,7.83Zm16-13.76h5.42l3.42,10,8.84-10h6L315,1276.08h-5.28l4.13-15.48-9.28,10.13h-.14l-3.79-10-4.13,15.37h-5.22Zm29.4,0h17.72l-1.26,4.64H331l-1.29,4.85h11l-1.25,4.57h-11l-1.35,5H339.8l-1.25,4.64H320.66Zm22.53,0h4.81l6.91,15.08,4.06-15.08h5.15l-6.37,23.71h-4.43l-7.19-15.54-4.16,15.54h-5.15Zm30.31,4.81h-7.21l1.29-4.81h19.64l-1.29,4.81h-7.21l-5.08,18.9h-5.22Zm17.55-4.81h5.22l-6.37,23.71h-5.22Zm-230.37,33.88H174a16.39,16.39,0,0,1,5.69.84,10,10,0,0,1,3.59,2.21,9.36,9.36,0,0,1,2.58,6.94,13,13,0,0,1-3.9,9.35,14,14,0,0,1-5.21,3.25,21.06,21.06,0,0,1-7.22,1.12h-8.81Zm3.08,19a13.17,13.17,0,0,0,4.44-.73,9.06,9.06,0,0,0,3.49-2.15,7.9,7.9,0,0,0,1.76-2.68,8.58,8.58,0,0,0,.61-3.25,5.07,5.07,0,0,0-1.39-3.76,5.64,5.64,0,0,0-2.1-1.25,10,10,0,0,0-3.35-.47h-2.54l-3.86,14.29Zm23.51-19h5.22L192.49,1310h-5.22Zm4,19.68,3.93-3.32a10.72,10.72,0,0,0,3,2.32,8,8,0,0,0,3.62.79,4.64,4.64,0,0,0,2.61-.67,2.06,2.06,0,0,0,1-1.8,1.7,1.7,0,0,0-.18-.79,2.35,2.35,0,0,0-.65-.72,7.76,7.76,0,0,0-1.23-.74c-.52-.26-1.18-.55-2-.86s-1.5-.67-2.2-1a8.42,8.42,0,0,1-1.86-1.32,6.06,6.06,0,0,1-1.29-1.74,5.38,5.38,0,0,1-.47-2.31,6.86,6.86,0,0,1,.76-3.27,7.68,7.68,0,0,1,2-2.45,9.3,9.3,0,0,1,3-1.56,11.88,11.88,0,0,1,3.6-.54,12.68,12.68,0,0,1,5.22.95,11.26,11.26,0,0,1,3.66,2.57l-3.59,3.59a11.8,11.8,0,0,0-2.66-1.9,6.89,6.89,0,0,0-3-.64,3.84,3.84,0,0,0-2.56.76,2.18,2.18,0,0,0-.9,1.65,1.63,1.63,0,0,0,.21.83,2.39,2.39,0,0,0,.67.69,8.23,8.23,0,0,0,1.27.71c.53.25,1.21.54,2,.88a21.41,21.41,0,0,1,2.25,1.09,8.21,8.21,0,0,1,1.8,1.32,5.36,5.36,0,0,1,1.64,4,7,7,0,0,1-.78,3.34,7.8,7.8,0,0,1-2.07,2.49,8.92,8.92,0,0,1-3,1.54,12.16,12.16,0,0,1-3.58.53Q201.06,1310.3,197.67,1305.93Zm28.66-19.68h7.52a14.64,14.64,0,0,1,4.35.56,7.33,7.33,0,0,1,3.1,1.84,6.6,6.6,0,0,1,1.83,4.88,8.37,8.37,0,0,1-.9,3.93,8.68,8.68,0,0,1-2.44,2.91,11,11,0,0,1-3.64,1.8,16.45,16.45,0,0,1-4.54.61h-4.5l-1.93,7.18H220Zm5.55,12a7.2,7.2,0,0,0,4.2-1.1,3.58,3.58,0,0,0,1.6-3.13,2.64,2.64,0,0,0-.78-2,3.27,3.27,0,0,0-1.31-.8,6.29,6.29,0,0,0-2-.25h-3.38l-1.93,7.24Zm19.48,11.37a9.86,9.86,0,0,1-5.62-5.56,10.87,10.87,0,0,1-.78-4.15,13.46,13.46,0,0,1,1-5.16,14.34,14.34,0,0,1,2.91-4.49,14.62,14.62,0,0,1,4.51-3.17,13.82,13.82,0,0,1,5.81-1.2,12,12,0,0,1,4.44.8,9.88,9.88,0,0,1,5.62,5.55,10.91,10.91,0,0,1,.78,4.15,13.56,13.56,0,0,1-1,5.17,14,14,0,0,1-2.91,4.49,14.6,14.6,0,0,1-4.5,3.16,13.82,13.82,0,0,1-5.81,1.2A11.9,11.9,0,0,1,251.36,1309.57Zm8.44-4.83a8.6,8.6,0,0,0,2.61-2.08,9.86,9.86,0,0,0,1.67-2.86,9.05,9.05,0,0,0,.59-3.12,7.18,7.18,0,0,0-.39-2.42,5.43,5.43,0,0,0-1.16-1.92,5,5,0,0,0-1.9-1.25,7.28,7.28,0,0,0-2.61-.44,7.17,7.17,0,0,0-3.4.81,8.74,8.74,0,0,0-2.6,2.09,9.51,9.51,0,0,0-1.67,2.86,8.79,8.79,0,0,0-.6,3.11,7.24,7.24,0,0,0,.39,2.43,5.54,5.54,0,0,0,1.16,1.91,5.08,5.08,0,0,0,1.91,1.25,7.05,7.05,0,0,0,2.6.44A7.14,7.14,0,0,0,259.8,1304.74Zm17.84-18.49h4.82l6.9,15.07,4.07-15.07h5.15L292.21,1310h-4.44l-7.18-15.55L276.43,1310h-5.15Zm26.87,0h5.21L303.35,1310h-5.21Zm11.14,0h9.21a12.7,12.7,0,0,1,3.61.45A7.28,7.28,0,0,1,331,1288a5,5,0,0,1,1.46,1.85,5.64,5.64,0,0,1,.47,2.25,5.41,5.41,0,0,1-1.39,3.86,7,7,0,0,1-3.69,2,6.38,6.38,0,0,1,2.41,1.83,4.7,4.7,0,0,1,.91,3,6.31,6.31,0,0,1-.68,2.92,6.67,6.67,0,0,1-2,2.29,9.53,9.53,0,0,1-3.19,1.49,16.39,16.39,0,0,1-4.37.53H309.28Zm6.06,19.13a5.33,5.33,0,0,0,3.1-.79,2.53,2.53,0,0,0,1.14-2.19,1.91,1.91,0,0,0-.82-1.64,4.16,4.16,0,0,0-2.44-.59H317l-1.39,5.21Zm1.7-9.58a6,6,0,0,0,3.15-.69,2.37,2.37,0,0,0,1.11-2.17,1.84,1.84,0,0,0-.77-1.51,4.08,4.08,0,0,0-2.51-.61h-4.91l-1.32,5Zm16.76-9.55h5.22L339,1310h-5.21Zm11.15,0h5.21l-5.08,19h11.82L362,1310H345Zm21.44,0H378L371.61,1310h-5.22Z" style="fill: #ff2a00"/>
      <path d="M177,1764.76h8.64a14.66,14.66,0,0,1,4.49.6,7.33,7.33,0,0,1,3,1.77,6.48,6.48,0,0,1,1.83,4.78,7.82,7.82,0,0,1-1.93,5.4,10.61,10.61,0,0,1-5.73,3.07l4,8.09h-5.92l-3.66-7.58h-3.9l-2,7.58h-5.22Zm6.78,11.49A9.62,9.62,0,0,0,186,1776a6,6,0,0,0,1.83-.74,3.81,3.81,0,0,0,1.22-1.21,3.23,3.23,0,0,0,.44-1.7,2.53,2.53,0,0,0-.75-1.89,4.85,4.85,0,0,0-3.45-1H181l-1.83,6.78Zm18.09-11.49h5.21l-6.37,23.71h-5.21Zm4,19.68,3.93-3.32a10.5,10.5,0,0,0,3,2.32,7.87,7.87,0,0,0,3.62.8,4.6,4.6,0,0,0,2.61-.68,2.06,2.06,0,0,0,1-1.79,1.63,1.63,0,0,0-.19-.8,2.28,2.28,0,0,0-.64-.71,7.59,7.59,0,0,0-1.24-.75c-.52-.25-1.17-.54-2-.86a23.42,23.42,0,0,1-2.2-1,9.1,9.1,0,0,1-1.87-1.32,5.77,5.77,0,0,1-1.28-1.75,5.16,5.16,0,0,1-.48-2.3A7,7,0,0,1,211,1769a7.71,7.71,0,0,1,2.05-2.46,9.48,9.48,0,0,1,3-1.55,11.91,11.91,0,0,1,3.61-.55,12.91,12.91,0,0,1,5.22.95,11.14,11.14,0,0,1,3.65,2.58l-3.59,3.59a11.28,11.28,0,0,0-2.66-1.9,6.76,6.76,0,0,0-3-.64,3.84,3.84,0,0,0-2.56.76,2.19,2.19,0,0,0-.89,1.64,1.6,1.6,0,0,0,.2.83,2.34,2.34,0,0,0,.68.7,8.61,8.61,0,0,0,1.27.71c.53.25,1.2.54,2,.88a22.69,22.69,0,0,1,2.26,1.08,9.12,9.12,0,0,1,1.79,1.32,5.6,5.6,0,0,1,1.2,1.73,5.41,5.41,0,0,1,.44,2.27,7.18,7.18,0,0,1-.77,3.34,7.93,7.93,0,0,1-2.07,2.49,9.26,9.26,0,0,1-3,1.54,12.09,12.09,0,0,1-3.57.52Q209.28,1788.81,205.89,1784.44Zm28.65-19.68h7.52a14.93,14.93,0,0,1,4.35.56,7.35,7.35,0,0,1,3.1,1.85,6.58,6.58,0,0,1,1.83,4.88,8.36,8.36,0,0,1-.9,3.92,8.59,8.59,0,0,1-2.43,2.92,10.77,10.77,0,0,1-3.64,1.79,16.18,16.18,0,0,1-4.54.61h-4.51l-1.93,7.18h-5.22Zm5.56,12a7.27,7.27,0,0,0,4.2-1.1,3.58,3.58,0,0,0,1.59-3.13,2.68,2.68,0,0,0-.78-2,3.33,3.33,0,0,0-1.3-.79,6.26,6.26,0,0,0-1.95-.26h-3.39l-1.93,7.25Zm23.47-12.13h5l3.76,23.88H267l-.74-5.31h-10l-3.59,5.31H247Zm2.07,13.93-1.09-7.83-5.21,7.83Zm16-13.76h8.64a14.66,14.66,0,0,1,4.49.6,7.33,7.33,0,0,1,3,1.77,6.48,6.48,0,0,1,1.83,4.78,7.82,7.82,0,0,1-1.93,5.4,10.58,10.58,0,0,1-5.72,3.07l4,8.09h-5.93l-3.66-7.58h-3.89l-2,7.58h-5.21Zm6.78,11.49a9.62,9.62,0,0,0,2.27-.26,6,6,0,0,0,1.83-.74,3.71,3.71,0,0,0,1.22-1.21,3.23,3.23,0,0,0,.44-1.7,2.53,2.53,0,0,0-.75-1.89,4.82,4.82,0,0,0-3.45-1h-4.37l-1.83,6.78Zm17.85-11.49h5.42l3.42,10,8.84-10h6l-6.37,23.71h-5.28l4.13-15.48-9.28,10.13H313l-3.79-10-4.13,15.37h-5.22Zm29.64,0h5.22l-6.37,23.71h-5.22Zm19-.17h5l3.76,23.88h-5.35l-.74-5.31h-10l-3.59,5.31h-5.62Zm2.07,13.93-1.09-7.83-5.21,7.83Z" style="fill: #ff2a00"/>
      <path d="M196.28,2243.11h5l3.76,23.88h-5.35l-.75-5.32h-10l-3.59,5.32h-5.62Zm2.07,13.92-1.08-7.82-5.22,7.82Zm16-13.75h5.22l-5.09,19H226.3L225,2267H208Zm21.2,0h5.22l-5.08,19H247.5l-1.29,4.74h-17Zm21.21,0h17.71l-1.25,4.64H260.68l-1.29,4.84h11l-1.25,4.58h-11l-1.36,5h12.74l-1.26,4.64H250.38Zm22.52,0h4.81l6.91,15.07,4.07-15.07h5.15L293.84,2267H289.4l-7.18-15.55L278.05,2267H272.9Zm34.49-.17h5l3.76,23.88h-5.35l-.75-5.32h-10l-3.59,5.32h-5.62Zm2.06,13.92-1.08-7.82-5.22,7.82Zm17-8.94h-7.21l1.28-4.81h19.65l-1.29,4.81H338l-5.08,18.9h-5.22Zm17.55-4.81h5.21L349.19,2267H344Z" style="fill: #ff2a00"/>
      <path d="M744,725.79l3.93-3.32a10.54,10.54,0,0,0,3,2.32,8,8,0,0,0,3.62.8,4.64,4.64,0,0,0,2.61-.68,2.05,2.05,0,0,0,1-1.79,1.74,1.74,0,0,0-.18-.8,2.33,2.33,0,0,0-.65-.71,7,7,0,0,0-1.23-.75c-.52-.25-1.18-.54-2-.86s-1.5-.66-2.2-1a8.76,8.76,0,0,1-1.86-1.32,6,6,0,0,1-1.29-1.75,5.3,5.3,0,0,1-.47-2.3,6.86,6.86,0,0,1,.76-3.27,7.71,7.71,0,0,1,2-2.46,9.48,9.48,0,0,1,3-1.55,11.59,11.59,0,0,1,3.6-.55,12.85,12.85,0,0,1,5.22,1,11.28,11.28,0,0,1,3.66,2.58L763,712.89a11.49,11.49,0,0,0-2.66-1.9,6.76,6.76,0,0,0-3-.64,3.84,3.84,0,0,0-2.56.76,2.16,2.16,0,0,0-.9,1.64,1.6,1.6,0,0,0,.21.83,2.29,2.29,0,0,0,.67.7A9.17,9.17,0,0,0,756,715c.53.25,1.21.54,2,.88A23.6,23.6,0,0,1,760.3,717a8.9,8.9,0,0,1,1.8,1.32,5.77,5.77,0,0,1,1.2,1.73,5.57,5.57,0,0,1,.44,2.27,7.06,7.06,0,0,1-.78,3.34,7.8,7.8,0,0,1-2.07,2.49,9.11,9.11,0,0,1-3,1.54,12.16,12.16,0,0,1-3.58.52Q747.38,730.16,744,725.79Zm30.34,3.71a10.3,10.3,0,0,1-3.53-2.06,9.3,9.3,0,0,1-2.31-3.26,10.68,10.68,0,0,1-.82-4.28,13.07,13.07,0,0,1,1.13-5.4,15,15,0,0,1,3.06-4.53,14.7,14.7,0,0,1,4.56-3.11,13.84,13.84,0,0,1,5.64-1.15,11.27,11.27,0,0,1,5.75,1.35,10.65,10.65,0,0,1,3.74,3.69l-4.3,3a8.89,8.89,0,0,0-2.37-2.37,6.12,6.12,0,0,0-3.46-.88,7.17,7.17,0,0,0-3.13.72,9.42,9.42,0,0,0-5.24,8.46,6,6,0,0,0,.43,2.33,5.25,5.25,0,0,0,1.2,1.82,5.44,5.44,0,0,0,1.83,1.16,6.46,6.46,0,0,0,2.34.41,6.58,6.58,0,0,0,3-.63,13.31,13.31,0,0,0,2.57-1.71l3.39,3.53a15.31,15.31,0,0,1-3.86,2.6,11.78,11.78,0,0,1-5.12,1A13.16,13.16,0,0,1,774.33,729.5Zm22.44-23.39h17.71l-1.25,4.64H800.69l-1.28,4.85h11l-1.26,4.57h-11l-1.35,5h12.74l-1.26,4.64H790.4Zm25.06,23.51a10.4,10.4,0,0,1-3.56-1.88,9.69,9.69,0,0,1-2.54-3.22,10.12,10.12,0,0,1-1-4.59,13.23,13.23,0,0,1,1.11-5.33,14.63,14.63,0,0,1,3.07-4.54,14.85,14.85,0,0,1,4.66-3.17,14.64,14.64,0,0,1,5.93-1.18,15.45,15.45,0,0,1,3.39.34,12.86,12.86,0,0,1,2.71.89,9.57,9.57,0,0,1,2.08,1.31,9.15,9.15,0,0,1,1.51,1.55l-3.86,3.43a9.49,9.49,0,0,0-2.53-2,7.75,7.75,0,0,0-3.71-.8,8.46,8.46,0,0,0-3.54.76,9.24,9.24,0,0,0-2.84,2,9.53,9.53,0,0,0-1.9,2.94,9.23,9.23,0,0,0-.69,3.54,6.1,6.1,0,0,0,.47,2.46,5.1,5.1,0,0,0,1.3,1.78,5.92,5.92,0,0,0,1.94,1.08,7.19,7.19,0,0,0,2.35.37,9.61,9.61,0,0,0,2.42-.27,9.74,9.74,0,0,0,1.81-.64l1.12-3.86H826.3l1.22-4.51h10.3L834.47,728a18.68,18.68,0,0,1-3.85,1.61,16.48,16.48,0,0,1-4.76.63A13.64,13.64,0,0,1,821.83,729.62Zm23.88-23.51h5.22l-5.08,19h11.82l-1.29,4.74h-17Zm21.44,0h5.22L866,729.82h-5.22Zm21.31,0h4.81l6.91,15.08,4.06-15.08h5.15L903,729.82h-4.43l-7.18-15.54-4.17,15.54h-5.15Zm26.62,0H932.8l-1.26,4.64H919l-1.29,4.85h11l-1.25,4.57h-11l-1.35,5h12.73l-1.25,4.64H908.71Zm22.53,0h5.21l-5.08,19h11.82l-1.28,4.74h-17ZM738.86,763.37a10.4,10.4,0,0,1-3.53-2.06,9.37,9.37,0,0,1-2.3-3.25,10.76,10.76,0,0,1-.83-4.29,13.23,13.23,0,0,1,1.13-5.4,14.77,14.77,0,0,1,3.07-4.52,14.56,14.56,0,0,1,4.56-3.12,13.84,13.84,0,0,1,5.64-1.15,11.26,11.26,0,0,1,5.74,1.35,10.52,10.52,0,0,1,3.74,3.7l-4.3,3a9.2,9.2,0,0,0-2.37-2.37,6.09,6.09,0,0,0-3.45-.88,7.09,7.09,0,0,0-3.14.73,9.12,9.12,0,0,0-2.67,2,9.75,9.75,0,0,0-1.87,2.91,9.32,9.32,0,0,0-.69,3.58,6.25,6.25,0,0,0,.42,2.34,5.38,5.38,0,0,0,1.21,1.81,5.32,5.32,0,0,0,1.82,1.17,6.46,6.46,0,0,0,2.34.4,6.69,6.69,0,0,0,3-.62,13.61,13.61,0,0,0,2.58-1.72l3.38,3.53a15.43,15.43,0,0,1-3.86,2.61,11.91,11.91,0,0,1-5.11,1A13.22,13.22,0,0,1,738.86,763.37Zm30.3-23.55h5l3.76,23.88h-5.35l-.75-5.32h-10l-3.59,5.32H752.6Zm2.07,13.92-1.09-7.83-5.22,7.83Zm16-13.76h5.22l-5.08,19h11.82l-1.29,4.75h-17Zm21.21,0h17.71l-1.25,4.65H812.35l-1.29,4.84h11L820.81,754h-11l-1.36,5h12.74l-1.26,4.64H802.05Zm22.52,0h4.81l6.91,15.08L846.73,740h5.15l-6.37,23.72h-4.44l-7.18-15.55-4.17,15.55h-5.15Zm26.59,0h6.91a16.33,16.33,0,0,1,5.69.85,10.1,10.1,0,0,1,3.59,2.2,9.38,9.38,0,0,1,2.58,7,12.9,12.9,0,0,1-3.9,9.35,14.1,14.1,0,0,1-5.21,3.25A21.3,21.3,0,0,1,860,763.7h-8.8Zm3.09,19a13.07,13.07,0,0,0,4.43-.73,9.19,9.19,0,0,0,3.49-2.15,7.76,7.76,0,0,0,1.76-2.68,8.58,8.58,0,0,0,.61-3.25,5.07,5.07,0,0,0-1.39-3.76,5.43,5.43,0,0,0-2.1-1.25,9.9,9.9,0,0,0-3.35-.48h-2.54L857.67,759Zm30.31-19.17h5l3.75,23.88h-5.35l-.74-5.32h-10L880,763.7h-5.62ZM893,753.74l-1.09-7.83-5.21,7.83ZM909,740h8.63a14.66,14.66,0,0,1,4.49.6,7.35,7.35,0,0,1,3,1.78,6.45,6.45,0,0,1,1.83,4.77,7.87,7.87,0,0,1-1.93,5.41,10.63,10.63,0,0,1-5.72,3.06l4,8.1h-5.93l-3.66-7.59h-3.89l-2,7.59h-5.21Zm6.77,11.49a10.18,10.18,0,0,0,2.27-.25,6.06,6.06,0,0,0,1.83-.75,3.71,3.71,0,0,0,1.22-1.21,3.23,3.23,0,0,0,.44-1.7,2.55,2.55,0,0,0-.75-1.89,4.82,4.82,0,0,0-3.45-1H913l-1.83,6.78ZM933.85,740h5.21L932.7,763.7h-5.22Zm13,23.33a9.86,9.86,0,0,1-5.62-5.56,10.87,10.87,0,0,1-.78-4.15,13.46,13.46,0,0,1,1-5.16,14.23,14.23,0,0,1,2.91-4.49,14.62,14.62,0,0,1,4.51-3.17,13.79,13.79,0,0,1,5.81-1.2,12,12,0,0,1,4.44.79,9.86,9.86,0,0,1,5.62,5.56,10.91,10.91,0,0,1,.78,4.15,13.56,13.56,0,0,1-1,5.17,14.3,14.3,0,0,1-2.91,4.48,14.46,14.46,0,0,1-4.5,3.17,13.82,13.82,0,0,1-5.81,1.2A11.9,11.9,0,0,1,946.89,763.31Zm8.44-4.83a8.88,8.88,0,0,0,2.61-2.08,9.78,9.78,0,0,0,1.67-2.87,9,9,0,0,0,.59-3.11,7.18,7.18,0,0,0-.39-2.42,5.34,5.34,0,0,0-1.16-1.92,5,5,0,0,0-1.9-1.25,7.28,7.28,0,0,0-2.61-.44,7.14,7.14,0,0,0-3.4.81,8.59,8.59,0,0,0-2.6,2.09,9.51,9.51,0,0,0-1.67,2.86,8.79,8.79,0,0,0-.6,3.11,7.29,7.29,0,0,0,.39,2.43,5.54,5.54,0,0,0,1.16,1.91,5.08,5.08,0,0,0,1.91,1.25,7,7,0,0,0,2.6.44A7.14,7.14,0,0,0,955.33,758.48ZM741.52,796.55a13.24,13.24,0,0,1-3,1.05,14.14,14.14,0,0,1-3.3.38,11.88,11.88,0,0,1-4.43-.8,10,10,0,0,1-3.43-2.22,10.12,10.12,0,0,1-2.2-3.34,10.82,10.82,0,0,1-.78-4.14,13.48,13.48,0,0,1,1-5.17,14.17,14.17,0,0,1,2.91-4.49,14.62,14.62,0,0,1,4.5-3.17,13.82,13.82,0,0,1,5.81-1.2,11.9,11.9,0,0,1,4.44.8,9.88,9.88,0,0,1,5.62,5.55,10.91,10.91,0,0,1,.78,4.15,13.54,13.54,0,0,1-1,5.24,14.39,14.39,0,0,1-3,4.52l1.9,2.5-4.3,2.85Zm-4.1-3.55a10.66,10.66,0,0,0,1.42-.44l-3.05-4.14,4.31-2.88,2.4,3.87a9.52,9.52,0,0,0,1.21-2.51,8.57,8.57,0,0,0,.42-2.61,7.18,7.18,0,0,0-.39-2.42,5.54,5.54,0,0,0-1.16-1.91,5.1,5.1,0,0,0-1.91-1.26,7.27,7.27,0,0,0-2.6-.44,7,7,0,0,0-3.4.82,8.6,8.6,0,0,0-2.61,2.08,9.73,9.73,0,0,0-1.67,2.86,9,9,0,0,0-.59,3.12,7.18,7.18,0,0,0,.39,2.42,5.39,5.39,0,0,0,1.16,1.91,5.18,5.18,0,0,0,1.9,1.26,7.68,7.68,0,0,0,4.17.27Zm20.81,4.4a7.9,7.9,0,0,1-2.79-1.56,6.57,6.57,0,0,1-1.76-2.5,8.87,8.87,0,0,1-.61-3.39,12.12,12.12,0,0,1,.15-1.85,17.93,17.93,0,0,1,.42-2l3.29-12.29h5.22l-3.42,12.77a10.73,10.73,0,0,0-.28,1.22,9.18,9.18,0,0,0-.1,1.35,3.91,3.91,0,0,0,1,2.85,4.12,4.12,0,0,0,3.09,1.08,5.35,5.35,0,0,0,3.86-1.49,9.53,9.53,0,0,0,2.3-4.4l3.59-13.38h5.22L773.66,788a15.31,15.31,0,0,1-3.65,7,9.39,9.39,0,0,1-3.44,2.18,13.28,13.28,0,0,1-4.63.73A11.91,11.91,0,0,1,758.23,797.4Zm31.93-23.71h5l3.76,23.88h-5.35l-.74-5.32h-10l-3.59,5.32H773.6Zm2.07,13.92-1.09-7.82-5.21,7.82Zm16-13.75H813l6.91,15.07L824,773.86h5.15l-6.37,23.71h-4.44L811.16,782,807,797.57h-5.14Zm26.59,0h6.91a16.09,16.09,0,0,1,5.69.85,9.82,9.82,0,0,1,3.59,2.2,9.36,9.36,0,0,1,2.58,6.94,13.13,13.13,0,0,1-1,5,13.29,13.29,0,0,1-2.92,4.3,14,14,0,0,1-5.21,3.25,21.06,21.06,0,0,1-7.22,1.12h-8.8Zm3.09,19a13.07,13.07,0,0,0,4.43-.73,9.06,9.06,0,0,0,3.49-2.15,7.81,7.81,0,0,0,1.76-2.67,8.63,8.63,0,0,0,.61-3.26,5.11,5.11,0,0,0-1.38-3.76,5.68,5.68,0,0,0-2.11-1.25,10.19,10.19,0,0,0-3.35-.47H838.8l-3.86,14.29Zm25.16,4.32a9.86,9.86,0,0,1-5.62-5.56,10.82,10.82,0,0,1-.78-4.14,13.66,13.66,0,0,1,1-5.17,14.2,14.2,0,0,1,2.92-4.49,14.62,14.62,0,0,1,4.5-3.17,13.82,13.82,0,0,1,5.81-1.2,11.9,11.9,0,0,1,4.44.8A9.88,9.88,0,0,1,881,779.8a10.91,10.91,0,0,1,.78,4.15,13.51,13.51,0,0,1-1,5.17,14.34,14.34,0,0,1-2.91,4.49,14.59,14.59,0,0,1-4.51,3.16,13.83,13.83,0,0,1-5.81,1.21A12,12,0,0,1,863.05,797.18Zm8.45-4.83a8.56,8.56,0,0,0,2.6-2.08,9.64,9.64,0,0,0,1.67-2.86,8.8,8.8,0,0,0,.6-3.12,6.94,6.94,0,0,0-.4-2.42,5.37,5.37,0,0,0-1.15-1.91,5.1,5.1,0,0,0-1.91-1.26,7.27,7.27,0,0,0-2.6-.44,7.1,7.1,0,0,0-3.41.82,8.68,8.68,0,0,0-2.6,2.08,9.73,9.73,0,0,0-1.67,2.86,9,9,0,0,0-.59,3.12,7.18,7.18,0,0,0,.39,2.42,5.39,5.39,0,0,0,1.16,1.91,5.18,5.18,0,0,0,1.9,1.26,7.28,7.28,0,0,0,2.61.44A7.06,7.06,0,0,0,871.5,792.35Zm28-18.49h4.81l6.91,15.07,4.06-15.07h5.15l-6.36,23.71h-4.44L902.45,782l-4.17,15.55h-5.15ZM928,797.18a9.86,9.86,0,0,1-5.62-5.56,10.82,10.82,0,0,1-.78-4.14,13.47,13.47,0,0,1,1-5.17,14.2,14.2,0,0,1,2.92-4.49,14.62,14.62,0,0,1,4.5-3.17,13.82,13.82,0,0,1,5.81-1.2,11.94,11.94,0,0,1,4.44.8,9.88,9.88,0,0,1,5.62,5.55,10.91,10.91,0,0,1,.78,4.15,13.7,13.7,0,0,1-1,5.17,14.2,14.2,0,0,1-2.92,4.49,14.43,14.43,0,0,1-4.5,3.16,13.83,13.83,0,0,1-5.81,1.21A11.9,11.9,0,0,1,928,797.18Zm8.45-4.83a8.68,8.68,0,0,0,2.6-2.08,9.86,9.86,0,0,0,1.67-2.86,9,9,0,0,0,.59-3.12,7.18,7.18,0,0,0-.39-2.42,5.51,5.51,0,0,0-1.15-1.91,5.18,5.18,0,0,0-1.91-1.26,7.27,7.27,0,0,0-2.6-.44,7.07,7.07,0,0,0-3.41.82,8.56,8.56,0,0,0-2.6,2.08A9.51,9.51,0,0,0,927.6,784a8.78,8.78,0,0,0-.59,3.12,6.94,6.94,0,0,0,.39,2.42,5.37,5.37,0,0,0,1.15,1.91,5.22,5.22,0,0,0,1.91,1.26,7.27,7.27,0,0,0,2.6.44A7.07,7.07,0,0,0,936.47,792.35Zm17.84-18.49h4.81L966,788.93l4.06-15.07h5.15l-6.37,23.71h-4.43L957.25,782l-4.16,15.55h-5.15Zm-167.06,33.7h5L796,831.44h-5.35l-.75-5.32h-10l-3.59,5.32h-5.63Zm2.06,13.92-1.08-7.82L783,821.48Zm16-13.75h4.81L817,822.81l4.07-15.08h5.14l-6.36,23.71h-4.44l-7.18-15.54-4.17,15.54h-5.15Zm26.59,0h6.91a16.09,16.09,0,0,1,5.69.85,10,10,0,0,1,3.59,2.2,9.37,9.37,0,0,1,2.58,6.94,13,13,0,0,1-3.9,9.35,14,14,0,0,1-5.21,3.26,21.31,21.31,0,0,1-7.22,1.11h-8.81Zm3.08,19a13.42,13.42,0,0,0,4.44-.72,9.31,9.31,0,0,0,3.49-2.15,7.76,7.76,0,0,0,1.76-2.68,8.62,8.62,0,0,0,.61-3.25,5.06,5.06,0,0,0-1.39-3.76,5.65,5.65,0,0,0-2.1-1.26,10.23,10.23,0,0,0-3.35-.47h-2.54L832,826.73Zm30.32-19.17h5l3.76,23.88h-5.35l-.74-5.32h-10l-3.59,5.32h-5.62Zm2.07,13.92-1.09-7.82-5.21,7.82Zm16-13.75H892a15,15,0,0,1,4.49.59,7.46,7.46,0,0,1,3,1.78,6.46,6.46,0,0,1,1.83,4.78,7.84,7.84,0,0,1-1.93,5.4,10.61,10.61,0,0,1-5.72,3.07l4,8.09h-5.93l-3.66-7.58h-3.9l-2,7.58H877Zm6.78,11.49a9.62,9.62,0,0,0,2.27-.26,6,6,0,0,0,1.83-.74,3.71,3.71,0,0,0,1.22-1.21,3.27,3.27,0,0,0,.44-1.71,2.52,2.52,0,0,0-.75-1.88,4.84,4.84,0,0,0-3.45-1h-4.37l-1.83,6.78ZM908,807.73h17.71l-1.25,4.64H911.9l-1.29,4.85h11l-1.25,4.57h-11l-1.36,5h12.74l-1.25,4.64H901.6Z" style="fill: #ff2a00"/>
      <path d="M750.11,1241.89a10.26,10.26,0,0,1-3.53-2.07,9.15,9.15,0,0,1-2.3-3.25,10.68,10.68,0,0,1-.83-4.28,13.32,13.32,0,0,1,1.13-5.41,15,15,0,0,1,3.06-4.52,14.52,14.52,0,0,1,4.57-3.11,13.85,13.85,0,0,1,5.64-1.16,11.26,11.26,0,0,1,5.74,1.36,10.49,10.49,0,0,1,3.74,3.69l-4.3,3a8.89,8.89,0,0,0-2.37-2.37,6.1,6.1,0,0,0-3.46-.89,7.21,7.21,0,0,0-3.13.73,9,9,0,0,0-2.67,2,9.39,9.39,0,0,0-2.56,6.48,6.25,6.25,0,0,0,.42,2.34,5.12,5.12,0,0,0,1.2,1.81,5.31,5.31,0,0,0,1.83,1.17,6.46,6.46,0,0,0,2.34.41,6.55,6.55,0,0,0,3-.63,14,14,0,0,0,2.57-1.71l3.39,3.52a15.09,15.09,0,0,1-3.86,2.61,11.76,11.76,0,0,1-5.11,1A13.18,13.18,0,0,1,750.11,1241.89Zm22.44-23.39h17.71l-1.25,4.64H776.48l-1.29,4.85h11l-1.25,4.57h-11l-1.36,5h12.74l-1.26,4.64H766.18Zm22.49,0H802a16.13,16.13,0,0,1,5.69.85,10,10,0,0,1,3.59,2.2,9.37,9.37,0,0,1,2.58,6.94,13,13,0,0,1-3.9,9.35,13.81,13.81,0,0,1-5.22,3.25,21,21,0,0,1-7.21,1.12h-8.81Zm3.08,19a13.42,13.42,0,0,0,4.44-.72,9.31,9.31,0,0,0,3.49-2.15,7.9,7.9,0,0,0,1.76-2.68,8.62,8.62,0,0,0,.61-3.25,5.06,5.06,0,0,0-1.39-3.76,5.65,5.65,0,0,0-2.1-1.26,10.23,10.23,0,0,0-3.35-.47H799l-3.87,14.29Zm23.51-19h5.22l-6.37,23.71h-5.22Zm21.54,0h5.22L842,1242.21H836.8Zm11.15,0h5.21l-5.08,19h11.82l-1.28,4.74H848Zm35,4.81h-7.21l1.29-4.81h19.64l-1.28,4.81h-7.22l-5.08,18.9h-5.22ZM907.82,1242a8,8,0,0,1-2.8-1.55,6.83,6.83,0,0,1-1.76-2.51,9,9,0,0,1-.61-3.39,11,11,0,0,1,.16-1.85,17.28,17.28,0,0,1,.42-1.94l3.28-12.3h5.22l-3.42,12.77c-.11.41-.2.81-.27,1.22a8.11,8.11,0,0,0-.1,1.36,3.91,3.91,0,0,0,1,2.84,4.11,4.11,0,0,0,3.08,1.09,5.36,5.36,0,0,0,3.86-1.5,9.34,9.34,0,0,0,2.3-4.4l3.6-13.38H927l-3.79,14.13a15.28,15.28,0,0,1-3.66,7,9.46,9.46,0,0,1-3.44,2.19,13.49,13.49,0,0,1-4.62.73A11.81,11.81,0,0,1,907.82,1242Zm26.64-.22a9.88,9.88,0,0,1-5.62-5.55,10.91,10.91,0,0,1-.78-4.15,13.55,13.55,0,0,1,1-5.17,14.34,14.34,0,0,1,2.91-4.49,14.59,14.59,0,0,1,4.51-3.16,13.79,13.79,0,0,1,5.81-1.21,12,12,0,0,1,4.44.8,10,10,0,0,1,3.42,2.22,10.12,10.12,0,0,1,2.2,3.34,10.84,10.84,0,0,1,.78,4.15,13.47,13.47,0,0,1-1,5.16,14.17,14.17,0,0,1-2.91,4.49,14.62,14.62,0,0,1-4.5,3.17,13.82,13.82,0,0,1-5.81,1.2A11.9,11.9,0,0,1,934.46,1241.82Zm8.44-4.82a8.92,8.92,0,0,0,2.61-2.09,9.73,9.73,0,0,0,1.67-2.86,9,9,0,0,0,.59-3.12,7.23,7.23,0,0,0-.39-2.42,5.39,5.39,0,0,0-1.16-1.91,5,5,0,0,0-1.9-1.25,7.07,7.07,0,0,0-2.61-.45,7.18,7.18,0,0,0-3.4.82,8.56,8.56,0,0,0-2.6,2.08,9.64,9.64,0,0,0-1.67,2.86,8.84,8.84,0,0,0-.6,3.12,7.18,7.18,0,0,0,.39,2.42,5.58,5.58,0,0,0,1.16,1.92,5.08,5.08,0,0,0,1.91,1.25,7.27,7.27,0,0,0,2.6.44A7.14,7.14,0,0,0,942.9,1237Zm-222,15.2h5l3.76,23.88h-5.36l-.74-5.31h-10l-3.59,5.31h-5.62Zm2.07,13.93-1.08-7.83-5.22,7.83Zm16-13.76h9.21a12.73,12.73,0,0,1,3.61.46,7.27,7.27,0,0,1,2.49,1.25,5,5,0,0,1,1.45,1.86,5.85,5.85,0,0,1-.91,6.11,7,7,0,0,1-3.69,2,6.45,6.45,0,0,1,2.4,1.83,4.68,4.68,0,0,1,.92,3,6.34,6.34,0,0,1-.68,2.92,6.68,6.68,0,0,1-2,2.29,9.47,9.47,0,0,1-3.18,1.49,16.42,16.42,0,0,1-4.37.52H732.58Zm6.06,19.14a5.33,5.33,0,0,0,3.1-.79,2.52,2.52,0,0,0,1.13-2.19,1.91,1.91,0,0,0-.81-1.64,4.08,4.08,0,0,0-2.44-.59h-5.72l-1.39,5.21Zm1.69-9.58a6,6,0,0,0,3.15-.69,2.36,2.36,0,0,0,1.12-2.17,1.86,1.86,0,0,0-.78-1.52,4.12,4.12,0,0,0-2.5-.6h-4.92l-1.32,5Zm16.53-9.56h9.22a12.6,12.6,0,0,1,3.6.46,7.09,7.09,0,0,1,2.49,1.25,5,5,0,0,1,1.46,1.86,5.92,5.92,0,0,1-.91,6.11,7,7,0,0,1-3.7,2,6.41,6.41,0,0,1,2.41,1.83,4.67,4.67,0,0,1,.91,3,6.34,6.34,0,0,1-.67,2.92,6.79,6.79,0,0,1-2,2.29,9.57,9.57,0,0,1-3.18,1.49,16.47,16.47,0,0,1-4.37.52H756.87Zm6.07,19.14a5.33,5.33,0,0,0,3.1-.79,2.54,2.54,0,0,0,1.13-2.19,1.91,1.91,0,0,0-.81-1.64,4.11,4.11,0,0,0-2.44-.59h-5.73l-1.38,5.21Zm1.69-9.58a6,6,0,0,0,3.15-.69,2.36,2.36,0,0,0,1.12-2.17,1.86,1.86,0,0,0-.78-1.52,4.16,4.16,0,0,0-2.51-.6h-4.91l-1.32,5Zm18.43,13.76a10.14,10.14,0,0,1-3.42-2.21,9.81,9.81,0,0,1-2.2-3.34A10.91,10.91,0,0,1,783,1266a13.46,13.46,0,0,1,1-5.16,14.23,14.23,0,0,1,2.91-4.49,14.62,14.62,0,0,1,4.51-3.17,13.79,13.79,0,0,1,5.81-1.2,11.88,11.88,0,0,1,4.43.79,9.82,9.82,0,0,1,3.42,2.22,10,10,0,0,1,2.21,3.34,10.87,10.87,0,0,1,.78,4.15,13.47,13.47,0,0,1-1,5.16,14.23,14.23,0,0,1-2.91,4.49,14.5,14.5,0,0,1-4.51,3.17,13.78,13.78,0,0,1-5.8,1.2A11.7,11.7,0,0,1,789.42,1275.69Zm8.44-4.82a8.88,8.88,0,0,0,2.61-2.08,9.66,9.66,0,0,0,1.66-2.87,8.79,8.79,0,0,0,.6-3.11,7.29,7.29,0,0,0-.39-2.43,5.39,5.39,0,0,0-1.16-1.91,5,5,0,0,0-1.9-1.25,7.72,7.72,0,0,0-6,.37,8.88,8.88,0,0,0-2.61,2.08,9.54,9.54,0,0,0-1.66,2.87,8.79,8.79,0,0,0-.6,3.11,7.18,7.18,0,0,0,.39,2.42A5.34,5.34,0,0,0,790,1270a5.08,5.08,0,0,0,1.91,1.25,7.23,7.23,0,0,0,2.6.44A7.14,7.14,0,0,0,797.86,1270.87Zm17.84-18.5h4.81l6.91,15.08,4.07-15.08h5.15l-6.37,23.71h-4.44l-7.18-15.54-4.17,15.54h-5.15Zm34.48-.17h5l3.76,23.88h-5.35l-.75-5.31h-10l-3.59,5.31h-5.62Zm2.07,13.93-1.08-7.83-5.22,7.83Zm16-13.76h5.42l3.42,10,8.84-10h6l-6.37,23.71H880.3l4.13-15.48-9.28,10.13H875l-3.79-10-4.13,15.37h-5.22Zm29.4,0h17.72L914.1,1257H901.57l-1.29,4.85h11l-1.25,4.57H899l-1.36,5h12.74l-1.25,4.64H891.27Zm22.53,0H925l6.91,15.08,4.06-15.08h5.15l-6.37,23.71h-4.44l-7.18-15.54L919,1276.08H913.8Zm30.31,4.81h-7.21l1.28-4.81H964.2l-1.29,4.81H955.7l-5.08,18.9H945.4Zm18.87,18.51a10.14,10.14,0,0,1-3.42-2.21,10,10,0,0,1-2.2-3.34A10.91,10.91,0,0,1,963,1266a13.46,13.46,0,0,1,1-5.16,14.23,14.23,0,0,1,2.91-4.49,14.62,14.62,0,0,1,4.51-3.17,13.79,13.79,0,0,1,5.81-1.2,12,12,0,0,1,4.44.79,10,10,0,0,1,3.42,2.22,10.12,10.12,0,0,1,2.2,3.34,10.87,10.87,0,0,1,.78,4.15,13.47,13.47,0,0,1-1,5.16,14.06,14.06,0,0,1-2.91,4.49,14.46,14.46,0,0,1-4.5,3.17,13.82,13.82,0,0,1-5.81,1.2A11.7,11.7,0,0,1,969.35,1275.69Zm8.44-4.82a8.88,8.88,0,0,0,2.61-2.08,9.91,9.91,0,0,0,1.67-2.87,9,9,0,0,0,.59-3.11,7.29,7.29,0,0,0-.39-2.43,5.39,5.39,0,0,0-1.16-1.91,5,5,0,0,0-1.9-1.25,7.07,7.07,0,0,0-2.61-.44,7.17,7.17,0,0,0-3.4.81,8.71,8.71,0,0,0-2.6,2.08,9.56,9.56,0,0,0-1.67,2.87,8.79,8.79,0,0,0-.6,3.11,7.18,7.18,0,0,0,.39,2.42,5.49,5.49,0,0,0,1.16,1.92,5.08,5.08,0,0,0,1.91,1.25,7.27,7.27,0,0,0,2.6.44A7.14,7.14,0,0,0,977.79,1270.87Zm-203.95,15.38h7.52a14.64,14.64,0,0,1,4.35.56,7.33,7.33,0,0,1,3.1,1.84,6.6,6.6,0,0,1,1.83,4.88,8.37,8.37,0,0,1-.9,3.93,8.68,8.68,0,0,1-2.44,2.91,11,11,0,0,1-3.64,1.8,16.45,16.45,0,0,1-4.54.61h-4.51l-1.93,7.18h-5.21Zm5.55,12a7.2,7.2,0,0,0,4.2-1.1,3.57,3.57,0,0,0,1.59-3.13,2.64,2.64,0,0,0-.78-2,3.17,3.17,0,0,0-1.3-.8,6.29,6.29,0,0,0-2-.25h-3.39l-1.93,7.24Zm17.44-12h17.72l-1.25,4.64H800.76l-1.28,4.84h11l-1.26,4.57h-11l-1.35,5H809.6l-1.25,4.64H790.47Zm22.53,0H828a15,15,0,0,1,4.49.59,7.35,7.35,0,0,1,3,1.78,6.45,6.45,0,0,1,1.83,4.77,7.91,7.91,0,0,1-1.93,5.41,10.6,10.6,0,0,1-5.73,3.06l4,8.1h-5.93l-3.65-7.59h-3.9l-2,7.59H813Zm6.77,11.48a9.57,9.57,0,0,0,2.27-.25,6.32,6.32,0,0,0,1.83-.74,3.65,3.65,0,0,0,1.22-1.22,3.14,3.14,0,0,0,.44-1.7,2.59,2.59,0,0,0-.74-1.89,4.87,4.87,0,0,0-3.46-1h-4.37l-1.83,6.77Zm29.15,12.06a7.81,7.81,0,0,1-2.79-1.56,6.53,6.53,0,0,1-1.76-2.51,8.78,8.78,0,0,1-.61-3.38,12,12,0,0,1,.15-1.85,17.93,17.93,0,0,1,.42-2l3.29-12.29h5.21L855.77,1299c-.11.4-.2.81-.27,1.22a8,8,0,0,0-.1,1.35,3.93,3.93,0,0,0,1.05,2.85,4.11,4.11,0,0,0,3.08,1.08,5.38,5.38,0,0,0,3.86-1.49,9.54,9.54,0,0,0,2.31-4.4l3.59-13.38h5.21l-3.79,14.12a15.27,15.27,0,0,1-3.66,7.05,9.23,9.23,0,0,1-3.44,2.18,13.26,13.26,0,0,1-4.62.73A11.86,11.86,0,0,1,855.28,1309.79ZM880,1286.25h4.81l6.91,15.07,4.06-15.07H901L894.59,1310h-4.44L883,1294.41,878.81,1310h-5.15Zm28.52,23.32a10,10,0,0,1-3.43-2.22,10.12,10.12,0,0,1-2.2-3.34,10.87,10.87,0,0,1-.78-4.15,13.47,13.47,0,0,1,1-5.16,14.27,14.27,0,0,1,7.42-7.66,13.74,13.74,0,0,1,5.8-1.2,11.9,11.9,0,0,1,4.44.8,10,10,0,0,1,3.42,2.22,9.77,9.77,0,0,1,2.2,3.33,10.91,10.91,0,0,1,.78,4.15,13.55,13.55,0,0,1-1,5.17,14.34,14.34,0,0,1-2.91,4.49,14.76,14.76,0,0,1-4.51,3.16,13.79,13.79,0,0,1-5.81,1.2A11.88,11.88,0,0,1,908.55,1309.57Zm8.44-4.83a8.56,8.56,0,0,0,2.6-2.08,9.64,9.64,0,0,0,1.67-2.86,8.84,8.84,0,0,0,.6-3.12,7.18,7.18,0,0,0-.39-2.42,5.58,5.58,0,0,0-1.16-1.92,5.08,5.08,0,0,0-1.91-1.25,7.23,7.23,0,0,0-2.6-.44,7.14,7.14,0,0,0-3.4.81,8.92,8.92,0,0,0-2.61,2.09,9.49,9.49,0,0,0-1.66,2.86,8.79,8.79,0,0,0-.6,3.11,7.24,7.24,0,0,0,.39,2.43,5.39,5.39,0,0,0,1.16,1.91,5,5,0,0,0,1.9,1.25,7.72,7.72,0,0,0,6-.37Zm-179.43,38.7a9.88,9.88,0,0,1-5.62-5.55,10.72,10.72,0,0,1-.78-4.15,13.51,13.51,0,0,1,1-5.17,14.34,14.34,0,0,1,2.91-4.49,14.59,14.59,0,0,1,4.51-3.16,13.79,13.79,0,0,1,5.81-1.21,11.88,11.88,0,0,1,4.43.8,9.82,9.82,0,0,1,3.42,2.22,10,10,0,0,1,2.21,3.33,10.9,10.9,0,0,1,.77,4.15,13.47,13.47,0,0,1-1,5.17,14.34,14.34,0,0,1-2.91,4.49,14.67,14.67,0,0,1-4.51,3.17,13.79,13.79,0,0,1-5.81,1.2A11.88,11.88,0,0,1,737.56,1343.44Zm8.44-4.82a8.92,8.92,0,0,0,2.61-2.09,9.61,9.61,0,0,0,1.66-2.86,8.8,8.8,0,0,0,.6-3.12,7.23,7.23,0,0,0-.39-2.42,5.39,5.39,0,0,0-1.16-1.91,5.18,5.18,0,0,0-1.9-1.26,7.32,7.32,0,0,0-2.61-.44,7,7,0,0,0-3.4.82,8.73,8.73,0,0,0-2.61,2.08,9.61,9.61,0,0,0-1.66,2.86,8.8,8.8,0,0,0-.6,3.12,7.18,7.18,0,0,0,.39,2.42,5.39,5.39,0,0,0,1.16,1.91A5.1,5.1,0,0,0,740,1339a7.23,7.23,0,0,0,2.6.44A7.14,7.14,0,0,0,746,1338.62Zm28-18.5h7.52a15,15,0,0,1,4.36.56,7.5,7.5,0,0,1,3.1,1.84,6.59,6.59,0,0,1,1.82,4.88,8.37,8.37,0,0,1-.89,3.93,8.71,8.71,0,0,1-2.44,2.92,11,11,0,0,1-3.64,1.79,16.13,16.13,0,0,1-4.54.61h-4.51l-1.93,7.18h-5.21Zm5.56,12a7.27,7.27,0,0,0,4.2-1.1,3.6,3.6,0,0,0,1.59-3.14,2.65,2.65,0,0,0-.78-2,3.27,3.27,0,0,0-1.3-.8,6.29,6.29,0,0,0-1.95-.25h-3.39l-1.93,7.25Zm17.68-12h5.22l-6.37,23.71h-5.22Zm12.28,23.54a7.86,7.86,0,0,1-2.8-1.56,6.71,6.71,0,0,1-1.76-2.5,9.06,9.06,0,0,1-.61-3.39,11,11,0,0,1,.16-1.85,17.28,17.28,0,0,1,.42-1.94l3.29-12.3h5.21L810,1332.89c-.11.41-.2.81-.27,1.22a8.11,8.11,0,0,0-.1,1.36,3.91,3.91,0,0,0,1.05,2.84,4.11,4.11,0,0,0,3.08,1.08,5.33,5.33,0,0,0,3.86-1.49,9.34,9.34,0,0,0,2.3-4.4l3.6-13.38h5.21L825,1334.25a15.23,15.23,0,0,1-3.66,7,9.46,9.46,0,0,1-3.44,2.19,13.5,13.5,0,0,1-4.62.72A11.82,11.82,0,0,1,809.52,1343.66Zm4.56-29.47,4.53-1.93,2.21,6h-3.53ZM847,1343.63a10.54,10.54,0,0,1-3.57-1.88,9.69,9.69,0,0,1-2.54-3.22,10.15,10.15,0,0,1-1-4.59,13.23,13.23,0,0,1,1.11-5.33,14.67,14.67,0,0,1,7.73-7.71,14.59,14.59,0,0,1,5.92-1.19,15.94,15.94,0,0,1,3.39.34,13.25,13.25,0,0,1,2.71.9,9.68,9.68,0,0,1,2.08,1.3,9.18,9.18,0,0,1,1.51,1.56l-3.86,3.42a9.61,9.61,0,0,0-2.52-1.94,7.78,7.78,0,0,0-3.71-.8,8.25,8.25,0,0,0-3.54.76,9.3,9.3,0,0,0-2.85,2,9.55,9.55,0,0,0-1.89,3,9.05,9.05,0,0,0-.7,3.54,5.93,5.93,0,0,0,.48,2.46,4.85,4.85,0,0,0,1.3,1.77,5.72,5.72,0,0,0,1.93,1.09,7.23,7.23,0,0,0,2.35.37,9.7,9.7,0,0,0,2.43-.27,10,10,0,0,0,1.81-.64l1.12-3.86h-5.25l1.22-4.51H863L859.6,1342a19.15,19.15,0,0,1-3.84,1.61,16.48,16.48,0,0,1-4.76.63A13.92,13.92,0,0,1,847,1343.63Zm24.11-23.51h5.22l-6.37,23.71h-5.22Zm13,23.32a9.88,9.88,0,0,1-5.62-5.55,10.91,10.91,0,0,1-.78-4.15,13.7,13.7,0,0,1,1-5.17,14.2,14.2,0,0,1,2.92-4.49,14.43,14.43,0,0,1,4.5-3.16,13.83,13.83,0,0,1,5.81-1.21,11.9,11.9,0,0,1,4.44.8,9.88,9.88,0,0,1,5.62,5.55,10.91,10.91,0,0,1,.78,4.15,13.47,13.47,0,0,1-1,5.17,14.34,14.34,0,0,1-2.91,4.49,14.79,14.79,0,0,1-4.51,3.17,13.82,13.82,0,0,1-5.81,1.2A12,12,0,0,1,884.12,1343.44Zm8.45-4.82a8.74,8.74,0,0,0,2.6-2.09,9.64,9.64,0,0,0,1.67-2.86,8.8,8.8,0,0,0,.6-3.12,7,7,0,0,0-.4-2.42,5.37,5.37,0,0,0-1.15-1.91A5.22,5.22,0,0,0,894,1325a7.27,7.27,0,0,0-2.6-.44,7.1,7.1,0,0,0-3.41.82,8.68,8.68,0,0,0-2.6,2.08,9.86,9.86,0,0,0-1.67,2.86,9,9,0,0,0-.59,3.12,7.18,7.18,0,0,0,.39,2.42,5.39,5.39,0,0,0,1.16,1.91,5.06,5.06,0,0,0,1.9,1.26,7.28,7.28,0,0,0,2.61.44A7.17,7.17,0,0,0,892.57,1338.62Zm17.84-18.5h8.64a14.92,14.92,0,0,1,4.48.59,7.56,7.56,0,0,1,3,1.78,6.45,6.45,0,0,1,1.82,4.78,7.86,7.86,0,0,1-1.93,5.4,10.54,10.54,0,0,1-5.72,3.07l4,8.09h-5.93l-3.66-7.59h-3.89l-2,7.59H904Zm6.77,11.48a9.57,9.57,0,0,0,2.27-.25,6,6,0,0,0,1.83-.74,3.71,3.71,0,0,0,1.22-1.21,3.27,3.27,0,0,0,.44-1.71,2.55,2.55,0,0,0-.74-1.88,4.82,4.82,0,0,0-3.46-1h-4.37l-1.83,6.77ZM935,1320.12h4.81l6.91,15.07,4.07-15.07H956l-6.37,23.71h-4.44L938,1328.28l-4.17,15.55h-5.14Zm26.86,0h5.22l-6.37,23.71h-5.21Z" style="fill: #ff2a00"/>
      <path d="M754.31,1788.27a10.44,10.44,0,0,1-3.57-1.88,9.69,9.69,0,0,1-2.54-3.22,10.12,10.12,0,0,1-1-4.59,13.23,13.23,0,0,1,1.11-5.33,14.67,14.67,0,0,1,7.73-7.71,14.59,14.59,0,0,1,5.92-1.18,15.38,15.38,0,0,1,3.39.34,12.67,12.67,0,0,1,2.71.89,9.71,9.71,0,0,1,2.08,1.31,8.78,8.78,0,0,1,1.51,1.55l-3.86,3.43a9.44,9.44,0,0,0-2.52-2,7.78,7.78,0,0,0-3.71-.8,8.25,8.25,0,0,0-3.54.77,9,9,0,0,0-2.85,2,9.51,9.51,0,0,0-1.89,2.94,9.05,9.05,0,0,0-.7,3.54,5.93,5.93,0,0,0,.48,2.46,5,5,0,0,0,1.3,1.78,5.88,5.88,0,0,0,1.93,1.08,7.23,7.23,0,0,0,2.35.37,9.7,9.7,0,0,0,2.43-.27,10.29,10.29,0,0,0,1.81-.64l1.12-3.86h-5.25l1.21-4.51h10.3l-3.35,11.82a18.68,18.68,0,0,1-3.85,1.61,16.36,16.36,0,0,1-4.75.63A13.59,13.59,0,0,1,754.31,1788.27Zm25,0a7.86,7.86,0,0,1-2.79-1.55,6.74,6.74,0,0,1-1.77-2.51,9,9,0,0,1-.61-3.39,12.05,12.05,0,0,1,.16-1.84,17,17,0,0,1,.42-2l3.29-12.3h5.21l-3.42,12.77c-.11.41-.2.82-.27,1.22a8.11,8.11,0,0,0-.1,1.36,3.91,3.91,0,0,0,1,2.84,4.08,4.08,0,0,0,3.08,1.09,5.38,5.38,0,0,0,3.86-1.49,9.53,9.53,0,0,0,2.31-4.41l3.59-13.38h5.21l-3.79,14.13a15.18,15.18,0,0,1-3.66,7,9.46,9.46,0,0,1-3.44,2.19,13.49,13.49,0,0,1-4.62.73A11.53,11.53,0,0,1,779.32,1788.3Zm32-23.71h5l3.76,23.88H814.7l-.75-5.31h-10l-3.59,5.31h-5.62Zm2.07,13.93-1.09-7.83-5.22,7.83Zm15.95-13.76h6.91a16.37,16.37,0,0,1,5.69.85,10,10,0,0,1,3.59,2.2,9.38,9.38,0,0,1,2.57,7,12.9,12.9,0,0,1-3.89,9.34,14,14,0,0,1-5.22,3.26,21.25,21.25,0,0,1-7.21,1.11h-8.81Zm3.08,19a13.42,13.42,0,0,0,4.44-.73,9.19,9.19,0,0,0,3.49-2.15,7.9,7.9,0,0,0,1.76-2.68,8.62,8.62,0,0,0,.61-3.25,5.07,5.07,0,0,0-1.39-3.76,5.51,5.51,0,0,0-2.1-1.25,9.94,9.94,0,0,0-3.35-.48H833.3l-3.87,14.3Zm30.32-19.18h5l3.76,23.88h-5.35l-.75-5.31h-10l-3.59,5.31h-5.63Zm2.06,13.93-1.08-7.83-5.22,7.83Zm16.67,9.75a10.4,10.4,0,0,1-3.56-1.88,9.57,9.57,0,0,1-2.54-3.22,10,10,0,0,1-1-4.59,13.23,13.23,0,0,1,1.11-5.33,14.7,14.7,0,0,1,13.66-8.89,15.45,15.45,0,0,1,3.39.34,13.05,13.05,0,0,1,2.71.89,10,10,0,0,1,2.08,1.31,9.15,9.15,0,0,1,1.51,1.55l-3.86,3.43a9.65,9.65,0,0,0-2.53-2,7.75,7.75,0,0,0-3.71-.8,8.32,8.32,0,0,0-3.54.77,9,9,0,0,0-2.84,2,9.53,9.53,0,0,0-1.9,2.94,9.23,9.23,0,0,0-.69,3.54,5.93,5.93,0,0,0,.47,2.46,5.1,5.1,0,0,0,1.3,1.78,5.92,5.92,0,0,0,1.94,1.08,7.19,7.19,0,0,0,2.35.37,9.67,9.67,0,0,0,2.42-.27,10,10,0,0,0,1.81-.64l1.12-3.86H885.9l1.22-4.51h10.3l-3.36,11.82a18.36,18.36,0,0,1-3.84,1.61,16.48,16.48,0,0,1-4.76.63A13.64,13.64,0,0,1,881.43,1788.27Zm23.88-23.51h4.81l6.91,15.08,4.06-15.08h5.15l-6.36,23.71h-4.44l-7.18-15.54-4.17,15.54h-5.15Zm34.48-.17h5l3.76,23.88h-5.36l-.74-5.31h-10l-3.59,5.31h-5.62Zm2.07,13.93-1.09-7.83-5.21,7.83Z" style="fill: #ff2a00"/>
      <path d="M764.84,2243.28h8.64a15,15,0,0,1,4.49.59,7.46,7.46,0,0,1,3,1.78,6.46,6.46,0,0,1,1.83,4.78,7.91,7.91,0,0,1-1.93,5.4,10.6,10.6,0,0,1-5.73,3.06l4,8.1h-5.92l-3.66-7.59h-3.9l-2,7.59h-5.22Zm6.78,11.48a9.63,9.63,0,0,0,2.27-.25,6.25,6.25,0,0,0,1.82-.74,3.65,3.65,0,0,0,1.22-1.22,3.14,3.14,0,0,0,.44-1.7,2.55,2.55,0,0,0-.74-1.89,4.87,4.87,0,0,0-3.46-1H768.8l-1.82,6.77Zm18.08-11.48h5.22L788.55,2267h-5.22Zm11.15,0h5.21l-5.08,19h11.83l-1.29,4.74h-17Zm29.06-.17h5l3.76,23.88h-5.35l-.74-5.32h-10L819,2267h-5.62ZM832,2257l-1.09-7.82-5.21,7.82Zm8.53,5.93,3.93-3.32a10.54,10.54,0,0,0,3,2.32,8,8,0,0,0,3.62.8,4.64,4.64,0,0,0,2.61-.68,2.07,2.07,0,0,0,1-1.8,1.71,1.71,0,0,0-.19-.79,2.3,2.3,0,0,0-.64-.71,7.59,7.59,0,0,0-1.24-.75c-.52-.26-1.17-.55-2-.86s-1.5-.66-2.2-1a8.42,8.42,0,0,1-1.86-1.32,6.06,6.06,0,0,1-1.29-1.74,5.35,5.35,0,0,1-.47-2.31,6.82,6.82,0,0,1,.76-3.26,7.71,7.71,0,0,1,2-2.46,9.3,9.3,0,0,1,3-1.56,11.9,11.9,0,0,1,3.61-.54,12.83,12.83,0,0,1,5.21.95,11.26,11.26,0,0,1,3.66,2.57l-3.59,3.59a11.52,11.52,0,0,0-2.66-1.89,6.76,6.76,0,0,0-3-.65,3.89,3.89,0,0,0-2.56.76,2.18,2.18,0,0,0-.9,1.65,1.63,1.63,0,0,0,.21.83,2.27,2.27,0,0,0,.67.69,8.23,8.23,0,0,0,1.27.71c.53.25,1.21.54,2,.88a21.41,21.41,0,0,1,2.25,1.09,8.21,8.21,0,0,1,1.8,1.32,5.36,5.36,0,0,1,1.64,4,7,7,0,0,1-.78,3.33,7.9,7.9,0,0,1-2.06,2.49,9.07,9.07,0,0,1-3,1.54,12.12,12.12,0,0,1-3.58.53Q843.9,2267.33,840.51,2263Zm21.21,0,3.93-3.32a10.64,10.64,0,0,0,3,2.32,8,8,0,0,0,3.63.8,4.58,4.58,0,0,0,2.6-.68,2.07,2.07,0,0,0,1-1.8,1.59,1.59,0,0,0-.19-.79,2.07,2.07,0,0,0-.64-.71,7.59,7.59,0,0,0-1.24-.75c-.52-.26-1.17-.55-2-.86a23.47,23.47,0,0,1-2.2-1,8.73,8.73,0,0,1-1.87-1.32,5.85,5.85,0,0,1-1.28-1.74,5.21,5.21,0,0,1-.48-2.31,6.94,6.94,0,0,1,.76-3.26,7.84,7.84,0,0,1,2.05-2.46,9.3,9.3,0,0,1,3-1.56,11.9,11.9,0,0,1,3.61-.54,12.91,12.91,0,0,1,5.22.95,11.11,11.11,0,0,1,3.65,2.57l-3.59,3.59a11.52,11.52,0,0,0-2.66-1.89,6.7,6.7,0,0,0-3-.65,3.86,3.86,0,0,0-2.55.76,2.18,2.18,0,0,0-.9,1.65,1.73,1.73,0,0,0,.2.83,2.32,2.32,0,0,0,.68.69,7.78,7.78,0,0,0,1.27.71c.53.25,1.2.54,2,.88a20.68,20.68,0,0,1,2.26,1.09,8.14,8.14,0,0,1,1.79,1.32,5.48,5.48,0,0,1,1.2,1.73,5.38,5.38,0,0,1,.44,2.27,7,7,0,0,1-.77,3.33,7.8,7.8,0,0,1-2.07,2.49,9.07,9.07,0,0,1-3,1.54,12.1,12.1,0,0,1-3.57.53Q865.11,2267.33,861.72,2263Zm36.38-19.85h5l3.76,23.88h-5.35l-.75-5.32h-10l-3.59,5.32h-5.62Zm2.06,13.92-1.08-7.82-5.22,7.82Zm17-8.94h-7.21l1.29-4.81h19.64l-1.29,4.81h-7.21l-5.08,18.9h-5.22Zm17.55-4.81h5.21L933.53,2267h-5.22Z" style="fill: #ff2a00"/>
      <path d="M503.38,170.1l3.87-3.27a10.37,10.37,0,0,0,3,2.28,7.75,7.75,0,0,0,3.57.79,4.53,4.53,0,0,0,2.57-.67,2,2,0,0,0,1-1.77,1.66,1.66,0,0,0-.18-.78,2.39,2.39,0,0,0-.64-.7,6.94,6.94,0,0,0-1.22-.74c-.51-.25-1.15-.54-1.93-.85a22.81,22.81,0,0,1-2.17-1,8.46,8.46,0,0,1-1.84-1.3,5.83,5.83,0,0,1-1.26-1.71,5.09,5.09,0,0,1-.47-2.27,6.74,6.74,0,0,1,.75-3.22,7.37,7.37,0,0,1,2-2.42,9.2,9.2,0,0,1,2.95-1.54,11.87,11.87,0,0,1,3.55-.53,12.66,12.66,0,0,1,5.14.93,11.12,11.12,0,0,1,3.61,2.54l-3.54,3.54a10.94,10.94,0,0,0-2.62-1.87,6.58,6.58,0,0,0-3-.64,3.79,3.79,0,0,0-2.52.75,2.13,2.13,0,0,0-.88,1.62,1.66,1.66,0,0,0,.2.82,2.25,2.25,0,0,0,.67.68,7.23,7.23,0,0,0,1.25.7c.52.25,1.18.54,2,.87a21.69,21.69,0,0,1,2.21,1.07,8.27,8.27,0,0,1,1.77,1.3,5.61,5.61,0,0,1,1.19,1.7,5.43,5.43,0,0,1,.43,2.24,6.86,6.86,0,0,1-.77,3.29,7.77,7.77,0,0,1-2,2.45,9.07,9.07,0,0,1-2.95,1.52,12.13,12.13,0,0,1-3.52.51Q506.71,174.4,503.38,170.1Zm29.88,3.65a10.22,10.22,0,0,1-3.47-2,9.16,9.16,0,0,1-2.28-3.21,10.55,10.55,0,0,1-.81-4.22,13,13,0,0,1,1.11-5.32,14.79,14.79,0,0,1,3-4.45,14.16,14.16,0,0,1,4.5-3.07,13.58,13.58,0,0,1,5.55-1.14,11.05,11.05,0,0,1,5.66,1.34,10.51,10.51,0,0,1,3.69,3.63l-4.24,3a8.92,8.92,0,0,0-2.34-2.33,6,6,0,0,0-3.4-.87,7,7,0,0,0-3.09.72,8.9,8.9,0,0,0-2.63,1.93,9.36,9.36,0,0,0-1.84,2.87,9.23,9.23,0,0,0-.68,3.52,6.29,6.29,0,0,0,.41,2.31,5.22,5.22,0,0,0,3,2.93,6.28,6.28,0,0,0,2.3.4,6.38,6.38,0,0,0,2.94-.62,13.89,13.89,0,0,0,2.54-1.68l3.33,3.47a15.14,15.14,0,0,1-3.8,2.57,11.59,11.59,0,0,1-5,1A13.09,13.09,0,0,1,533.26,173.75Zm22.11-23h17.45l-1.24,4.57H559.24L558,160.05h10.84l-1.23,4.51H556.73l-1.33,4.94H568l-1.24,4.57H549.09Zm24.69,23.16a10.37,10.37,0,0,1-3.51-1.85,9.49,9.49,0,0,1-2.5-3.17,9.87,9.87,0,0,1-1-4.52,13,13,0,0,1,1.09-5.26,14.5,14.5,0,0,1,7.61-7.59,14.4,14.4,0,0,1,5.84-1.17,15.56,15.56,0,0,1,3.34.33,13.06,13.06,0,0,1,2.67.89,9.65,9.65,0,0,1,2.05,1.28,9,9,0,0,1,1.49,1.54l-3.81,3.37a9.14,9.14,0,0,0-2.48-1.92,7.69,7.69,0,0,0-3.66-.78,8.18,8.18,0,0,0-3.48.75,9.15,9.15,0,0,0-2.81,2,9.45,9.45,0,0,0-1.87,2.9,9.16,9.16,0,0,0-.68,3.49,5.94,5.94,0,0,0,.47,2.42,4.93,4.93,0,0,0,1.28,1.75,5.81,5.81,0,0,0,1.9,1.07,7.37,7.37,0,0,0,2.32.37,9.37,9.37,0,0,0,2.39-.27,10.05,10.05,0,0,0,1.79-.64l1.1-3.8h-5.18l1.21-4.44h10.14l-3.3,11.65a19.22,19.22,0,0,1-3.79,1.58,16.34,16.34,0,0,1-4.69.62A13.56,13.56,0,0,1,580.06,173.87Zm23.52-23.16h5.14l-5,18.69h11.64l-1.26,4.67H597.31Zm21.13,0h5.14l-6.28,23.36h-5.14Z" style="fill: #e6e6e6"/>
      <path d="M843.27,976.22a3.33,3.33,0,0,1,3.34-3.33h0a3.33,3.33,0,0,1,3.34,3.33h0a3.34,3.34,0,0,1-3.34,3.34h0A3.34,3.34,0,0,1,843.27,976.22Zm0-22.24a3.33,3.33,0,0,1,3.34-3.34h0A3.33,3.33,0,0,1,850,954h0a3.34,3.34,0,0,1-3.34,3.33h0A3.34,3.34,0,0,1,843.27,954Zm0-22.25a3.33,3.33,0,0,1,3.34-3.34h0a3.33,3.33,0,0,1,3.34,3.34h0a3.34,3.34,0,0,1-3.34,3.34h0A3.34,3.34,0,0,1,843.27,931.73Zm0-22.25a3.33,3.33,0,0,1,3.34-3.33h0a3.33,3.33,0,0,1,3.34,3.33h0a3.34,3.34,0,0,1-3.34,3.34h0A3.34,3.34,0,0,1,843.27,909.48Zm0-22.24a3.33,3.33,0,0,1,3.34-3.34h0a3.33,3.33,0,0,1,3.34,3.34h0a3.33,3.33,0,0,1-3.34,3.33h0A3.33,3.33,0,0,1,843.27,887.24Zm0-22.25a3.33,3.33,0,0,1,3.34-3.34h0A3.33,3.33,0,0,1,850,865h0a3.34,3.34,0,0,1-3.34,3.34h0A3.34,3.34,0,0,1,843.27,865Z" style="fill: #fff"/>
      <path d="M843.27,1512.8a3.33,3.33,0,0,1,3.34-3.34h0a3.33,3.33,0,0,1,3.34,3.34h0a3.34,3.34,0,0,1-3.34,3.34h0A3.34,3.34,0,0,1,843.27,1512.8Zm0-22.24a3.33,3.33,0,0,1,3.34-3.34h0a3.33,3.33,0,0,1,3.34,3.34h0a3.34,3.34,0,0,1-3.34,3.33h0A3.34,3.34,0,0,1,843.27,1490.56Zm0-22.25a3.33,3.33,0,0,1,3.34-3.34h0a3.33,3.33,0,0,1,3.34,3.34h0a3.35,3.35,0,0,1-3.34,3.34h0A3.35,3.35,0,0,1,843.27,1468.31Zm0-22.25a3.33,3.33,0,0,1,3.34-3.33h0a3.33,3.33,0,0,1,3.34,3.33h0a3.34,3.34,0,0,1-3.34,3.34h0A3.34,3.34,0,0,1,843.27,1446.06Zm0-22.24a3.33,3.33,0,0,1,3.34-3.34h0a3.33,3.33,0,0,1,3.34,3.34h0a3.34,3.34,0,0,1-3.34,3.33h0A3.34,3.34,0,0,1,843.27,1423.82Zm0-22.25a3.33,3.33,0,0,1,3.34-3.34h0a3.33,3.33,0,0,1,3.34,3.34h0a3.34,3.34,0,0,1-3.34,3.34h0A3.34,3.34,0,0,1,843.27,1401.57Zm0-22.25a3.33,3.33,0,0,1,3.34-3.33h0a3.33,3.33,0,0,1,3.34,3.33h0a3.34,3.34,0,0,1-3.34,3.34h0A3.34,3.34,0,0,1,843.27,1379.32Z" style="fill: #fff"/>
      <path d="M269.22,977a3.33,3.33,0,0,1,3.34-3.34h0a3.33,3.33,0,0,1,3.33,3.34h0a3.34,3.34,0,0,1-3.33,3.33h0A3.34,3.34,0,0,1,269.22,977Zm0-22.25a3.33,3.33,0,0,1,3.34-3.34h0a3.33,3.33,0,0,1,3.33,3.34h0a3.34,3.34,0,0,1-3.33,3.34h0A3.34,3.34,0,0,1,269.22,954.72Zm0-22.24a3.33,3.33,0,0,1,3.34-3.34h0a3.33,3.33,0,0,1,3.33,3.34h0a3.34,3.34,0,0,1-3.33,3.33h0A3.34,3.34,0,0,1,269.22,932.48Zm0-22.25a3.33,3.33,0,0,1,3.34-3.34h0a3.33,3.33,0,0,1,3.33,3.34h0a3.34,3.34,0,0,1-3.33,3.34h0A3.35,3.35,0,0,1,269.22,910.23Zm0-22.25a3.33,3.33,0,0,1,3.34-3.33h0a3.33,3.33,0,0,1,3.33,3.33h0a3.34,3.34,0,0,1-3.33,3.34h0A3.34,3.34,0,0,1,269.22,888Zm0-22.24a3.33,3.33,0,0,1,3.34-3.34h0a3.33,3.33,0,0,1,3.33,3.34h0a3.34,3.34,0,0,1-3.33,3.33h0A3.34,3.34,0,0,1,269.22,865.74Zm0-22.25a3.33,3.33,0,0,1,3.34-3.34h0a3.33,3.33,0,0,1,3.33,3.34h0a3.34,3.34,0,0,1-3.33,3.34h0A3.34,3.34,0,0,1,269.22,843.49Zm0-22.25a3.33,3.33,0,0,1,3.34-3.33h0a3.33,3.33,0,0,1,3.33,3.33h0a3.34,3.34,0,0,1-3.33,3.34h0A3.34,3.34,0,0,1,269.22,821.24Zm0-22.24a3.33,3.33,0,0,1,3.34-3.34h0a3.33,3.33,0,0,1,3.33,3.34h0a3.34,3.34,0,0,1-3.33,3.33h0A3.34,3.34,0,0,1,269.22,799Z" style="fill: #fff"/>
      <path d="M269.22,1520.27a3.33,3.33,0,0,1,3.34-3.34h0a3.33,3.33,0,0,1,3.33,3.34h0a3.34,3.34,0,0,1-3.33,3.33h0A3.34,3.34,0,0,1,269.22,1520.27Zm0-22.25a3.33,3.33,0,0,1,3.34-3.34h0a3.33,3.33,0,0,1,3.33,3.34h0a3.33,3.33,0,0,1-3.33,3.34h0A3.33,3.33,0,0,1,269.22,1498Zm0-22.25a3.33,3.33,0,0,1,3.34-3.33h0a3.33,3.33,0,0,1,3.33,3.33h0a3.34,3.34,0,0,1-3.33,3.34h0A3.34,3.34,0,0,1,269.22,1475.77Zm0-22.24a3.33,3.33,0,0,1,3.34-3.34h0a3.33,3.33,0,0,1,3.33,3.34h0a3.33,3.33,0,0,1-3.33,3.33h0A3.33,3.33,0,0,1,269.22,1453.53Zm0-22.25a3.33,3.33,0,0,1,3.34-3.34h0a3.33,3.33,0,0,1,3.33,3.34h0a3.34,3.34,0,0,1-3.33,3.34h0A3.35,3.35,0,0,1,269.22,1431.28Zm0-22.25a3.33,3.33,0,0,1,3.34-3.33h0a3.33,3.33,0,0,1,3.33,3.33h0a3.33,3.33,0,0,1-3.33,3.34h0A3.33,3.33,0,0,1,269.22,1409Zm0-22.24a3.33,3.33,0,0,1,3.34-3.34h0a3.33,3.33,0,0,1,3.33,3.34h0a3.34,3.34,0,0,1-3.33,3.33h0A3.34,3.34,0,0,1,269.22,1386.79Zm0-22.25a3.33,3.33,0,0,1,3.34-3.34h0a3.33,3.33,0,0,1,3.33,3.34h0a3.33,3.33,0,0,1-3.33,3.34h0A3.33,3.33,0,0,1,269.22,1364.54Zm0-22.24a3.33,3.33,0,0,1,3.34-3.34h0a3.33,3.33,0,0,1,3.33,3.34h0a3.33,3.33,0,0,1-3.33,3.33h0A3.33,3.33,0,0,1,269.22,1342.3Z" style="fill: #fff"/>
      <path d="M269.22,2001.74a3.33,3.33,0,0,1,3.34-3.34h0a3.33,3.33,0,0,1,3.33,3.34h0a3.34,3.34,0,0,1-3.33,3.34h0A3.35,3.35,0,0,1,269.22,2001.74Zm0-22.25a3.33,3.33,0,0,1,3.34-3.33h0a3.33,3.33,0,0,1,3.33,3.33h0a3.34,3.34,0,0,1-3.33,3.34h0A3.34,3.34,0,0,1,269.22,1979.49Zm0-22.24a3.33,3.33,0,0,1,3.34-3.34h0a3.33,3.33,0,0,1,3.33,3.34h0a3.34,3.34,0,0,1-3.33,3.33h0A3.34,3.34,0,0,1,269.22,1957.25Zm0-22.25a3.33,3.33,0,0,1,3.34-3.34h0a3.33,3.33,0,0,1,3.33,3.34h0a3.33,3.33,0,0,1-3.33,3.34h0A3.33,3.33,0,0,1,269.22,1935Zm0-22.25a3.33,3.33,0,0,1,3.34-3.33h0a3.33,3.33,0,0,1,3.33,3.33h0a3.33,3.33,0,0,1-3.33,3.34h0A3.33,3.33,0,0,1,269.22,1912.75Zm0-22.24a3.33,3.33,0,0,1,3.34-3.34h0a3.33,3.33,0,0,1,3.33,3.34h0a3.34,3.34,0,0,1-3.33,3.34h0A3.34,3.34,0,0,1,269.22,1890.51Zm0-22.25a3.34,3.34,0,0,1,3.34-3.34h0a3.34,3.34,0,0,1,3.33,3.34h0a3.34,3.34,0,0,1-3.33,3.34h0A3.34,3.34,0,0,1,269.22,1868.26Zm0-22.24a3.33,3.33,0,0,1,3.34-3.34h0a3.33,3.33,0,0,1,3.33,3.34h0a3.34,3.34,0,0,1-3.33,3.33h0A3.34,3.34,0,0,1,269.22,1846Zm0-22.25a3.33,3.33,0,0,1,3.34-3.34h0a3.33,3.33,0,0,1,3.33,3.34h0a3.33,3.33,0,0,1-3.33,3.34h0A3.33,3.33,0,0,1,269.22,1823.77Z" style="fill: #fff"/>
      <path d="M843.27,2001.74a3.33,3.33,0,0,1,3.34-3.34h0a3.33,3.33,0,0,1,3.34,3.34h0a3.33,3.33,0,0,1-3.34,3.34h0A3.33,3.33,0,0,1,843.27,2001.74Zm0-22.25a3.33,3.33,0,0,1,3.34-3.33h0a3.33,3.33,0,0,1,3.34,3.33h0a3.34,3.34,0,0,1-3.34,3.34h0A3.34,3.34,0,0,1,843.27,1979.49Zm0-22.24a3.33,3.33,0,0,1,3.34-3.34h0a3.33,3.33,0,0,1,3.34,3.34h0a3.34,3.34,0,0,1-3.34,3.33h0A3.34,3.34,0,0,1,843.27,1957.25Zm0-22.25a3.33,3.33,0,0,1,3.34-3.34h0A3.33,3.33,0,0,1,850,1935h0a3.33,3.33,0,0,1-3.34,3.34h0A3.33,3.33,0,0,1,843.27,1935Zm0-22.25a3.33,3.33,0,0,1,3.34-3.33h0a3.33,3.33,0,0,1,3.34,3.33h0a3.34,3.34,0,0,1-3.34,3.34h0A3.34,3.34,0,0,1,843.27,1912.75Zm0-22.24a3.33,3.33,0,0,1,3.34-3.34h0a3.33,3.33,0,0,1,3.34,3.34h0a3.34,3.34,0,0,1-3.34,3.34h0A3.34,3.34,0,0,1,843.27,1890.51Zm0-22.25a3.34,3.34,0,0,1,3.34-3.34h0a3.34,3.34,0,0,1,3.34,3.34h0a3.34,3.34,0,0,1-3.34,3.34h0A3.34,3.34,0,0,1,843.27,1868.26Zm0-22.24a3.33,3.33,0,0,1,3.34-3.34h0A3.33,3.33,0,0,1,850,1846h0a3.33,3.33,0,0,1-3.34,3.33h0A3.33,3.33,0,0,1,843.27,1846Zm0-22.25a3.33,3.33,0,0,1,3.34-3.34h0a3.33,3.33,0,0,1,3.34,3.34h0a3.33,3.33,0,0,1-3.34,3.34h0A3.33,3.33,0,0,1,843.27,1823.77Z" style="fill: #fff"/>
      <g>
        <path d="M940.34,1100.33h.55A92.89,92.89,0,1,1,848,1007.44a92.89,92.89,0,0,1,92.89,92.89h-1.11A91.78,91.78,0,1,0,848,1192.11a91.9,91.9,0,0,0,91.78-91.78Z" style="fill: url(#linear-gradient)"/>
        <rect x="793.8" y="1057.92" width="108.39" height="84.83" rx="7.17" ry="7.17" style="fill: none;stroke: #fff;stroke-miterlimit: 10;stroke-width: 2px"/>
        <rect x="816.25" y="1057.92" width="23.89" height="84.83" style="fill: none;stroke: #fff;stroke-miterlimit: 10;stroke-width: 2px"/>
        <line x1="853.47" y1="1100.33" x2="888.87" y2="1100.33" style="fill: none;stroke: #fff;stroke-miterlimit: 10;stroke-width: 2px"/>
      </g>
      <g>
        <path d="M360.51,1646.59h.56a92.89,92.89,0,1,1-92.89-92.89,92.89,92.89,0,0,1,92.89,92.89H360a91.78,91.78,0,1,0-91.78,91.79A91.9,91.9,0,0,0,360,1646.59Z" style="fill: url(#linear-gradient-2)"/>
        <path d="M268.18,1686.91c-12,0-21.77-8.51-21.77-19s9.77-19,21.77-19,21.77,8.52,21.77,19-9.77,19-21.77,19m0-34.23c-9.95,0-18,6.84-18,15.25s8.09,15.25,18,15.25,18-6.84,18-15.25-8.09-15.25-18-15.25" style="fill: #fff"/>
        <path d="M275.22,1676.06c-3.51,0-6.25-3.37-6.36-7.85H267.5c-.11,4.48-2.85,7.85-6.36,7.85s-6.39-3.57-6.39-8.13,2.81-8.13,6.39-8.13,6.25,3.38,6.36,7.85h1.36c.11-4.47,2.85-7.85,6.36-7.85s6.39,3.57,6.39,8.13-2.81,8.13-6.39,8.13m0-12.53c-1.26,0-2.66,1.81-2.66,4.4s1.4,4.41,2.66,4.41,2.66-1.81,2.66-4.41-1.4-4.4-2.66-4.4m-14.08,0c-1.26,0-2.66,1.81-2.66,4.4s1.4,4.41,2.66,4.41,2.66-1.81,2.66-4.41-1.4-4.4-2.66-4.4" style="fill: #fff"/>
        <path d="M270.45,1627.85c-4.78,0-10.51-2.2-12.27-8.36L258,1619h-3.1v-1.91h2.71V1614h-2.71v-1.92H258l.15-.48c1.82-6.17,7.49-8.36,12.19-8.36a16,16,0,0,1,6.7,1.4v3.57a11.84,11.84,0,0,0-5.74-1.44c-3.65,0-6.71,1.61-8.19,4.31l-.55,1h9.71V1614H262l-.07.59a7.71,7.71,0,0,0,0,1,7.79,7.79,0,0,0,0,1l.07.59H272.3V1619h-9.75l.55,1c1.47,2.68,4.53,4.28,8.19,4.28a11.28,11.28,0,0,0,5.78-1.48v3.63a16.26,16.26,0,0,1-6.62,1.41" style="fill: #fff"/>
        <path d="M268.18,1703.84c-31,0-56.25-21.81-56.25-48.62,0-18.07,11.49-34.54,30-43l.33-.16.06-.36a26.14,26.14,0,0,1,51.74,0l.05.36.34.16c18.5,8.44,30,24.91,30,43,0,26.81-25.24,48.62-56.25,48.62m-27.1-87.08c-15.92,8.18-25.42,22.56-25.42,38.46,0,24.75,23.56,44.89,52.52,44.89s52.52-20.14,52.52-44.89c0-15.9-9.5-30.28-25.42-38.46l-.92-.47-.07,1a26.07,26.07,0,0,1-2.45,9.37l-.32.68.71.25a4.63,4.63,0,0,1,3.11,4.36v3.68a4.64,4.64,0,0,1-4.64,4.64h-45a4.64,4.64,0,0,1-4.64-4.64V1632a4.62,4.62,0,0,1,3.12-4.36l.71-.25-.32-.68a25.93,25.93,0,0,1-2.46-9.37l-.08-1ZM289,1631.33a25.61,25.61,0,0,1-3.8,4.05l-1.38,1.19h6.86a.91.91,0,0,0,.91-.91V1632a.92.92,0,0,0-.91-.92h-1.47Zm-29.52,5.24H276l.12,0a22.44,22.44,0,1,0-16.55-.24Zm-13.84-5.51a.92.92,0,0,0-.92.92v3.68a.91.91,0,0,0,.92.91h6.88l-1.38-1.19a26.51,26.51,0,0,1-3.8-4.05l-.21-.27Z" style="fill: #fff"/>
      </g>
      <g>
        <path d="M939.79,1646.59h.56a92.89,92.89,0,1,1-92.89-92.89,92.89,92.89,0,0,1,92.89,92.89h-1.11a91.78,91.78,0,1,0-91.78,91.79,91.9,91.9,0,0,0,91.78-91.79Z" style="fill: url(#linear-gradient-3)"/>
        <path d="M849.72,1622.85c-4.77,0-10.5-2.2-12.26-8.36l-.14-.49h-3.1v-1.91h2.71V1609h-2.71v-1.91h3.09l.15-.48c1.82-6.17,7.5-8.36,12.19-8.36a16,16,0,0,1,6.7,1.4v3.57a11.84,11.84,0,0,0-5.74-1.45c-3.65,0-6.71,1.62-8.19,4.32l-.55,1h9.71V1609H841.31l-.07.6a7.72,7.72,0,0,0,0,1c0,.32,0,.64,0,1l.08.59h10.27V1614h-9.75l.55,1c1.47,2.67,4.53,4.27,8.19,4.27a11.28,11.28,0,0,0,5.78-1.47v3.63a16.27,16.27,0,0,1-6.63,1.41" style="fill: #fff"/>
        <path d="M813.06,1701a22.8,22.8,0,0,1-22.77-22.77v-53.34a10.28,10.28,0,0,1,10.27-10.27h21l-.1-.77a26.55,26.55,0,0,1-.23-3.29,26.19,26.19,0,1,1,52.14,3.29l-.1.77h21a10.27,10.27,0,0,1,10.27,10.27v53.34A22.79,22.79,0,0,1,881.85,1701Zm-19-22.77a19.07,19.07,0,0,0,19,19h68.79a19.08,19.08,0,0,0,19-19v-6.94l-1.07.76a11.25,11.25,0,0,1-6.54,2.1H852.61a11.35,11.35,0,0,1-11.33-11.34v-10a11.35,11.35,0,0,1,11.33-11.34h40.68a11.25,11.25,0,0,1,6.54,2.1l1.07.76v-11.45l-1,.66a10.29,10.29,0,0,1-5.51,1.61H800.56a10.26,10.26,0,0,1-5.5-1.61l-1-.66Zm58.59-33a7.62,7.62,0,0,0-7.61,7.61v10a7.62,7.62,0,0,0,7.61,7.61h40.68a7.62,7.62,0,0,0,7.61-7.61v-10a7.62,7.62,0,0,0-7.61-7.61Zm19.68-26.39a26.32,26.32,0,0,1-7.58,11.43l-1.35,1.19h31a6.55,6.55,0,1,0,0-13.09h-21.9Zm-24.83-30.7a22.45,22.45,0,0,0-8.41,43.27l.12.05h16.57l.12-.05a22.45,22.45,0,0,0-8.4-43.27m-46.9,30.23a6.55,6.55,0,0,0,0,13.09h31l-1.34-1.19a26.45,26.45,0,0,1-7.6-11.44l-.16-.46Z" style="fill: #fff"/>
        <path d="M853.34,1661.59a3.81,3.81,0,1,1,3.81-3.81,3.82,3.82,0,0,1-3.81,3.81" style="fill: #fff"/>
      </g>
      <g>
        <path d="M360.52,2125.11h.55a92.89,92.89,0,1,1-92.89-92.89,92.89,92.89,0,0,1,92.89,92.89H360a91.78,91.78,0,1,0-91.78,91.78A91.89,91.89,0,0,0,360,2125.11Z" style="fill: url(#linear-gradient-4)"/>
        <path d="M271.78,2123.09c.48-10-.58-19.43-7.08-27.56l-1.12.48-18.47,8.32c-3.1,1.39-4.7,1-6.68-1.83a2.35,2.35,0,0,0-1.48-1c-1-.23-2.07-.54-3.1-.82a5.33,5.33,0,0,1-4-6.2c1.08-6.09,2.18-12.18,3.37-18.26a8.26,8.26,0,0,1,8.22-6.47c8,.16,15.91.39,23.87.45a15.24,15.24,0,0,1,10.4,4c17,15.39,31.32,32.91,41.92,53.34a61,61,0,0,1,5.54,14.48c1.93,8.39.61,16.43-3.11,24.11a3.23,3.23,0,0,1-1.63,1.3,183.78,183.78,0,0,1-28.23,9.62,109.73,109.73,0,0,1-29.42,3.41,74.32,74.32,0,0,1-25.46-5.15,1.86,1.86,0,0,0-1.37.07c-1.87.9-3.69,1.89-5.54,2.83a1.91,1.91,0,0,1-2.28-.25,1.67,1.67,0,0,1-.49-2.05,2.67,2.67,0,0,1,1-1.13c2.27-1.23,4.54-2.45,6.87-3.55a2.76,2.76,0,0,1,2,0,69.66,69.66,0,0,0,20.42,5.05,87.84,87.84,0,0,0,18-.22c14.72-1.67,28.64-6.17,42.22-11.85a2.23,2.23,0,0,0,1.05-1.07c3.9-8.77,3.83-17.57.28-26.46a123.14,123.14,0,0,0-12.86-23.53A196.58,196.58,0,0,0,274.2,2078a27,27,0,0,0-3.08-2.32,10.49,10.49,0,0,0-5.81-1.64c-7.92-.11-15.85-.27-23.77-.41a4.35,4.35,0,0,0-4.55,3.67q-1.62,8.57-3.18,17.15c-.33,1.76,0,2.17,1.73,2.65,1.21.33,2.42.68,3.64,1a2.62,2.62,0,0,1,1.89,1.4,4.1,4.1,0,0,0,.36.56c.9,1.3.9,1.3,2.31.66,6.36-2.86,12.71-5.73,19.09-8.56a2.38,2.38,0,0,0,1.46-1.57c.32-1.11.71-2.21,1-3.33.35-1.39,1.19-2.09,2.36-1.88a1.93,1.93,0,0,1,1.43,2.61c-.36,1.43-.82,2.83-1.31,4.22a1.13,1.13,0,0,0,.2,1.27,35.11,35.11,0,0,1,7.49,19.89c.26,3.66.06,7.35.13,11a1.41,1.41,0,0,0,.61,1A38.51,38.51,0,0,1,289,2139.08a2,2,0,0,1,.08,2.38c-.86,1.22-2.47,1-3.36-.26a68.44,68.44,0,0,0-5.13-7.09,26.57,26.57,0,0,0-23.36-9.17,42.52,42.52,0,0,0-16.28,5.33c-1.7.92-2.15.86-3.55-.5-4.28-4.15-9.16-7.28-15.1-8.42a51.88,51.88,0,0,0-6-.56c-.62-.05-1.26,0-1.88,0a1.94,1.94,0,0,1-2.18-1.86,1.91,1.91,0,0,1,2-2,31.83,31.83,0,0,1,10.38.89A33.69,33.69,0,0,1,239,2126a1.06,1.06,0,0,0,1.45.21,45,45,0,0,1,16-5,31.67,31.67,0,0,1,14,1.51l1.31.45" style="fill: #fff"/>
        <path d="M260.31,2163.54a35,35,0,0,1-18.67-5.38c-1.93-1.17-3.72-2.57-5.57-3.87a7.13,7.13,0,0,1-.93-.8,1.89,1.89,0,0,1-.2-2.7,2,2,0,0,1,2.72-.19c.53.39,1,.83,1.55,1.23a36.22,36.22,0,0,0,15.24,7.31,30.65,30.65,0,0,0,18.83-2.53,54.2,54.2,0,0,0,9.67-5.82,2,2,0,0,1,3.25,1.06,2.08,2.08,0,0,1-1.07,2.14,53,53,0,0,1-12.42,7.05,34.28,34.28,0,0,1-12.4,2.5" style="fill: #fff"/>
      </g>
      <g>
        <path d="M940.34,2125.11h.55A92.89,92.89,0,1,1,848,2032.22a92.89,92.89,0,0,1,92.89,92.89h-1.11A91.78,91.78,0,1,0,848,2216.89a91.89,91.89,0,0,0,91.78-91.78Z" style="fill: url(#linear-gradient-5)"/>
        <path d="M844,2130.85c2.14-6.54,4.26-13,6.41-19.59-1.13-.25-2.24-.46-3.33-.74a23.82,23.82,0,0,1-10.22-5,12.85,12.85,0,0,1,.74-20.23,25.69,25.69,0,0,1,10.8-4.45,1.46,1.46,0,0,1,.36,0,16.08,16.08,0,0,0,1.4,10.88c-1,.3-1.93.52-2.82.88a15.73,15.73,0,0,0-2.88,1.42,1.87,1.87,0,0,0-.17,3.26,11.23,11.23,0,0,0,5.47,2.5,47.75,47.75,0,0,0,7.52,1c4.75.15,9.51,0,14.27,0a26.57,26.57,0,0,0,9.86-1.74,13.33,13.33,0,0,0,3.11-1.78,1.77,1.77,0,0,0-.14-3.15,39.69,39.69,0,0,0-4.66-2.06,10.76,10.76,0,0,0-1.06-.31,16.25,16.25,0,0,0,1.35-11c1,.24,2,.42,2.85.66a24.13,24.13,0,0,1,8,3.62c7.34,5.33,7.56,15.26.46,20.92a25.31,25.31,0,0,1-12.52,5.1,3.33,3.33,0,0,0-3.2,2.75c-3.17,9.95-6.53,19.84-9.83,29.75a15.08,15.08,0,0,1-6.48,8.06c-1.81,1.16-3.76,2.1-5.67,3.09q-22.4,11.7-44.81,23.37a6.45,6.45,0,0,1-6.69-11,13,13,0,0,1,1.39-.82c2.87-1.49,5.73-3,8.62-4.43a1.43,1.43,0,0,0,.94-1.51,88.79,88.79,0,0,1,1.37-17.61,36,36,0,0,1,1.87-6.36c1.51-3.71,4.26-5.79,8.44-5.72,5.7.09,11.41.13,17.12.2Zm-17.92,23.49.33.16,20-10.45a2.47,2.47,0,0,0-.06-.29c-1.88,0-3.77,0-5.65,0q-6.23-.09-12.45-.22c-.43,0-.81,0-.89.56C826.93,2147.51,826.49,2150.92,826.06,2154.34Z" style="fill: none;stroke: #fff;stroke-miterlimit: 10;stroke-width: 2px"/>
        <path d="M851.4,2084.48a13,13,0,1,1,13,12.95A13,13,0,0,1,851.4,2084.48Z" style="fill: none;stroke: #fff;stroke-miterlimit: 10;stroke-width: 2px"/>
      </g>
      <line x1="566.51" y1="239.26" x2="566.51" y2="2077.81" style="fill: none;stroke: #e6e6e6;stroke-miterlimit: 10;stroke-width: 2px"/>
      <g>
        <circle cx="268.18" cy="135.01" r="92.34" transform="translate(113.66 392.44) rotate(-85.75)" style="fill: none;stroke: #fff;stroke-miterlimit: 10;stroke-width: 2px"/>
        <rect x="247.3" y="129.08" width="41.75" height="11.86" style="fill: #fff"/>
        <path d="M241.38,172.66a5.92,5.92,0,0,1-5.93-5.92V103.28a5.93,5.93,0,1,1,11.85,0v63.46A5.92,5.92,0,0,1,241.38,172.66Z" style="fill: none;stroke: #fff;stroke-miterlimit: 10;stroke-width: 2px"/>
        <path d="M229.52,162.51a5.94,5.94,0,0,1-5.93-5.93V113.44a5.93,5.93,0,1,1,11.86,0v43.14A5.94,5.94,0,0,1,229.52,162.51Z" style="fill: none;stroke: #fff;stroke-miterlimit: 10;stroke-width: 2px"/>
        <path d="M217.67,154.61a5.92,5.92,0,0,1-5.93-5.93V121.33a5.93,5.93,0,1,1,11.85,0v27.35A5.92,5.92,0,0,1,217.67,154.61Z" style="fill: none;stroke: #fff;stroke-miterlimit: 10;stroke-width: 2px"/>
        <path d="M295,172.66a5.93,5.93,0,0,1-5.93-5.92V103.28a5.93,5.93,0,0,1,11.86,0v63.46A5.93,5.93,0,0,1,295,172.66Z" style="fill: none;stroke: #fff;stroke-miterlimit: 10;stroke-width: 2px"/>
        <path d="M306.84,162.51a5.93,5.93,0,0,1-5.93-5.93V113.44a5.93,5.93,0,1,1,11.85,0v43.14A5.93,5.93,0,0,1,306.84,162.51Z" style="fill: none;stroke: #fff;stroke-miterlimit: 10;stroke-width: 2px"/>
        <path d="M318.69,154.61a5.93,5.93,0,0,1-5.93-5.93V121.33a5.93,5.93,0,1,1,11.86,0v27.35A5.93,5.93,0,0,1,318.69,154.61Z" style="fill: none;stroke: #fff;stroke-miterlimit: 10;stroke-width: 2px"/>
      </g>
      <g>
        <circle cx="848" cy="135.01" r="92.34" transform="translate(152.91 639.17) rotate(-45)" style="fill: none;stroke: #fff;stroke-miterlimit: 10;stroke-width: 2px"/>
        <path d="M847.43,178.65c-2,0-4.13-.07-6.22-.2-8.74-.54-15.24-1.88-21.1-4.33a17.48,17.48,0,0,1-6.64-4.39A6.82,6.82,0,0,1,811.7,165q.06-30,0-60a6.88,6.88,0,0,1,1.86-4.83,18.1,18.1,0,0,1,6.69-4.34,54.71,54.71,0,0,1,14-3.57A91.56,91.56,0,0,1,847,91.37c2.42,0,4.91.09,7.4.27,8.21.6,14.28,1.9,19.7,4.2a29.79,29.79,0,0,1,5.2,2.94,7.37,7.37,0,0,1,3.25,4.62,6.67,6.67,0,0,1,.09,1.27c0,2,0,4,0,6.08v2.68l.62,0a21.68,21.68,0,0,1,20.17,20.34,21.19,21.19,0,0,1-5.32,15.63,21.45,21.45,0,0,1-14.86,7.43l-.61.06v3.5c0,1.59,0,3.17,0,4.76a6.33,6.33,0,0,1-1.52,4.26,15.48,15.48,0,0,1-5.55,4.07,49.21,49.21,0,0,1-13.05,3.86,90.5,90.5,0,0,1-15.13,1.26m-.48-85a87.48,87.48,0,0,0-13.52,1,47.59,47.59,0,0,0-13.24,3.71,27.67,27.67,0,0,0-4.35,2.74,4.75,4.75,0,0,0-1.84,4.07c0,7.57,0,15.14,0,22.71v14.32c0,7.5,0,15,0,22.49a5,5,0,0,0,2,4.25,25.36,25.36,0,0,0,4.09,2.57,51.41,51.41,0,0,0,16.14,4.15,96.39,96.39,0,0,0,11.08.65,92.52,92.52,0,0,0,13.12-.94,47.9,47.9,0,0,0,13.94-3.86,27.41,27.41,0,0,0,4.44-2.89,4.36,4.36,0,0,0,1.62-3.76c0-2.11,0-4.23,0-6.34v-2.39c0-1.21.31-1.52,1.51-1.55a20.18,20.18,0,0,0,9.06-2.3,19.33,19.33,0,0,0,9.74-12.72A19.42,19.42,0,0,0,882,115.78c-1.27,0-1.6-.37-1.6-1.63v-2.54c0-2.09,0-4.18,0-6.27a5.38,5.38,0,0,0-2-4.43,19.12,19.12,0,0,0-5.28-3c-5.3-2.16-11.34-3.41-19-4-2.41-.17-4.8-.25-7.12-.25" style="fill: #fff"/>
        <path d="M847.43,178.65c-2,0-4.13-.07-6.22-.2-8.74-.54-15.24-1.88-21.1-4.33a17.48,17.48,0,0,1-6.64-4.39A6.82,6.82,0,0,1,811.7,165q.06-30,0-60a6.88,6.88,0,0,1,1.86-4.83,18.1,18.1,0,0,1,6.69-4.34,54.71,54.71,0,0,1,14-3.57A91.56,91.56,0,0,1,847,91.37c2.42,0,4.91.09,7.4.27,8.21.6,14.28,1.9,19.7,4.2a29.79,29.79,0,0,1,5.2,2.94,7.37,7.37,0,0,1,3.25,4.62,6.67,6.67,0,0,1,.09,1.27c0,2,0,4,0,6.08v2.68l.62,0a21.68,21.68,0,0,1,20.17,20.34,21.19,21.19,0,0,1-5.32,15.63,21.45,21.45,0,0,1-14.86,7.43l-.61.06v3.5c0,1.59,0,3.17,0,4.76a6.33,6.33,0,0,1-1.52,4.26,15.48,15.48,0,0,1-5.55,4.07,49.21,49.21,0,0,1-13.05,3.86A90.5,90.5,0,0,1,847.43,178.65Zm-.48-85a87.48,87.48,0,0,0-13.52,1,47.59,47.59,0,0,0-13.24,3.71,27.67,27.67,0,0,0-4.35,2.74,4.75,4.75,0,0,0-1.84,4.07c0,7.57,0,15.14,0,22.71v14.32c0,7.5,0,15,0,22.49a5,5,0,0,0,2,4.25,25.36,25.36,0,0,0,4.09,2.57,51.41,51.41,0,0,0,16.14,4.15,96.39,96.39,0,0,0,11.08.65,92.52,92.52,0,0,0,13.12-.94,47.9,47.9,0,0,0,13.94-3.86,27.41,27.41,0,0,0,4.44-2.89,4.36,4.36,0,0,0,1.62-3.76c0-2.11,0-4.23,0-6.34v-2.39c0-1.21.31-1.52,1.51-1.55a20.18,20.18,0,0,0,9.06-2.3,19.33,19.33,0,0,0,9.74-12.72A19.42,19.42,0,0,0,882,115.78c-1.27,0-1.6-.37-1.6-1.63v-2.54c0-2.09,0-4.18,0-6.27a5.38,5.38,0,0,0-2-4.43,19.12,19.12,0,0,0-5.28-3c-5.3-2.16-11.34-3.41-19-4C851.66,93.75,849.27,93.67,847,93.67Z" style="fill: none;stroke: #fff;stroke-miterlimit: 10"/>
        <path d="M847.18,112.7a111.86,111.86,0,0,1-17.34-1.21,23.35,23.35,0,0,1-7.34-2,6.87,6.87,0,0,1-1.5-1,2.37,2.37,0,0,1-.13-3.64,8.7,8.7,0,0,1,3.24-2.12,44.64,44.64,0,0,1,10.29-2.62,84.45,84.45,0,0,1,12.53-.9c1.48,0,3,0,4.44.1,5.06.22,11.66.77,17.91,3a11.27,11.27,0,0,1,3.83,2.11,3,3,0,0,1,1.18,2.37,3.06,3.06,0,0,1-1.57,2.22,17.37,17.37,0,0,1-6,2.11,76.59,76.59,0,0,1-11.94,1.38c-1.75.09-3.49.13-5.24.17Z" style="fill: #fff"/>
        <path d="M847.18,112.7a111.86,111.86,0,0,1-17.34-1.21,23.35,23.35,0,0,1-7.34-2,6.87,6.87,0,0,1-1.5-1,2.37,2.37,0,0,1-.13-3.64,8.7,8.7,0,0,1,3.24-2.12,44.64,44.64,0,0,1,10.29-2.62,84.45,84.45,0,0,1,12.53-.9c1.48,0,3,0,4.44.1,5.06.22,11.66.77,17.91,3a11.27,11.27,0,0,1,3.83,2.11,3,3,0,0,1,1.18,2.37,3.06,3.06,0,0,1-1.57,2.22,17.37,17.37,0,0,1-6,2.11,76.59,76.59,0,0,1-11.94,1.38c-1.75.09-3.49.13-5.24.17Z" style="fill: none;stroke: #fff;stroke-miterlimit: 10"/>
        <path d="M881.66,147.93c-.88,0-1.28-.41-1.28-1.33,0-2.66,0-22.67,0-22.67,0-1.11.37-1.5,1.41-1.5H882a12.64,12.64,0,0,1,12.46,11,12.82,12.82,0,0,1-10.55,14.33,17.91,17.91,0,0,1-2.18.16Zm1.67-23-.64,0v20.56l.78-.11a10.45,10.45,0,0,0,8.72-11.38c-.46-4.6-4.71-9.12-8.57-9.12Z" style="fill: #fff"/>
      </g>
      <g>
        <path d="M360.51,588h.56a92.89,92.89,0,1,1-92.89-92.9A92.89,92.89,0,0,1,361.07,588H360a91.78,91.78,0,1,0-91.78,91.78A91.89,91.89,0,0,0,360,588Z" style="fill: url(#linear-gradient-6)"/>
        <rect x="209.75" y="575.39" width="116.86" height="11.16" rx="1.9" ry="1.9" style="fill: none;stroke: #fff;stroke-miterlimit: 10;stroke-width: 2px"/>
        <path d="M298.71,535.63H237.65a5.25,5.25,0,0,0-5.24,5.24v34.52h71.53V540.87A5.24,5.24,0,0,0,298.71,535.63Z" style="fill: none;stroke: #fff;stroke-miterlimit: 10;stroke-width: 2px"/>
        <line x1="209.75" y1="632.63" x2="326.61" y2="632.63" style="fill: none;stroke: #fff;stroke-miterlimit: 10;stroke-width: 2px"/>
        <rect x="224.55" y="586.54" width="87.26" height="46.09" style="fill: none;stroke: #fff;stroke-miterlimit: 10;stroke-width: 2px"/>
        <path d="M247.59,597.86H235.31a2.9,2.9,0,0,0-2.9,2.91v31.86H250.5V600.77A2.91,2.91,0,0,0,247.59,597.86Z" style="fill: none;stroke: #fff;stroke-miterlimit: 10;stroke-width: 2px"/>
        <path d="M301,597.86H260.43a2.9,2.9,0,0,0-2.9,2.91v31.86h46.41V600.77A2.9,2.9,0,0,0,301,597.86Z" style="fill: none;stroke: #fff;stroke-miterlimit: 10;stroke-width: 2px"/>
        <rect x="262.55" y="553.91" width="11.26" height="3.2" style="fill: #fff"/>
        <path d="M261,565.67a1.6,1.6,0,0,1-1.6-1.6V547a1.6,1.6,0,1,1,3.2,0v17.12a1.6,1.6,0,0,1-1.6,1.6" style="fill: #fff"/>
        <path d="M257.75,562.93a1.6,1.6,0,0,1-1.6-1.6V549.69a1.6,1.6,0,0,1,3.2,0v11.64a1.6,1.6,0,0,1-1.6,1.6" style="fill: #fff"/>
        <path d="M254.55,560.8a1.6,1.6,0,0,1-1.6-1.6v-7.38a1.6,1.6,0,1,1,3.2,0v7.38a1.6,1.6,0,0,1-1.6,1.6" style="fill: #fff"/>
        <path d="M275.41,565.67a1.6,1.6,0,0,1-1.6-1.6V547a1.6,1.6,0,1,1,3.2,0v17.12a1.6,1.6,0,0,1-1.6,1.6" style="fill: #fff"/>
        <path d="M278.6,562.93a1.6,1.6,0,0,1-1.59-1.6V549.69a1.6,1.6,0,1,1,3.19,0v11.64a1.6,1.6,0,0,1-1.6,1.6" style="fill: #fff"/>
        <path d="M281.8,560.8a1.6,1.6,0,0,1-1.6-1.6v-7.38a1.6,1.6,0,1,1,3.2,0v7.38a1.6,1.6,0,0,1-1.6,1.6" style="fill: #fff"/>
      </g>
      <g>
        <path d="M940.93,588h.55a92.89,92.89,0,1,1-92.89-92.9A92.89,92.89,0,0,1,941.48,588h-1.11a91.78,91.78,0,1,0-91.78,91.78A91.89,91.89,0,0,0,940.37,588Z" style="fill: url(#linear-gradient-7)"/>
        <rect x="795.24" y="542.91" width="106.7" height="90.06" rx="9.02" ry="9.02" style="fill: none;stroke: #fff;stroke-miterlimit: 10;stroke-width: 2px"/>
        <line x1="795.24" y1="560.34" x2="901.94" y2="560.34" style="fill: none;stroke: #fff;stroke-miterlimit: 10;stroke-width: 2px"/>
        <path d="M812.06,574.21a4.39,4.39,0,1,1-4.39-4.39A4.39,4.39,0,0,1,812.06,574.21Z" style="fill: none;stroke: #fff;stroke-miterlimit: 10"/>
        <path d="M826.07,574.21a4.39,4.39,0,1,1-4.39-4.39,4.38,4.38,0,0,1,4.39,4.39" style="fill: #fff"/>
        <path d="M840.09,574.21a4.39,4.39,0,1,1-4.39-4.39,4.39,4.39,0,0,1,4.39,4.39" style="fill: #fff"/>
        <path d="M854.1,574.21a4.39,4.39,0,1,1-4.39-4.39,4.39,4.39,0,0,1,4.39,4.39" style="fill: #fff"/>
        <path d="M868.11,574.21a4.39,4.39,0,1,1-4.39-4.39,4.38,4.38,0,0,1,4.39,4.39" style="fill: #fff"/>
        <path d="M882.13,574.21a4.39,4.39,0,1,1-4.39-4.39,4.39,4.39,0,0,1,4.39,4.39" style="fill: #fff"/>
        <path d="M896.14,574.21a4.39,4.39,0,1,1-4.39-4.39,4.39,4.39,0,0,1,4.39,4.39" style="fill: #fff"/>
        <path d="M812.06,587.85a4.39,4.39,0,1,1-4.39-4.39,4.4,4.4,0,0,1,4.39,4.39" style="fill: #fff"/>
        <path d="M826.07,587.85a4.39,4.39,0,1,1-4.39-4.39,4.39,4.39,0,0,1,4.39,4.39" style="fill: #fff"/>
        <path d="M840.09,587.85a4.39,4.39,0,1,1-4.39-4.39,4.4,4.4,0,0,1,4.39,4.39" style="fill: #fff"/>
        <path d="M854.1,587.85a4.39,4.39,0,1,1-4.39-4.39,4.4,4.4,0,0,1,4.39,4.39" style="fill: #fff"/>
        <path d="M868.11,587.85a4.39,4.39,0,1,1-4.39-4.39,4.39,4.39,0,0,1,4.39,4.39" style="fill: #fff"/>
        <path d="M882.13,587.85a4.39,4.39,0,1,1-4.39-4.39,4.4,4.4,0,0,1,4.39,4.39" style="fill: #fff"/>
        <path d="M896.14,587.85a4.39,4.39,0,1,1-4.39-4.39,4.4,4.4,0,0,1,4.39,4.39" style="fill: #fff"/>
        <path d="M812.06,601.49a4.39,4.39,0,1,1-4.39-4.39,4.4,4.4,0,0,1,4.39,4.39" style="fill: #fff"/>
        <path d="M826.07,601.49a4.39,4.39,0,1,1-4.39-4.39,4.39,4.39,0,0,1,4.39,4.39" style="fill: #fff"/>
        <path d="M840.09,601.49a4.39,4.39,0,1,1-4.39-4.39,4.4,4.4,0,0,1,4.39,4.39" style="fill: #fff"/>
        <path d="M854.1,601.49a4.39,4.39,0,1,1-4.39-4.39,4.4,4.4,0,0,1,4.39,4.39" style="fill: #fff"/>
        <path d="M868.11,601.49a4.39,4.39,0,1,1-4.39-4.39,4.39,4.39,0,0,1,4.39,4.39" style="fill: #fff"/>
        <path d="M882.13,601.49a4.39,4.39,0,1,1-4.39-4.39,4.4,4.4,0,0,1,4.39,4.39" style="fill: #fff"/>
        <path d="M896.14,601.49a4.39,4.39,0,1,1-4.39-4.39,4.4,4.4,0,0,1,4.39,4.39" style="fill: #fff"/>
        <path d="M812.06,615.13a4.39,4.39,0,1,1-4.39-4.39,4.4,4.4,0,0,1,4.39,4.39" style="fill: #fff"/>
        <path d="M826.07,615.13a4.39,4.39,0,1,1-4.39-4.39,4.39,4.39,0,0,1,4.39,4.39" style="fill: #fff"/>
        <path d="M840.09,615.13a4.39,4.39,0,1,1-4.39-4.39,4.4,4.4,0,0,1,4.39,4.39" style="fill: #fff"/>
        <path d="M854.1,615.13a4.39,4.39,0,1,1-4.39-4.39,4.4,4.4,0,0,1,4.39,4.39" style="fill: #fff"/>
        <path d="M868.11,615.13a4.39,4.39,0,1,1-4.39-4.39,4.39,4.39,0,0,1,4.39,4.39" style="fill: #fff"/>
        <path d="M882.13,615.13a4.39,4.39,0,1,1-4.39-4.39A4.4,4.4,0,0,1,882.13,615.13Z" style="fill: none;stroke: #fff;stroke-miterlimit: 10"/>
        <path d="M896.14,615.13a4.39,4.39,0,1,1-4.39-4.39A4.4,4.4,0,0,1,896.14,615.13Z" style="fill: none;stroke: #fff;stroke-miterlimit: 10"/>
      </g>
      <g>
        <path d="M361.06,1100.33h.55a92.89,92.89,0,1,1-92.89-92.89,92.89,92.89,0,0,1,92.89,92.89H360.5a91.78,91.78,0,1,0-91.78,91.78,91.91,91.91,0,0,0,91.78-91.78Z" style="fill: url(#linear-gradient-8)"/>
        <rect x="214.52" y="1057.92" width="108.39" height="84.83" rx="7.17" ry="7.17" style="fill: none;stroke: #fff;stroke-miterlimit: 10;stroke-width: 2px"/>
        <rect x="236.97" y="1057.92" width="23.89" height="84.83" style="fill: none;stroke: #fff;stroke-miterlimit: 10;stroke-width: 2px"/>
        <line x1="274.19" y1="1100.33" x2="309.59" y2="1100.33" style="fill: none;stroke: #fff;stroke-miterlimit: 10;stroke-width: 2px"/>
        <line x1="291.89" y1="1082.63" x2="291.89" y2="1118.04" style="fill: none;stroke: #fff;stroke-miterlimit: 10;stroke-width: 2px"/>
      </g>
    </g>
  </g>
</svg>
