<svg id="Layer_2" data-name="Layer 2" xmlns="http://www.w3.org/2000/svg" xmlns:xlink="http://www.w3.org/1999/xlink" viewBox="0 0 1125 2310">
  <defs>
    <linearGradient id="linear-gradient" x1="-1412.51" y1="5813.98" x2="-1411.51" y2="5813.98" gradientTransform="matrix(118.81, -118.81, -118.81, -118.81, 859349.72, 524143.59)" gradientUnits="userSpaceOnUse">
      <stop offset="0" stop-color="#ff2a00"/>
      <stop offset="0.29" stop-color="#ff2e00"/>
      <stop offset="0.59" stop-color="#ff3b00"/>
      <stop offset="0.89" stop-color="#ff4f00"/>
      <stop offset="1" stop-color="#ff5900"/>
    </linearGradient>
    <linearGradient id="linear-gradient-2" x1="-1412.51" y1="5813.98" x2="-1411.51" y2="5813.98" gradientTransform="matrix(118.81, -118.81, -118.81, -118.81, 858828.45, 524634.69)" xlink:href="#linear-gradient"/>
    <linearGradient id="linear-gradient-3" x1="-1412.51" y1="5813.98" x2="-1411.51" y2="5813.98" gradientTransform="matrix(118.81, -118.81, -118.81, -118.81, 859349.24, 524634.69)" xlink:href="#linear-gradient"/>
    <linearGradient id="linear-gradient-4" x1="-1412.51" y1="5813.98" x2="-1411.51" y2="5813.98" gradientTransform="matrix(118.81, -118.81, -118.81, -118.81, 858828.45, 525064.89)" xlink:href="#linear-gradient"/>
    <linearGradient id="linear-gradient-5" x1="-1412.51" y1="5813.98" x2="-1411.51" y2="5813.98" gradientTransform="matrix(118.81, -118.81, -118.81, -118.81, 859349.72, 525064.89)" xlink:href="#linear-gradient"/>
    <linearGradient id="linear-gradient-6" x1="-1412.51" y1="5813.98" x2="-1411.51" y2="5813.98" gradientTransform="matrix(118.81, -118.81, -118.81, -118.81, 858828.45, 523682.94)" xlink:href="#linear-gradient"/>
    <linearGradient id="linear-gradient-7" x1="-1412.51" y1="5813.98" x2="-1411.51" y2="5813.98" gradientTransform="matrix(118.81, -118.81, -118.81, -118.81, 859350.26, 523682.94)" xlink:href="#linear-gradient"/>
    <linearGradient id="linear-gradient-8" x1="-1412.51" y1="5813.98" x2="-1411.51" y2="5813.98" gradientTransform="matrix(118.81, -118.81, -118.81, -118.81, 858828.93, 524143.59)" xlink:href="#linear-gradient"/>
  </defs>
  <title>come_funziona_mobile</title>
  <path d="M212,374.49h4.88l3.07,9,8-9h5.42l-5.72,21.32h-4.75l3.71-13.92L218.22,391h-.12l-3.41-9L211,395.81h-4.69Zm26.65,0h4.69l-5.72,21.32h-4.69Zm26.22-.15h4.51l3.38,21.47H268l-.67-4.78h-9L255,395.81H250Zm1.86,12.51-1-7-4.69,7Zm14.37-12.36h4.69l-4.57,17.05h10.63l-1.16,4.27H275.38Zm19.07,0h4.69l-4.57,17.05h10.63l-1.16,4.27H294.44Zm19.06,0h15.93L334,378.66H322.76L321.6,383h9.9l-1.13,4.11h-9.89l-1.22,4.5h11.45l-1.13,4.18H313.5Zm20.25,0h4.32L350,388l3.65-13.55h4.63l-5.73,21.32h-4l-6.46-14-3.75,14h-4.63Zm25.64,21a9.16,9.16,0,0,1-3.08-2,8.84,8.84,0,0,1-2-3,9.71,9.71,0,0,1-.7-3.73,12.11,12.11,0,0,1,.92-4.64,13,13,0,0,1,2.62-4,13.25,13.25,0,0,1,4-2.84,12.31,12.31,0,0,1,5.23-1.09,10.56,10.56,0,0,1,4,.72,9,9,0,0,1,3.08,2,9.22,9.22,0,0,1,2,3,9.75,9.75,0,0,1,.7,3.73,12.14,12.14,0,0,1-.93,4.65,12.68,12.68,0,0,1-2.62,4,12.87,12.87,0,0,1-4.05,2.85,12.37,12.37,0,0,1-5.22,1.08A10.86,10.86,0,0,1,365.12,395.46Zm7.59-4.34a7.7,7.7,0,0,0,2.34-1.88,8.27,8.27,0,0,0,1.5-2.57,7.89,7.89,0,0,0,.54-2.8,6.6,6.6,0,0,0-.35-2.18,5.08,5.08,0,0,0-1-1.72,4.61,4.61,0,0,0-1.72-1.13,6.52,6.52,0,0,0-2.34-.39,6.4,6.4,0,0,0-3.06.73,7.82,7.82,0,0,0-2.34,1.87,8.73,8.73,0,0,0-1.5,2.58,7.84,7.84,0,0,0-.53,2.8,6.29,6.29,0,0,0,.35,2.17,4.82,4.82,0,0,0,1,1.73,4.63,4.63,0,0,0,1.71,1.12,6.38,6.38,0,0,0,2.34.4A6.49,6.49,0,0,0,372.71,391.12Z" style="fill: #fff"/>
  <path d="M692.11,374.49h4.32L702.65,388l3.65-13.55h4.63l-5.73,21.32h-4l-6.45-14-3.75,14h-4.63Zm25.64,21a9,9,0,0,1-3.08-2,8.84,8.84,0,0,1-2-3,9.72,9.72,0,0,1-.71-3.73,12.12,12.12,0,0,1,.93-4.64,13,13,0,0,1,2.62-4,13.25,13.25,0,0,1,4.05-2.84,12.46,12.46,0,0,1,5.23-1.09,10.56,10.56,0,0,1,4,.72,8.92,8.92,0,0,1,3.08,2,9.08,9.08,0,0,1,2,3,9.8,9.8,0,0,1,.7,3.74,12.12,12.12,0,0,1-.93,4.64,12.68,12.68,0,0,1-2.62,4,12.87,12.87,0,0,1-4,2.85,12.37,12.37,0,0,1-5.22,1.08A10.86,10.86,0,0,1,717.75,395.46Zm7.59-4.34a7.82,7.82,0,0,0,2.34-1.87,8.43,8.43,0,0,0,1.5-2.58,7.89,7.89,0,0,0,.54-2.8,6.6,6.6,0,0,0-.35-2.18,5.08,5.08,0,0,0-1-1.72,4.47,4.47,0,0,0-1.72-1.12,6.31,6.31,0,0,0-2.34-.4,6.4,6.4,0,0,0-3.06.73,7.82,7.82,0,0,0-2.34,1.87,8.73,8.73,0,0,0-1.5,2.58,7.84,7.84,0,0,0-.53,2.8,6.35,6.35,0,0,0,.35,2.18,4.78,4.78,0,0,0,1,1.72,4.63,4.63,0,0,0,1.71,1.12,6.38,6.38,0,0,0,2.34.4A6.52,6.52,0,0,0,725.34,391.12Zm16-16.63h4.33L751.92,388l3.65-13.55h4.63l-5.72,21.32h-4l-6.46-14-3.74,14h-4.63Zm33.07,0h4.88l3.07,9,8-9h5.42L790,395.81h-4.75L789,381.89,780.67,391h-.13l-3.41-9-3.71,13.83h-4.69Zm26.65,0h4.69l-5.73,21.32h-4.69Zm26.22-.15h4.51l3.38,21.47h-4.82l-.67-4.78h-9l-3.23,4.78h-5.05Zm1.86,12.51-1-7-4.69,7Zm14.37-12.36h4.69l-4.57,17.05H854.3l-1.16,4.27H837.82Zm19.06,0h4.69l-4.57,17.05h10.63l-1.15,4.27H856.89Zm19.07,0H897.6l-1.12,4.17H885.21L884.05,383H894l-1.13,4.11h-9.9l-1.21,4.51h11.45L892,395.81H876Zm20.25,0h4.32L912.46,388l3.66-13.55h4.63L915,395.81h-4l-6.45-14-3.75,14H896.2Zm25.64,21a8.92,8.92,0,0,1-3.08-2,9,9,0,0,1-2-3,9.71,9.71,0,0,1-.7-3.73,12.12,12.12,0,0,1,.93-4.64,12.84,12.84,0,0,1,2.62-4,13.25,13.25,0,0,1,4-2.84,12.38,12.38,0,0,1,5.22-1.09,10.65,10.65,0,0,1,4,.72,8.91,8.91,0,0,1,5.06,5,10,10,0,0,1,.7,3.74,12.12,12.12,0,0,1-.93,4.64,12.68,12.68,0,0,1-2.62,4,13.1,13.1,0,0,1-4.05,2.85,12.41,12.41,0,0,1-5.22,1.08A10.78,10.78,0,0,1,927.57,395.46Zm7.59-4.34a7.82,7.82,0,0,0,2.34-1.87,8.86,8.86,0,0,0,1.5-2.58,7.89,7.89,0,0,0,.54-2.8,6.35,6.35,0,0,0-.36-2.18,4.78,4.78,0,0,0-1-1.72,4.51,4.51,0,0,0-1.71-1.12,6.31,6.31,0,0,0-2.34-.4,6.4,6.4,0,0,0-3.06.73,7.82,7.82,0,0,0-2.34,1.87,8.73,8.73,0,0,0-1.5,2.58,7.85,7.85,0,0,0-.54,2.8,6.35,6.35,0,0,0,.36,2.18,4.78,4.78,0,0,0,1,1.72,4.55,4.55,0,0,0,1.71,1.12,6.31,6.31,0,0,0,2.34.4A6.52,6.52,0,0,0,935.16,391.12Z" style="fill: #fff"/>
  <path d="M236.81,799.28l3.53-3a9.59,9.59,0,0,0,2.71,2.09,7.17,7.17,0,0,0,3.26.71,4.23,4.23,0,0,0,2.35-.6,1.89,1.89,0,0,0,.91-1.62,1.52,1.52,0,0,0-.17-.71,1.88,1.88,0,0,0-.58-.64,5.87,5.87,0,0,0-1.11-.67c-.47-.24-1.05-.5-1.76-.78a18.07,18.07,0,0,1-2-.93,7.59,7.59,0,0,1-1.68-1.19,5.34,5.34,0,0,1-1.16-1.56,4.8,4.8,0,0,1-.42-2.08,6.24,6.24,0,0,1,.68-2.93,6.89,6.89,0,0,1,1.84-2.21,8.34,8.34,0,0,1,2.7-1.4,10.51,10.51,0,0,1,3.24-.49,11.5,11.5,0,0,1,4.69.85,10,10,0,0,1,3.29,2.32l-3.23,3.22a10.41,10.41,0,0,0-2.39-1.7,6,6,0,0,0-2.72-.58,3.43,3.43,0,0,0-2.3.69,1.93,1.93,0,0,0-.81,1.47,1.49,1.49,0,0,0,.18.75,2.22,2.22,0,0,0,.61.62,7.13,7.13,0,0,0,1.14.64c.48.23,1.09.49,1.82.79a20,20,0,0,1,2,1,7.37,7.37,0,0,1,1.62,1.19,5.14,5.14,0,0,1,1.08,1.55,5,5,0,0,1,.39,2,6.27,6.27,0,0,1-.7,3,6.83,6.83,0,0,1-1.86,2.24,8,8,0,0,1-2.69,1.38,10.76,10.76,0,0,1-3.21.48Q239.86,803.21,236.81,799.28Zm27.27,3.33a9.1,9.1,0,0,1-3.17-1.86,8.17,8.17,0,0,1-2.07-2.92,9.54,9.54,0,0,1-.74-3.85,11.82,11.82,0,0,1,1-4.86,13.16,13.16,0,0,1,2.76-4.06,13,13,0,0,1,4.1-2.81,12.46,12.46,0,0,1,5.07-1,10,10,0,0,1,5.16,1.22,9.46,9.46,0,0,1,3.36,3.32l-3.86,2.71a8.18,8.18,0,0,0-2.13-2.14,5.6,5.6,0,0,0-3.11-.79,6.34,6.34,0,0,0-2.82.66,8.09,8.09,0,0,0-2.4,1.76,8.78,8.78,0,0,0-1.68,2.62,8.47,8.47,0,0,0-.62,3.22,5.45,5.45,0,0,0,.38,2.1,4.65,4.65,0,0,0,1.08,1.63,5,5,0,0,0,1.64,1.05,5.86,5.86,0,0,0,2.1.36,6,6,0,0,0,2.68-.56,12.42,12.42,0,0,0,2.32-1.54l3,3.17a13.93,13.93,0,0,1-3.47,2.34,10.6,10.6,0,0,1-4.6.92A11.87,11.87,0,0,1,264.08,802.61Zm20.17-21h15.93l-1.13,4.18H287.79l-1.16,4.35h9.9l-1.13,4.11h-9.9l-1.22,4.51h11.45l-1.12,4.17H278.53Zm22.54,21.14a9.36,9.36,0,0,1-3.2-1.69,8.76,8.76,0,0,1-2.29-2.89,9.21,9.21,0,0,1-.88-4.13,12,12,0,0,1,1-4.8,13.49,13.49,0,0,1,2.76-4.08,13.26,13.26,0,0,1,4.19-2.84,13,13,0,0,1,5.33-1.07,14.33,14.33,0,0,1,3.05.3,12.36,12.36,0,0,1,2.43.81,9.38,9.38,0,0,1,1.88,1.17,8.82,8.82,0,0,1,1.35,1.4L318.94,788a8.64,8.64,0,0,0-2.27-1.75,6.9,6.9,0,0,0-3.33-.72,7.47,7.47,0,0,0-3.19.69A8.21,8.21,0,0,0,307.6,788a8.7,8.7,0,0,0-1.71,2.64,8.21,8.21,0,0,0-.62,3.19,5.43,5.43,0,0,0,.42,2.2,4.45,4.45,0,0,0,1.18,1.6,5,5,0,0,0,1.73,1,6.68,6.68,0,0,0,2.12.33,8.67,8.67,0,0,0,2.17-.24,9,9,0,0,0,1.63-.58l1-3.47h-4.72l1.1-4h9.25l-3,10.63a17,17,0,0,1-3.46,1.44,14.69,14.69,0,0,1-4.28.57A12.52,12.52,0,0,1,306.79,802.72Zm21.47-21.14H333l-4.57,17.06H339l-1.16,4.26H322.53Zm19.27,0h4.69L346.5,802.9h-4.69ZM192.59,812h4.69l-4.57,17.05h10.63l-1.16,4.26H186.87Zm26.13-.16h4.51l3.38,21.47H221.8l-.67-4.78h-9l-3.23,4.78h-5Zm1.86,12.52-1-7-4.69,7ZM244.09,812h6.76a13.22,13.22,0,0,1,3.91.5,6.59,6.59,0,0,1,2.79,1.66,5.94,5.94,0,0,1,1.64,4.38,7.57,7.57,0,0,1-.81,3.54,7.69,7.69,0,0,1-2.19,2.62,9.8,9.8,0,0,1-3.27,1.61,14.79,14.79,0,0,1-4.08.55h-4.05l-1.74,6.45h-4.69Zm5,10.75a6.55,6.55,0,0,0,3.78-1,3.23,3.23,0,0,0,1.43-2.82,2.44,2.44,0,0,0-.7-1.77,3,3,0,0,0-1.17-.71,5.71,5.71,0,0,0-1.75-.23h-3l-1.74,6.52Zm21.1-10.91h4.51l3.38,21.47h-4.81l-.67-4.78h-9l-3.23,4.78h-5.06ZM272,824.4l-1-7-4.69,7ZM286.42,812h4.69l-4.57,17.05h10.63L296,833.35H280.69Zm19.06,0h15.93l-1.13,4.17H309l-1.16,4.35h9.9l-1.12,4.11h-9.9l-1.22,4.51H317l-1.13,4.17H299.75Zm13.86,17.69,3.53-3a9.6,9.6,0,0,0,2.71,2.08,7.14,7.14,0,0,0,3.26.72,4.19,4.19,0,0,0,2.34-.61,1.87,1.87,0,0,0,.91-1.62,1.51,1.51,0,0,0-.16-.71,2.1,2.1,0,0,0-.58-.64,7.33,7.33,0,0,0-1.11-.67q-.71-.34-1.77-.78a20,20,0,0,1-2-.93,7.58,7.58,0,0,1-1.67-1.18,5.21,5.21,0,0,1-1.16-1.57,4.78,4.78,0,0,1-.43-2.07,6.14,6.14,0,0,1,.69-2.94,6.89,6.89,0,0,1,1.84-2.21,8.24,8.24,0,0,1,2.7-1.4,10.46,10.46,0,0,1,3.24-.49,11.67,11.67,0,0,1,4.69.85,10.06,10.06,0,0,1,3.29,2.32l-3.23,3.23a10.47,10.47,0,0,0-2.39-1.71,6.17,6.17,0,0,0-2.73-.58,3.45,3.45,0,0,0-2.3.69,2,2,0,0,0-.8,1.47,1.49,1.49,0,0,0,.18.75,2.1,2.1,0,0,0,.61.63,7.86,7.86,0,0,0,1.14.64c.48.22,1.08.48,1.81.79a20.2,20.2,0,0,1,2,1,7.39,7.39,0,0,1,1.61,1.19,4.92,4.92,0,0,1,1.08,1.55,4.86,4.86,0,0,1,.4,2,6.27,6.27,0,0,1-.7,3,7,7,0,0,1-1.86,2.24,8.27,8.27,0,0,1-2.69,1.39,11.1,11.1,0,0,1-3.22.47Q322.38,833.66,319.34,829.73Zm28.19-13.37h-6.48L342.2,812h17.67l-1.16,4.32h-6.49l-4.56,17H343ZM363.09,812h7.77a13.24,13.24,0,0,1,4,.53,6.62,6.62,0,0,1,2.72,1.6,5.79,5.79,0,0,1,1.65,4.29,7.07,7.07,0,0,1-1.74,4.86,9.53,9.53,0,0,1-5.15,2.76l3.63,7.27h-5.33l-3.29-6.82h-3.5l-1.83,6.82h-4.69Zm6.1,10.32a8.79,8.79,0,0,0,2-.23,5.63,5.63,0,0,0,1.64-.66,3.47,3.47,0,0,0,1.1-1.09,3,3,0,0,0,.39-1.54,2.27,2.27,0,0,0-.67-1.69,4.32,4.32,0,0,0-3.1-.88h-3.93L365,822.36ZM392,811.88h4.51l3.38,21.47h-4.81l-.67-4.78h-9l-3.23,4.78H377.1Zm1.86,12.52-1-7-4.69,7Z" style="fill: #ff2a00"/>
  <path d="M204,1259.93l3.53-3a9.69,9.69,0,0,0,2.71,2.08,7.17,7.17,0,0,0,3.26.72,4.2,4.2,0,0,0,2.35-.61,1.85,1.85,0,0,0,.91-1.61,1.53,1.53,0,0,0-.17-.72,2,2,0,0,0-.58-.64,6.44,6.44,0,0,0-1.11-.67c-.46-.23-1-.49-1.76-.78a20,20,0,0,1-2-.93,7.89,7.89,0,0,1-1.68-1.18,5.38,5.38,0,0,1-1.16-1.57,4.78,4.78,0,0,1-.42-2.07,6.25,6.25,0,0,1,.68-2.94,6.9,6.9,0,0,1,1.85-2.21,8.49,8.49,0,0,1,2.69-1.4,10.86,10.86,0,0,1,3.24-.49,11.49,11.49,0,0,1,4.69.86,9.93,9.93,0,0,1,3.29,2.31l-3.23,3.23a10.26,10.26,0,0,0-2.39-1.71A6.15,6.15,0,0,0,216,1246a3.43,3.43,0,0,0-2.3.69,2,2,0,0,0-.81,1.48,1.38,1.38,0,0,0,.19.74,2.06,2.06,0,0,0,.6.63,8.64,8.64,0,0,0,1.15.64c.47.22,1.08.48,1.81.79a20,20,0,0,1,2,1,7.71,7.71,0,0,1,1.62,1.19,5.27,5.27,0,0,1,1.08,1.55,5,5,0,0,1,.39,2,6.27,6.27,0,0,1-.7,3,6.82,6.82,0,0,1-1.85,2.24,8.32,8.32,0,0,1-2.7,1.39,11,11,0,0,1-3.21.47Q207,1263.86,204,1259.93Zm27.27,3.34a9.52,9.52,0,0,1-3.17-1.86,8.21,8.21,0,0,1-2.07-2.93,9.51,9.51,0,0,1-.74-3.85,11.89,11.89,0,0,1,1-4.86,13.64,13.64,0,0,1,2.76-4.06,13,13,0,0,1,4.1-2.8,12.46,12.46,0,0,1,5.07-1,10.1,10.1,0,0,1,5.16,1.22,9.56,9.56,0,0,1,3.37,3.32l-3.87,2.71a8.28,8.28,0,0,0-2.13-2.13,5.5,5.5,0,0,0-3.11-.79,6.54,6.54,0,0,0-2.82.65,8.3,8.3,0,0,0-2.4,1.77,8.53,8.53,0,0,0-1.68,2.62,8.38,8.38,0,0,0-.62,3.21,5.65,5.65,0,0,0,.38,2.1,4.65,4.65,0,0,0,1.08,1.63,4.8,4.8,0,0,0,1.64,1,6.41,6.41,0,0,0,4.79-.2,12.2,12.2,0,0,0,2.31-1.54l3.05,3.17a13.93,13.93,0,0,1-3.48,2.35,10.56,10.56,0,0,1-4.59.91A12.14,12.14,0,0,1,231.25,1263.27Zm21.3-.07a8.85,8.85,0,0,1-3.07-2,8.72,8.72,0,0,1-2-3,9.75,9.75,0,0,1-.7-3.73,12.12,12.12,0,0,1,.93-4.64,12.7,12.7,0,0,1,2.61-4,13.1,13.1,0,0,1,4-2.85,12.45,12.45,0,0,1,5.23-1.08,10.65,10.65,0,0,1,4,.72,8.86,8.86,0,0,1,5.05,5,9.75,9.75,0,0,1,.7,3.73,12.17,12.17,0,0,1-.93,4.65,12.88,12.88,0,0,1-6.67,6.88,12.37,12.37,0,0,1-5.22,1.08A10.65,10.65,0,0,1,252.55,1263.2Zm7.59-4.33a8,8,0,0,0,2.35-1.88,8.56,8.56,0,0,0,1.49-2.57,7.94,7.94,0,0,0,.54-2.8,6.6,6.6,0,0,0-.35-2.18,4.93,4.93,0,0,0-1-1.72,4.61,4.61,0,0,0-1.72-1.13,6.52,6.52,0,0,0-2.34-.39,6.4,6.4,0,0,0-3.06.73,8.08,8.08,0,0,0-2.34,1.87,8.81,8.81,0,0,0-1.5,2.57,8.15,8.15,0,0,0-.53,2.8,6.56,6.56,0,0,0,.35,2.18,4.7,4.7,0,0,0,1,1.72,4.53,4.53,0,0,0,1.71,1.13,6.61,6.61,0,0,0,2.35.4A6.45,6.45,0,0,0,260.14,1258.87Zm16-16.63h6.76a13.59,13.59,0,0,1,3.92.5,6.72,6.72,0,0,1,2.78,1.66,5.93,5.93,0,0,1,1.65,4.39,7.53,7.53,0,0,1-.81,3.53,7.92,7.92,0,0,1-2.19,2.62,9.76,9.76,0,0,1-3.28,1.61,14.37,14.37,0,0,1-4.08.55h-4.05l-1.73,6.45h-4.69Zm5,10.75a6.49,6.49,0,0,0,3.77-1,3.21,3.21,0,0,0,1.43-2.82,2.36,2.36,0,0,0-.7-1.76,2.82,2.82,0,0,0-1.17-.72,5.71,5.71,0,0,0-1.75-.23h-3L278,1253Zm15.68-10.75h7.77a13.48,13.48,0,0,1,4,.53,6.77,6.77,0,0,1,2.73,1.6,5.84,5.84,0,0,1,1.64,4.29,7.07,7.07,0,0,1-1.74,4.86,9.49,9.49,0,0,1-5.14,2.76l3.62,7.27h-5.33l-3.29-6.82h-3.5l-1.83,6.82h-4.69Zm6.09,10.32a8.28,8.28,0,0,0,2-.23,5.41,5.41,0,0,0,1.64-.66,3.28,3.28,0,0,0,1.1-1.09,2.86,2.86,0,0,0,.4-1.53,2.31,2.31,0,0,0-.67-1.7,4.35,4.35,0,0,0-3.11-.88h-3.93l-1.64,6.09Zm16.26-10.32h4.69l-5.72,21.31h-4.69Zm21.44,21.13a9.28,9.28,0,0,1-3.2-1.69,8.66,8.66,0,0,1-2.29-2.89,9.18,9.18,0,0,1-.87-4.13,11.82,11.82,0,0,1,1-4.79,13,13,0,0,1,2.75-4.08,13.24,13.24,0,0,1,9.52-3.92,13.63,13.63,0,0,1,3.05.31,11.74,11.74,0,0,1,2.43.8,9,9,0,0,1,1.88,1.18,7.7,7.7,0,0,1,1.35,1.4l-3.47,3.07a8.48,8.48,0,0,0-2.27-1.75,7,7,0,0,0-3.33-.71,7.38,7.38,0,0,0-3.18.68,8.3,8.3,0,0,0-2.56,1.83,8.63,8.63,0,0,0-1.71,2.65,8.3,8.3,0,0,0-.62,3.18,5.48,5.48,0,0,0,.42,2.21,4.54,4.54,0,0,0,1.18,1.6,5.14,5.14,0,0,0,1.73,1,6.68,6.68,0,0,0,2.12.34,8.77,8.77,0,0,0,2.18-.25,8.58,8.58,0,0,0,1.63-.58l1-3.47h-4.72l1.1-4H355l-3,10.63a17.61,17.61,0,0,1-3.46,1.45,15.05,15.05,0,0,1-4.28.56A12.23,12.23,0,0,1,340.65,1263.37Zm21.47-21.13h4.69l-4.57,17h10.63l-1.16,4.26H356.39Zm19.28,0h4.69l-5.73,21.31h-4.69Zm-193.1,30.3h4.5l3.38,21.47h-4.81l-.67-4.78h-9l-3.23,4.78h-5.05Zm1.86,12.51-1-7-4.69,7Zm14.37-12.36h8.28a11.48,11.48,0,0,1,3.25.41,6.41,6.41,0,0,1,2.23,1.13,4.37,4.37,0,0,1,1.31,1.67,4.82,4.82,0,0,1,.43,2,4.89,4.89,0,0,1-1.25,3.47,6.21,6.21,0,0,1-3.32,1.79,5.74,5.74,0,0,1,2.16,1.65,4.16,4.16,0,0,1,.83,2.68,5.71,5.71,0,0,1-.61,2.62,6,6,0,0,1-1.77,2.06,8.42,8.42,0,0,1-2.86,1.34,14.58,14.58,0,0,1-3.93.48H198.8ZM210,1289.9a4.76,4.76,0,0,0,2.79-.72,2.27,2.27,0,0,0,1-2,1.74,1.74,0,0,0-.73-1.48,3.7,3.7,0,0,0-2.2-.53h-5.14l-1.25,4.69Zm1.52-8.62a5.47,5.47,0,0,0,2.84-.62,2.16,2.16,0,0,0,1-2,1.64,1.64,0,0,0-.7-1.36,3.65,3.65,0,0,0-2.25-.55H208l-1.19,4.48Zm14.86-8.59h8.29a11.35,11.35,0,0,1,3.24.41,6.46,6.46,0,0,1,2.24,1.13,4.47,4.47,0,0,1,1.31,1.67,5,5,0,0,1,.42,2,4.89,4.89,0,0,1-1.24,3.47,6.25,6.25,0,0,1-3.32,1.79,5.82,5.82,0,0,1,2.16,1.65,4.16,4.16,0,0,1,.82,2.68,5.59,5.59,0,0,1-.61,2.62,6,6,0,0,1-1.76,2.06,8.48,8.48,0,0,1-2.87,1.34,14.48,14.48,0,0,1-3.93.48H220.64Zm5.45,17.21a4.76,4.76,0,0,0,2.79-.72,2.27,2.27,0,0,0,1-2,1.72,1.72,0,0,0-.73-1.48,3.69,3.69,0,0,0-2.19-.53h-5.15l-1.25,4.69Zm1.53-8.62a5.45,5.45,0,0,0,2.83-.62,2.13,2.13,0,0,0,1-2,1.64,1.64,0,0,0-.7-1.36,3.61,3.61,0,0,0-2.25-.55H229.8l-1.18,4.48Zm16.56,12.38a9.12,9.12,0,0,1-3.07-2,8.72,8.72,0,0,1-2-3,9.71,9.71,0,0,1-.7-3.73,12.12,12.12,0,0,1,.93-4.64,12.84,12.84,0,0,1,2.62-4,13,13,0,0,1,4.05-2.84,12.38,12.38,0,0,1,5.22-1.09,10.65,10.65,0,0,1,4,.72,8.94,8.94,0,0,1,5.05,5,9.75,9.75,0,0,1,.7,3.73,12.14,12.14,0,0,1-.93,4.65,12.65,12.65,0,0,1-2.61,4,13.1,13.1,0,0,1-4.05,2.85,12.45,12.45,0,0,1-5.23,1.08A10.86,10.86,0,0,1,249.9,1293.66Zm7.6-4.34a8,8,0,0,0,2.34-1.88,8.68,8.68,0,0,0,1.5-2.57,8.1,8.1,0,0,0,.53-2.8,6.6,6.6,0,0,0-.35-2.18,4.93,4.93,0,0,0-1-1.72,4.65,4.65,0,0,0-1.71-1.13,6.62,6.62,0,0,0-2.35-.39,6.4,6.4,0,0,0-3.06.73,8.08,8.08,0,0,0-2.34,1.87,8.73,8.73,0,0,0-1.5,2.58,8.06,8.06,0,0,0-.53,2.8,6.5,6.5,0,0,0,.35,2.17,5,5,0,0,0,1,1.73,4.59,4.59,0,0,0,1.72,1.12,6.31,6.31,0,0,0,2.34.4A6.52,6.52,0,0,0,257.5,1289.32Zm16-16.63h4.33l6.21,13.55,3.66-13.55h4.62L286.63,1294h-4l-6.46-14-3.74,14h-4.63Zm31-.15H309l3.38,21.47h-4.81l-.67-4.78h-9L294.7,1294h-5.06Zm1.85,12.51-1-7-4.69,7Zm14.38-12.36h4.87l3.07,9,8-9h5.42L336.36,1294h-4.75l3.71-13.92L327,1289.2h-.12l-3.41-9L319.73,1294H315Zm26.43,0h15.93l-1.13,4.17H350.73l-1.16,4.36h9.9l-1.13,4.11h-9.89l-1.22,4.5h11.45l-1.13,4.18H341.47Zm20.25,0h4.32l6.22,13.55,3.65-13.55h4.63L380.54,1294h-4l-6.46-14-3.75,14h-4.63Zm27.26,4.32h-6.49l1.16-4.32H407l-1.16,4.32h-6.49l-4.56,17h-4.69Zm15.77-4.32h4.69L409.44,1294h-4.69Zm-207.11,30.45h6.21a14.82,14.82,0,0,1,5.12.76,9.05,9.05,0,0,1,3.23,2,8.47,8.47,0,0,1,2.31,6.25,11.68,11.68,0,0,1-.88,4.53,11.9,11.9,0,0,1-2.62,3.87,12.59,12.59,0,0,1-4.69,2.93,19.28,19.28,0,0,1-6.49,1h-7.91Zm2.77,17.09a11.85,11.85,0,0,0,4-.66,8.16,8.16,0,0,0,3.14-1.93,7,7,0,0,0,1.58-2.41,7.7,7.7,0,0,0,.55-2.92,4.58,4.58,0,0,0-1.25-3.38,5,5,0,0,0-1.89-1.13,9.12,9.12,0,0,0-3-.42H207l-3.47,12.85Zm21.14-17.09H232l-5.73,21.32h-4.69Zm3.62,17.7,3.53-3a9.74,9.74,0,0,0,2.71,2.09,7.17,7.17,0,0,0,3.26.71,4.12,4.12,0,0,0,2.35-.61,1.84,1.84,0,0,0,.91-1.61,1.59,1.59,0,0,0-.17-.72,2,2,0,0,0-.58-.63,5.87,5.87,0,0,0-1.11-.67,18.92,18.92,0,0,0-1.76-.78c-.69-.29-1.35-.59-2-.93a7.59,7.59,0,0,1-1.68-1.19,5.25,5.25,0,0,1-1.16-1.57,4.72,4.72,0,0,1-.42-2.07,6.31,6.31,0,0,1,.68-2.94,6.86,6.86,0,0,1,1.85-2.2,8.29,8.29,0,0,1,2.69-1.4,10.55,10.55,0,0,1,3.24-.49,11.5,11.5,0,0,1,4.69.85,10,10,0,0,1,3.29,2.32l-3.23,3.22a9.91,9.91,0,0,0-2.39-1.7,6,6,0,0,0-2.72-.58,3.49,3.49,0,0,0-2.3.68,2,2,0,0,0-.81,1.48,1.42,1.42,0,0,0,.19.75,2,2,0,0,0,.6.62,6.85,6.85,0,0,0,1.15.64c.47.23,1.08.49,1.81.79a20,20,0,0,1,2,1,7.37,7.37,0,0,1,1.62,1.19,5.14,5.14,0,0,1,1.08,1.55,5,5,0,0,1,.39,2,6.27,6.27,0,0,1-.7,3,6.92,6.92,0,0,1-1.85,2.24,8.11,8.11,0,0,1-2.7,1.38,10.7,10.7,0,0,1-3.21.47Q234,1324.76,230.9,1320.84Zm25.76-17.7h6.76a13.22,13.22,0,0,1,3.92.51,6.59,6.59,0,0,1,2.78,1.65,5.93,5.93,0,0,1,1.65,4.39,7.5,7.5,0,0,1-.81,3.53,7.82,7.82,0,0,1-2.19,2.62,10,10,0,0,1-3.28,1.62,14.69,14.69,0,0,1-4.08.54h-4.05l-1.73,6.46h-4.69Zm5,10.75a6.49,6.49,0,0,0,3.77-1,3.21,3.21,0,0,0,1.44-2.81,2.4,2.4,0,0,0-.71-1.77,3,3,0,0,0-1.17-.72,5.7,5.7,0,0,0-1.75-.22h-3l-1.74,6.51Zm17.51,10.22a9,9,0,0,1-3.08-2,9.22,9.22,0,0,1-2-3,9.8,9.8,0,0,1-.7-3.74,12.12,12.12,0,0,1,.93-4.64,12.68,12.68,0,0,1,2.62-4,13.1,13.1,0,0,1,4.05-2.85,12.37,12.37,0,0,1,5.22-1.08,10.86,10.86,0,0,1,4,.71,8.89,8.89,0,0,1,5.06,5,9.9,9.9,0,0,1,.7,3.73,12.12,12.12,0,0,1-.93,4.64,12.73,12.73,0,0,1-2.62,4,13.25,13.25,0,0,1-4.05,2.84,12.41,12.41,0,0,1-5.22,1.09A10.65,10.65,0,0,1,279.17,1324.11Zm7.59-4.34a7.82,7.82,0,0,0,2.34-1.87,8.73,8.73,0,0,0,1.5-2.58,7.84,7.84,0,0,0,.53-2.8,6.35,6.35,0,0,0-.35-2.18,4.87,4.87,0,0,0-1-1.72,4.63,4.63,0,0,0-1.71-1.12,6.31,6.31,0,0,0-2.34-.4,6.52,6.52,0,0,0-3.06.73,7.7,7.7,0,0,0-2.34,1.88,8.81,8.81,0,0,0-1.5,2.57,7.89,7.89,0,0,0-.54,2.8,6.35,6.35,0,0,0,.36,2.18,4.78,4.78,0,0,0,1,1.72,4.57,4.57,0,0,0,1.71,1.13,6.52,6.52,0,0,0,2.34.39A6.4,6.4,0,0,0,286.76,1319.77Zm16-16.63h4.32l6.22,13.55,3.65-13.55h4.63l-5.73,21.32h-4l-6.45-14-3.75,14h-4.63Zm24.15,0h4.69l-5.73,21.32h-4.69Zm10,0h8.28a11.35,11.35,0,0,1,3.24.41,6.54,6.54,0,0,1,2.24,1.13,4.44,4.44,0,0,1,1.31,1.67,5,5,0,0,1,.43,2,4.89,4.89,0,0,1-1.25,3.47,6.25,6.25,0,0,1-3.32,1.79,5.82,5.82,0,0,1,2.16,1.65,4.18,4.18,0,0,1,.82,2.68,5.66,5.66,0,0,1-.61,2.63,5.93,5.93,0,0,1-1.76,2.06,8.58,8.58,0,0,1-2.87,1.34,14.88,14.88,0,0,1-3.92.47H331.24Zm5.45,17.21a4.75,4.75,0,0,0,2.78-.72,2.26,2.26,0,0,0,1-2,1.73,1.73,0,0,0-.73-1.48,3.76,3.76,0,0,0-2.19-.53h-5.15l-1.24,4.69Zm1.52-8.62a5.43,5.43,0,0,0,2.83-.62,2.12,2.12,0,0,0,1-1.95,1.68,1.68,0,0,0-.7-1.36,3.73,3.73,0,0,0-2.26-.55h-4.41l-1.19,4.48Zm15.07-8.59h4.69L358,1324.46h-4.69Zm10,0h4.69l-4.57,17.06h10.63l-1.15,4.26H363.31Zm19.28,0H393l-5.73,21.32h-4.69Z" style="fill: #ff2a00"/>
  <path d="M212.31,1733.34h7.76a13.17,13.17,0,0,1,4,.54,6.64,6.64,0,0,1,2.73,1.59,5.84,5.84,0,0,1,1.64,4.3,7.07,7.07,0,0,1-1.74,4.86,9.49,9.49,0,0,1-5.14,2.75l3.62,7.28h-5.33l-3.29-6.82h-3.5l-1.83,6.82h-4.69Zm6.09,10.33a8.79,8.79,0,0,0,2-.23,5.18,5.18,0,0,0,1.64-.67,3.19,3.19,0,0,0,1.1-1.09,2.9,2.9,0,0,0,.4-1.53,2.29,2.29,0,0,0-.67-1.69,4.35,4.35,0,0,0-3.11-.88h-3.93l-1.64,6.09Zm16.26-10.33h4.69l-5.72,21.32h-4.69Zm3.63,17.7,3.53-3a9.46,9.46,0,0,0,2.71,2.09,7.14,7.14,0,0,0,3.26.71,4.11,4.11,0,0,0,2.34-.61,1.84,1.84,0,0,0,.91-1.61,1.51,1.51,0,0,0-.16-.71,2,2,0,0,0-.58-.64,6.59,6.59,0,0,0-1.11-.67q-.7-.36-1.77-.78c-.69-.29-1.35-.59-2-.93a7.3,7.3,0,0,1-1.67-1.19,5.09,5.09,0,0,1-1.16-1.57,4.72,4.72,0,0,1-.43-2.07,6.19,6.19,0,0,1,.69-2.94,7,7,0,0,1,1.84-2.2,8.24,8.24,0,0,1,2.7-1.4,10.46,10.46,0,0,1,3.24-.49,11.5,11.5,0,0,1,4.69.85,10.06,10.06,0,0,1,3.29,2.32l-3.23,3.22a10.11,10.11,0,0,0-2.39-1.7,6,6,0,0,0-2.73-.58,3.51,3.51,0,0,0-2.3.68,2,2,0,0,0-.8,1.48,1.51,1.51,0,0,0,.18.75,2,2,0,0,0,.61.62,6.34,6.34,0,0,0,1.14.64c.48.23,1.08.49,1.81.79a20.2,20.2,0,0,1,2,1,7.08,7.08,0,0,1,1.61,1.19,4.82,4.82,0,0,1,1.48,3.59,6.27,6.27,0,0,1-.7,3,7.08,7.08,0,0,1-1.86,2.24,8.06,8.06,0,0,1-2.69,1.38,10.77,10.77,0,0,1-3.22.47Q241.33,1755,238.29,1751Zm25.76-17.7h6.76a13.2,13.2,0,0,1,3.91.51,6.57,6.57,0,0,1,2.79,1.65,6,6,0,0,1,1.64,4.39,7.5,7.5,0,0,1-.81,3.53,7.59,7.59,0,0,1-2.19,2.62,9.82,9.82,0,0,1-3.27,1.62,14.8,14.8,0,0,1-4.08.54h-4.05l-1.74,6.46h-4.69Zm5,10.75a6.55,6.55,0,0,0,3.78-1,3.23,3.23,0,0,0,1.43-2.81,2.4,2.4,0,0,0-.7-1.77,3.2,3.2,0,0,0-1.17-.72,5.74,5.74,0,0,0-1.75-.22h-3.05l-1.74,6.51Zm21.11-10.9h4.5l3.38,21.47h-4.81l-.67-4.78h-9l-3.23,4.78h-5.06Zm1.85,12.52-1-7-4.69,7Zm14.38-12.37h7.76a13.17,13.17,0,0,1,4,.54,6.6,6.6,0,0,1,2.72,1.59,5.81,5.81,0,0,1,1.65,4.3,7.07,7.07,0,0,1-1.74,4.86,9.52,9.52,0,0,1-5.14,2.75l3.62,7.28H314l-3.29-6.82h-3.5l-1.83,6.82h-4.69Zm6.09,10.33a8.79,8.79,0,0,0,2-.23,5.28,5.28,0,0,0,1.64-.67,3.28,3.28,0,0,0,1.1-1.09,2.9,2.9,0,0,0,.39-1.53,2.25,2.25,0,0,0-.67-1.69,4.32,4.32,0,0,0-3.1-.88h-3.93l-1.65,6.09Zm16-10.33h4.88l3.07,9,8-9h5.42l-5.72,21.32h-4.75l3.71-13.92-8.34,9.11h-.12l-3.41-9-3.72,13.83h-4.69Zm26.65,0h4.69l-5.72,21.32h-4.69Zm17.09-.15h4.5l3.38,21.47h-4.81l-.67-4.78h-9l-3.23,4.78h-5.06Zm1.85,12.52-1-7-4.69,7Z" style="fill: #ff2a00"/>
  <path d="M229.65,2163.39h4.51l3.38,21.47h-4.81l-.67-4.78h-9l-3.22,4.78h-5.06Zm1.86,12.52-1-7-4.69,7Zm14.37-12.37h4.69L246,2180.6h10.62l-1.15,4.26H240.16Zm19.07,0h4.69l-4.57,17.06H275.7l-1.16,4.26H259.22Zm19.06,0h15.93l-1.13,4.17H287.54l-1.15,4.36h9.89l-1.12,4.11h-9.9l-1.22,4.51h11.45l-1.12,4.17H278.29Zm20.25,0h4.33l6.21,13.55,3.65-13.55h4.63l-5.72,21.32h-4l-6.46-14-3.74,14h-4.63Zm31-.15h4.51l3.38,21.47h-4.81l-.67-4.78h-9l-3.22,4.78h-5.06Zm1.86,12.52-1-7-4.69,7Zm15.26-8h-6.49l1.16-4.33h17.66l-1.16,4.33h-6.48l-4.57,17h-4.69Zm15.77-4.33h4.69l-5.72,21.32h-4.69Z" style="fill: #ff2a00"/>
  <path d="M722.06,799.28l3.53-3a9.59,9.59,0,0,0,2.71,2.09,7.14,7.14,0,0,0,3.26.72,4.19,4.19,0,0,0,2.34-.61,1.88,1.88,0,0,0,.92-1.62,1.52,1.52,0,0,0-.17-.71,1.88,1.88,0,0,0-.58-.64,5.87,5.87,0,0,0-1.11-.67c-.47-.24-1.06-.49-1.77-.78a20,20,0,0,1-2-.93,7.76,7.76,0,0,1-1.67-1.19,5.21,5.21,0,0,1-1.16-1.56,4.78,4.78,0,0,1-.42-2.07,6.13,6.13,0,0,1,.68-2.94,6.89,6.89,0,0,1,1.84-2.21,8.24,8.24,0,0,1,2.7-1.4,10.46,10.46,0,0,1,3.24-.49,11.67,11.67,0,0,1,4.69.85,10,10,0,0,1,3.29,2.32l-3.23,3.23a10.17,10.17,0,0,0-2.39-1.71,6,6,0,0,0-2.72-.58,3.42,3.42,0,0,0-2.3.69,1.93,1.93,0,0,0-.81,1.47,1.49,1.49,0,0,0,.18.75,2.09,2.09,0,0,0,.61.62,7.13,7.13,0,0,0,1.14.64c.48.23,1.08.49,1.82.8a20,20,0,0,1,2,1,7.71,7.71,0,0,1,1.62,1.19,5.14,5.14,0,0,1,1.08,1.55,5,5,0,0,1,.39,2,6.27,6.27,0,0,1-.7,3,7,7,0,0,1-1.86,2.24,8.06,8.06,0,0,1-2.69,1.38,10.76,10.76,0,0,1-3.21.48Q725.09,803.21,722.06,799.28Zm27.27,3.33a9.23,9.23,0,0,1-3.17-1.85,8.3,8.3,0,0,1-2.07-2.93,9.51,9.51,0,0,1-.75-3.85,11.87,11.87,0,0,1,1-4.86,13.23,13.23,0,0,1,6.86-6.87,12.62,12.62,0,0,1,5.07-1,10.1,10.1,0,0,1,5.16,1.22,9.46,9.46,0,0,1,3.36,3.32L761,788.47a7.87,7.87,0,0,0-2.14-2.13,5.46,5.46,0,0,0-3.1-.8,6.34,6.34,0,0,0-2.82.66,8.26,8.26,0,0,0-2.4,1.76,8.78,8.78,0,0,0-1.68,2.62,8.28,8.28,0,0,0-.62,3.22,5.45,5.45,0,0,0,.38,2.1,4.65,4.65,0,0,0,1.08,1.63,4.91,4.91,0,0,0,1.64,1.05,6.52,6.52,0,0,0,4.78-.2,12.75,12.75,0,0,0,2.32-1.54l3,3.17a13.66,13.66,0,0,1-3.47,2.34,10.6,10.6,0,0,1-4.6.92A11.87,11.87,0,0,1,749.33,802.61Zm20.17-21h15.93l-1.13,4.18H773l-1.16,4.35h9.9l-1.13,4.11h-9.9l-1.22,4.51H781l-1.12,4.17H763.78ZM792,802.72a9.36,9.36,0,0,1-3.2-1.69,8.76,8.76,0,0,1-2.29-2.89,9.07,9.07,0,0,1-.88-4.13,12.08,12.08,0,0,1,1-4.8,13.21,13.21,0,0,1,7-6.92,13.18,13.18,0,0,1,5.33-1.07,14.33,14.33,0,0,1,3,.3,12.36,12.36,0,0,1,2.43.81,9,9,0,0,1,1.87,1.17,8.9,8.9,0,0,1,1.36,1.4L804.19,788a8.64,8.64,0,0,0-2.27-1.75,6.93,6.93,0,0,0-3.33-.72,7.47,7.47,0,0,0-3.19.69,8.34,8.34,0,0,0-4.26,4.48,8.13,8.13,0,0,0-.63,3.18,5.48,5.48,0,0,0,.43,2.21,4.51,4.51,0,0,0,1.17,1.59,5.13,5.13,0,0,0,1.74,1A6.63,6.63,0,0,0,796,799a8.72,8.72,0,0,0,2.17-.24,8.34,8.34,0,0,0,1.63-.58l1-3.47h-4.72l1.09-4h9.26l-3,10.63a17,17,0,0,1-3.46,1.44,14.74,14.74,0,0,1-4.28.57A12.52,12.52,0,0,1,792,802.72Zm21.47-21.14h4.69l-4.57,17.06h10.63l-1.16,4.26H807.78Zm19.27,0h4.69l-5.72,21.32h-4.69Zm19.16,0h4.32l6.21,13.56,3.66-13.56h4.63L865,802.9h-4l-6.45-14-3.75,14h-4.63Zm23.93,0H891.8l-1.13,4.18H879.41l-1.16,4.35h9.9L887,794.22h-9.9l-1.22,4.51h11.45l-1.12,4.17H870.15Zm20.25,0h4.69l-4.56,17.06h10.62l-1.15,4.26H890.4ZM717.45,833.07a9.46,9.46,0,0,1-3.18-1.86,8.47,8.47,0,0,1-2.07-2.93,9.68,9.68,0,0,1-.74-3.85,12.06,12.06,0,0,1,1-4.86,13.64,13.64,0,0,1,2.76-4.06,13,13,0,0,1,4.1-2.8,12.53,12.53,0,0,1,5.07-1,10.1,10.1,0,0,1,5.16,1.22,9.4,9.4,0,0,1,3.37,3.32l-3.87,2.71a8.28,8.28,0,0,0-2.13-2.13,5.5,5.5,0,0,0-3.11-.79,6.32,6.32,0,0,0-2.81.65,8.21,8.21,0,0,0-2.41,1.77,8.33,8.33,0,0,0-1.67,2.62,8.2,8.2,0,0,0-.63,3.21,5.65,5.65,0,0,0,.38,2.1,4.94,4.94,0,0,0,1.08,1.63,4.75,4.75,0,0,0,1.65,1,6.39,6.39,0,0,0,4.78-.2,12.2,12.2,0,0,0,2.31-1.54l3,3.17a13.88,13.88,0,0,1-3.47,2.35,10.6,10.6,0,0,1-4.6.91A12.08,12.08,0,0,1,717.45,833.07Zm27.23-21.18h4.51l3.38,21.46h-4.81l-.67-4.78h-9l-3.23,4.78h-5.06Zm1.86,12.51-1-7-4.69,7ZM760.92,812h4.69L761,829.09h10.63l-1.16,4.26H755.19ZM780,812h15.93l-1.13,4.17H783.51l-1.16,4.35h9.9l-1.13,4.12h-9.89l-1.22,4.5h11.45l-1.13,4.17H774.25Zm20.25,0h4.32l6.22,13.55L814.42,812h4.63l-5.73,21.31h-4l-6.46-14-3.75,14H794.5Zm23.91,0h6.21a14.53,14.53,0,0,1,5.11.76,9.05,9.05,0,0,1,3.23,2A8.44,8.44,0,0,1,841,821a11.74,11.74,0,0,1-.89,4.54,11.9,11.9,0,0,1-2.62,3.87,12.57,12.57,0,0,1-4.69,2.92,19,19,0,0,1-6.48,1h-7.92Zm2.77,17.08a12.1,12.1,0,0,0,4-.65,8.21,8.21,0,0,0,3.13-1.94,7.19,7.19,0,0,0,1.59-2.4,7.94,7.94,0,0,0,.54-2.93,4.59,4.59,0,0,0-1.24-3.38A5.1,5.1,0,0,0,833,816.7a8.91,8.91,0,0,0-3-.43h-2.28l-3.47,12.85Zm27.25-17.23h4.51l3.38,21.46h-4.81l-.67-4.78h-9l-3.22,4.78h-5.06ZM856,824.4l-1-7-4.69,7ZM870.39,812h7.77a13.44,13.44,0,0,1,4,.53,6.7,6.7,0,0,1,2.73,1.6,5.84,5.84,0,0,1,1.64,4.29,7.11,7.11,0,0,1-1.73,4.86,9.56,9.56,0,0,1-5.15,2.76l3.62,7.27H878l-3.28-6.82h-3.51l-1.82,6.82h-4.69Zm6.09,10.32a8.28,8.28,0,0,0,2-.23,5.58,5.58,0,0,0,1.65-.66,3.44,3.44,0,0,0,1.09-1.09,2.86,2.86,0,0,0,.4-1.53,2.28,2.28,0,0,0-.67-1.7,4.33,4.33,0,0,0-3.11-.88H874l-1.65,6.09ZM892.74,812h4.69l-5.72,21.31H887Zm11.73,21a8.84,8.84,0,0,1-5.06-5,9.94,9.94,0,0,1-.7-3.73,12.12,12.12,0,0,1,.93-4.64,12.73,12.73,0,0,1,2.62-4,13.1,13.1,0,0,1,4-2.85,12.41,12.41,0,0,1,5.22-1.08,10.58,10.58,0,0,1,4,.72,9,9,0,0,1,3.08,2,9.22,9.22,0,0,1,2,3,9.94,9.94,0,0,1,.7,3.73,12.17,12.17,0,0,1-.93,4.65,12.79,12.79,0,0,1-2.62,4,13.1,13.1,0,0,1-4.05,2.85,12.37,12.37,0,0,1-5.22,1.08A10.65,10.65,0,0,1,904.47,833Zm7.59-4.33a7.85,7.85,0,0,0,2.34-1.88,8.81,8.81,0,0,0,1.5-2.57,7.94,7.94,0,0,0,.54-2.8,6.56,6.56,0,0,0-.35-2.18,5,5,0,0,0-1.05-1.72,4.57,4.57,0,0,0-1.71-1.13A6.52,6.52,0,0,0,911,816a6.4,6.4,0,0,0-3.06.73,7.67,7.67,0,0,0-2.34,1.87,8.81,8.81,0,0,0-1.5,2.57,7.92,7.92,0,0,0-.53,2.8,6.31,6.31,0,0,0,.35,2.18,4.7,4.7,0,0,0,1,1.72,4.53,4.53,0,0,0,1.71,1.13,6.89,6.89,0,0,0,5.4-.33ZM719.84,862.89a12.64,12.64,0,0,1-2.67,1,13,13,0,0,1-3,.33,10.86,10.86,0,0,1-4-.71,8.88,8.88,0,0,1-3.07-2,8.72,8.72,0,0,1-2-3,9.71,9.71,0,0,1-.7-3.73,12.3,12.3,0,0,1,.92-4.64,13,13,0,0,1,2.62-4,13.25,13.25,0,0,1,4-2.84,12.46,12.46,0,0,1,5.23-1.09,10.65,10.65,0,0,1,4,.72,9,9,0,0,1,3.07,2,9.08,9.08,0,0,1,2,3,9.8,9.8,0,0,1,.7,3.74,12.1,12.1,0,0,1-.94,4.7,13,13,0,0,1-2.68,4.07l1.7,2.25-3.86,2.56Zm-3.69-3.19a10.59,10.59,0,0,0,1.28-.4l-2.74-3.72,3.87-2.58,2.16,3.47a8.57,8.57,0,0,0,1.09-2.26,7.72,7.72,0,0,0,.37-2.34,6.6,6.6,0,0,0-.35-2.18,4.93,4.93,0,0,0-1-1.72,4.59,4.59,0,0,0-1.72-1.12,6.31,6.31,0,0,0-2.34-.4,6.4,6.4,0,0,0-3.06.73,8.08,8.08,0,0,0-2.34,1.87,8.73,8.73,0,0,0-1.5,2.58,8.06,8.06,0,0,0-.53,2.8,6.6,6.6,0,0,0,.35,2.18,4.78,4.78,0,0,0,1,1.72,4.63,4.63,0,0,0,1.71,1.12,6.31,6.31,0,0,0,2.34.4A6.48,6.48,0,0,0,716.15,859.7Zm18.71,4a7.22,7.22,0,0,1-2.51-1.41,5.85,5.85,0,0,1-1.58-2.25,7.88,7.88,0,0,1-.55-3,9.7,9.7,0,0,1,.14-1.66,14.22,14.22,0,0,1,.38-1.76l3-11h4.69L735.3,854a10.82,10.82,0,0,0-.24,1.1,7.5,7.5,0,0,0-.09,1.22,3.51,3.51,0,0,0,.94,2.55,3.7,3.7,0,0,0,2.77,1,4.87,4.87,0,0,0,3.48-1.34,8.66,8.66,0,0,0,2.07-4l3.23-12h4.68l-3.41,12.7a13.73,13.73,0,0,1-3.28,6.33,8.47,8.47,0,0,1-3.1,2,12.13,12.13,0,0,1-4.15.65A10.82,10.82,0,0,1,734.86,863.66Zm28.7-21.32h4.51l3.38,21.47h-4.81L766,859h-9l-3.23,4.78h-5.06Zm1.86,12.51-1-7-4.69,7Zm14.38-12.36h4.32L790.33,856,794,842.49h4.63l-5.73,21.32h-4l-6.45-14-3.75,14h-4.63Zm23.9,0h6.21a14.82,14.82,0,0,1,5.12.76,9.05,9.05,0,0,1,3.23,2,8.45,8.45,0,0,1,2.31,6.24,11.7,11.7,0,0,1-.88,4.54,11.9,11.9,0,0,1-2.62,3.87,12.57,12.57,0,0,1-4.69,2.92,19,19,0,0,1-6.49,1H798Zm2.77,17.08a11.84,11.84,0,0,0,4-.65A8.28,8.28,0,0,0,813.6,857a7.05,7.05,0,0,0,1.58-2.41,7.7,7.7,0,0,0,.55-2.92,4.58,4.58,0,0,0-1.25-3.38,5,5,0,0,0-1.89-1.13,9.1,9.1,0,0,0-3-.43h-2.29l-3.47,12.85Zm22.63,3.89a8.89,8.89,0,0,1-5.06-5,9.9,9.9,0,0,1-.7-3.73,12.12,12.12,0,0,1,.93-4.64,12.84,12.84,0,0,1,2.62-4,13.25,13.25,0,0,1,4.05-2.84,12.38,12.38,0,0,1,5.22-1.09,10.58,10.58,0,0,1,4,.72,8.92,8.92,0,0,1,3.08,2,9.08,9.08,0,0,1,2,3,10,10,0,0,1,.7,3.74,12.12,12.12,0,0,1-.93,4.64,12.84,12.84,0,0,1-2.62,4,13.25,13.25,0,0,1-4.05,2.84,12.37,12.37,0,0,1-5.22,1.08A10.86,10.86,0,0,1,829.1,863.46Zm7.59-4.34a7.82,7.82,0,0,0,2.34-1.87,8.86,8.86,0,0,0,1.5-2.58,7.89,7.89,0,0,0,.54-2.8,6.35,6.35,0,0,0-.36-2.18,4.78,4.78,0,0,0-1-1.72,4.63,4.63,0,0,0-1.71-1.12,6.31,6.31,0,0,0-2.34-.4,6.4,6.4,0,0,0-3.06.73,7.82,7.82,0,0,0-2.34,1.87,8.73,8.73,0,0,0-1.5,2.58,7.84,7.84,0,0,0-.53,2.8,6.35,6.35,0,0,0,.35,2.18,4.78,4.78,0,0,0,1,1.72,4.63,4.63,0,0,0,1.71,1.12,6.31,6.31,0,0,0,2.34.4A6.4,6.4,0,0,0,836.69,859.12Zm25.18-16.63h4.32L872.4,856l3.66-13.55h4.62L875,863.81h-4l-6.46-14-3.74,14h-4.63Zm25.64,21a8.92,8.92,0,0,1-3.08-2,9,9,0,0,1-2-3,9.71,9.71,0,0,1-.7-3.73,12.12,12.12,0,0,1,.93-4.64,12.84,12.84,0,0,1,2.62-4,13,13,0,0,1,4.05-2.84,12.38,12.38,0,0,1,5.22-1.09,10.65,10.65,0,0,1,4,.72,8.91,8.91,0,0,1,5.06,5,10,10,0,0,1,.7,3.74,12.12,12.12,0,0,1-.93,4.64,13,13,0,0,1-2.62,4,13.25,13.25,0,0,1-4,2.84,12.44,12.44,0,0,1-5.22,1.08A10.78,10.78,0,0,1,887.51,863.46Zm7.59-4.34a7.82,7.82,0,0,0,2.34-1.87,8.86,8.86,0,0,0,1.5-2.58,8.1,8.1,0,0,0,.53-2.8,6.35,6.35,0,0,0-.35-2.18,4.78,4.78,0,0,0-1-1.72,4.63,4.63,0,0,0-1.71-1.12,6.89,6.89,0,0,0-5.4.33,7.82,7.82,0,0,0-2.34,1.87,8.32,8.32,0,0,0-1.5,2.58,7.85,7.85,0,0,0-.54,2.8,6.6,6.6,0,0,0,.35,2.18,5.08,5.08,0,0,0,1,1.72,4.59,4.59,0,0,0,1.72,1.12,6.31,6.31,0,0,0,2.34.4A6.4,6.4,0,0,0,895.1,859.12Zm16-16.63h4.32L921.67,856l3.66-13.55H930l-5.73,21.32h-4l-6.45-14-3.75,14h-4.63ZM761,872.79h4.5l3.38,21.47H764l-.67-4.78h-9l-3.23,4.78h-5.06Zm1.85,12.52-1-7-4.69,7Zm14.38-12.37h4.32l6.21,13.56,3.66-13.56H796l-5.73,21.32h-4l-6.45-14-3.75,14h-4.63Zm23.9,0h6.21a14.53,14.53,0,0,1,5.12.77,8.9,8.9,0,0,1,3.23,2,8.47,8.47,0,0,1,2.31,6.25,11.59,11.59,0,0,1-3.5,8.4,12.59,12.59,0,0,1-4.69,2.93,19,19,0,0,1-6.48,1h-7.92ZM803.85,890a11.85,11.85,0,0,0,4-.66,8.16,8.16,0,0,0,3.14-1.93,7,7,0,0,0,1.58-2.41,7.66,7.66,0,0,0,.55-2.92,4.54,4.54,0,0,0-1.25-3.38A5,5,0,0,0,810,877.6a9.12,9.12,0,0,0-3-.42h-2.28L801.2,890Zm27.26-17.24h4.51L839,894.26h-4.82l-.67-4.78h-9l-3.23,4.78h-5ZM833,885.31l-1-7-4.69,7Zm14.37-12.37h7.77a13.15,13.15,0,0,1,4,.54,6.66,6.66,0,0,1,2.73,1.6,5.8,5.8,0,0,1,1.64,4.29,7.07,7.07,0,0,1-1.74,4.86,9.42,9.42,0,0,1-5.14,2.75l3.62,7.28h-5.33l-3.29-6.82h-3.5l-1.83,6.82h-4.69Zm6.09,10.33a8.79,8.79,0,0,0,2-.23,5.34,5.34,0,0,0,1.65-.67,3.25,3.25,0,0,0,1.09-1.09,2.9,2.9,0,0,0,.4-1.53,2.31,2.31,0,0,0-.67-1.69,4.35,4.35,0,0,0-3.11-.88H850.9l-1.64,6.09Zm16.05-10.33h15.93l-1.13,4.18H873l-1.16,4.35h9.9l-1.13,4.11h-9.89l-1.22,4.51H881l-1.13,4.17H863.75Z" style="fill: #ff2a00"/>
  <path d="M727.56,1263.27a9.32,9.32,0,0,1-3.17-1.86,8.36,8.36,0,0,1-2.08-2.93,9.68,9.68,0,0,1-.74-3.85,11.9,11.9,0,0,1,1-4.86,13.43,13.43,0,0,1,2.75-4.06,13,13,0,0,1,4.1-2.8,12.53,12.53,0,0,1,5.07-1,10.12,10.12,0,0,1,5.17,1.22,9.46,9.46,0,0,1,3.36,3.32l-3.87,2.71A8.28,8.28,0,0,0,737,1247a5.46,5.46,0,0,0-3.1-.79,6.47,6.47,0,0,0-2.82.65,8.34,8.34,0,0,0-2.41,1.77,8.51,8.51,0,0,0-1.67,2.62,8.2,8.2,0,0,0-.62,3.21,5.65,5.65,0,0,0,.37,2.1,4.81,4.81,0,0,0,1.09,1.63,4.62,4.62,0,0,0,1.64,1,6.39,6.39,0,0,0,4.78-.2,12.57,12.57,0,0,0,2.32-1.54l3,3.17a13.7,13.7,0,0,1-3.47,2.35,10.6,10.6,0,0,1-4.6.91A12.12,12.12,0,0,1,727.56,1263.27Zm20.17-21h15.93l-1.13,4.17H751.26l-1.15,4.35H760l-1.12,4.12H749l-1.22,4.5h11.45l-1.12,4.17H742Zm20.22,0h6.21a14.55,14.55,0,0,1,5.12.76,9.05,9.05,0,0,1,3.23,2,8.43,8.43,0,0,1,2.31,6.24,11.7,11.7,0,0,1-.88,4.54,11.9,11.9,0,0,1-2.62,3.87,12.57,12.57,0,0,1-4.69,2.92,19,19,0,0,1-6.49,1h-7.91Zm2.77,17.08a12.1,12.1,0,0,0,4-.65,8.18,8.18,0,0,0,3.14-1.94,7,7,0,0,0,1.58-2.4,7.75,7.75,0,0,0,.55-2.93,4.59,4.59,0,0,0-1.25-3.38,5,5,0,0,0-1.89-1.12,8.84,8.84,0,0,0-3-.43h-2.29l-3.47,12.85Zm21.14-17.08h4.69l-5.73,21.31h-4.69Zm19.36,0h4.69l-5.72,21.31H805.5Zm10,0h4.69l-4.56,17H832l-1.15,4.26H815.52Zm31.52,4.32h-6.48l1.15-4.32h17.66l-1.15,4.32h-6.49l-4.57,17h-4.69Zm16.58,16.84a7,7,0,0,1-2.51-1.4,5.93,5.93,0,0,1-1.58-2.25,7.94,7.94,0,0,1-.55-3,10.83,10.83,0,0,1,.14-1.66,14.07,14.07,0,0,1,.38-1.75l2.95-11h4.69l-3.07,11.48a8.56,8.56,0,0,0-.25,1.09,7.68,7.68,0,0,0-.09,1.22,3.51,3.51,0,0,0,.94,2.56,3.71,3.71,0,0,0,2.78,1,4.87,4.87,0,0,0,3.47-1.34,8.66,8.66,0,0,0,2.07-4l3.23-12h4.69l-3.42,12.7a13.73,13.73,0,0,1-3.28,6.33,8.64,8.64,0,0,1-3.09,2,12.24,12.24,0,0,1-4.16.65A10.52,10.52,0,0,1,869.34,1263.4Zm23.95-.2a8.86,8.86,0,0,1-5-5,9.75,9.75,0,0,1-.7-3.73,12.12,12.12,0,0,1,.93-4.64,12.73,12.73,0,0,1,2.62-4,12.87,12.87,0,0,1,4-2.85,12.37,12.37,0,0,1,5.22-1.08,10.65,10.65,0,0,1,4,.72,8.86,8.86,0,0,1,5,5,9.75,9.75,0,0,1,.7,3.73,12.17,12.17,0,0,1-.93,4.65,12.76,12.76,0,0,1-2.61,4,13.1,13.1,0,0,1-4,2.85,12.45,12.45,0,0,1-5.23,1.08A10.65,10.65,0,0,1,893.29,1263.2Zm7.6-4.33a8.11,8.11,0,0,0,2.34-1.88,8.81,8.81,0,0,0,1.5-2.57,8.15,8.15,0,0,0,.53-2.8,6.6,6.6,0,0,0-.35-2.18,4.93,4.93,0,0,0-1-1.72,4.65,4.65,0,0,0-1.71-1.13,6.6,6.6,0,0,0-2.34-.39,6.35,6.35,0,0,0-3.06.73,7.82,7.82,0,0,0-2.34,1.87,8.38,8.38,0,0,0-1.5,2.57,7.94,7.94,0,0,0-.54,2.8,6.56,6.56,0,0,0,.35,2.18,4.84,4.84,0,0,0,1,1.72,4.49,4.49,0,0,0,1.72,1.13,6.89,6.89,0,0,0,5.4-.33Zm-199.6,13.67h4.51l3.38,21.47h-4.81l-.67-4.78h-9l-3.22,4.78H686.4Zm1.86,12.51-1-7-4.69,7Zm14.37-12.36h8.29a11.45,11.45,0,0,1,3.24.41,6.46,6.46,0,0,1,2.24,1.13,4.47,4.47,0,0,1,1.31,1.67,5,5,0,0,1,.42,2,4.85,4.85,0,0,1-1.25,3.47,6.18,6.18,0,0,1-3.31,1.79,5.82,5.82,0,0,1,2.16,1.65,4.16,4.16,0,0,1,.82,2.68,5.59,5.59,0,0,1-.61,2.62,5.88,5.88,0,0,1-1.77,2.06,8.34,8.34,0,0,1-2.86,1.34,14.58,14.58,0,0,1-3.93.48H711.8ZM723,1289.9a4.76,4.76,0,0,0,2.79-.72,2.27,2.27,0,0,0,1-2,1.72,1.72,0,0,0-.73-1.48,3.69,3.69,0,0,0-2.19-.53h-5.15l-1.25,4.69Zm1.53-8.62a5.45,5.45,0,0,0,2.83-.62,2.13,2.13,0,0,0,1-2,1.64,1.64,0,0,0-.7-1.36,3.63,3.63,0,0,0-2.25-.55H721l-1.18,4.48Zm14.86-8.59h8.28a11.35,11.35,0,0,1,3.24.41,6.37,6.37,0,0,1,2.24,1.13,4.37,4.37,0,0,1,1.31,1.67,4.82,4.82,0,0,1,.43,2,4.89,4.89,0,0,1-1.25,3.47,6.21,6.21,0,0,1-3.32,1.79,5.82,5.82,0,0,1,2.16,1.65,4.16,4.16,0,0,1,.82,2.68,5.71,5.71,0,0,1-.6,2.62,6,6,0,0,1-1.77,2.06,8.42,8.42,0,0,1-2.86,1.34,14.58,14.58,0,0,1-3.93.48H733.63Zm5.45,17.21a4.73,4.73,0,0,0,2.78-.72,2.28,2.28,0,0,0,1-2,1.73,1.73,0,0,0-.74-1.48,3.65,3.65,0,0,0-2.19-.53h-5.15l-1.24,4.69Zm1.52-8.62a5.43,5.43,0,0,0,2.83-.62,2.14,2.14,0,0,0,1-2,1.66,1.66,0,0,0-.7-1.36,3.66,3.66,0,0,0-2.26-.55H742.8l-1.19,4.48Zm16.57,12.38a8.89,8.89,0,0,1-5.06-5,9.9,9.9,0,0,1-.7-3.73,12.12,12.12,0,0,1,.93-4.64,12.84,12.84,0,0,1,2.62-4,13.25,13.25,0,0,1,4-2.84,12.38,12.38,0,0,1,5.22-1.09,10.65,10.65,0,0,1,4,.72,8.91,8.91,0,0,1,5.06,5,9.94,9.94,0,0,1,.7,3.73,12.14,12.14,0,0,1-.93,4.65,12.68,12.68,0,0,1-2.62,4,13.1,13.1,0,0,1-4,2.85,12.41,12.41,0,0,1-5.22,1.08A10.78,10.78,0,0,1,762.9,1293.66Zm7.59-4.34a7.7,7.7,0,0,0,2.34-1.88,8.68,8.68,0,0,0,1.5-2.57,7.89,7.89,0,0,0,.54-2.8,6.35,6.35,0,0,0-.36-2.18,4.78,4.78,0,0,0-1-1.72,4.65,4.65,0,0,0-1.71-1.13,6.52,6.52,0,0,0-2.34-.39,6.4,6.4,0,0,0-3.06.73,7.82,7.82,0,0,0-2.34,1.87,8.73,8.73,0,0,0-1.5,2.58,7.85,7.85,0,0,0-.54,2.8,6.25,6.25,0,0,0,.36,2.17,4.82,4.82,0,0,0,1,1.73,4.63,4.63,0,0,0,1.71,1.12,6.31,6.31,0,0,0,2.34.4A6.52,6.52,0,0,0,770.49,1289.32Zm16-16.63h4.32l6.21,13.55,3.66-13.55h4.63L799.62,1294h-4l-6.45-14-3.75,14H780.8Zm31-.15H822l3.38,21.47H820.6l-.67-4.78h-9l-3.23,4.78h-5.05Zm1.86,12.51-1-7-4.69,7Zm14.37-12.36h4.87l3.08,9,7.95-9h5.42L849.35,1294H844.6l3.72-13.92L840,1289.2h-.12l-3.41-9L832.72,1294H828Zm26.43,0h15.93l-1.13,4.17H863.73l-1.16,4.36h9.9l-1.13,4.11h-9.9l-1.22,4.5h11.45l-1.12,4.18H854.47Zm20.25,0h4.33l6.21,13.55,3.65-13.55h4.63L893.54,1294h-4l-6.46-14-3.74,14h-4.63ZM907.7,1277h-6.49l1.16-4.32H920l-1.15,4.32h-6.49l-4.57,17h-4.69Zm17,16.65a9,9,0,0,1-3.07-2,8.72,8.72,0,0,1-2-3,9.71,9.71,0,0,1-.7-3.73,12.11,12.11,0,0,1,.92-4.64,13,13,0,0,1,2.62-4,13.25,13.25,0,0,1,4-2.84,12.46,12.46,0,0,1,5.23-1.09,10.65,10.65,0,0,1,4,.72,9,9,0,0,1,3.07,2,9.08,9.08,0,0,1,2,3,9.75,9.75,0,0,1,.7,3.73,12.14,12.14,0,0,1-.93,4.65,12.68,12.68,0,0,1-2.62,4,12.87,12.87,0,0,1-4,2.85,12.37,12.37,0,0,1-5.22,1.08A10.86,10.86,0,0,1,924.66,1293.66Zm7.59-4.34a7.7,7.7,0,0,0,2.34-1.88,8.27,8.27,0,0,0,1.5-2.57,7.89,7.89,0,0,0,.54-2.8,6.6,6.6,0,0,0-.35-2.18,4.93,4.93,0,0,0-1-1.72,4.61,4.61,0,0,0-1.72-1.13,6.52,6.52,0,0,0-2.34-.39,6.4,6.4,0,0,0-3.06.73,8,8,0,0,0-2.34,1.87,8.73,8.73,0,0,0-1.5,2.58,8.06,8.06,0,0,0-.53,2.8,6.25,6.25,0,0,0,.35,2.17,4.82,4.82,0,0,0,1,1.73,4.63,4.63,0,0,0,1.71,1.12,6.38,6.38,0,0,0,2.34.4A6.46,6.46,0,0,0,932.25,1289.32Zm-183.36,13.82h6.76a13.15,13.15,0,0,1,3.91.51,6.57,6.57,0,0,1,2.79,1.65,5.92,5.92,0,0,1,1.64,4.39,7.62,7.62,0,0,1-.8,3.53,7.73,7.73,0,0,1-2.2,2.62,9.82,9.82,0,0,1-3.27,1.62,14.8,14.8,0,0,1-4.08.54h-4l-1.74,6.46h-4.69Zm5,10.75a6.53,6.53,0,0,0,3.78-1,3.23,3.23,0,0,0,1.43-2.81,2.4,2.4,0,0,0-.7-1.77,3.2,3.2,0,0,0-1.17-.72,5.74,5.74,0,0,0-1.75-.22h-3.05l-1.73,6.51Zm15.69-10.75h15.92l-1.12,4.18H773.1l-1.16,4.35h9.9l-1.13,4.11h-9.9l-1.21,4.51h11.45l-1.13,4.17H763.84Zm20.25,0h7.76a13.17,13.17,0,0,1,4,.54,6.6,6.6,0,0,1,2.72,1.59,5.81,5.81,0,0,1,1.65,4.3,7.07,7.07,0,0,1-1.74,4.86,9.52,9.52,0,0,1-5.15,2.75l3.63,7.28H797.4l-3.29-6.82h-3.5l-1.83,6.82h-4.69Zm6.09,10.33a8.79,8.79,0,0,0,2-.23,5.28,5.28,0,0,0,1.64-.67,3.28,3.28,0,0,0,1.1-1.09,2.9,2.9,0,0,0,.39-1.53,2.29,2.29,0,0,0-.67-1.7,4.37,4.37,0,0,0-3.1-.87h-3.93l-1.65,6.09Zm26.2,10.84a7.2,7.2,0,0,1-2.51-1.4,6,6,0,0,1-1.59-2.26,8,8,0,0,1-.54-3,10.78,10.78,0,0,1,.13-1.66c.1-.58.22-1.16.38-1.75l3-11.06h4.69l-3.08,11.48a10.82,10.82,0,0,0-.24,1.1,7.5,7.5,0,0,0-.09,1.22,3.53,3.53,0,0,0,.94,2.56,3.68,3.68,0,0,0,2.77,1,4.83,4.83,0,0,0,3.47-1.34,8.38,8.38,0,0,0,2.07-4l3.23-12h4.69l-3.41,12.7a13.74,13.74,0,0,1-3.29,6.34,8.45,8.45,0,0,1-3.09,2,11.94,11.94,0,0,1-4.15.65A10.77,10.77,0,0,1,822.11,1324.31Zm22.25-21.17h4.32l6.21,13.55,3.66-13.55h4.63l-5.73,21.32h-4l-6.45-14-3.75,14h-4.63Zm25.64,21a9,9,0,0,1-3.08-2,9.22,9.22,0,0,1-2-3,9.8,9.8,0,0,1-.7-3.74,12.12,12.12,0,0,1,.93-4.64,12.68,12.68,0,0,1,2.62-4,13.1,13.1,0,0,1,4.05-2.85,12.37,12.37,0,0,1,5.22-1.08,10.86,10.86,0,0,1,4,.71,8.89,8.89,0,0,1,5.06,5,9.9,9.9,0,0,1,.7,3.73,12.12,12.12,0,0,1-.93,4.64,12.73,12.73,0,0,1-2.62,4,13.25,13.25,0,0,1-4,2.84,12.41,12.41,0,0,1-5.22,1.09A10.58,10.58,0,0,1,870,1324.11Zm7.59-4.34a7.82,7.82,0,0,0,2.34-1.87,8.73,8.73,0,0,0,1.5-2.58,7.84,7.84,0,0,0,.53-2.8,6.35,6.35,0,0,0-.35-2.18,4.87,4.87,0,0,0-1-1.72,4.63,4.63,0,0,0-1.71-1.12,6.31,6.31,0,0,0-2.34-.4,6.52,6.52,0,0,0-3.06.73,7.7,7.7,0,0,0-2.34,1.88,8.81,8.81,0,0,0-1.5,2.57,7.89,7.89,0,0,0-.54,2.8,6.35,6.35,0,0,0,.36,2.18,4.78,4.78,0,0,0,1,1.72,4.57,4.57,0,0,0,1.71,1.13,6.52,6.52,0,0,0,2.34.39A6.4,6.4,0,0,0,877.59,1319.77Zm-161.32,34.79a8.86,8.86,0,0,1-5-5,9.75,9.75,0,0,1-.7-3.73,12.17,12.17,0,0,1,.93-4.65,12.88,12.88,0,0,1,6.67-6.88,12.37,12.37,0,0,1,5.22-1.08,10.65,10.65,0,0,1,4,.72,8.85,8.85,0,0,1,3.07,2,8.72,8.72,0,0,1,2,3,9.75,9.75,0,0,1,.7,3.73,12.21,12.21,0,0,1-.93,4.65,12.76,12.76,0,0,1-2.61,4,13.1,13.1,0,0,1-4,2.85,12.45,12.45,0,0,1-5.23,1.08A10.65,10.65,0,0,1,716.27,1354.56Zm7.6-4.34a7.92,7.92,0,0,0,2.34-1.87,8.81,8.81,0,0,0,1.5-2.57,8.15,8.15,0,0,0,.53-2.8,6.56,6.56,0,0,0-.35-2.18,4.84,4.84,0,0,0-1-1.72,4.53,4.53,0,0,0-1.71-1.13,6.61,6.61,0,0,0-2.35-.4,6.34,6.34,0,0,0-3,.74,7.84,7.84,0,0,0-2.35,1.87,8.56,8.56,0,0,0-1.49,2.57,7.94,7.94,0,0,0-.54,2.8,6.56,6.56,0,0,0,.35,2.18,4.93,4.93,0,0,0,1,1.72,4.61,4.61,0,0,0,1.72,1.13,6.52,6.52,0,0,0,2.34.39A6.4,6.4,0,0,0,723.87,1350.22ZM749,1333.6h6.76a13.18,13.18,0,0,1,3.91.5,6.59,6.59,0,0,1,2.79,1.66,5.9,5.9,0,0,1,1.64,4.38,7.56,7.56,0,0,1-.8,3.54,7.79,7.79,0,0,1-2.2,2.61,9.63,9.63,0,0,1-3.27,1.62,14.79,14.79,0,0,1-4.08.55h-4l-1.74,6.45h-4.69Zm5,10.75a6.5,6.5,0,0,0,3.78-1,3.23,3.23,0,0,0,1.43-2.82,2.4,2.4,0,0,0-.7-1.77,2.9,2.9,0,0,0-1.17-.71,5.71,5.71,0,0,0-1.75-.23h-3l-1.73,6.52Zm15.9-10.75h4.69l-5.73,21.31H764.2Zm11,21.16a7,7,0,0,1-2.51-1.4,6.06,6.06,0,0,1-1.59-2.25,8.13,8.13,0,0,1-.54-3,10.78,10.78,0,0,1,.13-1.66,16.14,16.14,0,0,1,.38-1.75l3-11.05h4.69l-3.08,11.48a10.64,10.64,0,0,0-.24,1.09,7.68,7.68,0,0,0-.09,1.22A3.51,3.51,0,0,0,782,1350a3.68,3.68,0,0,0,2.77,1,4.79,4.79,0,0,0,3.47-1.34,8.38,8.38,0,0,0,2.07-4l3.23-12h4.69l-3.41,12.69a13.73,13.73,0,0,1-3.29,6.34,8.32,8.32,0,0,1-3.09,2,12,12,0,0,1-4.16.66A10.74,10.74,0,0,1,781,1354.76Zm4.1-26.49,4.08-1.74,2,5.39H788Zm29.56,26.46a9.37,9.37,0,0,1-3.2-1.69,8.61,8.61,0,0,1-2.28-2.89,9.07,9.07,0,0,1-.88-4.13,11.91,11.91,0,0,1,1-4.8,13.28,13.28,0,0,1,2.75-4.08,13.48,13.48,0,0,1,4.2-2.84,13.15,13.15,0,0,1,5.33-1.07,13.6,13.6,0,0,1,3,.31,11.64,11.64,0,0,1,2.44.8,9.3,9.3,0,0,1,1.87,1.17,8.54,8.54,0,0,1,1.36,1.41l-3.47,3.07a8.64,8.64,0,0,0-2.27-1.75,7,7,0,0,0-3.34-.72,7.39,7.39,0,0,0-3.18.69,8.3,8.3,0,0,0-2.56,1.83,8.42,8.42,0,0,0-1.7,2.65,8.13,8.13,0,0,0-.63,3.18,5.31,5.31,0,0,0,.43,2.21,4.28,4.28,0,0,0,1.17,1.59,5.13,5.13,0,0,0,1.74,1,6.61,6.61,0,0,0,2.11.33,8.81,8.81,0,0,0,2.18-.24,8.58,8.58,0,0,0,1.63-.58l1-3.47h-4.72l1.1-4H829l-3,10.63a16.68,16.68,0,0,1-3.45,1.44,14.74,14.74,0,0,1-4.28.57A12.25,12.25,0,0,1,814.63,1354.73Zm21.69-21.13H841l-5.73,21.31h-4.69Zm11.72,21a9,9,0,0,1-3.08-2,8.84,8.84,0,0,1-2-3,9.75,9.75,0,0,1-.7-3.73,12.16,12.16,0,0,1,.92-4.65,13,13,0,0,1,2.62-4,13.1,13.1,0,0,1,4-2.85,12.45,12.45,0,0,1,5.23-1.08,10.65,10.65,0,0,1,4,.72,8.86,8.86,0,0,1,5,5,9.75,9.75,0,0,1,.7,3.73,12.21,12.21,0,0,1-.93,4.65,12.88,12.88,0,0,1-6.67,6.88,12.37,12.37,0,0,1-5.22,1.08A10.65,10.65,0,0,1,848,1354.56Zm7.59-4.34a7.67,7.67,0,0,0,2.34-1.87,8.38,8.38,0,0,0,1.5-2.57,7.94,7.94,0,0,0,.54-2.8,6.56,6.56,0,0,0-.35-2.18,4.84,4.84,0,0,0-1-1.72,4.49,4.49,0,0,0-1.72-1.13,6.52,6.52,0,0,0-2.34-.4,6.41,6.41,0,0,0-3.06.74,7.79,7.79,0,0,0-2.34,1.87,8.81,8.81,0,0,0-1.5,2.57,8.15,8.15,0,0,0-.53,2.8,6.31,6.31,0,0,0,.35,2.18,4.78,4.78,0,0,0,1,1.72,4.65,4.65,0,0,0,1.71,1.13,6.6,6.6,0,0,0,2.34.39A6.35,6.35,0,0,0,855.63,1350.22Zm16-16.62h7.77a13.13,13.13,0,0,1,4,.53,6.59,6.59,0,0,1,2.73,1.6,5.82,5.82,0,0,1,1.64,4.29,7.11,7.11,0,0,1-1.73,4.86,9.49,9.49,0,0,1-5.15,2.75l3.62,7.28h-5.33l-3.28-6.82h-3.51l-1.82,6.82H866Zm6.09,10.32a8.79,8.79,0,0,0,2-.23,5.58,5.58,0,0,0,1.65-.66,3.37,3.37,0,0,0,1.09-1.1,2.82,2.82,0,0,0,.4-1.53,2.27,2.27,0,0,0-.67-1.69,4.35,4.35,0,0,0-3.11-.88h-3.93l-1.64,6.09Zm16-10.32h4.32l6.22,13.55L908,1333.6h4.63l-5.72,21.31h-4l-6.46-14-3.75,14h-4.62Zm24.15,0h4.69l-5.73,21.31h-4.69Z" style="fill: #ff2a00"/>
  <path d="M731.33,1754.48a9.45,9.45,0,0,1-3.2-1.69,8.7,8.7,0,0,1-2.29-2.9,9.13,9.13,0,0,1-.88-4.12,12,12,0,0,1,1-4.8,13.49,13.49,0,0,1,2.76-4.08,13.18,13.18,0,0,1,9.52-3.91,14.33,14.33,0,0,1,3,.3,11.73,11.73,0,0,1,2.43.81,9,9,0,0,1,1.88,1.17,8.82,8.82,0,0,1,1.35,1.4l-3.47,3.08a8.44,8.44,0,0,0-2.27-1.75,6.9,6.9,0,0,0-3.33-.72,7.47,7.47,0,0,0-3.19.69,8.19,8.19,0,0,0-2.55,1.82,8.75,8.75,0,0,0-1.71,2.65,8.21,8.21,0,0,0-.62,3.19,5.43,5.43,0,0,0,.42,2.2,4.45,4.45,0,0,0,1.18,1.6,5.16,5.16,0,0,0,1.73,1,6.68,6.68,0,0,0,2.12.33,8.81,8.81,0,0,0,2.18-.24,9.21,9.21,0,0,0,1.62-.58l1-3.47h-4.72l1.1-4h9.25l-3,10.63a17.59,17.59,0,0,1-3.46,1.44,14.69,14.69,0,0,1-4.28.57A12.57,12.57,0,0,1,731.33,1754.48Zm22.49,0a7.11,7.11,0,0,1-2.51-1.4,6,6,0,0,1-1.59-2.26,8,8,0,0,1-.55-3,10.83,10.83,0,0,1,.14-1.66,16.14,16.14,0,0,1,.38-1.75l3-11.06h4.69l-3.08,11.48a10.82,10.82,0,0,0-.24,1.1,7.59,7.59,0,0,0-.09,1.22,3.53,3.53,0,0,0,.94,2.56,3.68,3.68,0,0,0,2.77,1,4.83,4.83,0,0,0,3.47-1.34,8.38,8.38,0,0,0,2.07-4l3.23-12h4.69l-3.41,12.7a13.83,13.83,0,0,1-3.29,6.34,8.45,8.45,0,0,1-3.09,2,12,12,0,0,1-4.16.66A10.74,10.74,0,0,1,753.82,1754.51Zm28.73-21.32h4.51l3.38,21.47h-4.81l-.67-4.78h-9l-3.23,4.78h-5.05Zm1.86,12.52-1-7-4.69,7Zm14.34-12.37H805a14.79,14.79,0,0,1,5.12.76,9.05,9.05,0,0,1,3.23,2,8.47,8.47,0,0,1,2.31,6.25,11.59,11.59,0,0,1-3.5,8.4,12.59,12.59,0,0,1-4.69,2.93,19,19,0,0,1-6.49,1H793Zm2.77,17.09a11.85,11.85,0,0,0,4-.66,8.16,8.16,0,0,0,3.14-1.93,7,7,0,0,0,1.58-2.41,7.7,7.7,0,0,0,.55-2.92,4.58,4.58,0,0,0-1.25-3.38,5,5,0,0,0-1.89-1.13,9.12,9.12,0,0,0-3-.42h-2.29l-3.47,12.85Zm27.26-17.24h4.51l3.38,21.47h-4.82l-.67-4.78h-9l-3.23,4.78h-5.05Zm1.86,12.52-1-7-4.69,7Zm15,8.77a9.36,9.36,0,0,1-3.2-1.69,8.7,8.7,0,0,1-2.29-2.9,9.13,9.13,0,0,1-.88-4.12,12,12,0,0,1,1-4.8,13.49,13.49,0,0,1,2.76-4.08,13.18,13.18,0,0,1,9.52-3.91,14.33,14.33,0,0,1,3.05.3,11.73,11.73,0,0,1,2.43.81,9,9,0,0,1,1.88,1.17,8.82,8.82,0,0,1,1.35,1.4l-3.47,3.08a8.44,8.44,0,0,0-2.27-1.75,6.9,6.9,0,0,0-3.33-.72,7.47,7.47,0,0,0-3.19.69,8.19,8.19,0,0,0-2.55,1.82,8.75,8.75,0,0,0-1.71,2.65,8.21,8.21,0,0,0-.62,3.19,5.43,5.43,0,0,0,.42,2.2,4.55,4.55,0,0,0,1.17,1.6,5.31,5.31,0,0,0,1.74,1,6.68,6.68,0,0,0,2.12.33,8.72,8.72,0,0,0,2.17-.24,9,9,0,0,0,1.63-.58l1-3.47h-4.72l1.09-4H860L857,1753a17.59,17.59,0,0,1-3.46,1.44,14.69,14.69,0,0,1-4.28.57A12.52,12.52,0,0,1,845.62,1754.48Zm21.47-21.14h4.32l6.21,13.55,3.66-13.55h4.63l-5.73,21.32h-4l-6.45-14-3.75,14h-4.63Zm31-.15h4.51l3.38,21.47h-4.82l-.67-4.78h-9l-3.23,4.78h-5Zm1.86,12.52-1-7-4.69,7Z" style="fill: #ff2a00"/>
  <path d="M740.8,2163.54h7.77a13.1,13.1,0,0,1,4,.54,6.58,6.58,0,0,1,2.73,1.59A5.84,5.84,0,0,1,757,2170a7.11,7.11,0,0,1-1.73,4.86,9.62,9.62,0,0,1-5.15,2.75l3.62,7.28h-5.33L745.1,2178h-3.51l-1.82,6.82h-4.69Zm6.09,10.33a8.79,8.79,0,0,0,2-.23,5.34,5.34,0,0,0,1.65-.67,3.25,3.25,0,0,0,1.09-1.09,2.82,2.82,0,0,0,.4-1.53,2.29,2.29,0,0,0-.67-1.7,4.38,4.38,0,0,0-3.11-.87h-3.92l-1.65,6.09Zm16.26-10.33h4.69l-5.72,21.32h-4.69Zm10,0h4.69l-4.57,17.06h10.63l-1.15,4.26H767.45Zm26.13-.15h4.51l3.38,21.47h-4.81l-.67-4.78h-9l-3.22,4.78h-5.06Zm1.86,12.52-1-7-4.69,7Zm7.67,5.33,3.54-3a9.46,9.46,0,0,0,2.71,2.09,7.26,7.26,0,0,0,3.25.71,4.12,4.12,0,0,0,2.35-.61,1.84,1.84,0,0,0,.91-1.61,1.58,1.58,0,0,0-.16-.72,2.38,2.38,0,0,0-.58-.64,8.25,8.25,0,0,0-1.11-.67c-.47-.23-1.06-.49-1.77-.77s-1.35-.6-2-.93a7.93,7.93,0,0,1-1.68-1.19,5.22,5.22,0,0,1-1.15-1.57,4.64,4.64,0,0,1-.43-2.07,6.19,6.19,0,0,1,.69-2.94,6.83,6.83,0,0,1,1.84-2.2,8.29,8.29,0,0,1,2.69-1.4,10.57,10.57,0,0,1,3.25-.49,11.53,11.53,0,0,1,4.69.85,10.06,10.06,0,0,1,3.29,2.32l-3.23,3.22a10.11,10.11,0,0,0-2.39-1.7,6,6,0,0,0-2.73-.58,3.51,3.51,0,0,0-2.3.68,1.94,1.94,0,0,0-.8,1.48,1.51,1.51,0,0,0,.18.75,2,2,0,0,0,.61.62,7,7,0,0,0,1.14.64c.48.23,1.08.49,1.81.79a20.2,20.2,0,0,1,2,1,7.61,7.61,0,0,1,1.61,1.18,5,5,0,0,1,1.08,1.56,4.86,4.86,0,0,1,.4,2,6.41,6.41,0,0,1-.7,3,7.08,7.08,0,0,1-1.86,2.24,8,8,0,0,1-2.7,1.38,10.66,10.66,0,0,1-3.21.47Q811.88,2185.16,808.83,2181.24Zm19.07,0,3.53-3a9.46,9.46,0,0,0,2.71,2.09,7.27,7.27,0,0,0,3.26.71,4.11,4.11,0,0,0,2.34-.61,1.85,1.85,0,0,0,.92-1.61,1.59,1.59,0,0,0-.17-.72,2.22,2.22,0,0,0-.58-.64,7.15,7.15,0,0,0-1.11-.67c-.47-.23-1.06-.49-1.77-.77s-1.35-.6-2-.93a7.86,7.86,0,0,1-1.67-1.19,5.09,5.09,0,0,1-1.16-1.57,4.78,4.78,0,0,1-.43-2.07,6.19,6.19,0,0,1,.69-2.94,7,7,0,0,1,1.84-2.2,8.24,8.24,0,0,1,2.7-1.4,10.46,10.46,0,0,1,3.24-.49,11.5,11.5,0,0,1,4.69.85,10,10,0,0,1,3.29,2.32l-3.23,3.22a10.11,10.11,0,0,0-2.39-1.7,6,6,0,0,0-2.72-.58,3.47,3.47,0,0,0-2.3.68,2,2,0,0,0-.81,1.48,1.51,1.51,0,0,0,.18.75,2.09,2.09,0,0,0,.61.62,7.48,7.48,0,0,0,1.14.64c.48.23,1.08.49,1.81.79a19.2,19.2,0,0,1,2,1,7.36,7.36,0,0,1,1.61,1.18,5,5,0,0,1,1.08,1.56,4.86,4.86,0,0,1,.4,2,6.29,6.29,0,0,1-.7,3,7.08,7.08,0,0,1-1.86,2.24,8.06,8.06,0,0,1-2.69,1.38,10.77,10.77,0,0,1-3.22.47Q830.94,2185.16,827.9,2181.24Zm32.7-17.85h4.51l3.38,21.47h-4.81l-.67-4.78h-9l-3.22,4.78h-5.06Zm1.86,12.52-1-7-4.7,7Zm15.26-8h-6.49l1.16-4.33h17.66l-1.16,4.33h-6.48l-4.57,17h-4.69Zm15.77-4.33h4.69l-5.72,21.32h-4.69Z" style="fill: #ff2a00"/>
  <path d="M505.74,299.69l3.48-2.94a9.5,9.5,0,0,0,2.67,2.06,7.08,7.08,0,0,0,3.21.7,4.09,4.09,0,0,0,2.31-.6,1.83,1.83,0,0,0,.9-1.59,1.48,1.48,0,0,0-.17-.7,2,2,0,0,0-.57-.63,6.6,6.6,0,0,0-1.09-.66c-.46-.23-1-.49-1.74-.77s-1.33-.58-2-.91a7.66,7.66,0,0,1-1.65-1.17,5.23,5.23,0,0,1-1.14-1.55,4.64,4.64,0,0,1-.42-2,6.07,6.07,0,0,1,.67-2.89,6.83,6.83,0,0,1,1.82-2.18,8.24,8.24,0,0,1,2.65-1.38,10.55,10.55,0,0,1,3.2-.48,11.35,11.35,0,0,1,4.62.84,9.89,9.89,0,0,1,3.24,2.28l-3.18,3.18a10.15,10.15,0,0,0-2.36-1.68,6,6,0,0,0-2.68-.57,3.42,3.42,0,0,0-2.27.68,1.9,1.9,0,0,0-.79,1.45,1.47,1.47,0,0,0,.18.74,2,2,0,0,0,.6.61,7.21,7.21,0,0,0,1.12.63c.47.22,1.07.48,1.79.78a19.41,19.41,0,0,1,2,1,7.43,7.43,0,0,1,1.59,1.17,5,5,0,0,1,1.07,1.53,4.87,4.87,0,0,1,.39,2,6.24,6.24,0,0,1-.69,3,6.84,6.84,0,0,1-1.83,2.2,8.08,8.08,0,0,1-2.66,1.37,10.69,10.69,0,0,1-3.16.46Q508.74,303.56,505.74,299.69ZM532.6,303a9.22,9.22,0,0,1-3.12-1.83,8.16,8.16,0,0,1-2-2.88,9.47,9.47,0,0,1-.73-3.8,11.64,11.64,0,0,1,1-4.78,13.26,13.26,0,0,1,2.71-4,13,13,0,0,1,4-2.76,12.32,12.32,0,0,1,5-1,9.92,9.92,0,0,1,5.08,1.2,9.37,9.37,0,0,1,3.32,3.27L544.05,289a8.05,8.05,0,0,0-2.1-2.1,5.42,5.42,0,0,0-3.06-.78,6.33,6.33,0,0,0-2.78.65,8.07,8.07,0,0,0-2.37,1.74,8.38,8.38,0,0,0-1.65,2.58,8.16,8.16,0,0,0-.61,3.16,5.49,5.49,0,0,0,.37,2.07,4.64,4.64,0,0,0,2.69,2.64,5.69,5.69,0,0,0,2.07.36,5.84,5.84,0,0,0,2.64-.55,12.37,12.37,0,0,0,2.28-1.52l3,3.12a13.72,13.72,0,0,1-3.42,2.31,10.46,10.46,0,0,1-4.53.9A11.82,11.82,0,0,1,532.6,303Zm19.88-20.72h15.69l-1.11,4.11H556l-1.14,4.29h9.75l-1.11,4h-9.75l-1.2,4.44h11.28l-1.11,4.11H546.84Zm22.2,20.82a9.29,9.29,0,0,1-3.16-1.66,8.63,8.63,0,0,1-2.25-2.85,9.08,9.08,0,0,1-.86-4.07,11.81,11.81,0,0,1,1-4.72,13.09,13.09,0,0,1,6.85-6.83,13,13,0,0,1,5.25-1.05,13.86,13.86,0,0,1,3,.3,11.45,11.45,0,0,1,2.4.8,8.58,8.58,0,0,1,1.84,1.15,8.25,8.25,0,0,1,1.34,1.38l-3.42,3a8.4,8.4,0,0,0-2.24-1.72,6.84,6.84,0,0,0-3.28-.71,7.38,7.38,0,0,0-3.14.68,8.16,8.16,0,0,0-2.52,1.8,8.47,8.47,0,0,0-1.68,2.61,8.08,8.08,0,0,0-.61,3.13,5.33,5.33,0,0,0,.42,2.18,4.36,4.36,0,0,0,1.15,1.57,5.12,5.12,0,0,0,1.71,1,6.49,6.49,0,0,0,2.09.33,8.47,8.47,0,0,0,2.14-.24,9.11,9.11,0,0,0,1.61-.57l1-3.42h-4.65l1.08-4h9.12l-3,10.47a17.1,17.1,0,0,1-3.41,1.43,14.61,14.61,0,0,1-4.21.55A12.17,12.17,0,0,1,574.68,303.08Zm21.15-20.82h4.62l-4.5,16.8h10.47l-1.14,4.2H590.19Zm19,0h4.62l-5.64,21h-4.62Z" style="fill: #e6e6e6"/>
  <path d="M811.31,1024.42a3,3,0,0,1,3-3h0a3,3,0,0,1,3,3h0a3,3,0,0,1-3,3h0A3,3,0,0,1,811.31,1024.42Zm0-20a3,3,0,0,1,3-3h0a3,3,0,0,1,3,3h0a3,3,0,0,1-3,3h0A3,3,0,0,1,811.31,1004.42Zm0-20a3,3,0,0,1,3-3h0a3,3,0,0,1,3,3h0a3,3,0,0,1-3,3h0A3,3,0,0,1,811.31,984.42Zm0-20a3,3,0,0,1,3-3h0a3,3,0,0,1,3,3h0a3,3,0,0,1-3,3h0A3,3,0,0,1,811.31,964.42Zm0-20a3,3,0,0,1,3-3h0a3,3,0,0,1,3,3h0a3,3,0,0,1-3,3h0A3,3,0,0,1,811.31,944.42Zm0-20a3,3,0,0,1,3-3h0a3,3,0,0,1,3,3h0a3,3,0,0,1-3,3h0A3,3,0,0,1,811.31,924.42Z" style="fill: #fff"/>
  <path d="M811.31,1506.82a3,3,0,0,1,3-3h0a3,3,0,0,1,3,3h0a3,3,0,0,1-3,3h0A3,3,0,0,1,811.31,1506.82Zm0-20a3,3,0,0,1,3-3h0a3,3,0,0,1,3,3h0a3,3,0,0,1-3,3h0A3,3,0,0,1,811.31,1486.82Zm0-20a3,3,0,0,1,3-3h0a3,3,0,0,1,3,3h0a3,3,0,0,1-3,3h0A3,3,0,0,1,811.31,1466.82Zm0-20a3,3,0,0,1,3-3h0a3,3,0,0,1,3,3h0a3,3,0,0,1-3,3h0A3,3,0,0,1,811.31,1446.82Zm0-20a3,3,0,0,1,3-3h0a3,3,0,0,1,3,3h0a3,3,0,0,1-3,3h0A3,3,0,0,1,811.31,1426.82Zm0-20a3,3,0,0,1,3-3h0a3,3,0,0,1,3,3h0a3,3,0,0,1-3,3h0A3,3,0,0,1,811.31,1406.82Zm0-20a3,3,0,0,1,3-3h0a3,3,0,0,1,3,3h0a3,3,0,0,1-3,3h0A3,3,0,0,1,811.31,1386.82Z" style="fill: #fff"/>
  <path d="M295.22,1025.09a3,3,0,0,1,3-3h0a3,3,0,0,1,3,3h0a3,3,0,0,1-3,3h0A3,3,0,0,1,295.22,1025.09Zm0-20a3,3,0,0,1,3-3h0a3,3,0,0,1,3,3h0a3,3,0,0,1-3,3h0A3,3,0,0,1,295.22,1005.09Zm0-20a3,3,0,0,1,3-3h0a3,3,0,0,1,3,3h0a3,3,0,0,1-3,3h0A3,3,0,0,1,295.22,985.09Zm0-20a3,3,0,0,1,3-3h0a3,3,0,0,1,3,3h0a3,3,0,0,1-3,3h0A3,3,0,0,1,295.22,965.09Zm0-20a3,3,0,0,1,3-3h0a3,3,0,0,1,3,3h0a3,3,0,0,1-3,3h0A3,3,0,0,1,295.22,945.09Zm0-20a3,3,0,0,1,3-3h0a3,3,0,0,1,3,3h0a3,3,0,0,1-3,3h0A3,3,0,0,1,295.22,925.09Zm0-20a3,3,0,0,1,3-3h0a3,3,0,0,1,3,3h0a3,3,0,0,1-3,3h0A3,3,0,0,1,295.22,905.09Zm0-20a3,3,0,0,1,3-3h0a3,3,0,0,1,3,3h0a3,3,0,0,1-3,3h0A3,3,0,0,1,295.22,885.09Zm0-20a3,3,0,0,1,3-3h0a3,3,0,0,1,3,3h0a3,3,0,0,1-3,3h0A3,3,0,0,1,295.22,865.09Z" style="fill: #fff"/>
  <path d="M295.22,1513.53a3,3,0,0,1,3-3h0a3,3,0,0,1,3,3h0a3,3,0,0,1-3,3h0A3,3,0,0,1,295.22,1513.53Zm0-20a3,3,0,0,1,3-3h0a3,3,0,0,1,3,3h0a3,3,0,0,1-3,3h0A3,3,0,0,1,295.22,1493.53Zm0-20a3,3,0,0,1,3-3h0a3,3,0,0,1,3,3h0a3,3,0,0,1-3,3h0A3,3,0,0,1,295.22,1473.53Zm0-20a3,3,0,0,1,3-3h0a3,3,0,0,1,3,3h0a3,3,0,0,1-3,3h0A3,3,0,0,1,295.22,1453.53Zm0-20a3,3,0,0,1,3-3h0a3,3,0,0,1,3,3h0a3,3,0,0,1-3,3h0A3,3,0,0,1,295.22,1433.53Zm0-20a3,3,0,0,1,3-3h0a3,3,0,0,1,3,3h0a3,3,0,0,1-3,3h0A3,3,0,0,1,295.22,1413.53Zm0-20a3,3,0,0,1,3-3h0a3,3,0,0,1,3,3h0a3,3,0,0,1-3,3h0A3,3,0,0,1,295.22,1393.53Zm0-20a3,3,0,0,1,3-3h0a3,3,0,0,1,3,3h0a3,3,0,0,1-3,3h0A3,3,0,0,1,295.22,1373.53Zm0-20a3,3,0,0,1,3-3h0a3,3,0,0,1,3,3h0a3,3,0,0,1-3,3h0A3,3,0,0,1,295.22,1353.53Z" style="fill: #fff"/>
  <path d="M295.22,1946.39a3,3,0,0,1,3-3h0a3,3,0,0,1,3,3h0a3,3,0,0,1-3,3h0A3,3,0,0,1,295.22,1946.39Zm0-20a3,3,0,0,1,3-3h0a3,3,0,0,1,3,3h0a3,3,0,0,1-3,3h0A3,3,0,0,1,295.22,1926.39Zm0-20a3,3,0,0,1,3-3h0a3,3,0,0,1,3,3h0a3,3,0,0,1-3,3h0A3,3,0,0,1,295.22,1906.39Zm0-20a3,3,0,0,1,3-3h0a3,3,0,0,1,3,3h0a3,3,0,0,1-3,3h0A3,3,0,0,1,295.22,1886.39Zm0-20a3,3,0,0,1,3-3h0a3,3,0,0,1,3,3h0a3,3,0,0,1-3,3h0A3,3,0,0,1,295.22,1866.39Zm0-20a3,3,0,0,1,3-3h0a3,3,0,0,1,3,3h0a3,3,0,0,1-3,3h0A3,3,0,0,1,295.22,1846.39Zm0-20a3,3,0,0,1,3-3h0a3,3,0,0,1,3,3h0a3,3,0,0,1-3,3h0A3,3,0,0,1,295.22,1826.39Zm0-20a3,3,0,0,1,3-3h0a3,3,0,0,1,3,3h0a3,3,0,0,1-3,3h0A3,3,0,0,1,295.22,1806.39Zm0-20a3,3,0,0,1,3-3h0a3,3,0,0,1,3,3h0a3,3,0,0,1-3,3h0A3,3,0,0,1,295.22,1786.39Z" style="fill: #fff"/>
  <path d="M811.31,1946.39a3,3,0,0,1,3-3h0a3,3,0,0,1,3,3h0a3,3,0,0,1-3,3h0A3,3,0,0,1,811.31,1946.39Zm0-20a3,3,0,0,1,3-3h0a3,3,0,0,1,3,3h0a3,3,0,0,1-3,3h0A3,3,0,0,1,811.31,1926.39Zm0-20a3,3,0,0,1,3-3h0a3,3,0,0,1,3,3h0a3,3,0,0,1-3,3h0A3,3,0,0,1,811.31,1906.39Zm0-20a3,3,0,0,1,3-3h0a3,3,0,0,1,3,3h0a3,3,0,0,1-3,3h0A3,3,0,0,1,811.31,1886.39Zm0-20a3,3,0,0,1,3-3h0a3,3,0,0,1,3,3h0a3,3,0,0,1-3,3h0A3,3,0,0,1,811.31,1866.39Zm0-20a3,3,0,0,1,3-3h0a3,3,0,0,1,3,3h0a3,3,0,0,1-3,3h0A3,3,0,0,1,811.31,1846.39Zm0-20a3,3,0,0,1,3-3h0a3,3,0,0,1,3,3h0a3,3,0,0,1-3,3h0A3,3,0,0,1,811.31,1826.39Zm0-20a3,3,0,0,1,3-3h0a3,3,0,0,1,3,3h0a3,3,0,0,1-3,3h0A3,3,0,0,1,811.31,1806.39Zm0-20a3,3,0,0,1,3-3h0a3,3,0,0,1,3,3h0a3,3,0,0,1-3,3h0A3,3,0,0,1,811.31,1786.39Z" style="fill: #fff"/>
  <g>
    <path d="M898.58,1136h.5a83.52,83.52,0,1,1-83.52-83.51A83.51,83.51,0,0,1,899.08,1136h-1a82.52,82.52,0,1,0-82.52,82.51A82.63,82.63,0,0,0,898.08,1136Z" style="fill: url(#linear-gradient)"/>
    <rect x="766.84" y="1097.87" width="97.45" height="76.26" rx="6.45" ry="6.45" style="fill: none;stroke: #fff;stroke-miterlimit: 10;stroke-width: 2px"/>
    <rect x="787.02" y="1097.87" width="21.48" height="76.27" style="fill: none;stroke: #fff;stroke-miterlimit: 10;stroke-width: 2px"/>
    <line x1="820.48" y1="1136" x2="852.31" y2="1136" style="fill: none;stroke: #fff;stroke-miterlimit: 10;stroke-width: 2px"/>
  </g>
  <g>
    <path d="M377.3,1627.11h.5a83.51,83.51,0,1,1-83.51-83.52,83.51,83.51,0,0,1,83.51,83.52h-1a82.51,82.51,0,1,0-82.51,82.51,82.61,82.61,0,0,0,82.51-82.51Z" style="fill: url(#linear-gradient-2)"/>
    <path d="M294.29,1663.35c-10.79,0-19.57-7.65-19.57-17.06s8.78-17.06,19.57-17.06,19.57,7.65,19.57,17.06-8.78,17.06-19.57,17.06m0-30.77c-9,0-16.22,6.15-16.22,13.71s7.27,13.71,16.22,13.71,16.22-6.15,16.22-13.71-7.28-13.71-16.22-13.71" style="fill: #fff"/>
    <path d="M300.62,1653.6c-3.16,0-5.62-3-5.72-7.06h-1.22c-.1,4-2.56,7.06-5.72,7.06s-5.74-3.21-5.74-7.31,2.52-7.31,5.74-7.31,5.62,3,5.72,7.06h1.22c.1-4,2.56-7.06,5.72-7.06s5.74,3.21,5.74,7.31-2.52,7.31-5.74,7.31m0-11.27c-1.13,0-2.39,1.63-2.39,4s1.26,4,2.39,4,2.39-1.63,2.39-4-1.26-4-2.39-4m-12.66,0c-1.13,0-2.39,1.63-2.39,4s1.26,4,2.39,4,2.39-1.63,2.39-4-1.26-4-2.39-4" style="fill: #fff"/>
    <path d="M296.33,1610.25c-4.29,0-9.44-2-11-7.51l-.13-.44h-2.78v-1.72h2.44v-2.8h-2.44v-1.72h2.78l.13-.43c1.64-5.55,6.74-7.52,11-7.52a14.29,14.29,0,0,1,6,1.26v3.21a10.71,10.71,0,0,0-5.16-1.3,8.1,8.1,0,0,0-7.36,3.88l-.5.9H298v1.72h-9.24l-.07.54a8.14,8.14,0,0,0,0,.86,8.43,8.43,0,0,0,0,.87l.07.53H298v1.72h-8.77l.49.9c1.32,2.41,4.08,3.85,7.37,3.85a10.06,10.06,0,0,0,5.19-1.33V1609a14.54,14.54,0,0,1-5.95,1.26" style="fill: #fff"/>
    <path d="M294.29,1678.57c-27.89,0-50.57-19.61-50.57-43.71,0-16.24,10.33-31,27-38.64l.3-.14,0-.33a23.51,23.51,0,0,1,46.52,0l.05.33.3.14c16.63,7.59,27,22.4,27,38.64,0,24.1-22.69,43.71-50.57,43.71m-24.36-78.28c-14.32,7.35-22.86,20.28-22.86,34.57,0,22.25,21.18,40.36,47.22,40.36s47.22-18.11,47.22-40.36c0-14.29-8.55-27.22-22.86-34.58l-.82-.42-.07.93a23.44,23.44,0,0,1-2.2,8.42l-.29.61.64.23a4.16,4.16,0,0,1,2.8,3.91v3.32a4.17,4.17,0,0,1-4.17,4.17H274a4.17,4.17,0,0,1-4.17-4.17V1614a4.18,4.18,0,0,1,2.81-3.92l.64-.22-.29-.61a23.27,23.27,0,0,1-2.22-8.42l-.06-.93Zm43.1,13.1a24.09,24.09,0,0,1-3.42,3.64l-1.24,1.07h6.17a.82.82,0,0,0,.82-.82V1614a.82.82,0,0,0-.82-.82h-1.33Zm-26.54,4.7h14.84l.1,0a20.17,20.17,0,1,0-14.87-.22ZM274,1613.14a.82.82,0,0,0-.82.82v3.32a.82.82,0,0,0,.82.82h6.19L279,1617a23.54,23.54,0,0,1-3.42-3.64l-.18-.25Z" style="fill: #fff"/>
  </g>
  <g>
    <path d="M898.09,1627.11h.5a83.52,83.52,0,1,1-83.51-83.52,83.51,83.51,0,0,1,83.51,83.52h-1a82.52,82.52,0,1,0-82.51,82.51,82.61,82.61,0,0,0,82.51-82.51Z" style="fill: url(#linear-gradient-3)"/>
    <path d="M817.12,1605.76c-4.3,0-9.45-2-11-7.51l-.13-.45h-2.79v-1.71h2.45v-2.81h-2.45v-1.71H806l.13-.44c1.64-5.54,6.74-7.52,11-7.52a14.44,14.44,0,0,1,6,1.26v3.21a10.71,10.71,0,0,0-5.16-1.3,8.13,8.13,0,0,0-7.37,3.88l-.49.91h8.73v1.71h-9.23l-.07.54a8.33,8.33,0,0,0,0,.86,8.43,8.43,0,0,0,0,.87l.07.54h9.23v1.71H810l.5.91c1.32,2.4,4.07,3.84,7.37,3.84a10.15,10.15,0,0,0,5.19-1.32v3.26a14.55,14.55,0,0,1-6,1.27" style="fill: #fff"/>
    <path d="M784.15,1676a20.5,20.5,0,0,1-20.47-20.47v-48a9.24,9.24,0,0,1,9.23-9.23h18.92l-.09-.69a22.83,22.83,0,0,1-.2-3,23.54,23.54,0,1,1,47.07,0,22.6,22.6,0,0,1-.2,3l-.09.69h18.92a9.24,9.24,0,0,1,9.23,9.23v48A20.49,20.49,0,0,1,846,1676ZM767,1655.52a17.14,17.14,0,0,0,17.12,17.12H846a17.14,17.14,0,0,0,17.12-17.12v-6.24l-1,.69a10.13,10.13,0,0,1-5.88,1.88H819.71a10.2,10.2,0,0,1-10.19-10.19v-9a10.21,10.21,0,0,1,10.19-10.2h36.57a10,10,0,0,1,5.88,1.89l1,.68v-10.29l-.94.59a9.13,9.13,0,0,1-4.94,1.45H772.91a9.18,9.18,0,0,1-4.94-1.45l-.94-.59Zm52.68-29.7a6.85,6.85,0,0,0-6.84,6.85v9a6.85,6.85,0,0,0,6.84,6.84h36.57a6.85,6.85,0,0,0,6.84-6.84v-9a6.85,6.85,0,0,0-6.84-6.85Zm17.69-23.72a23.66,23.66,0,0,1-6.81,10.28l-1.22,1.06h27.87a5.88,5.88,0,0,0,0-11.76h-19.7Zm-22.32-27.6a20.18,20.18,0,0,0-7.56,38.9l.11,0h14.89l.11,0a20.18,20.18,0,0,0-7.55-38.9m-42.17,27.18a5.88,5.88,0,0,0,0,11.76H800.8l-1.2-1.06a23.84,23.84,0,0,1-6.84-10.28l-.14-.42Z" style="fill: #fff"/>
    <path d="M820.37,1640.59a3.43,3.43,0,1,1,3.43-3.43,3.44,3.44,0,0,1-3.43,3.43" style="fill: #fff"/>
  </g>
  <g>
    <path d="M377.3,2057.31h.5a83.51,83.51,0,1,1-83.51-83.52,83.51,83.51,0,0,1,83.51,83.52h-1a82.51,82.51,0,1,0-82.51,82.51,82.61,82.61,0,0,0,82.51-82.51Z" style="fill: url(#linear-gradient-4)"/>
    <path d="M297.52,2055.49c.44-9-.52-17.47-6.36-24.77l-1,.43-16.6,7.47c-2.79,1.26-4.22.88-6-1.64a2,2,0,0,0-1.33-.92c-.94-.21-1.86-.5-2.78-.75a4.79,4.79,0,0,1-3.57-5.57c1-5.48,2-11,3-16.41a7.43,7.43,0,0,1,7.4-5.82c7.15.15,14.3.35,21.46.4a13.68,13.68,0,0,1,9.34,3.63c15.29,13.83,28.17,29.58,37.7,47.95a55.57,55.57,0,0,1,5,13,32.14,32.14,0,0,1-2.8,21.68,3,3,0,0,1-1.46,1.17,167.27,167.27,0,0,1-25.39,8.64,97.9,97.9,0,0,1-26.45,3.06,66.76,66.76,0,0,1-22.89-4.62,1.69,1.69,0,0,0-1.23.06c-1.68.81-3.32,1.7-5,2.54a1.7,1.7,0,0,1-2.05-.22,1.51,1.51,0,0,1-.44-1.85,2.37,2.37,0,0,1,.95-1c2-1.11,4.08-2.2,6.17-3.19a2.43,2.43,0,0,1,1.76,0,62.43,62.43,0,0,0,18.36,4.54,78.74,78.74,0,0,0,16.17-.2c13.23-1.5,25.74-5.55,38-10.65a2,2,0,0,0,.94-1,29.45,29.45,0,0,0,.25-23.79,110.67,110.67,0,0,0-11.56-21.15,176.72,176.72,0,0,0-27.38-31.61,23.56,23.56,0,0,0-2.77-2.08,9.38,9.38,0,0,0-5.22-1.48c-7.12-.1-14.25-.24-21.37-.37a3.93,3.93,0,0,0-4.09,3.31q-1.46,7.7-2.86,15.41c-.29,1.59,0,2,1.55,2.38,1.09.3,2.18.62,3.27.88a2.38,2.38,0,0,1,1.71,1.27,4.65,4.65,0,0,0,.32.5c.81,1.16.81,1.16,2.08.59q8.56-3.86,17.16-7.7a2.1,2.1,0,0,0,1.31-1.4c.29-1,.64-2,.9-3,.32-1.25,1.07-1.88,2.12-1.69a1.74,1.74,0,0,1,1.29,2.35c-.33,1.28-.74,2.54-1.18,3.79a1,1,0,0,0,.18,1.14,31.69,31.69,0,0,1,6.74,17.88c.23,3.29.05,6.61.11,9.92a1.26,1.26,0,0,0,.55.88A34.65,34.65,0,0,1,313,2069.86a1.83,1.83,0,0,1,.08,2.15,1.78,1.78,0,0,1-3-.24,60.84,60.84,0,0,0-4.62-6.37,23.9,23.9,0,0,0-21-8.25,38.14,38.14,0,0,0-14.63,4.8c-1.53.83-1.94.77-3.19-.45-3.85-3.74-8.24-6.55-13.58-7.57a48,48,0,0,0-5.38-.51c-.56,0-1.13,0-1.7,0a1.75,1.75,0,0,1-1.95-1.67,1.72,1.72,0,0,1,1.76-1.78,28.49,28.49,0,0,1,9.33.8,30.37,30.37,0,0,1,12.95,7.27,1,1,0,0,0,1.3.19,40.45,40.45,0,0,1,14.37-4.54,28.45,28.45,0,0,1,12.62,1.35l1.17.41" style="fill: #fff"/>
    <path d="M287.21,2091.85a31.33,31.33,0,0,1-16.78-4.83c-1.74-1.06-3.35-2.31-5-3.48a6.39,6.39,0,0,1-.84-.72,1.69,1.69,0,0,1-.17-2.43,1.76,1.76,0,0,1,2.44-.17c.48.36.92.75,1.4,1.11a32.61,32.61,0,0,0,13.7,6.57,27.48,27.48,0,0,0,16.93-2.28,49.14,49.14,0,0,0,8.69-5.23,1.76,1.76,0,0,1,2.92,1,1.88,1.88,0,0,1-1,1.93,47.79,47.79,0,0,1-11.17,6.34,30.91,30.91,0,0,1-11.15,2.24" style="fill: #fff"/>
  </g>
  <g>
    <path d="M898.58,2057.31h.5a83.52,83.52,0,1,1-83.52-83.52,83.51,83.51,0,0,1,83.52,83.52h-1a82.52,82.52,0,1,0-82.52,82.51,82.63,82.63,0,0,0,82.52-82.51Z" style="fill: url(#linear-gradient-5)"/>
    <path d="M812,2062.46c1.92-5.88,3.83-11.71,5.77-17.61-1-.22-2-.41-3-.66a21.4,21.4,0,0,1-9.19-4.5,11.55,11.55,0,0,1,.67-18.19,23.36,23.36,0,0,1,9.7-4,1.77,1.77,0,0,1,.33,0,14.46,14.46,0,0,0,1.26,9.78c-.89.27-1.74.47-2.54.79a14.09,14.09,0,0,0-2.58,1.28,1.68,1.68,0,0,0-.16,2.93,10.12,10.12,0,0,0,4.92,2.25,43,43,0,0,0,6.76.86c4.27.14,8.55,0,12.83,0a23.73,23.73,0,0,0,8.86-1.57,12.12,12.12,0,0,0,2.8-1.59,1.6,1.6,0,0,0-.12-2.84,39.17,39.17,0,0,0-4.19-1.85c-.29-.12-.59-.17-1-.28a14.6,14.6,0,0,0,1.21-9.92c.94.21,1.76.37,2.57.59a21.65,21.65,0,0,1,7.19,3.26,11.52,11.52,0,0,1,.42,18.8,22.84,22.84,0,0,1-11.26,4.58,3,3,0,0,0-2.88,2.48c-2.85,8.94-5.87,17.83-8.84,26.74a13.58,13.58,0,0,1-5.82,7.25c-1.63,1-3.38,1.89-5.1,2.78l-40.29,21a5.8,5.8,0,0,1-6-9.86,11,11,0,0,1,1.25-.73c2.58-1.34,5.15-2.68,7.75-4a1.3,1.3,0,0,0,.85-1.35,78.46,78.46,0,0,1,1.23-15.83,32.34,32.34,0,0,1,1.67-5.72,7.54,7.54,0,0,1,7.59-5.15c5.13.09,10.26.12,15.39.18Zm-16.11,21.13.29.14,18-9.4a2.38,2.38,0,0,1,0-.26c-1.7,0-3.39,0-5.09,0q-5.6-.07-11.19-.2c-.39,0-.73,0-.8.51Q796.43,2079,795.84,2083.59Z" style="fill: none;stroke: #fff;stroke-miterlimit: 10;stroke-width: 2px"/>
    <path d="M818.62,2020.78a11.68,11.68,0,1,1,11.71,11.64A11.67,11.67,0,0,1,818.62,2020.78Z" style="fill: none;stroke: #fff;stroke-miterlimit: 10;stroke-width: 2px"/>
  </g>
  <line x1="562.5" y1="361.87" x2="562.5" y2="2014.78" style="fill: none;stroke: #e6e6e6;stroke-miterlimit: 10;stroke-width: 2px"/>
  <g>
    <circle cx="294.29" cy="268.14" r="83.01" transform="translate(5.06 541.74) rotate(-85.75)" style="fill: none;stroke: #fff;stroke-miterlimit: 10;stroke-width: 2px"/>
    <rect x="275.52" y="262.81" width="37.53" height="10.66" style="fill: #fff"/>
    <path d="M270.19,302a5.33,5.33,0,0,1-5.33-5.33V239.62a5.33,5.33,0,1,1,10.66,0v57.05A5.33,5.33,0,0,1,270.19,302Z" style="fill: none;stroke: #fff;stroke-miterlimit: 10;stroke-width: 2px"/>
    <path d="M259.53,292.87a5.33,5.33,0,0,1-5.33-5.33V248.75a5.33,5.33,0,0,1,10.66,0v38.79A5.33,5.33,0,0,1,259.53,292.87Z" style="fill: none;stroke: #fff;stroke-miterlimit: 10;stroke-width: 2px"/>
    <path d="M248.87,285.77a5.33,5.33,0,0,1-5.32-5.33V255.85a5.33,5.33,0,1,1,10.65,0v24.59A5.33,5.33,0,0,1,248.87,285.77Z" style="fill: none;stroke: #fff;stroke-miterlimit: 10;stroke-width: 2px"/>
    <path d="M318.38,302a5.33,5.33,0,0,1-5.33-5.33V239.62a5.33,5.33,0,1,1,10.66,0v57.05A5.33,5.33,0,0,1,318.38,302Z" style="fill: none;stroke: #fff;stroke-miterlimit: 10;stroke-width: 2px"/>
    <path d="M329,292.87a5.33,5.33,0,0,1-5.33-5.33V248.75a5.33,5.33,0,1,1,10.66,0v38.79A5.33,5.33,0,0,1,329,292.87Z" style="fill: none;stroke: #fff;stroke-miterlimit: 10;stroke-width: 2px"/>
    <path d="M339.7,285.77a5.33,5.33,0,0,1-5.33-5.33V255.85a5.33,5.33,0,0,1,10.66,0v24.59A5.33,5.33,0,0,1,339.7,285.77Z" style="fill: none;stroke: #fff;stroke-miterlimit: 10;stroke-width: 2px"/>
  </g>
  <g>
    <circle cx="815.56" cy="268.14" r="83.01" transform="translate(49.27 655.23) rotate(-45)" style="fill: none;stroke: #fff;stroke-miterlimit: 10;stroke-width: 2px"/>
    <path d="M815.05,307.38c-1.83,0-3.71-.06-5.59-.18-7.85-.49-13.7-1.69-19-3.89a15.6,15.6,0,0,1-6-3.95,6.09,6.09,0,0,1-1.59-4.24q0-27,0-54a6.18,6.18,0,0,1,1.67-4.34,16.28,16.28,0,0,1,6-3.91,50,50,0,0,1,12.55-3.21,83.85,83.85,0,0,1,11.51-.79c2.18,0,4.42.08,6.66.25,7.38.54,12.84,1.7,17.71,3.78a26.51,26.51,0,0,1,4.67,2.63,6.58,6.58,0,0,1,2.92,4.16,5.37,5.37,0,0,1,.09,1.14v7.88l.56,0a19.48,19.48,0,0,1,18.13,18.28,19,19,0,0,1-4.78,14.06,19.29,19.29,0,0,1-13.36,6.68l-.55.05V291c0,1.43,0,2.85,0,4.28a5.79,5.79,0,0,1-1.37,3.83,13.84,13.84,0,0,1-5,3.65,43.86,43.86,0,0,1-11.74,3.48,80.87,80.87,0,0,1-13.6,1.13m-.43-76.4a78.73,78.73,0,0,0-12.15.92,42.75,42.75,0,0,0-11.91,3.33,24.23,24.23,0,0,0-3.91,2.47,4.25,4.25,0,0,0-1.65,3.65q0,10.22,0,20.42v12.88q0,10.11,0,20.22a4.44,4.44,0,0,0,1.76,3.82,23.44,23.44,0,0,0,3.68,2.31A46.32,46.32,0,0,0,805,304.73a85.8,85.8,0,0,0,10,.58,82.64,82.64,0,0,0,11.79-.84A43,43,0,0,0,839.24,301a23.75,23.75,0,0,0,4-2.59,3.89,3.89,0,0,0,1.46-3.38c0-1.9,0-3.8,0-5.7v-2.15c0-1.08.28-1.37,1.36-1.39a18.2,18.2,0,0,0,8.15-2.07,17.35,17.35,0,0,0,8.75-11.44,17.46,17.46,0,0,0-16.81-21.41c-1.15,0-1.45-.33-1.45-1.47v-2.28c0-1.88,0-3.76,0-5.63a4.86,4.86,0,0,0-1.84-4,17,17,0,0,0-4.75-2.73A54.49,54.49,0,0,0,821,231.21c-2.16-.15-4.32-.23-6.4-.23" style="fill: #fff"/>
    <path d="M815.05,307.38c-1.83,0-3.71-.06-5.59-.18-7.85-.49-13.7-1.69-19-3.89a15.6,15.6,0,0,1-6-3.95,6.09,6.09,0,0,1-1.59-4.24q0-27,0-54a6.18,6.18,0,0,1,1.67-4.34,16.28,16.28,0,0,1,6-3.91,50,50,0,0,1,12.55-3.21,83.85,83.85,0,0,1,11.51-.79c2.18,0,4.42.08,6.66.25,7.38.54,12.84,1.7,17.71,3.78a26.51,26.51,0,0,1,4.67,2.63,6.58,6.58,0,0,1,2.92,4.16,5.37,5.37,0,0,1,.09,1.14v7.88l.56,0a19.48,19.48,0,0,1,18.13,18.28,19,19,0,0,1-4.78,14.06,19.29,19.29,0,0,1-13.36,6.68l-.55.05V291c0,1.43,0,2.85,0,4.28a5.79,5.79,0,0,1-1.37,3.83,13.84,13.84,0,0,1-5,3.65,43.86,43.86,0,0,1-11.74,3.48A80.87,80.87,0,0,1,815.05,307.38Zm-.43-76.4a78.73,78.73,0,0,0-12.15.92,42.75,42.75,0,0,0-11.91,3.33,24.23,24.23,0,0,0-3.91,2.47,4.25,4.25,0,0,0-1.65,3.65q0,10.22,0,20.42v12.88q0,10.11,0,20.22a4.44,4.44,0,0,0,1.76,3.82,23.44,23.44,0,0,0,3.68,2.31A46.32,46.32,0,0,0,805,304.73a85.8,85.8,0,0,0,10,.58,82.64,82.64,0,0,0,11.79-.84A43,43,0,0,0,839.24,301a23.75,23.75,0,0,0,4-2.59,3.89,3.89,0,0,0,1.46-3.38c0-1.9,0-3.8,0-5.7v-2.15c0-1.08.28-1.37,1.36-1.39a18.2,18.2,0,0,0,8.15-2.07,17.35,17.35,0,0,0,8.75-11.44,17.46,17.46,0,0,0-16.81-21.41c-1.15,0-1.45-.33-1.45-1.47v-2.28c0-1.88,0-3.76,0-5.63a4.86,4.86,0,0,0-1.84-4,17,17,0,0,0-4.75-2.73A54.49,54.49,0,0,0,821,231.21C818.86,231.06,816.7,231,814.62,231Z" style="fill: none;stroke: #fff;stroke-miterlimit: 10"/>
    <path d="M814.83,248.09A100.79,100.79,0,0,1,799.24,247a21,21,0,0,1-6.6-1.84,6.34,6.34,0,0,1-1.35-.91,2.12,2.12,0,0,1-.11-3.27,7.76,7.76,0,0,1,2.9-1.91,40.63,40.63,0,0,1,9.26-2.36,77.19,77.19,0,0,1,11.26-.81q2,0,4,.09a55.47,55.47,0,0,1,16.11,2.72,10.4,10.4,0,0,1,3.44,1.9,2.67,2.67,0,0,1,1.06,2.13,2.78,2.78,0,0,1-1.41,2,15.49,15.49,0,0,1-5.4,1.89,66.89,66.89,0,0,1-10.73,1.24c-1.57.09-3.14.12-4.71.16Z" style="fill: #fff"/>
    <path d="M814.83,248.09A100.79,100.79,0,0,1,799.24,247a21,21,0,0,1-6.6-1.84,6.34,6.34,0,0,1-1.35-.91,2.12,2.12,0,0,1-.11-3.27,7.76,7.76,0,0,1,2.9-1.91,40.63,40.63,0,0,1,9.26-2.36,77.19,77.19,0,0,1,11.26-.81q2,0,4,.09a55.47,55.47,0,0,1,16.11,2.72,10.4,10.4,0,0,1,3.44,1.9,2.67,2.67,0,0,1,1.06,2.13,2.78,2.78,0,0,1-1.41,2,15.49,15.49,0,0,1-5.4,1.89,66.89,66.89,0,0,1-10.73,1.24c-1.57.09-3.14.12-4.71.16Z" style="fill: none;stroke: #fff;stroke-miterlimit: 10"/>
    <path d="M845.83,279.76c-.8,0-1.16-.37-1.16-1.19V258.19c0-1,.34-1.36,1.27-1.36h.16a11.36,11.36,0,0,1,11.2,9.89,11.53,11.53,0,0,1-9.48,12.88,14.64,14.64,0,0,1-2,.15Zm1.5-20.63-.57,0v18.48l.69-.1a9.41,9.41,0,0,0,7.85-10.23c-.42-4.14-4.24-8.2-7.72-8.2Z" style="fill: #fff"/>
  </g>
  <g>
    <path d="M377.3,675.35h.5a83.52,83.52,0,1,1-83.51-83.51,83.51,83.51,0,0,1,83.51,83.51h-1a82.52,82.52,0,1,0-82.51,82.51,82.61,82.61,0,0,0,82.51-82.51Z" style="fill: url(#linear-gradient-6)"/>
    <rect x="241.76" y="664.06" width="105.06" height="10.03" rx="1.71" ry="1.71" style="fill: none;stroke: #fff;stroke-miterlimit: 10;stroke-width: 2px"/>
    <path d="M321.73,628.32H266.84a4.71,4.71,0,0,0-4.71,4.71v31h64.31V633A4.71,4.71,0,0,0,321.73,628.32Z" style="fill: none;stroke: #fff;stroke-miterlimit: 10;stroke-width: 2px"/>
    <line x1="241.76" y1="715.52" x2="346.82" y2="715.52" style="fill: none;stroke: #fff;stroke-miterlimit: 10;stroke-width: 2px"/>
    <rect x="255.06" y="674.09" width="78.45" height="41.43" style="fill: none;stroke: #fff;stroke-miterlimit: 10;stroke-width: 2px"/>
    <path d="M275.78,684.27h-11a2.61,2.61,0,0,0-2.61,2.61v28.64h16.26V686.88A2.61,2.61,0,0,0,275.78,684.27Z" style="fill: none;stroke: #fff;stroke-miterlimit: 10;stroke-width: 2px"/>
    <path d="M323.83,684.27H287.32a2.61,2.61,0,0,0-2.61,2.61v28.64h41.73V686.88A2.61,2.61,0,0,0,323.83,684.27Z" style="fill: none;stroke: #fff;stroke-miterlimit: 10;stroke-width: 2px"/>
    <rect x="289.23" y="644.75" width="10.12" height="2.88" style="fill: #fff"/>
    <path d="M287.79,655.32a1.43,1.43,0,0,1-1.44-1.44V638.49a1.44,1.44,0,0,1,2.87,0v15.39a1.43,1.43,0,0,1-1.43,1.44" style="fill: #fff"/>
    <path d="M284.91,652.86a1.44,1.44,0,0,1-1.43-1.44V641a1.44,1.44,0,1,1,2.87,0v10.46a1.44,1.44,0,0,1-1.44,1.44" style="fill: #fff"/>
    <path d="M282,650.94a1.43,1.43,0,0,1-1.44-1.44v-6.63a1.44,1.44,0,1,1,2.87,0v6.63a1.43,1.43,0,0,1-1.43,1.44" style="fill: #fff"/>
    <path d="M300.79,655.32a1.43,1.43,0,0,1-1.44-1.44V638.49a1.44,1.44,0,0,1,2.87,0v15.39a1.43,1.43,0,0,1-1.43,1.44" style="fill: #fff"/>
    <path d="M303.66,652.86a1.45,1.45,0,0,1-1.44-1.44V641a1.44,1.44,0,1,1,2.88,0v10.46a1.45,1.45,0,0,1-1.44,1.44" style="fill: #fff"/>
    <path d="M306.54,650.94a1.43,1.43,0,0,1-1.44-1.44v-6.63a1.44,1.44,0,1,1,2.87,0v6.63a1.43,1.43,0,0,1-1.43,1.44" style="fill: #fff"/>
  </g>
  <g>
    <path d="M899.11,675.35h.5a83.52,83.52,0,1,1-83.51-83.51,83.51,83.51,0,0,1,83.51,83.51h-1a82.52,82.52,0,1,0-82.51,82.51,82.61,82.61,0,0,0,82.51-82.51Z" style="fill: url(#linear-gradient-7)"/>
    <path d="M776.24,634.87H856a8.1,8.1,0,0,1,8.1,8.1v64.76a8.1,8.1,0,0,1-8.1,8.1H776.24a8.1,8.1,0,0,1-8.1-8.1V643A8.11,8.11,0,0,1,776.24,634.87Z" style="fill: none;stroke: #fff;stroke-miterlimit: 10;stroke-width: 2px"/>
    <line x1="768.13" y1="650.53" x2="864.06" y2="650.53" style="fill: none;stroke: #fff;stroke-miterlimit: 10;stroke-width: 2px"/>
    <path d="M783.25,663a3.95,3.95,0,1,1-3.94-3.94A3.94,3.94,0,0,1,783.25,663Z" style="fill: none;stroke: #fff;stroke-miterlimit: 10"/>
    <path d="M795.85,663a3.95,3.95,0,1,1-3.94-3.94,3.94,3.94,0,0,1,3.94,3.94" style="fill: #fff"/>
    <path d="M808.45,663a3.95,3.95,0,1,1-4-3.94,4,4,0,0,1,4,3.94" style="fill: #fff"/>
    <path d="M821.05,663a4,4,0,1,1-3.95-3.94,4,4,0,0,1,3.95,3.94" style="fill: #fff"/>
    <path d="M833.65,663a4,4,0,1,1-3.95-3.94,4,4,0,0,1,3.95,3.94" style="fill: #fff"/>
    <path d="M846.25,663a4,4,0,1,1-4-3.94,4,4,0,0,1,4,3.94" style="fill: #fff"/>
    <path d="M858.84,663a3.95,3.95,0,1,1-3.94-3.94,3.94,3.94,0,0,1,3.94,3.94" style="fill: #fff"/>
    <path d="M783.25,675.26a3.95,3.95,0,1,1-3.94-3.94,3.94,3.94,0,0,1,3.94,3.94" style="fill: #fff"/>
    <path d="M795.85,675.26a3.95,3.95,0,1,1-3.94-3.94,3.94,3.94,0,0,1,3.94,3.94" style="fill: #fff"/>
    <path d="M808.45,675.26a3.95,3.95,0,1,1-4-3.94,4,4,0,0,1,4,3.94" style="fill: #fff"/>
    <path d="M821.05,675.26a4,4,0,1,1-3.95-3.94,4,4,0,0,1,3.95,3.94" style="fill: #fff"/>
    <path d="M833.65,675.26a4,4,0,1,1-3.95-3.94,4,4,0,0,1,3.95,3.94" style="fill: #fff"/>
    <path d="M846.25,675.26a4,4,0,1,1-4-3.94,4,4,0,0,1,4,3.94" style="fill: #fff"/>
    <path d="M858.84,675.26a3.95,3.95,0,1,1-3.94-3.94,3.94,3.94,0,0,1,3.94,3.94" style="fill: #fff"/>
    <path d="M783.25,687.52a3.95,3.95,0,1,1-3.94-3.94,3.94,3.94,0,0,1,3.94,3.94" style="fill: #fff"/>
    <path d="M795.85,687.52a3.95,3.95,0,1,1-3.94-3.94,3.94,3.94,0,0,1,3.94,3.94" style="fill: #fff"/>
    <path d="M808.45,687.52a3.95,3.95,0,1,1-4-3.94,4,4,0,0,1,4,3.94" style="fill: #fff"/>
    <path d="M821.05,687.52a4,4,0,1,1-3.95-3.94,4,4,0,0,1,3.95,3.94" style="fill: #fff"/>
    <path d="M833.65,687.52a4,4,0,1,1-3.95-3.94,4,4,0,0,1,3.95,3.94" style="fill: #fff"/>
    <path d="M846.25,687.52a4,4,0,1,1-4-3.94,4,4,0,0,1,4,3.94" style="fill: #fff"/>
    <path d="M858.84,687.52a3.95,3.95,0,1,1-3.94-3.94,3.94,3.94,0,0,1,3.94,3.94" style="fill: #fff"/>
    <path d="M783.25,699.79a3.95,3.95,0,1,1-3.94-3.95,3.93,3.93,0,0,1,3.94,3.95" style="fill: #fff"/>
    <path d="M795.85,699.79a3.95,3.95,0,1,1-3.94-3.95,3.93,3.93,0,0,1,3.94,3.95" style="fill: #fff"/>
    <path d="M808.45,699.79a3.95,3.95,0,1,1-4-3.95,3.94,3.94,0,0,1,4,3.95" style="fill: #fff"/>
    <path d="M821.05,699.79a4,4,0,1,1-3.95-3.95,3.94,3.94,0,0,1,3.95,3.95" style="fill: #fff"/>
    <path d="M833.65,699.79a3.95,3.95,0,1,1-3.95-3.95,3.94,3.94,0,0,1,3.95,3.95" style="fill: #fff"/>
    <path d="M846.25,699.79a4,4,0,1,1-4-3.95A3.94,3.94,0,0,1,846.25,699.79Z" style="fill: none;stroke: #fff;stroke-miterlimit: 10"/>
    <path d="M858.84,699.79a3.95,3.95,0,1,1-3.94-3.95A3.93,3.93,0,0,1,858.84,699.79Z" style="fill: none;stroke: #fff;stroke-miterlimit: 10"/>
  </g>
  <g>
    <path d="M377.79,1136h.5a83.52,83.52,0,1,1-83.52-83.51A83.51,83.51,0,0,1,378.29,1136h-1a82.52,82.52,0,1,0-82.52,82.52A82.63,82.63,0,0,0,377.29,1136Z" style="fill: url(#linear-gradient-8)"/>
    <rect x="246.05" y="1097.87" width="97.45" height="76.26" rx="6.45" ry="6.45" style="fill: none;stroke: #fff;stroke-miterlimit: 10;stroke-width: 2px"/>
    <rect x="266.23" y="1097.87" width="21.48" height="76.26" style="fill: none;stroke: #fff;stroke-miterlimit: 10;stroke-width: 2px"/>
    <line x1="299.69" y1="1136" x2="331.52" y2="1136" style="fill: none;stroke: #fff;stroke-miterlimit: 10;stroke-width: 2px"/>
    <line x1="315.61" y1="1120.08" x2="315.61" y2="1151.92" style="fill: none;stroke: #fff;stroke-miterlimit: 10;stroke-width: 2px"/>
  </g>
</svg>
