<svg width="128px" height="128px" viewBox="0 0 128 128" version="1.1" xmlns="http://www.w3.org/2000/svg" xmlns:xlink="http://www.w3.org/1999/xlink">
        <path d="M68.7955723,118.801123 L68.7955723,118.780351 L49.8043417,118.738808 L49.8043417,118.801123 L49.8043417,72.9491701 L32.5519956,72.9491701 L32.5519956,54.9401421 L50.6470775,54.9401421 C50.6470775,46.0201985 50.1485577,37.7560458 50.7776422,29.5868492 C51.5165198,19.9873756 57.0981612,12.7796101 66.371223,10.9754431 C75.8430993,9.12973291 85.7660174,9.80926288 95.3951648,9.80926288 L95.3951648,27.7263021 C89.6443827,27.7263021 84.231882,27.6699219 78.8193813,27.741139 C73.9083677,27.8123561 69.6116018,29.6491642 69.0982451,34.8954916 C68.457291,41.391086 68.9439413,47.9964734 68.9439413,55.1448913 L94.8432321,55.1448913 C93.7631059,61.4950841 92.8046422,67.1182688 91.7512224,73.2993209 L68.7955723,73.2993209 L68.7955723,118.801123 Z M99.5257575,82.3824705 C101.57325,70.2696261 103.54359,58.5811171 105.632625,46.2249477 L78.0092866,46.2249477 L78.0092866,36.9726575 L104.34775,36.9726575 L104.34775,0.411571081 C90.0004683,0.411571081 72.3920366,-1.54986696 60.9943309,3.09111503 C48.5936507,7.80331414 42.1900451,17.8805359 41.3027986,31.1625279 C40.9971584,35.7679013 41.2553205,40.4118507 41.2553205,45.9133728 L23,45.9133728 L23,64.3081601 L23,82.1450801 L40.7597681,82.1450801 L40.7597681,121.685416 L40.7597681,128 L77.9855475,128 L77.9855475,118.801123 L77.9855475,82.3824705 L99.5257575,82.3824705 Z" id="Fill-1" fill="#FFFFFF"></path>
</svg>
