<?xml version="1.0" encoding="UTF-8"?>
<svg width="128px" height="128px" viewBox="0 0 128 128" version="1.1" xmlns="http://www.w3.org/2000/svg" xmlns:xlink="http://www.w3.org/1999/xlink">
    <!-- Generator: Sketch 58 (84663) - https://sketch.com -->
    <title>instagram</title>
    <desc>Created with Sketch.</desc>
    <g id="instagram" stroke="none" stroke-width="1" fill="none" fill-rule="evenodd">
        <path d="M90.9713745,0.825888004 C111.27801,2.06619128 125.939638,16.7781418 127.174021,37.0847777 C128.257437,54.9048867 128.287038,72.8996447 127.191782,90.7227139 C125.859714,112.459103 109.10822,127.156253 87.1912617,127.594355 C79.4060646,127.751243 71.6149471,127.620996 63.8327101,127.620996 L63.8327101,127.520351 C55.381479,127.520351 46.9065667,127.952533 38.4908573,127.431547 C17.6543544,126.149801 2.11060147,111.713145 0.814055325,90.8884824 C-0.28712085,73.0713335 -0.248638887,55.0795357 0.793334268,37.2505461 C1.97443452,16.9557508 16.5798196,2.13427475 36.8450134,0.852529363 C54.8308909,-0.287128774 72.9914173,-0.272328019 90.9713745,0.825888004 Z M40.9833045,12.3231145 C24.2969333,12.5036837 12.5273729,24.1933201 12.3320029,40.8264086 C12.1514337,56.2191938 12.1632743,71.611979 12.3290427,87.0018041 C12.509612,103.685215 24.1992483,115.445895 40.8352969,115.650146 C56.225122,115.830715 71.6149471,115.815914 87.0106925,115.653106 C103.694104,115.472536 115.374859,103.78586 115.670875,87.1468515 C115.810002,79.5392634 115.694556,71.9198347 115.697516,64.3092865 C115.697516,56.5329698 115.798161,48.7477727 115.673835,40.971456 C115.407421,24.2880449 103.788828,12.5244048 87.1498196,12.3231145 C71.7659148,12.1425453 56.3701694,12.1573461 40.9833045,12.3231145 Z M64.2045051,32.2079289 C81.512508,32.3588966 95.7449141,46.6712267 95.7745605,63.946668 C95.8041171,81.3997183 81.2046523,95.9222192 63.7841636,95.7653312 C46.4791208,95.6143635 32.2437547,81.3020334 32.2141082,64.0265921 C32.1845516,46.5735417 46.7869766,32.0540011 64.2045051,32.2079289 Z M64.0683381,44.1371745 C53.1542614,44.0929352 44.1169203,53.1273161 44.1464493,64.0384327 C44.1702031,74.7452989 52.9677719,83.667194 63.6716779,83.8388828 C74.5798344,84.0164918 83.7385416,75.0945967 83.8480672,64.1834801 C83.9546326,53.2812439 74.9794547,44.1787796 64.0683381,44.1371745 Z M95.7700753,24.7477563 C99.8935657,24.7477563 103.232616,28.0868067 103.232616,32.2073369 C103.232616,36.3278671 99.8935657,39.6669174 95.7700753,39.6669174 C91.6584256,39.6669174 88.3193753,36.3278671 88.3193753,32.2073369 C88.3193753,28.0868067 91.6584256,24.7477563 95.7700753,24.7477563 Z" id="Combined-Shape" fill="#FFFFFF"></path>
    </g>
</svg>