<svg id="Layer_2" data-name="Layer 2" xmlns="http://www.w3.org/2000/svg" xmlns:xlink="http://www.w3.org/1999/xlink" viewBox="0 0 1125 2199.63">
  <defs>
    <linearGradient id="New_Gradient_Swatch_1" data-name="New Gradient Swatch 1" x1="352.31" y1="1520.72" x2="1125" y2="1520.72" gradientUnits="userSpaceOnUse">
      <stop offset="0" stop-color="#ff2a00"/>
      <stop offset="0.29" stop-color="#ff2e00"/>
      <stop offset="0.59" stop-color="#ff3b00"/>
      <stop offset="0.89" stop-color="#ff4f00"/>
      <stop offset="1" stop-color="#ff5900"/>
    </linearGradient>
    <linearGradient id="New_Gradient_Swatch_1-2" x1="0" y1="678.04" x2="772.69" y2="678.04" xlink:href="#New_Gradient_Swatch_1"/>
  </defs>
  <title>main_mobile</title>
  <g>
    <path d="M994.32,880.61a618.1,618.1,0,0,0-256.8,151.14L576.61,1189.47a618.15,618.15,0,0,0-166.25,288.6l-38.85,152.24a618.15,618.15,0,0,0,9,337.54l72.57,231.77H1125V841.82Z" style="fill: url(#New_Gradient_Swatch_1)"/>
    <path d="M0,0V1356.09l130.68-38.79a618.21,618.21,0,0,0,256.8-151.14l160.91-157.72a618.15,618.15,0,0,0,166.25-288.6l38.85-152.25a618.16,618.16,0,0,0-9-337.54l-72-230Z" style="fill: url(#New_Gradient_Swatch_1-2)"/>
  </g>
  <path d="M190.37,564.22h12.35l7.09,45.83H196.55l-1.11-8.13H177.89l-5.46,8.13H158.72Zm4,27.89L192.78,579l-8.52,13.07Zm30.94-27.56H238L228.79,599H250.5l-3,11H213.12Zm40.11,0h12.67L268.89,599H290.6l-3,11H253.23Zm40.1,0H342l-2.93,10.72H315.17l-1.88,6.89H335l-2.67,10H310.62l-1.95,7.21H333l-2.86,10.73H293.33Zm43.49,0H360.8l11.77,25.28,6.82-25.28h12.55l-12.22,45.5H368.67l-12.29-26.2-7,26.2H336.82Zm66.17-.33h12.35l7.08,45.83H421.38l-1.1-8.13H402.73l-5.46,8.13H383.55Zm4,27.89L417.61,579l-8.51,13.07Zm33.15-16.51H438.73l3-11.05h39.85l-2.92,11.05H465l-9.23,34.45H443.09ZM487,564.55h12.61l-12.22,45.5H474.74Zm-363.86,78h36.46l-2.92,10.72H132.72l-1.89,6.89h21.71l-2.66,10H128.17l-1.95,7.21h24.31l-2.86,10.73H110.88Zm61.49,0h17.16c7.6,0,12.61,1.69,15.66,4.74a12.75,12.75,0,0,1,3.51,9.3c0,7.6-4.35,13.58-13.65,16.12l7,15.34H200.38l-6-13.78h-5.59L185,688.05H172.37Zm14,21.84c5.66,0,9.36-2.41,9.36-6.31a4.26,4.26,0,0,0-1.17-3.05c-1-1-2.92-1.56-5.59-1.56h-6.82l-3,10.92Zm33.15-21.84h12.61l-12.22,45.5H219.49Zm7.87,38,8.12-8.39c4.42,4.1,9,6.18,14,6.18,3,0,5.14-1.3,5.14-3.38,0-1.76-1.24-2.67-7.61-5.14-7.21-2.73-11.83-5.85-11.83-12.54,0-9,8.19-15.47,19.31-15.47,8,0,14.3,2.6,18.65,6.76l-7.8,8.71c-3.44-3-7.41-5-12-5-3.06,0-4.94,1.43-4.94,3.25s1.36,2.47,7.6,4.94c7,2.67,11.83,5.85,11.83,12.68,0,9.36-8.06,15.73-19.37,15.73C251.8,688.83,244.45,685.77,239.58,680.51Zm54.86-38h14.88c7.41,0,12.29,1.49,15.6,4.81a12.56,12.56,0,0,1,3.58,9.29c0,11.31-9.17,18.33-22.62,18.33H298.4l-3.51,13.07H282.21Zm11.31,22.62c6.24,0,9.81-2.8,9.81-7.09a4.39,4.39,0,0,0-1.3-3.18c-1.23-1.24-3.05-1.76-5.39-1.76h-4.68l-3.19,12ZM350,642.22h12.35l7.09,45.83H356.19l-1.11-8.13H337.53l-5.46,8.13H318.35Zm4,27.89L352.42,657l-8.52,13.07ZM385,642.55h17.16c7.61,0,12.61,1.69,15.67,4.74a12.79,12.79,0,0,1,3.51,9.3c0,7.6-4.36,13.58-13.65,16.12l7,15.34H400.77l-6-13.78h-5.59l-3.71,13.78H372.76Zm14,21.84c5.65,0,9.36-2.41,9.36-6.31a4.26,4.26,0,0,0-1.17-3.05c-1-1-2.93-1.56-5.59-1.56h-6.83l-3,10.92Zm32.82-21.84h12.74l6,17.61L466,642.55h14.17L468,688.05H455.31l7-26.13L446,679.73h-.26L439,662.05l-6.95,26H419.56Zm56.61,0H501l-12.22,45.5H476.17Zm36.21-.33H537L544,688.05H530.77l-1.1-8.13H512.12l-5.46,8.13H492.94Zm4,27.89L527,657l-8.51,13.07Z" style="fill: #282323"/>
  <path d="M570.41,1573.35h0a4,4,0,0,1-2.34-5.15h0a4,4,0,0,1,5.14-2.35h0a4,4,0,0,1,2.35,5.15h0a4,4,0,0,1-3.75,2.6h0A3.85,3.85,0,0,1,570.41,1573.35Zm-18.75-7.7h0a4,4,0,0,1-2-5.29h0a4,4,0,0,1,5.29-2h0a4,4,0,0,1,2,5.29h0a4,4,0,0,1-3.65,2.36h0A4,4,0,0,1,551.66,1565.65Zm-18.24-8.82a4,4,0,0,1-1.7-5.39h0a4,4,0,0,1,5.39-1.71h0a4,4,0,0,1,1.71,5.4h0a4,4,0,0,1-3.55,2.15h0A4,4,0,0,1,533.42,1556.83ZM515.73,1547a4,4,0,0,1-1.41-5.48h0a4,4,0,0,1,5.47-1.41h0a4,4,0,0,1,1.42,5.48h0a4,4,0,0,1-3.45,2h0A4,4,0,0,1,515.73,1547Zm-17.15-10.72a4,4,0,0,1-1.14-5.54h0a4,4,0,0,1,5.54-1.14h0a4,4,0,0,1,1.13,5.55h0a4,4,0,0,1-3.34,1.79h0A4,4,0,0,1,498.58,1536.29ZM482,1524.76a4,4,0,0,1-.88-5.59h0a4,4,0,0,1,5.59-.87h0a4,4,0,0,1,.88,5.59h0a4,4,0,0,1-3.24,1.64h0A4,4,0,0,1,482,1524.76Zm-16.06-12.26a4,4,0,0,1-.63-5.62h0a4,4,0,0,1,5.62-.63h0a4,4,0,0,1,.63,5.62h0a4,4,0,0,1-3.13,1.5h0A4,4,0,0,1,465.92,1512.5Zm-15.51-12.93a4,4,0,0,1-.4-5.64h0a4,4,0,0,1,5.65-.4h0a4,4,0,0,1,.39,5.64h0a4,4,0,0,1-3,1.38h0A4,4,0,0,1,450.41,1499.57Zm-15-13.53a4,4,0,0,1-.18-5.65h0a4,4,0,0,1,5.65-.18h0a4,4,0,0,1,.18,5.65h0a4,4,0,0,1-2.92,1.26h0A3.94,3.94,0,0,1,435.44,1486ZM421,1472a4,4,0,0,1,0-5.66h0a4,4,0,0,1,5.66,0h0a4,4,0,0,1,0,5.66h0a4,4,0,0,1-2.81,1.15h0A4,4,0,0,1,421,1472Zm-13.92-14.59a4,4,0,0,1,.23-5.66h0a4,4,0,0,1,5.65.24h0a4,4,0,0,1-.23,5.65h0a4,4,0,0,1-2.71,1.06h0A4,4,0,0,1,407.07,1457.37Zm-13.42-15.06a4,4,0,0,1,.43-5.64h0a4,4,0,0,1,5.64.42h0a4,4,0,0,1-.43,5.64h0a4,4,0,0,1-2.6,1h0A4,4,0,0,1,393.65,1442.31Zm-12.9-15.48a4,4,0,0,1,.6-5.63h0a4,4,0,0,1,5.63.6h0a4,4,0,0,1-.6,5.63h0a4,4,0,0,1-2.51.88h0A4,4,0,0,1,380.75,1426.83Zm-12.4-15.89a4,4,0,0,1,.77-5.6h0a4,4,0,0,1,5.61.78h0a4,4,0,0,1-.78,5.6h0a4,4,0,0,1-2.41.81h0A4,4,0,0,1,368.35,1410.94Zm-11.91-16.25a4,4,0,0,1,.94-5.58h0a4,4,0,0,1,5.58,1h0a4,4,0,0,1-.95,5.58h0a4,4,0,0,1-2.31.73h0A4,4,0,0,1,356.44,1394.69ZM345,1378.1h0a4,4,0,0,1,1.11-5.55h0a4,4,0,0,1,5.55,1.11h0a4,4,0,0,1-1.11,5.54h0a3.94,3.94,0,0,1-2.22.68h0A4,4,0,0,1,345,1378.1Zm-10.94-16.92a4,4,0,0,1,1.27-5.51h0a4,4,0,0,1,5.51,1.26h0a4,4,0,0,1-1.26,5.51h0a4,4,0,0,1-2.12.61h0A4,4,0,0,1,334.07,1361.18ZM323.62,1344a4,4,0,0,1,1.41-5.47h0a4,4,0,0,1,5.48,1.41h0a4,4,0,0,1-1.42,5.48h0a3.94,3.94,0,0,1-2,.56h0A4,4,0,0,1,323.62,1344Zm-10-17.48h0a4,4,0,0,1,1.57-5.44h0a4,4,0,0,1,5.43,1.56h0a4,4,0,0,1-1.56,5.44h0a4,4,0,0,1-1.93.5h0A4,4,0,0,1,313.63,1326.49Zm-9.51-17.75a4,4,0,0,1,1.71-5.39h0a4,4,0,0,1,5.39,1.7h0a4,4,0,0,1-1.71,5.4h0a4,4,0,0,1-1.84.45h0A4,4,0,0,1,304.12,1308.74Zm-9-18h0a4,4,0,0,1,1.85-5.35h0a4,4,0,0,1,5.34,1.85h0a4,4,0,0,1-1.84,5.35h0a4.06,4.06,0,0,1-1.75.4h0A4,4,0,0,1,295.08,1290.75Zm-8.57-18.21h0a4,4,0,0,1,2-5.3h0a4,4,0,0,1,5.3,2h0a4,4,0,0,1-2,5.3h0a3.87,3.87,0,0,1-1.65.36h0A4,4,0,0,1,286.51,1272.54Zm-8.11-18.43a4,4,0,0,1,2.12-5.24h0a4,4,0,0,1,5.24,2.11h0a4,4,0,0,1-2.11,5.25h0a4,4,0,0,1-1.57.32h0A4,4,0,0,1,278.4,1254.11Zm-7.64-18.62a4,4,0,0,1,2.25-5.19h0a4,4,0,0,1,5.19,2.25h0a4,4,0,0,1-2.25,5.19h0a4,4,0,0,1-1.47.28h0A4,4,0,0,1,270.76,1235.49Zm-7.18-18.8a4,4,0,0,1,2.38-5.14h0a4,4,0,0,1,5.13,2.38h0a4,4,0,0,1-2.37,5.13h0a4,4,0,0,1-1.38.25h0A4,4,0,0,1,263.58,1216.69Zm-6.71-19a4,4,0,0,1,2.5-5.07h0a4,4,0,0,1,5.07,2.5h0a4,4,0,0,1-2.5,5.07h0a3.87,3.87,0,0,1-1.29.21h0A4,4,0,0,1,256.87,1197.7Zm-6.25-19.14a4,4,0,0,1,2.62-5h0a4,4,0,0,1,5,2.62h0a4,4,0,0,1-2.62,5h0a3.82,3.82,0,0,1-1.19.18h0A4,4,0,0,1,250.62,1178.56Zm-5.77-19.3a4,4,0,0,1,2.74-4.94h0a4,4,0,0,1,4.95,2.75h0a4,4,0,0,1-2.75,4.94h0a3.85,3.85,0,0,1-1.1.16h0A4,4,0,0,1,244.85,1159.26Zm-5.29-19.43a4,4,0,0,1,2.87-4.87h0a4,4,0,0,1,4.87,2.87h0a4,4,0,0,1-2.87,4.87h0a3.87,3.87,0,0,1-1,.13h0A4,4,0,0,1,239.56,1139.83Zm-4.8-19.56a4,4,0,0,1,3-4.8h0a4,4,0,0,1,4.8,3h0a4,4,0,0,1-3,4.8h0a3.94,3.94,0,0,1-.9.1h0A4,4,0,0,1,234.76,1120.27Zm-4.29-19.69a4,4,0,0,1,3.12-4.71h0a4,4,0,0,1,4.72,3.11h0a4,4,0,0,1-3.12,4.72h0a3.68,3.68,0,0,1-.8.08h0A4,4,0,0,1,230.47,1100.58Zm-3.77-19.79a4,4,0,0,1,3.24-4.63h0a4,4,0,0,1,4.64,3.24h0a4,4,0,0,1-3.24,4.64h0a4.23,4.23,0,0,1-.7.06h0A4,4,0,0,1,226.7,1080.79Zm-3.24-19.89a4,4,0,0,1,3.36-4.54h0a4,4,0,0,1,4.55,3.36h0a4,4,0,0,1-3.37,4.55h0a3.92,3.92,0,0,1-.59,0h0A4,4,0,0,1,223.46,1060.9Zm-2.7-20h0a4,4,0,0,1,3.5-4.45h0a4,4,0,0,1,4.45,3.49h0a4,4,0,0,1-3.49,4.45h0l-.49,0h0A4,4,0,0,1,220.76,1040.93Zm-2.15-20h0a4,4,0,0,1,3.62-4.35h0a4,4,0,0,1,4.35,3.61h0a4,4,0,0,1-3.62,4.35h0a2.3,2.3,0,0,1-.37,0h0A4,4,0,0,1,218.61,1020.89ZM217,1000.81a4,4,0,0,1,3.74-4.25h0a4,4,0,0,1,4.25,3.74h0a4,4,0,0,1-3.74,4.25H221A4,4,0,0,1,217,1000.81Zm-1-20.13a4,4,0,0,1,3.86-4.13h0a4,4,0,0,1,4.13,3.87h0a4,4,0,0,1-3.86,4.13h-.14A4,4,0,0,1,216.07,980.68Zm-.37-20.15a4,4,0,0,1,4-4h0a4,4,0,0,1,4,4h0a4,4,0,0,1-4,4h0A4,4,0,0,1,215.7,960.53Zm4.15-16a4,4,0,0,1-3.88-4.12h0a4,4,0,0,1,4.12-3.88h0a4,4,0,0,1,3.88,4.12h0a4,4,0,0,1-4,3.88h-.12Zm.79-20a4,4,0,0,1-3.74-4.24h0a4,4,0,0,1,4.24-3.74h0a4,4,0,0,1,3.74,4.24h0a4,4,0,0,1-4,3.75h-.25Zm1.46-20a4,4,0,0,1-3.59-4.37h0a4,4,0,0,1,4.37-3.59h0a4,4,0,0,1,3.59,4.37h0a4,4,0,0,1-4,3.61h0Zm2.17-19.91a4,4,0,0,1-3.43-4.5h0a4,4,0,0,1,4.5-3.43h0a4,4,0,0,1,3.43,4.5h0a4,4,0,0,1-4,3.47h0A4.9,4.9,0,0,1,224.27,884.6Zm2.9-19.81a4,4,0,0,1-3.25-4.63h0a4,4,0,0,1,4.63-3.26h0a4,4,0,0,1,3.25,4.63h0a4,4,0,0,1-3.93,3.32h0A4.23,4.23,0,0,1,227.17,864.79Zm3.68-19.69a4,4,0,0,1-3.06-4.76h0a4,4,0,0,1,4.76-3.06h0a4,4,0,0,1,3.06,4.76h0a4,4,0,0,1-3.9,3.15h0A4.19,4.19,0,0,1,230.85,845.1Zm4.5-19.52a4,4,0,0,1-2.86-4.88h0a4,4,0,0,1,4.89-2.86h0a4,4,0,0,1,2.85,4.89h0a4,4,0,0,1-3.87,3h0A3.94,3.94,0,0,1,235.35,825.58Zm5.35-19.3a4,4,0,0,1-2.63-5h0a4,4,0,0,1,5-2.62h0a4,4,0,0,1,2.63,5h0a4,4,0,0,1-3.82,2.8h0A4,4,0,0,1,240.7,806.28Zm6.25-19a4,4,0,0,1-2.38-5.13h0a4,4,0,0,1,5.14-2.37h0a4,4,0,0,1,2.37,5.13h0a4,4,0,0,1-3.76,2.62h0A3.9,3.9,0,0,1,247,787.25Zm7.2-18.68a4,4,0,0,1-2.1-5.26h0a4,4,0,0,1,5.26-2.09h0a4,4,0,0,1,2.09,5.25h0a4,4,0,0,1-3.67,2.42h0A4,4,0,0,1,254.15,768.57Zm8.21-18.27a4,4,0,0,1-1.79-5.36h0a4,4,0,0,1,5.36-1.8h0a4,4,0,0,1,1.79,5.37h0a4,4,0,0,1-3.58,2.21h0A3.91,3.91,0,0,1,262.36,750.3Zm331.26,828.52a4.16,4.16,0,0,0,.5-.61,4.58,4.58,0,0,0,.37-.69,4.25,4.25,0,0,0,.22-.75,3.44,3.44,0,0,0,.08-.78,3.39,3.39,0,0,0-.08-.78,3.81,3.81,0,0,0-.22-.75,4.14,4.14,0,0,0-.37-.69,3.69,3.69,0,0,0-.5-.61,4,4,0,0,0-6.83,2.83,4,4,0,0,0,6.83,2.83ZM274.36,733.11a4,4,0,0,0,.74-.23,3.75,3.75,0,0,0,.69-.36,4.28,4.28,0,0,0,.61-.5,4,4,0,0,0,0-5.66,3.64,3.64,0,0,0-.61-.49,3.26,3.26,0,0,0-.69-.37,4,4,0,0,0-.74-.23,3.78,3.78,0,0,0-1.57,0,4.3,4.3,0,0,0-.75.23,3.83,3.83,0,0,0-.69.37,3.56,3.56,0,0,0-.6.49,4,4,0,0,0,2.82,6.83A4.23,4.23,0,0,0,274.36,733.11Zm20.8,9.56a4,4,0,0,0-3.61-6.75,3.92,3.92,0,0,0-.74.22,4.24,4.24,0,0,0-.7.37,4.82,4.82,0,0,0-.6.5,4,4,0,1,0,5.65,5.66ZM288.91,728h0a4.17,4.17,0,0,0,.85-.09h0a4,4,0,0,0,3.06-4.76h0a4,4,0,0,0-4.75-3.06h0a4,4,0,0,0,.84,7.91Zm-2.64-15.93a4.66,4.66,0,0,0,.75-.23,4.14,4.14,0,0,0,.69-.37,4,4,0,0,0,1.11-1.11,4.14,4.14,0,0,0,.37-.69,4.66,4.66,0,0,0,.23-.75,4,4,0,0,0,.07-.78,4.11,4.11,0,0,0-.07-.78,5,5,0,0,0-.23-.75,4.58,4.58,0,0,0-.37-.69,4.16,4.16,0,0,0-.5-.61,3.64,3.64,0,0,0-.61-.49,3.52,3.52,0,0,0-.69-.37,3.83,3.83,0,0,0-.75-.23,4,4,0,0,0-2.31.23,3.83,3.83,0,0,0-.69.37,3.61,3.61,0,0,0-1.1,1.1,3.83,3.83,0,0,0-.37.69,4.05,4.05,0,0,0-.23.75,4.13,4.13,0,0,0-.08.78,4,4,0,0,0,1.17,2.83,4.16,4.16,0,0,0,.61.5,4.58,4.58,0,0,0,.69.37,5,5,0,0,0,.75.23,4.11,4.11,0,0,0,.78.07A4,4,0,0,0,286.27,712.06ZM270,716.88h0a4,4,0,0,0,1.18-.18h0a4,4,0,0,0,2.65-5h0a4,4,0,0,0-5-2.66h0a4,4,0,0,0,1.17,7.83Zm-14.72,4.66a3.81,3.81,0,0,0,.75-.22,4.58,4.58,0,0,0,.69-.37,4.92,4.92,0,0,0,.61-.5,4.28,4.28,0,0,0,.5-.61,4.52,4.52,0,0,0,.36-.69,3.83,3.83,0,0,0,.23-.75,4,4,0,0,0-1.09-3.61,4.09,4.09,0,0,0-.61-.49,4,4,0,0,0-1.44-.6,4.09,4.09,0,0,0-1.56,0,4,4,0,0,0-1.44.6,3.91,3.91,0,0,0-1.78,3.32,4,4,0,0,0,.08.78,3.83,3.83,0,0,0,.23.75,4.1,4.1,0,0,0,.36.69,4.28,4.28,0,0,0,.5.61,4.92,4.92,0,0,0,.61.5,4.58,4.58,0,0,0,.69.37,3.81,3.81,0,0,0,.75.22,3.84,3.84,0,0,0,1.56,0Z" style="fill: #282323"/>
  <path d="M844.32,1496.78a4,4,0,0,1,2.65-5h0a4,4,0,0,1,5,2.65h0a4,4,0,0,1-2.66,5h0a4,4,0,0,1-1.17.18h0A4,4,0,0,1,844.32,1496.78Zm22.16-3.08a4,4,0,1,0-5.66,0,4.28,4.28,0,0,0,.61.5,4.1,4.1,0,0,0,.69.36,3.83,3.83,0,0,0,.75.23,4,4,0,0,0,3.61-1.09Zm-11.66-27h0a4,4,0,0,0,3.51-2.07h0a4,4,0,0,0-1.57-5.43h0a4,4,0,0,0-5.44,1.58h0a4,4,0,0,0,3.5,5.92Zm9.12-17.86h0a4,4,0,0,0,3.62-2.29h0a4,4,0,0,0-1.9-5.32h0a4,4,0,0,0-5.33,1.9h0a4,4,0,0,0,3.61,5.71Zm8.07-18.36h0a4,4,0,0,0,3.7-2.49h0a4,4,0,0,0-2.19-5.21h0a4,4,0,0,0-5.22,2.2h0a4,4,0,0,0,3.71,5.5Zm7.06-18.76h0a4,4,0,0,0,3.78-2.69h0a4,4,0,0,0-2.47-5.09h0a4,4,0,0,0-5.09,2.46h0a4,4,0,0,0,3.78,5.32Zm6.12-19.1h0a4,4,0,0,0,3.83-2.87h0a4,4,0,0,0-2.71-5h0a4,4,0,0,0-5,2.71h0a4,4,0,0,0,3.84,5.13Zm5.22-19.37h0a4,4,0,0,0,3.88-3h0a4,4,0,0,0-2.93-4.84h0a4,4,0,0,0-4.84,2.93h0a4,4,0,0,0,2.93,4.84A4.49,4.49,0,0,0,890.41,1373.22Zm4.36-19.57h0a4,4,0,0,0,3.92-3.21h0a4,4,0,0,0-3.13-4.71h0a4,4,0,0,0-4.71,3.13h0a4,4,0,0,0,3.13,4.71A4.32,4.32,0,0,0,894.77,1353.65Zm3.56-19.74h0a4,4,0,0,0,3.95-3.37h0A4,4,0,0,0,899,1326h0a4,4,0,0,0-4.58,3.32h0a4,4,0,0,0,3.32,4.58A4.46,4.46,0,0,0,898.33,1333.91Zm2.79-19.86h0a4,4,0,0,0,4-3.52h0a4,4,0,0,0-3.49-4.45h0a4,4,0,0,0-4.45,3.49h0a4,4,0,0,0,3.48,4.45Zm2-20h0a4,4,0,0,0,4-3.66h0a4,4,0,0,0-3.65-4.33h0a4,4,0,0,0-4.33,3.65h0a4,4,0,0,0,3.64,4.33Zm1.35-20h0a4,4,0,0,0,4-3.8h0a4,4,0,0,0-3.8-4.19h0a4,4,0,0,0-4.19,3.79h0a4,4,0,0,0,3.79,4.2Zm.68-20h0a4,4,0,0,0,4-3.93h0a4,4,0,0,0-3.93-4.07h0a4,4,0,0,0-4.07,3.93h0a4,4,0,0,0,3.93,4.07Zm0-20.06h0a4,4,0,0,0,3.94-4h0a4,4,0,0,0-4.05-4h0a4,4,0,0,0,.06,8Zm-.6-20h.18a4,4,0,0,0,3.82-4.17h0a4,4,0,0,0-4.17-3.82h0a4,4,0,0,0-3.82,4.18h0A4,4,0,0,0,904.64,1214Zm-1.2-20h.31a4,4,0,0,0,3.69-4.28h0a4,4,0,0,0-4.29-3.69h0a4,4,0,0,0,.29,8Zm-1.77-20h0l.41,0h0a4,4,0,0,0,3.58-4.39h0a4,4,0,0,0-4.39-3.57h0a4,4,0,0,0,.41,8ZM899.33,1154h0a4.55,4.55,0,0,0,.52,0h0a4,4,0,0,0,3.45-4.49h0a4,4,0,0,0-4.49-3.44h0a4,4,0,0,0,.52,8Zm-2.9-19.87h0a3.52,3.52,0,0,0,.64-.05h0a4,4,0,0,0,3.32-4.58h0a4,4,0,0,0-4.58-3.32h0a4,4,0,0,0,.62,8ZM893,1114.38h0a3.71,3.71,0,0,0,.74-.07h0a4,4,0,0,0,3.2-4.67h0a4,4,0,0,0-4.67-3.19h0a4,4,0,0,0,.73,7.93Zm-4-19.68h0a4,4,0,0,0,.84-.09h0a4,4,0,0,0,3.07-4.75h0a4,4,0,0,0-4.75-3.07h0a4,4,0,0,0-3.07,4.75h0A4,4,0,0,0,889.05,1094.7Zm-4.47-19.56h0a3.93,3.93,0,0,0,.95-.12h0a4,4,0,0,0,3-4.82h0a4,4,0,0,0-4.83-3h0a4,4,0,0,0-2.95,4.83h0A4,4,0,0,0,884.58,1075.14Zm-5-19.45h0a4.12,4.12,0,0,0,1-.13h0a4,4,0,0,0,2.83-4.91h0a4,4,0,0,0-4.9-2.82h0a4,4,0,0,0-2.82,4.9h0A4,4,0,0,0,879.62,1055.69Zm-5.45-19.31h0a4.06,4.06,0,0,0,1.13-.16h0a4,4,0,0,0,2.71-5h0a4,4,0,0,0-5-2.7h0a4,4,0,0,0,1.14,7.83Zm-5.94-19.17h0a4,4,0,0,0,1.23-.19h0a4,4,0,0,0,2.58-5h0a4,4,0,0,0-5-2.57h0a4,4,0,0,0,1.23,7.8Zm-6.4-19h0a4.08,4.08,0,0,0,1.32-.23h0a4,4,0,0,0,2.45-5.1h0a4,4,0,0,0-5.09-2.45h0a4,4,0,0,0,1.32,7.78ZM855,979.35h0a4,4,0,0,0,1.42-.26h0a4,4,0,0,0,2.32-5.15h0a4,4,0,0,0-5.16-2.33h0a4,4,0,0,0-2.32,5.16h0A4,4,0,0,0,855,979.35Zm-7.33-18.67h0a4,4,0,0,0,1.51-.29h0a4,4,0,0,0,2.2-5.22h0a4,4,0,0,0-5.22-2.19h0a4,4,0,0,0,1.51,7.7Zm-7.79-18.48h0a4,4,0,0,0,1.6-.33h0a4,4,0,0,0,2.06-5.27h0a4,4,0,0,0-5.26-2.06h0a4,4,0,0,0,1.6,7.66Zm-8.26-18.28h0a4,4,0,0,0,1.69-.37h0a4,4,0,0,0,1.93-5.32h0a4,4,0,0,0-5.31-1.93h0a4,4,0,0,0-1.93,5.32h0A4,4,0,0,0,831.58,923.92Zm-8.72-18.06h0a3.91,3.91,0,0,0,1.78-.42h0a4,4,0,0,0,1.8-5.36h0a4,4,0,0,0-5.37-1.8h0a4,4,0,0,0,1.79,7.58ZM813.67,888h0a4,4,0,0,0,1.88-.47h0a4,4,0,0,0,1.65-5.41h0a4,4,0,0,0-5.41-1.65h0a4,4,0,0,0,1.88,7.53ZM804,870.46h0a4,4,0,0,0,2-.52h0a4,4,0,0,0,1.51-5.45h0A4,4,0,0,0,802,863h0a4,4,0,0,0,2,7.48Zm-10.13-17.31h0a4.09,4.09,0,0,0,2.07-.57h0a4,4,0,0,0,1.35-5.5h0a4,4,0,0,0-5.49-1.35h0a4,4,0,0,0,2.07,7.42Zm-10.6-17h0a4,4,0,0,0,2.16-.64h0a4,4,0,0,0,1.2-5.53h0a4,4,0,0,0-5.53-1.2h0a4,4,0,0,0,2.17,7.37Zm-11.09-16.72h0a4,4,0,0,0,2.26-.7h0a4,4,0,0,0,1-5.56h0a4,4,0,0,0-5.56-1h0a4,4,0,0,0-1,5.56h0A4,4,0,0,0,772.19,819.41ZM760.63,803h0a4,4,0,0,0,2.35-.76h0a4,4,0,0,0,.88-5.59h0a4,4,0,0,0-5.59-.88h0a4,4,0,0,0,2.36,7.23Zm-12-16h0a4,4,0,0,0,2.45-.84h0a4,4,0,0,0,.71-5.61h0a4,4,0,0,0-5.62-.71h0a4,4,0,0,0,2.46,7.16ZM736,771.34h0a4,4,0,0,0,2.54-.92h0a4,4,0,0,0,.53-5.63h0a4,4,0,0,0-5.63-.53h0a4,4,0,0,0,2.56,7.08ZM723,756.1h0a4,4,0,0,0,2.65-1h0a4,4,0,0,0,.35-5.65h0a4,4,0,0,0-5.65-.34h0a4,4,0,0,0-.34,5.64h0A4,4,0,0,0,723,756.1Zm-13.54-14.79h0a4,4,0,0,0,2.75-1.1h0a4,4,0,0,0,.15-5.65h0a4,4,0,0,0-5.65-.15h0a4,4,0,0,0-.15,5.65h0A4,4,0,0,0,709.45,741.31ZM695.39,727h0a4,4,0,0,0,2.86-1.19h0a4,4,0,0,0,0-5.66h0a4,4,0,0,0-5.65.05h0a4,4,0,0,0,.05,5.66h0A4,4,0,0,0,695.39,727Zm-14.57-13.78h0a4,4,0,0,0,3-1.3h0a4,4,0,0,0-.26-5.65h0a4,4,0,0,0-5.66.26h0a4,4,0,0,0,3,6.69ZM665.72,700h0a4,4,0,0,0,3.07-1.43h0a4,4,0,0,0-.49-5.63h0a4,4,0,0,0-5.64.49h0a4,4,0,0,0,3.06,6.57ZM650.1,687.44h0a4,4,0,0,0,3.17-1.55h0a4,4,0,0,0-.72-5.61h0a4,4,0,0,0-5.61.72h0a4,4,0,0,0,3.16,6.44Zm-16.16-11.87h0a4,4,0,0,0,3.28-1.71h0a4,4,0,0,0-1-5.57h0a4,4,0,0,0-5.57,1h0a4,4,0,0,0,3.27,6.3Zm-16.69-11.12h0a4,4,0,0,0,3.39-1.86h0a4,4,0,0,0-1.25-5.52h0a4,4,0,0,0-5.52,1.25h0a4,4,0,0,0,1.25,5.51h0A4,4,0,0,0,617.25,664.45ZM600,654.18h0a4,4,0,0,0,3.49-2h0a4,4,0,0,0-1.53-5.45h0a4,4,0,0,0-5.45,1.54h0a4,4,0,0,0,3.49,5.95Zm-17.75-9.32h0a4,4,0,0,0,3.59-2.24h0a4,4,0,0,0-1.83-5.36h0a4,4,0,0,0-5.35,1.84h0a4,4,0,0,0,3.59,5.76ZM564,636.58h0a4,4,0,0,0,3.69-2.46h0a4,4,0,0,0-2.15-5.23h0a4,4,0,0,0-5.23,2.14h0a4,4,0,0,0,3.69,5.55Zm-15.91-8.3a4,4,0,0,0-5.66-5.65,4.28,4.28,0,0,0-.5.61,4.51,4.51,0,0,0-.37.69,4.83,4.83,0,0,0-.22.74,4.23,4.23,0,0,0-.08.79,4,4,0,0,0,6.83,2.82Zm299.37,854.4a4,4,0,0,0,1.17-2.83,4.11,4.11,0,0,0-.07-.78,4.66,4.66,0,0,0-.23-.75,4.58,4.58,0,0,0-.37-.69,4.16,4.16,0,0,0-.5-.61,4,4,0,0,0-4.36-.86,4.52,4.52,0,0,0-.69.36,4.19,4.19,0,0,0-.6.5,3.61,3.61,0,0,0-.5.61,4,4,0,0,0-.6,1.44,3.84,3.84,0,0,0,0,1.56,4,4,0,0,0,.6,1.44,3.61,3.61,0,0,0,.5.61,4.19,4.19,0,0,0,.6.5,4.52,4.52,0,0,0,.69.36,4.3,4.3,0,0,0,.75.23,4.13,4.13,0,0,0,.78.08A4,4,0,0,0,847.48,1482.68Zm-20.91-10.1a4.66,4.66,0,0,0,.75-.23,4.14,4.14,0,0,0,.69-.37,3.69,3.69,0,0,0,.61-.5,4.28,4.28,0,0,0,.5-.61,4.14,4.14,0,0,0,.37-.69,3.81,3.81,0,0,0,.22-.75,3.39,3.39,0,0,0,.08-.78,3.44,3.44,0,0,0-.08-.78,4.25,4.25,0,0,0-.22-.75,4.58,4.58,0,0,0-.37-.69,4.19,4.19,0,0,0-.5-.6,3.25,3.25,0,0,0-.61-.5,3.52,3.52,0,0,0-.69-.37,3.83,3.83,0,0,0-.75-.23,4,4,0,0,0-2.31.23,3.83,3.83,0,0,0-.69.37,3.61,3.61,0,0,0-.61.5,3.56,3.56,0,0,0-.49.6,3.83,3.83,0,0,0-.37.69,4.3,4.3,0,0,0-.23.75,4.13,4.13,0,0,0-.08.78,4,4,0,0,0,.08.78,3.83,3.83,0,0,0,.23.75,3.52,3.52,0,0,0,.37.69,3.64,3.64,0,0,0,.49.61,4.16,4.16,0,0,0,.61.5,4.58,4.58,0,0,0,.69.37,5,5,0,0,0,.75.23,4.38,4.38,0,0,0,1.56,0Zm2.64,15.93h0a4.17,4.17,0,0,0,.85-.09h0a4,4,0,0,0,3.06-4.76h0a4,4,0,0,0-4.75-3.06h0a4,4,0,0,0,.84,7.91Zm4.21,15.77a4,4,0,0,0,.74-.23,3.52,3.52,0,0,0,.69-.37,3.25,3.25,0,0,0,.61-.5,4,4,0,0,0,0-5.65,3.69,3.69,0,0,0-.61-.5,4.14,4.14,0,0,0-.69-.37,4.87,4.87,0,0,0-.74-.23,4,4,0,1,0-.79,7.93A4.15,4.15,0,0,0,833.42,1504.28Z" style="fill: #282323"/>
  <path d="M419.39,1133.1h-5.92l2.51-9.34h5.92l.9-3.31c1.16-4.93,3.05-8.17,5.47-10.59,3.14-3.14,7.45-4.67,12.66-4.67a24.44,24.44,0,0,1,9.32,1.62l-2.42,9.06a17.5,17.5,0,0,0-6.64-1.43c-3.95,0-6.55,2.06-7.8,6.64l-.72,2.68h13.1l-2.51,9.34H430.33l-10.22,38H409.25ZM445,1150.6a27.82,27.82,0,0,1,8.34-19.57,27.08,27.08,0,0,1,19.29-8.25c13.55,0,22.25,9.15,22.25,21.71a27.63,27.63,0,0,1-8.34,19.47,27.05,27.05,0,0,1-19.29,8.25c-13.55,0-22.25-9.14-22.25-21.61m33.37,7.62a19.61,19.61,0,0,0,5.74-13.46c0-8.07-4.93-12.56-12.11-12.56a15.33,15.33,0,0,0-10.5,4.58,19.65,19.65,0,0,0-5.74,13.45c0,8.08,4.94,12.57,12.11,12.57a14.74,14.74,0,0,0,10.5-4.58M512,1123.76h10.86l-2.79,10.69c5.21-7.54,11.4-12.12,19.84-11.58l-3.06,11.49h-.63c-9.51,0-17.67,6.1-21.26,19.19l-4.76,17.59H499.38Zm65.08,27.47c0,7.08,4.13,12.11,12.12,12.11,4.57,0,8.25-1.53,12.37-4.5l5.12,6.83a27.77,27.77,0,0,1-18.57,6.54c-13.1,0-21.36-8.07-21.36-20.72a29.71,29.71,0,0,1,8.71-20.63,26.92,26.92,0,0,1,19.2-8.08c12.2,0,18.93,8.08,18.93,18.39a26.7,26.7,0,0,1-2.06,10.06Zm1.17-7.19h24.58a10.86,10.86,0,0,0,.45-3.31c0-4.94-2.87-9.07-9.42-9.07a15.37,15.37,0,0,0-10.95,4.67,19.72,19.72,0,0,0-4.66,7.71m44-20.28h11.21l3.42,34.64,21.79-34.64h11.85L638.6,1171.5h-9.78Zm57,27.47c0,7.08,4.13,12.11,12.12,12.11,4.57,0,8.25-1.53,12.37-4.5l5.12,6.83a27.77,27.77,0,0,1-18.57,6.54c-13.1,0-21.36-8.07-21.36-20.72a29.71,29.71,0,0,1,8.71-20.63,26.92,26.92,0,0,1,19.2-8.08c12.2,0,18.93,8.08,18.93,18.39a26.7,26.7,0,0,1-2.06,10.06Zm1.17-7.19H705a10.86,10.86,0,0,0,.45-3.31c0-4.94-2.87-9.07-9.42-9.07a15.33,15.33,0,0,0-10.94,4.67,19.62,19.62,0,0,0-4.67,7.71M732,1123.76h10.86L740,1134.45c5.21-7.54,11.4-12.12,19.84-11.58l-3.06,11.49h-.63c-9.51,0-17.67,6.1-21.26,19.19l-4.76,17.59H719.32Zm32,0h11.12l4,35.08,20.81-35.08h11.94l-30.6,48.72c-6.37,9.7-11.75,13.29-19.46,13.29a17.67,17.67,0,0,1-10.77-3.23l5.74-8a10.65,10.65,0,0,0,6.1,2.15c2.87,0,5-1.26,8.07-5.29Zm57.89,39-2.25,8.43H808.81l17.59-65.49h10.86l-6.64,24.4c4.3-4.31,9-7.27,15.15-7.27,10.59,0,18.49,7.72,18.49,20.28a29.88,29.88,0,0,1-8.62,21.35,25.33,25.33,0,0,1-17.67,7.72c-8.34,0-13.19-4.13-16.06-9.42m25.3-4.49a20,20,0,0,0,5.75-14.45c0-7.17-4.49-11.66-11.22-11.66a15.9,15.9,0,0,0-11.22,4.93,19.64,19.64,0,0,0-5.83,13.82,11.51,11.51,0,0,0,11.94,11.94,14.9,14.9,0,0,0,10.58-4.58m25.16-7.62a27.87,27.87,0,0,1,8.35-19.57,27.05,27.05,0,0,1,19.28-8.25c13.56,0,22.26,9.15,22.26,21.71a27.64,27.64,0,0,1-8.35,19.47,27,27,0,0,1-19.29,8.25c-13.55,0-22.25-9.14-22.25-21.61m33.38,7.62a19.61,19.61,0,0,0,5.74-13.46c0-8.07-4.93-12.56-12.11-12.56a15.29,15.29,0,0,0-10.5,4.58,19.6,19.6,0,0,0-5.74,13.45c0,8.08,4.93,12.57,12.11,12.57a14.74,14.74,0,0,0,10.5-4.58m58.34,6.64c-4.21,4.31-9,7.27-15.15,7.27-10.5,0-18.49-7.72-18.49-20.28a29.88,29.88,0,0,1,8.62-21.35,25.33,25.33,0,0,1,17.76-7.72c8.35,0,13.1,4.13,16,9.42l7.18-26.55h10.85l-17.58,65.49H962.39Zm.1-7a19.71,19.71,0,0,0,5.92-13.82,11.49,11.49,0,0,0-11.93-11.93,15.11,15.11,0,0,0-10.68,4.58,20.31,20.31,0,0,0-5.75,14.44c0,7.18,4.49,11.67,11.31,11.67a15.71,15.71,0,0,0,11.13-4.94m30.35-34.1h11.12l4,35.08,20.81-35.08h11.93l-30.59,48.72c-6.37,9.7-11.75,13.29-19.47,13.29a17.67,17.67,0,0,1-10.77-3.23l5.74-8a10.7,10.7,0,0,0,6.11,2.15c2.87,0,5-1.26,8.07-5.29Zm-911.9-46.13H93.76l6.82-25.57h31.68l2.69-10H103.28l4.57-17.13h35.71l2.69-10.05H99.51Zm58.71,0h10.86L165,1030.26H154.09ZM155.62,1023h11.66l2.87-10.33H158.4Zm16.07,46.11c0,5.56,4.21,9.34,11.84,9.34a21.58,21.58,0,0,0,8.88-1.71l2.52-9.42a18.35,18.35,0,0,1-6.91,1.52c-3.05,0-4.76-1.25-4.76-3.68a16,16,0,0,1,.36-2.69l6.1-22.88h12.65l2.51-9.33H192.23l3.5-13H184.88l-3.5,13h-6l-2.52,9.33h6l-6.37,24.05a19.18,19.18,0,0,0-.81,5.47m31.42,8.52H214l7.18-26.65c1.88-7,6.9-11.84,13-11.84,5.12,0,8.17,2.7,8.17,7.45a23.09,23.09,0,0,1-.63,4.76l-7.09,26.28h10.86l6.91-25.84a36.06,36.06,0,0,0,1.44-8.34c0-8.7-5.75-14.18-14.45-14.18-6.1,0-10.68,3.33-14.36,7l1.62-6H215.76Zm105.81-30c0-10.32-6.73-18.4-18.93-18.4a27,27,0,0,0-19.2,8.08,29.7,29.7,0,0,0-8.7,20.63c0,12.66,8.25,20.73,21.35,20.73a27.74,27.74,0,0,0,18.57-6.55l-5.11-6.82c-4.13,3-7.81,4.49-12.38,4.49-8,0-12.11-5-12.11-12.11h34.45a26.49,26.49,0,0,0,2.06-10m-10.76,2.87H273.57a19.9,19.9,0,0,1,4.67-7.72,15.34,15.34,0,0,1,10.95-4.67c6.55,0,9.42,4.13,9.42,9.07a11,11,0,0,1-.45,3.32m12.31,19.65c5.57,5.74,13.82,8.52,21,8.52,10.86,0,18.93-6.28,18.93-16.06,0-6.91-5.83-10.23-13-13.28-5.38-2.24-7.53-3.76-7.53-6.19,0-3,2.6-5.38,7.26-5.38,4.4,0,8.71,1.79,13,5.2l6-7a28.9,28.9,0,0,0-18.21-6.73c-11.39,0-18.57,6.91-18.57,15.8,0,7.26,5.74,10.31,13.64,13.54,4.75,2,6.9,3.6,6.9,5.93,0,3.5-3.32,5.65-7.53,5.65a21.19,21.19,0,0,1-15.35-6.64l-6.55,6.64m43.9,0c5.57,5.74,13.82,8.52,21,8.52,10.86,0,18.93-6.28,18.93-16.06,0-6.91-5.83-10.23-13-13.28-5.38-2.24-7.54-3.76-7.54-6.19,0-3,2.6-5.38,7.27-5.38,4.4,0,8.7,1.79,13,5.2l6-7a28.92,28.92,0,0,0-18.21-6.73c-11.4,0-18.57,6.91-18.57,15.8,0,7.26,5.74,10.31,13.64,13.54,4.75,2,6.9,3.6,6.9,5.93,0,3.5-3.32,5.65-7.53,5.65a21.19,21.19,0,0,1-15.35-6.64l-6.55,6.64m71.72,0c5.57,5.74,13.82,8.52,21,8.52,10.86,0,18.93-6.28,18.93-16.06,0-6.91-5.83-10.23-13-13.28-5.38-2.24-7.53-3.76-7.53-6.19,0-3,2.6-5.38,7.26-5.38,4.4,0,8.71,1.79,13,5.2l6-7a29,29,0,0,0-18.22-6.73c-11.39,0-18.57,6.91-18.57,15.8,0,7.26,5.74,10.31,13.64,13.54,4.75,2,6.91,3.6,6.91,5.93,0,3.5-3.33,5.65-7.54,5.65a21.15,21.15,0,0,1-15.34-6.64l-6.56,6.64m46.78,7.44h10.85L490.9,1051c1.89-7,6.91-11.84,13-11.84,5.12,0,8.17,2.7,8.17,7.45a23.09,23.09,0,0,1-.63,4.76l-7.09,26.28h10.85l6.92-25.84a36.56,36.56,0,0,0,1.43-8.34c0-8.7-5.74-14.18-14.45-14.18-6.1,0-10.67,3.32-14.35,7l6.55-24.13H490.45Zm84-48a46,46,0,0,0-16.87,3.13l1.79,8.8a34.46,34.46,0,0,1,12.92-2.6c7.45,0,10.5,2.77,10.5,7.17a17.45,17.45,0,0,1-.54,3.95l-.27.81a51,51,0,0,0-14.71-2.33c-6.73,0-12.47,2-16.24,5.74A15.84,15.84,0,0,0,529,1065.7c0,7.81,6.2,12.92,14.27,12.92a20.5,20.5,0,0,0,15.61-7.27l-1.61,6.28h10.49l7.09-26.46a30.57,30.57,0,0,0,1-6.92c0-9.24-6.55-14.61-18.93-14.61m5.29,29.87a15.83,15.83,0,0,1-14.63,11.31c-4.75,0-7.71-2.61-7.71-6.37a7.92,7.92,0,0,1,2.33-5.74c2.07-2,5.21-3.15,9.16-3.15a38.79,38.79,0,0,1,11.48,1.79Zm18.51,18.12h10.85l4.76-17.58c3.59-13.1,11.75-19.2,21.26-19.2h.63l3.05-11.48c-8.43-.54-14.62,4-19.83,11.57l2.78-10.68H593.33Zm37.61,0h10.86l12.74-47.37H631ZM632.56,1023h11.66l2.87-10.33H635.34Zm10.78,54.63H654.2l7.17-26.65c1.89-7,6.91-11.84,13-11.84,5.11,0,8.17,2.7,8.17,7.45a23.09,23.09,0,0,1-.63,4.76l-7.09,26.28h10.86l6.91-25.84a36.56,36.56,0,0,0,1.43-8.34c0-8.7-5.74-14.18-14.44-14.18-6.1,0-10.68,3.33-14.36,7l1.61-6H656Zm103.39-47.37-2.25,8.52c-2.6-4.84-6.64-9.51-15.61-9.51a25.74,25.74,0,0,0-17.94,7.72,27.81,27.81,0,0,0-8.26,19.74c0,11,8.89,17.13,18.22,17.13,6.64,0,11.3-2.6,16.24-7.17l-.81,2.87c-1.17,4.13-2.6,7.26-4.94,9.6-2.69,2.69-6.45,4.22-11.57,4.22a29.76,29.76,0,0,1-17.67-6l-6,7.54c6.1,4.58,15.08,7.27,24.32,7.27,8.43,0,14.26-2.24,18.66-6.64,3.68-3.59,5.74-7.54,8.08-16.15l10.4-39.12Zm-10.14,29.79a16.66,16.66,0,0,1-11.66,4.93c-6.11,0-10.95-3.4-10.95-10.13a16.52,16.52,0,0,1,4.93-11.67,15.87,15.87,0,0,1,11-4.67c7,0,11.48,4.58,11.48,10.6a15.41,15.41,0,0,1-4.84,10.94" style="fill: #fff"/>
  <path d="M632.37,1521.52h17.16c7.61,0,12.61,1.69,15.67,4.75a12.75,12.75,0,0,1,3.51,9.29c0,7.61-4.36,13.59-13.65,16.12l7,15.35H648.17l-6-13.78h-5.59l-3.7,13.78H620.15Zm14,21.84c5.65,0,9.36-2.4,9.36-6.3a4.28,4.28,0,0,0-1.17-3.06c-1-1-2.93-1.56-5.59-1.56h-6.83l-3,10.92Zm33.15-21.84h12.61L679.89,1567H667.28Zm20.8,0H713L703.74,1556h21.71l-3,11H688.08Zm55.51-.32h12.35l7.08,45.83H762l-1.1-8.13H743.33l-5.46,8.13H724.15Zm4,27.88L758.21,1536l-8.51,13.06Zm17.41,10.41,8.13-8.39c4.42,4.09,9,6.17,14,6.17,3,0,5.14-1.29,5.14-3.37,0-1.76-1.24-2.67-7.61-5.14-7.21-2.73-11.83-5.85-11.83-12.55,0-9,8.19-15.47,19.31-15.47,8,0,14.3,2.6,18.65,6.76l-7.8,8.71c-3.44-3-7.41-5-12-5-3.06,0-4.94,1.43-4.94,3.25s1.36,2.47,7.6,4.94c7,2.66,11.83,5.85,11.83,12.67,0,9.37-8.06,15.74-19.37,15.74C789.48,1567.81,782.13,1564.75,777.25,1559.49Zm41.67,0,8.12-8.39c4.43,4.09,9,6.17,14.05,6.17,3,0,5.13-1.29,5.13-3.37,0-1.76-1.23-2.67-7.6-5.14-7.22-2.73-11.83-5.85-11.83-12.55,0-9,8.19-15.47,19.3-15.47,8,0,14.3,2.6,18.66,6.76l-7.8,8.71c-3.45-3-7.41-5-12-5-3,0-4.94,1.43-4.94,3.25s1.37,2.47,7.61,4.94c7,2.66,11.83,5.85,11.83,12.67,0,9.37-8.06,15.74-19.37,15.74C831.14,1567.81,823.79,1564.75,818.92,1559.49Zm70.39-38.29h12.36l7.08,45.83H895.49l-1.11-8.13H876.83l-5.46,8.13H857.66Zm4,27.88L891.72,1536l-8.52,13.06Zm33.09-16.51H912.78l3-11h39.85l-2.93,11H939L929.81,1567H917.13Zm34.58-11h12.61L961.4,1567H948.79Zm-381.48,78H616l-2.93,10.73H589.15l-1.89,6.89H609l-2.66,9.94H584.6l-2,7.22H607L604.1,1645H567.31Zm53.3,26.33c0-14.5,11.83-27.24,29.18-27.24,9.1,0,15.73,3.71,18.85,7.74l-8.45,8.19a15.48,15.48,0,0,0-11.24-4.68,15.17,15.17,0,0,0-15.47,15.47c0,6.37,4.61,9.69,10.2,9.69a14.13,14.13,0,0,0,6.05-1.24l1.82-6.11H655l2.41-9.23h20.86l-6.5,23a34,34,0,0,1-17,4.55C643.88,1645.94,632.83,1639.83,632.83,1625.85Zm50.11,4.09a29.39,29.39,0,0,1,1-7.28l6.24-23.14H703l-6.43,24a16,16,0,0,0-.65,4.29c0,4.1,2.53,6.64,7.08,6.64a8.48,8.48,0,0,0,6.11-2.41c1.69-1.63,2.86-3.9,3.84-7.54l6.76-25h12.74l-7.22,26.91c-1.62,6-3.9,10.4-7.08,13.59-4,4-9.75,5.85-16.77,5.85C689.64,1645.87,682.94,1640,682.94,1629.94Zm71.31-30.74H766.6l7.08,45.83H760.42l-1.1-8.13H741.77l-5.46,8.13H722.59Zm4,27.88L756.65,1614l-8.51,13.06Zm30.94-27.56h14.69c8.84,0,14.36,2.41,17.81,5.85s4.94,7.8,4.94,13.33a25,25,0,0,1-7.48,17.94c-5.46,5.46-13.32,8.39-23.85,8.39H777Zm7.6,34.32c5.27,0,10-1.62,13-4.61a13.64,13.64,0,0,0,3.9-9.49,8.39,8.39,0,0,0-2.27-6.24c-1.69-1.76-4.49-2.8-8.91-2.8H798.9l-6.24,23.14Zm55.71-34.64h12.35L872,1645H858.7l-1.1-8.13H840l-5.46,8.13H820.87Zm4,27.88L854.93,1614l-8.51,13.06Zm19.23-1.23c0-14.5,11.83-27.24,29.19-27.24,9.1,0,15.73,3.71,18.85,7.74l-8.45,8.19a15.48,15.48,0,0,0-11.25-4.68,15.18,15.18,0,0,0-15.47,15.47c0,6.37,4.62,9.69,10.21,9.69a14.13,14.13,0,0,0,6-1.24l1.82-6.11H898l2.41-9.23h20.86l-6.5,23a34,34,0,0,1-17,4.55C886.84,1645.94,875.79,1639.83,875.79,1625.85Zm57.72-26.33h11.77l11.77,25.29,6.82-25.29h12.55L964.2,1645H953.15l-12.29-26.2-7,26.2H921.29Zm66.17-.32H1012l7.09,45.83h-13.26l-1.11-8.13H987.2l-5.46,8.13H968Zm4,27.88-1.62-13.06-8.52,13.06Z" style="fill: #282323"/>
</svg>
