<svg width="128px" height="128px" viewBox="0 0 128 128" version="1.1" xmlns="http://www.w3.org/2000/svg" xmlns:xlink="http://www.w3.org/1999/xlink">
    <path
        d="M63.9033277,-2.13162821e-14 C78.7963624,-2.13162821e-14 91.1273759,11.0340956 93.2327621,25.3525937 C113.968478,34.8202819 126.804784,53.1399497 126.804784,73.5294462 C126.804784,103.562548 98.5869934,128 63.9033277,128 C29.2177905,128 1,103.562548 1,73.5294462 C1,53.1418212 13.8381777,34.8184104 34.5757647,25.3525937 C36.6792795,11.0340956 49.010293,-2.13162821e-14 63.9033277,-2.13162821e-14 Z M93.5022516,31.6986958 C93.2477338,35.4416048 92.2801918,39.0329259 90.7231417,42.3266858 C93.0119305,43.1295397 94.6644248,45.2891982 94.6644248,47.845605 L94.6644248,47.845605 L94.6644248,51.9216328 C94.6644248,55.1592491 92.0294169,57.7923855 88.7918007,57.7923855 L88.7918007,57.7923855 L39.0148547,57.7923855 C35.7772384,57.7923855 33.1422305,55.1592491 33.1422305,51.9216328 L33.1422305,51.9216328 L33.1422305,47.845605 C33.1422305,45.2835838 34.8022107,43.1220539 37.0947424,42.3210714 C35.5320779,39.0254401 34.560793,35.430376 34.3025323,31.6986958 C17.1225803,40.5319609 6.61436341,56.2315925 6.61436341,73.5294462 C6.61436341,100.467162 32.3150477,122.385637 63.9033277,122.385637 C95.4916077,122.385637 121.19042,100.467162 121.19042,73.5294462 C121.19042,56.229721 110.684075,40.5319609 93.5022516,31.6986958 Z M63.9033277,65.8598515 C77.579917,65.8598515 88.7057138,75.6026434 88.7057138,87.5780806 C88.7057138,99.5516463 77.579917,109.294438 63.9033277,109.294438 C50.2267384,109.294438 39.1009416,99.5516463 39.1009416,87.5780806 C39.1009416,75.6026434 50.2267384,65.8598515 63.9033277,65.8598515 Z M63.9033277,71.4742149 C53.3239956,71.4742149 44.715305,78.6980291 44.715305,87.5780806 C44.715305,96.4562606 53.3239956,103.680075 63.9033277,103.680075 C74.4826598,103.680075 83.0913504,96.4562606 83.0913504,87.5780806 C83.0913504,78.6980291 74.4826598,71.4742149 63.9033277,71.4742149 Z M71.6814668,77.8459559 C76.0587988,77.8459559 79.4873034,82.1184865 79.4873034,87.5756477 C79.4873034,93.0346804 76.0587988,97.3090824 71.6814668,97.3090824 C67.395836,97.3090824 64.0403181,93.2012398 63.903702,87.9031522 C63.7670858,93.2012398 60.4115679,97.3090824 56.1240657,97.3090824 C51.7467337,97.3090824 48.3182291,93.0346804 48.3182291,87.5756477 C48.3182291,82.1184865 51.7467337,77.8459559 56.1240657,77.8459559 C60.4115679,77.8459559 63.7670858,81.9537985 63.903702,87.2500146 C64.0403181,81.9537985 67.395836,77.8459559 71.6814668,77.8459559 Z M71.6814668,83.4603193 C70.7869115,83.4603193 69.491865,85.0622843 69.491865,87.5756477 C69.491865,90.092754 70.7869115,91.694719 71.6814668,91.694719 C72.576022,91.694719 73.8729399,90.092754 73.8729399,87.5756477 C73.8729399,85.0622843 72.576022,83.4603193 71.6814668,83.4603193 Z M56.1240657,83.4603193 C55.2295105,83.4603193 53.9325925,85.0622843 53.9325925,87.5756477 C53.9325925,90.092754 55.2295105,91.694719 56.1240657,91.694719 C57.0167495,91.694719 58.3136675,90.092754 58.3136675,87.5756477 C58.3136675,85.0622843 57.0167495,83.4603193 56.1240657,83.4603193 Z M40.2986724,47.5873443 L39.0148547,47.5873443 C38.8726241,47.5873443 38.756594,47.7052459 38.756594,47.845605 L38.756594,47.845605 L38.756594,51.9216328 C38.756594,52.0619919 38.8726241,52.1780221 39.0148547,52.1780221 L39.0148547,52.1780221 L44.6048892,52.1780221 C43.0085385,50.8006316 41.5656471,49.2604246 40.2986724,47.5873443 L40.2986724,47.5873443 Z M63.9033277,5.61436341 C50.632844,5.61436341 39.8382946,16.4070413 39.8382946,29.677525 C39.8382946,39.5962337 46.0608808,48.6334873 55.3227089,52.1686648 L55.3227089,52.1686648 L55.318966,52.1780221 L72.4240599,52.1780221 C81.7364173,48.6522019 87.9683607,39.6710919 87.9683607,29.677525 C87.9683607,16.4070413 77.1738113,5.61436341 63.9033277,5.61436341 Z M88.7918007,47.5873443 L87.5304404,47.5873443 C86.2634657,49.2604246 84.8261887,50.8006316 83.2279665,52.1780221 L83.2279665,52.1780221 L88.7918007,52.1780221 C88.9340312,52.1780221 89.0500614,52.0619919 89.0500614,51.9216328 L89.0500614,51.9216328 L89.0500614,47.845605 C89.0500614,47.7052459 88.9340312,47.5873443 88.7918007,47.5873443 L88.7918007,47.5873443 Z M66.3285455,15.3210363 C69.0375309,15.3210363 71.7117034,15.859808 74.0452551,16.9373513 L74.4787298,17.1457044 L74.4787298,22.9453418 C72.6128896,21.5267793 69.9778817,20.7164396 67.3840459,20.7164396 C64.0394732,20.7164396 60.8110441,22.0503312 59.1389819,24.8307386 L58.9868296,25.095643 L69.2068425,25.095643 L69.2068425,28.7056787 L57.7703842,28.7056787 C57.7310837,29.0294403 57.7310837,29.3550734 57.7310837,29.678835 C57.7310837,29.8946761 57.7310837,30.1105172 57.7427283,30.3269128 L57.7703842,30.6519913 L69.2068425,30.6519913 L69.2068425,34.262027 L58.9475291,34.262027 C60.5682087,37.222668 63.9349553,38.6000585 67.3410024,38.6000585 C69.9402086,38.6000585 72.5034573,37.8586512 74.2462372,36.4446247 L74.4787298,36.2476402 L74.4787298,42.2100942 C72.0458389,43.3853676 69.249886,44.0347623 66.4090181,44.0347623 C60.2735367,44.0347623 54.2536627,41.0199384 52.2377085,34.6087356 L52.1335634,34.262027 L48.5235277,34.262027 L48.5235277,30.6519913 L51.5253407,30.6519913 L51.5253407,28.7056787 L48.5235277,28.7056787 L48.5235277,25.095643 L52.1335634,25.095643 C54.079876,18.5249664 60.0816305,15.3210363 66.3285455,15.3210363 Z"
        class="fill-current"></path>
</svg>
