<svg width="128px" height="128px" viewBox="0 0 128 128" version="1.1" xmlns="http://www.w3.org/2000/svg" xmlns:xlink="http://www.w3.org/1999/xlink">
    <path
        d="M63.7596543,5.68434189e-14 C79.8290218,5.68434189e-14 92.9013466,13.0723248 92.9013466,29.1416923 C92.9013466,30.1324988 92.8366648,31.111545 92.7327037,32.0825942 L92.6477648,32.8094404 L114.641391,32.8094404 C121.089662,32.8094404 126.353272,37.9720655 126.513703,44.3805503 L126.517471,44.6818456 L126.517471,102.559132 C126.517471,116.446704 115.331572,127.771478 101.494862,127.996585 L101.074765,128 L26.4427058,128 C12.5533148,128 1.22852202,116.814101 1.00341511,102.979174 L1,102.559132 L1,44.6818456 C1,38.2353839 6.16618794,32.9735825 12.5747824,32.8132067 L12.8760803,32.8094404 L34.8715438,32.8094404 C34.7153521,31.5984955 34.6161245,30.3783629 34.6161245,29.1416923 C34.6161245,13.0723248 47.6902868,5.68434189e-14 63.7596543,5.68434189e-14 Z M121.004824,64.3528094 L121.004824,54.694651 C119.270177,55.7980452 117.239285,56.4749755 115.053088,56.5507963 L114.641391,56.5579259 L73.6511815,56.5579259 L73.575842,56.5873267 L73.5666542,56.5579259 L12.8760803,56.5579259 C10.6727507,56.5579259 8.61103328,55.9459012 6.84106164,54.8964972 L6.51264751,54.694651 L6.51264751,102.559132 C6.51264751,113.433212 15.2688504,122.300887 26.0999879,122.48445 L26.4427058,122.487352 L101.074765,122.487352 C111.950664,122.487352 120.818358,113.732949 121.001921,102.901849 L121.004824,102.559132 L121.004824,96.4547934 C118.978269,97.8933319 116.530037,98.7768556 113.880768,98.8577387 L113.481897,98.8638204 L69.3549915,98.8638204 C62.2691919,98.8638204 56.4885364,93.1826051 56.3248209,86.1372503 L56.3212553,85.8300841 L56.3212553,74.9793563 C56.3212553,67.895368 62.0006851,62.1111675 69.0477488,61.9473503 L69.3549915,61.9437825 L113.481897,61.9437825 C116.150719,61.9437825 118.629535,62.7588043 120.697705,64.1412222 L121.004824,64.3528094 L121.004824,54.694651 Z M113.481897,67.45643 L69.3549915,67.45643 C65.2889636,67.45643 61.9665037,70.6991638 61.8377745,74.7362005 L61.8339028,74.9793563 L61.8339028,85.8300841 C61.8339028,89.896112 65.0766366,93.2185719 69.1119417,93.3473012 L69.3549915,93.3511729 L113.481897,93.3511729 C117.547925,93.3511729 120.872151,90.108439 121.00095,86.0731339 L121.004824,85.8300841 L121.004824,74.9793563 C121.004824,70.8301703 117.629246,67.45643 113.481897,67.45643 Z M70.1438514,75.5333774 C72.8340234,75.5333774 75.0133567,77.7145482 75.0133567,80.4028827 C75.0133567,83.0930546 72.8340234,85.2742255 70.1438514,85.2742255 C67.4536794,85.2742255 65.2743461,83.0930546 65.2743461,80.4028827 C65.2743461,77.7145482 67.4536794,75.5333774 70.1438514,75.5333774 Z M36.1321026,38.3220879 L12.8760803,38.3220879 C9.36819891,38.3220879 6.51264751,41.1739642 6.51264751,44.6818456 C6.51264751,48.1170639 9.24539401,50.920972 12.6482529,51.0412576 L12.8760803,51.0452784 L44.5903414,51.0452784 C40.7112751,47.6274369 37.7803842,43.2283442 36.1321026,38.3220879 Z M63.7596543,5.51264751 C50.7295932,5.51264751 40.128772,16.1153062 40.128772,29.1416923 C40.128772,38.5876138 45.884975,47.2104554 54.5322366,50.8884921 L54.9100175,51.0452784 L72.5982658,51.0452784 C81.4773034,47.4583824 87.3886991,38.7833128 87.3886991,29.1416923 C87.3886991,16.1153062 76.7897155,5.51264751 63.7596543,5.51264751 Z M114.641391,38.3220879 L91.4019065,38.3220879 C89.8213517,43.0602084 87.0481665,47.3182013 83.3739792,50.6759242 L82.9620431,51.0452784 L114.641391,51.0452784 C118.149272,51.0452784 121.004824,48.1934021 121.004824,44.6818456 C121.004824,41.1739642 118.149272,38.3220879 114.641391,38.3220879 Z M66.1385455,15.0454851 C68.8001814,15.0454851 71.4260074,15.5744958 73.7157559,16.6325172 L74.1410721,16.8370955 L74.1410721,22.5316604 C72.3090356,21.1387981 69.7236039,20.3431393 67.1749232,20.3431393 C63.8927263,20.3431393 60.7228409,21.6528647 59.0810732,24.3828992 L58.9316776,24.6430044 L68.9665336,24.6430044 L68.9665336,28.1876367 L57.7372707,28.1876367 C57.6968446,28.5055327 57.6968446,28.8252663 57.6968446,29.1431623 C57.6968446,29.355093 57.6968446,29.5670236 57.7088227,29.7794988 L57.7372707,30.0986879 L68.9665336,30.0986879 L68.9665336,33.6433202 L58.8930891,33.6433202 C60.4844067,36.550323 63.7901576,37.9027592 67.1344971,37.9027592 C69.6866132,37.9027592 72.2034234,37.174784 73.913021,35.7863756 L74.1410721,35.5929599 L74.1410721,41.4473915 C71.7540957,42.6013724 69.0069597,43.239002 66.2175601,43.239002 C60.195041,43.239002 54.2842613,40.2787979 52.3030884,33.9837474 L52.200735,33.6433202 L48.6561027,33.6433202 L48.6561027,30.0986879 L51.6053691,30.0986879 L51.6053691,28.1876367 L48.6561027,28.1876367 L48.6561027,24.6430044 L52.200735,24.6430044 C54.1136237,18.1913693 60.0066439,15.0454851 66.1385455,15.0454851 Z"
        class="fill-current"></path>
</svg>
