<svg xmlns="http://www.w3.org/2000/svg" xmlns:xlink="http://www.w3.org/1999/xlink" viewBox="0 0 1200 1055.06">
  <defs>
    <style>
      .a {
        fill: #282323;
      }

      .b, .d, .m {
        fill: none;
        stroke-miterlimit: 10;
      }

      .b, .d {
        stroke: #fff;
      }

      .b, .m {
        stroke-width: 2px;
      }

      .c {
        fill: #fff;
      }

      .e {
        fill: url(#a);
      }

      .f {
        fill: url(#b);
      }

      .g {
        fill: url(#c);
      }

      .h {
        fill: url(#d);
      }

      .i {
        fill: url(#e);
      }

      .j {
        fill: url(#f);
      }

      .k {
        fill: url(#g);
      }

      .l {
        fill: url(#h);
      }

      .m {
        stroke: #e6e6e6;
      }

      .n {
        fill: #ff2a00;
      }

      .o {
        fill: #e6e6e6;
      }
    </style>
    <linearGradient id="a" data-name="Sfumatura senza nome 8" x1="-1291.79" y1="4906.18" x2="-1290.79" y2="4906.18" gradientTransform="matrix(78.52, -78.52, -78.52, -78.52, 487597.02, 284134.13)" gradientUnits="userSpaceOnUse">
      <stop offset="0" stop-color="#ff2a00"/>
      <stop offset="0.29" stop-color="#ff2e00"/>
      <stop offset="0.59" stop-color="#ff3b00"/>
      <stop offset="0.89" stop-color="#ff4f00"/>
      <stop offset="1" stop-color="#ff5900"/>
    </linearGradient>
    <linearGradient id="b" x1="-1291.79" y1="4906.18" x2="-1290.79" y2="4906.18" gradientTransform="matrix(78.52, -78.52, -78.52, -78.52, 487398.6, 284336.25)" xlink:href="#a"/>
    <linearGradient id="c" x1="-1291.79" y1="4906.18" x2="-1290.79" y2="4906.18" gradientTransform="matrix(78.52, -78.52, -78.52, -78.52, 487597.02, 284532.86)" xlink:href="#a"/>
    <linearGradient id="d" x1="-1291.79" y1="4906.18" x2="-1290.79" y2="4906.18" gradientTransform="matrix(78.52, -78.52, -78.52, -78.52, 487398.6, 284735.9)" xlink:href="#a"/>
    <linearGradient id="e" x1="-1291.79" y1="4906.18" x2="-1290.79" y2="4906.18" gradientTransform="matrix(78.52, -78.52, -78.52, -78.52, 486803.41, 284134.13)" xlink:href="#a"/>
    <linearGradient id="f" x1="-1291.79" y1="4906.18" x2="-1290.79" y2="4906.18" gradientTransform="matrix(78.52, -78.52, -78.52, -78.52, 487001.83, 284336.25)" xlink:href="#a"/>
    <linearGradient id="g" x1="-1291.79" y1="4906.18" x2="-1290.79" y2="4906.18" gradientTransform="matrix(78.52, -78.52, -78.52, -78.52, 486803.41, 284532.86)" xlink:href="#a"/>
    <linearGradient id="h" x1="-1291.79" y1="4906.18" x2="-1290.79" y2="4906.18" gradientTransform="matrix(78.52, -78.52, -78.52, -78.52, 487001.83, 284735.9)" xlink:href="#a"/>
  </defs>
  <title>come_funziona</title>
  <g>
    <rect class="a" width="1200" height="1055.06"/>
    <g>
      <path class="b" d="M400,93.49A54.52,54.52,0,1,1,345.48,39,54.52,54.52,0,0,1,400,93.49Z"/>
      <rect class="c" x="333.16" y="89.99" width="24.65" height="7"/>
      <rect class="d" x="333.16" y="89.99" width="24.65" height="7"/>
      <path class="b" d="M329.66,115.72a3.49,3.49,0,0,1-3.5-3.5V74.76a3.5,3.5,0,1,1,7,0v37.46A3.5,3.5,0,0,1,329.66,115.72Z"/>
      <path class="b" d="M322.66,109.73a3.5,3.5,0,0,1-3.5-3.5V80.75a3.5,3.5,0,0,1,7,0v25.48A3.5,3.5,0,0,1,322.66,109.73Z"/>
      <path class="b" d="M315.66,105.06a3.49,3.49,0,0,1-3.5-3.5V85.42a3.5,3.5,0,0,1,7,0v16.14A3.5,3.5,0,0,1,315.66,105.06Z"/>
      <path class="b" d="M361.31,115.72a3.5,3.5,0,0,1-3.5-3.5V74.76a3.5,3.5,0,1,1,7,0v37.46A3.5,3.5,0,0,1,361.31,115.72Z"/>
      <path class="b" d="M368.31,109.73a3.5,3.5,0,0,1-3.5-3.5V80.75a3.5,3.5,0,0,1,7,0v25.48A3.5,3.5,0,0,1,368.31,109.73Z"/>
      <path class="b" d="M375.31,105.06a3.5,3.5,0,0,1-3.5-3.5V85.42a3.5,3.5,0,0,1,7,0v16.14A3.5,3.5,0,0,1,375.31,105.06Z"/>
    </g>
    <g>
      <circle class="b" cx="855.38" cy="93.49" r="54.52" transform="translate(184.43 632.23) rotate(-45)"/>
      <path class="c" d="M855.05,119.26c-1.21,0-2.44,0-3.67-.12a37.29,37.29,0,0,1-12.47-2.56A10.4,10.4,0,0,1,835,114a4,4,0,0,1-1-2.79q0-17.72,0-35.43a4.08,4.08,0,0,1,1.1-2.86,10.64,10.64,0,0,1,4-2.56,32.26,32.26,0,0,1,8.24-2.11,55.37,55.37,0,0,1,7.56-.52c1.43,0,2.91.06,4.37.16a35.69,35.69,0,0,1,11.64,2.48,18,18,0,0,1,3.07,1.74,4.36,4.36,0,0,1,1.91,2.73,3.74,3.74,0,0,1,.06.75v5.17l.37,0a12.8,12.8,0,0,1,11.91,12A12.5,12.5,0,0,1,885,102a12.64,12.64,0,0,1-8.77,4.39l-.37,0v2.07c0,.93,0,1.87,0,2.8a3.71,3.71,0,0,1-.9,2.52,9.07,9.07,0,0,1-3.28,2.4,28.61,28.61,0,0,1-7.7,2.28,52.41,52.41,0,0,1-8.93.75m-.29-50.18a51.93,51.93,0,0,0-8,.6A28.43,28.43,0,0,0,839,71.87a16.53,16.53,0,0,0-2.56,1.62,2.8,2.8,0,0,0-1.09,2.4c0,4.47,0,8.94,0,13.41v8.46c0,4.43,0,8.85,0,13.28a2.9,2.9,0,0,0,1.16,2.51,14.62,14.62,0,0,0,2.41,1.51,30.31,30.31,0,0,0,9.53,2.46,57.9,57.9,0,0,0,6.54.38,54.08,54.08,0,0,0,7.75-.56,27.94,27.94,0,0,0,8.23-2.28,15.77,15.77,0,0,0,2.62-1.7,2.6,2.6,0,0,0,1-2.22c0-1.25,0-2.5,0-3.74V106c0-.71.18-.9.89-.91a11.82,11.82,0,0,0,5.35-1.36,11.38,11.38,0,0,0,5.75-7.51,11.48,11.48,0,0,0-11-14.07c-.75,0-1-.21-1-1v-1.5c0-1.23,0-2.46,0-3.69a3.17,3.17,0,0,0-1.2-2.62,11.31,11.31,0,0,0-3.12-1.8A36.11,36.11,0,0,0,859,69.23c-1.42-.1-2.84-.15-4.21-.15"/>
      <path class="d" d="M855.05,119.26c-1.21,0-2.44,0-3.67-.12a37.29,37.29,0,0,1-12.47-2.56A10.4,10.4,0,0,1,835,114a4,4,0,0,1-1-2.79q0-17.72,0-35.43a4.08,4.08,0,0,1,1.1-2.86,10.64,10.64,0,0,1,4-2.56,32.26,32.26,0,0,1,8.24-2.11,55.37,55.37,0,0,1,7.56-.52c1.43,0,2.91.06,4.37.16a35.69,35.69,0,0,1,11.64,2.48,18,18,0,0,1,3.07,1.74,4.36,4.36,0,0,1,1.91,2.73,3.74,3.74,0,0,1,.06.75v5.17l.37,0a12.8,12.8,0,0,1,11.91,12A12.5,12.5,0,0,1,885,102a12.64,12.64,0,0,1-8.77,4.39l-.37,0v2.07c0,.93,0,1.87,0,2.8a3.71,3.71,0,0,1-.9,2.52,9.07,9.07,0,0,1-3.28,2.4,28.61,28.61,0,0,1-7.7,2.28A52.41,52.41,0,0,1,855.05,119.26Zm-.29-50.18a51.93,51.93,0,0,0-8,.6A28.43,28.43,0,0,0,839,71.87a16.53,16.53,0,0,0-2.56,1.62,2.8,2.8,0,0,0-1.09,2.4c0,4.47,0,8.94,0,13.41v8.46c0,4.43,0,8.85,0,13.28a2.9,2.9,0,0,0,1.16,2.51,14.62,14.62,0,0,0,2.41,1.51,30.31,30.31,0,0,0,9.53,2.46,57.9,57.9,0,0,0,6.54.38,54.08,54.08,0,0,0,7.75-.56,27.94,27.94,0,0,0,8.23-2.28,15.77,15.77,0,0,0,2.62-1.7,2.6,2.6,0,0,0,1-2.22c0-1.25,0-2.5,0-3.74V106c0-.71.18-.9.89-.91a11.82,11.82,0,0,0,5.35-1.36,11.38,11.38,0,0,0,5.75-7.51,11.48,11.48,0,0,0-11-14.07c-.75,0-1-.21-1-1v-1.5c0-1.23,0-2.46,0-3.69a3.17,3.17,0,0,0-1.2-2.62,11.31,11.31,0,0,0-3.12-1.8A36.11,36.11,0,0,0,859,69.23C857.55,69.13,856.13,69.08,854.76,69.08Z"/>
      <path class="c" d="M854.9,80.32a66.18,66.18,0,0,1-10.24-.71,14,14,0,0,1-4.33-1.21,3.94,3.94,0,0,1-.89-.6,1.4,1.4,0,0,1-.07-2.15,5.2,5.2,0,0,1,1.91-1.25,26.44,26.44,0,0,1,6.07-1.55,50.54,50.54,0,0,1,7.4-.53c.87,0,1.75,0,2.62.06A36.05,36.05,0,0,1,868,74.17a6.52,6.52,0,0,1,2.26,1.24,1.78,1.78,0,0,1,.7,1.4,1.83,1.83,0,0,1-.93,1.31,10.15,10.15,0,0,1-3.54,1.25,44.57,44.57,0,0,1-7.05.81c-1,.06-2.07.08-3.1.1Z"/>
      <path class="d" d="M854.9,80.32a66.18,66.18,0,0,1-10.24-.71,14,14,0,0,1-4.33-1.21,3.94,3.94,0,0,1-.89-.6,1.4,1.4,0,0,1-.07-2.15,5.2,5.2,0,0,1,1.91-1.25,26.44,26.44,0,0,1,6.07-1.55,50.54,50.54,0,0,1,7.4-.53c.87,0,1.75,0,2.62.06A36.05,36.05,0,0,1,868,74.17a6.52,6.52,0,0,1,2.26,1.24,1.78,1.78,0,0,1,.7,1.4,1.83,1.83,0,0,1-.93,1.31,10.15,10.15,0,0,1-3.54,1.25,44.57,44.57,0,0,1-7.05.81c-1,.06-2.07.08-3.1.1Z"/>
      <path class="c" d="M875.26,101.12c-.52,0-.76-.24-.76-.78V87c0-.66.22-.89.83-.89h.11a7.45,7.45,0,0,1,7.35,6.5,7.57,7.57,0,0,1-6.23,8.46,11.2,11.2,0,0,1-1.29.1Zm1-13.55-.38,0V99.73l.46-.06A6.18,6.18,0,0,0,881.48,93c-.28-2.72-2.78-5.39-5.07-5.39Z"/>
      <path class="d" d="M875.26,101.12c-.52,0-.76-.24-.76-.78V87c0-.66.22-.89.83-.89h.11a7.45,7.45,0,0,1,7.35,6.5,7.57,7.57,0,0,1-6.23,8.46,11.2,11.2,0,0,1-1.29.1Zm1-13.55-.38,0V99.73l.46-.06A6.18,6.18,0,0,0,881.48,93c-.28-2.72-2.78-5.39-5.07-5.39Z"/>
    </g>
    <g>
      <path class="e" d="M1051.88,307.32h.5a55,55,0,1,1-55-55,55,55,0,0,1,55,55h-1a54,54,0,1,0-54,54,54.09,54.09,0,0,0,54-54Z"/>
      <rect class="b" x="965.86" y="280.73" width="63" height="53.18" rx="8.11"/>
      <line class="b" x1="965.87" y1="291.02" x2="1028.87" y2="291.02"/>
      <path class="d" d="M975.8,299.21a2.6,2.6,0,1,1-2.6-2.59A2.59,2.59,0,0,1,975.8,299.21Z"/>
      <path class="c" d="M984.07,299.21a2.59,2.59,0,1,1-2.59-2.59,2.59,2.59,0,0,1,2.59,2.59"/>
      <path class="c" d="M992.34,299.21a2.59,2.59,0,1,1-2.59-2.59,2.59,2.59,0,0,1,2.59,2.59"/>
      <path class="c" d="M1000.62,299.21a2.6,2.6,0,1,1-2.59-2.59,2.59,2.59,0,0,1,2.59,2.59"/>
      <path class="c" d="M1008.89,299.21a2.59,2.59,0,1,1-2.59-2.59,2.59,2.59,0,0,1,2.59,2.59"/>
      <path class="c" d="M1017.16,299.21a2.59,2.59,0,1,1-2.59-2.59,2.59,2.59,0,0,1,2.59,2.59"/>
      <path class="c" d="M1025.44,299.21a2.6,2.6,0,1,1-2.59-2.59,2.59,2.59,0,0,1,2.59,2.59"/>
      <path class="c" d="M975.8,307.26a2.6,2.6,0,1,1-2.6-2.59,2.59,2.59,0,0,1,2.6,2.59"/>
      <path class="c" d="M984.07,307.26a2.59,2.59,0,1,1-2.59-2.59,2.59,2.59,0,0,1,2.59,2.59"/>
      <path class="c" d="M992.34,307.26a2.59,2.59,0,1,1-2.59-2.59,2.59,2.59,0,0,1,2.59,2.59"/>
      <path class="c" d="M1000.62,307.26a2.6,2.6,0,1,1-2.59-2.59,2.59,2.59,0,0,1,2.59,2.59"/>
      <path class="c" d="M1008.89,307.26a2.59,2.59,0,1,1-2.59-2.59,2.59,2.59,0,0,1,2.59,2.59"/>
      <path class="c" d="M1017.16,307.26a2.59,2.59,0,1,1-2.59-2.59,2.59,2.59,0,0,1,2.59,2.59"/>
      <path class="c" d="M1025.44,307.26a2.6,2.6,0,1,1-2.59-2.59,2.59,2.59,0,0,1,2.59,2.59"/>
      <path class="c" d="M975.8,315.32a2.6,2.6,0,1,1-2.6-2.59,2.59,2.59,0,0,1,2.6,2.59"/>
      <path class="c" d="M984.07,315.32a2.59,2.59,0,1,1-2.59-2.59,2.59,2.59,0,0,1,2.59,2.59"/>
      <path class="c" d="M992.34,315.32a2.59,2.59,0,1,1-2.59-2.59,2.59,2.59,0,0,1,2.59,2.59"/>
      <path class="c" d="M1000.62,315.32a2.6,2.6,0,1,1-2.59-2.59,2.59,2.59,0,0,1,2.59,2.59"/>
      <path class="c" d="M1008.89,315.32a2.59,2.59,0,1,1-2.59-2.59,2.59,2.59,0,0,1,2.59,2.59"/>
      <path class="c" d="M1017.16,315.32a2.59,2.59,0,1,1-2.59-2.59,2.59,2.59,0,0,1,2.59,2.59"/>
      <path class="c" d="M1025.44,315.32a2.6,2.6,0,1,1-2.59-2.59,2.59,2.59,0,0,1,2.59,2.59"/>
      <path class="c" d="M975.8,323.37a2.6,2.6,0,1,1-2.6-2.59,2.59,2.59,0,0,1,2.6,2.59"/>
      <path class="c" d="M984.07,323.37a2.59,2.59,0,1,1-2.59-2.59,2.59,2.59,0,0,1,2.59,2.59"/>
      <path class="c" d="M992.34,323.37a2.59,2.59,0,1,1-2.59-2.59,2.59,2.59,0,0,1,2.59,2.59"/>
      <path class="c" d="M1000.62,323.37a2.6,2.6,0,1,1-2.59-2.59,2.59,2.59,0,0,1,2.59,2.59"/>
      <path class="c" d="M1008.89,323.37a2.59,2.59,0,1,1-2.59-2.59,2.59,2.59,0,0,1,2.59,2.59"/>
      <path class="d" d="M1017.16,323.37a2.59,2.59,0,1,1-2.59-2.59A2.59,2.59,0,0,1,1017.16,323.37Z"/>
      <path class="d" d="M1025.44,323.37a2.6,2.6,0,1,1-2.59-2.59A2.59,2.59,0,0,1,1025.44,323.37Z"/>
    </g>
    <g>
      <path class="f" d="M853.46,509.44h.5a55,55,0,1,1-55-55,55,55,0,0,1,55,55h-1a54,54,0,1,0-54,54,54.1,54.1,0,0,0,54-54Z"/>
      <path class="b" d="M773.38,484.4h51.11a6.45,6.45,0,0,1,6.45,6.45V528a6.45,6.45,0,0,1-6.45,6.45H773.38a6.44,6.44,0,0,1-6.44-6.44v-37.2A6.45,6.45,0,0,1,773.38,484.4Z"/>
      <rect class="b" x="780.2" y="484.4" width="14.11" height="50.09"/>
      <line class="b" x1="802.17" y1="509.44" x2="823.07" y2="509.44"/>
    </g>
    <path class="g" d="M1051.88,706.05h.5a55,55,0,1,1-55-55,55,55,0,0,1,55,55h-1a54,54,0,1,0-54,54,54.09,54.09,0,0,0,54-54Z"/>
    <path class="c" d="M798.57,808a3,3,0,0,1-2.42-3.49h0a3,3,0,0,1,3.48-2.42h0a3,3,0,0,1,2.42,3.49h0a3,3,0,0,1-2.95,2.46h0A3.27,3.27,0,0,1,798.57,808Zm4.73-20.5a3,3,0,0,1-1.91-3.78h0a3,3,0,0,1,3.79-1.91h0a3,3,0,0,1,1.91,3.79h0a3,3,0,0,1-2.85,2.06h0A2.81,2.81,0,0,1,803.3,787.51ZM811,768a3,3,0,0,1-1.27-4.05h0a3,3,0,0,1,4-1.26h0a3,3,0,0,1,1.27,4h0a3,3,0,0,1-2.66,1.62h0A2.9,2.9,0,0,1,811,768Zm10.92-18a3,3,0,0,1-.5-4.21h0a3,3,0,0,1,4.22-.51h0a3,3,0,0,1,.5,4.22h0a3,3,0,0,1-2.36,1.14h0A3,3,0,0,1,821.92,750ZM836,734.4a3,3,0,0,1,.31-4.23h0a3,3,0,0,1,4.24.32h0a3,3,0,0,1-.32,4.23h0a3,3,0,0,1-2,.73h0A3,3,0,0,1,836,734.4Zm16.85-12.56a3,3,0,0,1,1.12-4.09h0a3,3,0,0,1,4.09,1.12h0A3,3,0,0,1,857,723h0a3,3,0,0,1-1.48.39h0A3,3,0,0,1,852.87,721.84Zm18.93-9.17a3,3,0,0,1,1.85-3.82h0a3,3,0,0,1,3.82,1.85h0a3,3,0,0,1-1.85,3.82h0a3.12,3.12,0,0,1-1,.17h0A3,3,0,0,1,871.8,712.67ZM892.06,707a3,3,0,0,1,2.48-3.45h0A3,3,0,0,1,898,706h0a3,3,0,0,1-2.47,3.44h0a2.7,2.7,0,0,1-.49,0h0A3,3,0,0,1,892.06,707ZM797.18,828.88a2.26,2.26,0,0,0,.56-.17,2.57,2.57,0,0,0,.52-.27,4.14,4.14,0,0,0,.46-.37,3,3,0,0,0,.88-2.12,2.88,2.88,0,0,0-.06-.59,3.62,3.62,0,0,0-.17-.56,3.22,3.22,0,0,0-.65-1A3.07,3.07,0,0,0,796,823a2.81,2.81,0,0,0-.56.18,2.57,2.57,0,0,0-.52.27,3.38,3.38,0,0,0-.46.37,3,3,0,0,0,2.13,5.12A2.86,2.86,0,0,0,797.18,828.88Zm121-122a3,3,0,0,0,.88-2.13,3,3,0,0,0-.88-2.11,2.82,2.82,0,0,0-.46-.38,2.87,2.87,0,0,0-.52-.28,3.62,3.62,0,0,0-.56-.17,2.88,2.88,0,0,0-1.17,0,3.62,3.62,0,0,0-.56.17,3.25,3.25,0,0,0-.52.28,3.32,3.32,0,0,0-.46.38,3,3,0,0,0,4.25,4.24Z"/>
    <path class="c" d="M998.7,692c-2.81,0-6.2-1.29-7.24-4.93l-.08-.29h-1.83v-1.13h1.6v-1.84h-1.6v-1.13h1.82l.09-.28c1.08-3.64,4.43-4.94,7.2-4.94a9.39,9.39,0,0,1,4,.83v2.1a7.14,7.14,0,0,0-3.4-.85,5.31,5.31,0,0,0-4.83,2.55l-.33.59h5.74v1.13h-6.07l0,.35a8.13,8.13,0,0,0,0,1.14l0,.35h6.07v1.13H994l.33.59a5.31,5.31,0,0,0,4.83,2.53,6.68,6.68,0,0,0,3.42-.87v2.14a9.67,9.67,0,0,1-3.92.83"/>
    <path class="c" d="M977.06,738.16a13.46,13.46,0,0,1-13.45-13.45V693.22a6.07,6.07,0,0,1,6.06-6.07H982.1l-.06-.45a15.45,15.45,0,1,1,30.78-1.94,15.15,15.15,0,0,1-.13,1.94l-.06.45h12.42a6.07,6.07,0,0,1,6.07,6.07v31.49a13.46,13.46,0,0,1-13.45,13.45Zm-11.25-13.45A11.27,11.27,0,0,0,977.06,736h40.61a11.27,11.27,0,0,0,11.25-11.25v-4.09l-.63.45a6.64,6.64,0,0,1-3.87,1.23h-24a6.7,6.7,0,0,1-6.69-6.69V709.7a6.7,6.7,0,0,1,6.69-6.69h24a6.65,6.65,0,0,1,3.87,1.24l.63.45v-6.76l-.62.39a6,6,0,0,1-3.25.95H969.67a6,6,0,0,1-3.24-.95l-.62-.39Zm34.6-19.5a4.5,4.5,0,0,0-4.49,4.49v5.91a4.49,4.49,0,0,0,4.49,4.49h24a4.5,4.5,0,0,0,4.5-4.49V709.7a4.5,4.5,0,0,0-4.5-4.49ZM1012,689.63a15.58,15.58,0,0,1-4.48,6.75l-.8.7h18.3a3.87,3.87,0,1,0,0-7.73h-12.93ZM997.36,671.5a13.26,13.26,0,0,0-5,25.55l.07,0h9.78l.07,0a13.26,13.26,0,0,0-5-25.55m-27.69,17.85a3.87,3.87,0,0,0,0,7.73H988l-.79-.7a15.58,15.58,0,0,1-4.49-6.75l-.09-.28Z"/>
    <path class="c" d="M1000.84,714.91a2.25,2.25,0,1,1,2.25-2.25,2.25,2.25,0,0,1-2.25,2.25"/>
    <path class="h" d="M853.46,909.09h.5a55,55,0,1,1-55-55,55,55,0,0,1,55,55h-1a54,54,0,1,0-54,54,54.09,54.09,0,0,0,54-54Z"/>
    <path class="b" d="M796.57,912.47c1.26-3.86,2.51-7.69,3.78-11.56-.66-.15-1.32-.27-2-.44a14,14,0,0,1-6-3,7.59,7.59,0,0,1,.44-11.95,15.27,15.27,0,0,1,6.37-2.62,1.08,1.08,0,0,1,.22,0,9.44,9.44,0,0,0,.83,6.42c-.59.18-1.15.31-1.67.52a8.71,8.71,0,0,0-1.7.85,1.1,1.1,0,0,0-.1,1.92,6.69,6.69,0,0,0,3.23,1.48,27.65,27.65,0,0,0,4.44.56c2.8.09,5.61,0,8.42,0a15.81,15.81,0,0,0,5.82-1,8,8,0,0,0,1.84-1.05,1,1,0,0,0-.08-1.86,24.18,24.18,0,0,0-2.75-1.22,6.12,6.12,0,0,0-.63-.18,9.57,9.57,0,0,0,.8-6.52c.61.14,1.15.24,1.68.39a14.25,14.25,0,0,1,4.73,2.14,7.57,7.57,0,0,1,.27,12.35,15,15,0,0,1-7.39,3,2,2,0,0,0-1.89,1.62c-1.88,5.88-3.86,11.71-5.81,17.57a8.93,8.93,0,0,1-3.83,4.76c-1.06.68-2.21,1.24-3.34,1.82l-26.46,13.8a3.81,3.81,0,0,1-3.95-6.47,6.75,6.75,0,0,1,.82-.48c1.69-.88,3.39-1.77,5.09-2.62a.86.86,0,0,0,.56-.89,51.76,51.76,0,0,1,.81-10.4,19.66,19.66,0,0,1,1.1-3.75,5,5,0,0,1,5-3.39c3.37.06,6.74.09,10.11.12ZM786,926.35l.19.09L798,920.27c0-.06,0-.12,0-.17-1.11,0-2.22,0-3.34,0-2.45,0-4.9-.08-7.34-.13-.26,0-.49,0-.53.33C786.5,922.31,786.24,924.33,786,926.35Z"/>
    <path class="b" d="M801,885.09a7.67,7.67,0,1,1,7.69,7.66A7.65,7.65,0,0,1,801,885.09Z"/>
    <g>
      <path class="i" d="M258.27,307.32h.5a55,55,0,1,1-55-55,55,55,0,0,1,55,55h-1a54,54,0,1,0-54,54,54.1,54.1,0,0,0,54-54Z"/>
      <rect class="b" x="169.25" y="299.91" width="69" height="6.59" rx="1.71"/>
      <path class="b" d="M220.16,276.43H187.34a4.71,4.71,0,0,0-4.71,4.71v18.77h42.24V281.14A4.71,4.71,0,0,0,220.16,276.43Z"/>
      <line class="b" x1="169.25" y1="333.71" x2="238.25" y2="333.71"/>
      <rect class="b" x="177.99" y="306.49" width="51.52" height="27.21"/>
      <path class="b" d="M190.7,313.18h-5.46a2.61,2.61,0,0,0-2.61,2.61v17.92h10.68V315.79A2.61,2.61,0,0,0,190.7,313.18Z"/>
      <path class="b" d="M222.26,313.18H200.07a2.61,2.61,0,0,0-2.61,2.61v17.92h27.41V315.79A2.61,2.61,0,0,0,222.26,313.18Z"/>
      <rect class="c" x="200.43" y="287.22" width="6.65" height="1.89"/>
      <path class="c" d="M199.48,294.17a1,1,0,0,1-.94-.95v-10.1a.95.95,0,1,1,1.89,0v10.1a1,1,0,0,1-1,.95"/>
      <path class="c" d="M197.59,292.55a.94.94,0,0,1-.94-.95v-6.87a.95.95,0,0,1,1.89,0v6.87a.94.94,0,0,1-.95.95"/>
      <path class="c" d="M195.71,291.29a1,1,0,0,1-1-.94V286a.95.95,0,0,1,1.89,0v4.36a.94.94,0,0,1-.94.94"/>
      <path class="c" d="M208,294.17a1,1,0,0,1-.94-.95v-10.1a.94.94,0,1,1,1.88,0v10.1a1,1,0,0,1-.94.95"/>
      <path class="c" d="M209.91,292.55a1,1,0,0,1-.95-.95v-6.87a.95.95,0,0,1,1.89,0v6.87a.94.94,0,0,1-.94.95"/>
      <path class="c" d="M211.8,291.29a.94.94,0,0,1-1-.94V286a.95.95,0,0,1,1.89,0v4.36a.94.94,0,0,1-.94.94"/>
    </g>
    <g>
      <path class="j" d="M456.7,509.44h.5a55,55,0,1,1-55-55,55,55,0,0,1,55,55h-1a54,54,0,1,0-54,54,54.1,54.1,0,0,0,54-54Z"/>
      <rect class="b" x="370.18" y="484.4" width="64" height="50.09" rx="6.45"/>
      <rect class="b" x="383.43" y="484.4" width="14.11" height="50.09"/>
      <line class="b" x1="405.4" y1="509.44" x2="426.31" y2="509.44"/>
      <line class="b" x1="415.86" y1="498.99" x2="415.86" y2="519.9"/>
    </g>
    <g>
      <path class="k" d="M258.27,706.05h.5a55,55,0,1,1-55-55,55,55,0,0,1,55,55h-1a54,54,0,1,0-54,54,54.1,54.1,0,0,0,54-54Z"/>
      <path class="c" d="M203.75,729.86c-7.09,0-12.85-5-12.85-11.21s5.76-11.2,12.85-11.2,12.85,5,12.85,11.2-5.76,11.21-12.85,11.21m0-20.21c-5.87,0-10.65,4-10.65,9s4.78,9,10.65,9,10.65-4,10.65-9-4.78-9-10.65-9"/>
      <path class="c" d="M207.91,723.45c-2.08,0-3.69-2-3.76-4.63h-.8c-.07,2.64-1.68,4.63-3.76,4.63s-3.77-2.11-3.77-4.8,1.66-4.8,3.77-4.8,3.69,2,3.76,4.64h.8c.07-2.65,1.68-4.64,3.76-4.64s3.77,2.11,3.77,4.8-1.66,4.8-3.77,4.8m0-7.4c-.74,0-1.57,1.07-1.57,2.6s.83,2.6,1.57,2.6,1.57-1.07,1.57-2.6-.83-2.6-1.57-2.6m-8.32,0c-.74,0-1.57,1.07-1.57,2.6s.83,2.6,1.57,2.6,1.57-1.07,1.57-2.6-.82-2.6-1.57-2.6"/>
      <path class="c" d="M205.09,695c-2.82,0-6.2-1.3-7.24-4.94l-.09-.29h-1.83v-1.13h1.61v-1.84h-1.61v-1.12h1.83l.08-.29c1.08-3.64,4.43-4.94,7.21-4.94a9.47,9.47,0,0,1,3.95.83v2.11a7,7,0,0,0-3.39-.85,5.35,5.35,0,0,0-4.84,2.54l-.32.6h5.74v1.12h-6.07l0,.36a3.51,3.51,0,0,0,0,.56,3.63,3.63,0,0,0,0,.57l0,.35h6.07v1.13h-5.76l.32.6a5.33,5.33,0,0,0,4.84,2.52A6.67,6.67,0,0,0,209,692v2.15a9.63,9.63,0,0,1-3.91.83"/>
      <path class="c" d="M203.75,739.85c-18.31,0-33.21-12.88-33.21-28.71,0-10.66,6.78-20.39,17.71-25.37l.19-.09,0-.22a15.44,15.44,0,0,1,30.55,0l0,.22.2.09c10.92,5,17.7,14.71,17.7,25.37,0,15.83-14.9,28.71-33.21,28.71m-16-51.41c-9.4,4.83-15,13.32-15,22.7,0,14.62,13.91,26.51,31,26.51s31-11.89,31-26.51c0-9.38-5.61-17.87-15-22.7l-.54-.28,0,.61a15.31,15.31,0,0,1-1.45,5.53l-.19.4.42.15a2.74,2.74,0,0,1,1.84,2.57v2.18a2.74,2.74,0,0,1-2.74,2.74h-26.6a2.74,2.74,0,0,1-2.74-2.74v-2.18a2.74,2.74,0,0,1,1.85-2.57l.42-.15-.19-.4a15.59,15.59,0,0,1-1.46-5.53l0-.61Zm28.31,8.6a15.89,15.89,0,0,1-2.24,2.39l-.82.71h4.05a.54.54,0,0,0,.54-.54v-2.18a.54.54,0,0,0-.54-.54h-.87Zm-17.43,3.09h9.75l.07,0a13.25,13.25,0,1,0-9.77-.14Zm-8.18-3.25a.54.54,0,0,0-.54.54v2.18a.54.54,0,0,0,.54.54h4.07l-.82-.71a15.36,15.36,0,0,1-2.24-2.39l-.12-.16Z"/>
    </g>
    <g>
      <path class="l" d="M456.7,909.09h.5a55,55,0,1,1-55-55,55,55,0,0,1,55,55h-1a54,54,0,1,0-54,54,54.09,54.09,0,0,0,54-54Z"/>
      <path class="c" d="M404.3,907.89c.29-5.9-.34-11.47-4.18-16.27l-.66.29-10.91,4.91c-1.83.82-2.77.57-3.94-1.09a1.41,1.41,0,0,0-.87-.6c-.62-.14-1.22-.32-1.83-.49a3.14,3.14,0,0,1-2.34-3.66c.64-3.59,1.29-7.19,2-10.78a4.87,4.87,0,0,1,4.85-3.82c4.7.1,9.4.23,14.1.27a9,9,0,0,1,6.14,2.38,112.17,112.17,0,0,1,24.75,31.49,36.47,36.47,0,0,1,3.27,8.55,21,21,0,0,1-1.84,14.24,2,2,0,0,1-1,.77,108.75,108.75,0,0,1-16.67,5.67,64.35,64.35,0,0,1-17.37,2,44,44,0,0,1-15-3,1.08,1.08,0,0,0-.81,0c-1.1.53-2.18,1.12-3.27,1.67a1.13,1.13,0,0,1-1.35-.15,1,1,0,0,1-.29-1.21,1.57,1.57,0,0,1,.63-.67c1.33-.72,2.67-1.44,4.05-2.09a1.6,1.6,0,0,1,1.16,0,41.21,41.21,0,0,0,12.05,3,52.35,52.35,0,0,0,10.62-.14c8.69-1,16.91-3.64,24.93-7a1.35,1.35,0,0,0,.62-.63,19.33,19.33,0,0,0,.16-15.63A72.53,72.53,0,0,0,423.71,902a115.49,115.49,0,0,0-18-20.75,15.19,15.19,0,0,0-1.82-1.37,6.17,6.17,0,0,0-3.43-1q-7-.1-14-.25a2.58,2.58,0,0,0-2.69,2.17q-1,5.07-1.88,10.13c-.19,1,0,1.28,1,1.56.72.2,1.43.41,2.15.58a1.55,1.55,0,0,1,1.12.83,3.7,3.7,0,0,0,.21.33c.53.76.53.76,1.37.39,3.75-1.69,7.5-3.39,11.27-5.06a1.38,1.38,0,0,0,.86-.92c.19-.66.42-1.31.59-2,.21-.82.7-1.24,1.39-1.11a1.14,1.14,0,0,1,.85,1.54,24.72,24.72,0,0,1-.78,2.49.69.69,0,0,0,.12.75,20.77,20.77,0,0,1,4.43,11.75c.15,2.16,0,4.34.07,6.51a.87.87,0,0,0,.36.58,22.67,22.67,0,0,1,7.56,8.1,1.2,1.2,0,0,1,.06,1.41,1.18,1.18,0,0,1-2-.15,41,41,0,0,0-3-4.19A15.7,15.7,0,0,0,395.72,909a25.27,25.27,0,0,0-9.61,3.15c-1,.55-1.27.51-2.1-.29a17.5,17.5,0,0,0-8.91-5,29.86,29.86,0,0,0-3.54-.33c-.37,0-.74,0-1.12,0a1.15,1.15,0,0,1-1.28-1.1,1.12,1.12,0,0,1,1.16-1.16,18.63,18.63,0,0,1,6.13.52,19.92,19.92,0,0,1,8.5,4.78.62.62,0,0,0,.85.12,26.65,26.65,0,0,1,9.44-3,18.52,18.52,0,0,1,8.29.89l.77.26"/>
      <path class="c" d="M397.53,931.78a20.65,20.65,0,0,1-11-3.18c-1.14-.69-2.2-1.52-3.29-2.29a4.06,4.06,0,0,1-.55-.46,1.12,1.12,0,0,1-.12-1.6,1.16,1.16,0,0,1,1.61-.11c.31.23.6.49.91.72a21.45,21.45,0,0,0,9,4.32,18.15,18.15,0,0,0,11.12-1.49,32.43,32.43,0,0,0,5.71-3.44,1.16,1.16,0,0,1,1.92.62,1.24,1.24,0,0,1-.64,1.27,31.23,31.23,0,0,1-7.33,4.16,20.3,20.3,0,0,1-7.32,1.48"/>
    </g>
    <line class="m" x1="600.43" y1="177.33" x2="600.43" y2="1030.46"/>
    <path class="c" d="M796.6,434.51a3,3,0,0,1-3-3,3,3,0,0,1,.89-2.12,3,3,0,0,1,2.7-.82,3.62,3.62,0,0,1,.56.17,3.22,3.22,0,0,1,1,.65,3,3,0,0,1,.88,2.12,2.88,2.88,0,0,1-.06.59,3.62,3.62,0,0,1-.17.56,3.25,3.25,0,0,1-.28.52,2.69,2.69,0,0,1-.37.45,3.32,3.32,0,0,1-.46.38,2.57,2.57,0,0,1-.52.27,2.81,2.81,0,0,1-.56.18A3.79,3.79,0,0,1,796.6,434.51Zm2.51-20.89h0a3,3,0,0,0,2.95-2.47h0a3,3,0,0,0-2.42-3.48h0a3,3,0,0,0-3.48,2.41h0a3,3,0,0,0,2.42,3.49A3.29,3.29,0,0,0,799.11,413.62Zm5.13-20.39h0a3,3,0,0,0,2.85-2.06h0a3,3,0,0,0-1.91-3.79h0a3,3,0,0,0-3.79,1.91h0a3,3,0,0,0,1.91,3.79A3.08,3.08,0,0,0,804.24,393.23Zm8.15-19.37h0a3,3,0,0,0,2.66-1.61h0a3,3,0,0,0-1.27-4.05h0a3,3,0,0,0-4,1.27h0a3,3,0,0,0,2.66,4.39Zm11.38-17.66h0a3,3,0,0,0,2.36-1.14h0a3,3,0,0,0-.5-4.22h0a3,3,0,0,0-4.22.51h0a3,3,0,0,0,2.35,4.85ZM838.29,341h0a3,3,0,0,0,2-.72h0a3,3,0,0,0,.32-4.23h0a3,3,0,0,0-4.24-.32h0a3,3,0,0,0,2,5.27Zm17.19-12.09h0a3,3,0,0,0,1.48-.39h0a3,3,0,0,0,1.12-4.09h0a3,3,0,0,0-4.09-1.13h0a3,3,0,0,0,1.49,5.61Zm19.15-8.67h0a3.11,3.11,0,0,0,1-.16h0a3,3,0,0,0,1.85-3.82h0a3,3,0,0,0-3.82-1.85h0a3,3,0,0,0,1,5.83ZM895,315.08h0a2.7,2.7,0,0,0,.49,0h0a3,3,0,0,0,2.47-3.45h0a3,3,0,0,0-3.44-2.47h0a3,3,0,0,0,.48,6Zm23.14-2.6a3,3,0,0,0,0-4.24,2.76,2.76,0,0,0-.46-.37,2.87,2.87,0,0,0-.52-.28,3.62,3.62,0,0,0-.56-.17,2.88,2.88,0,0,0-1.17,0,3.62,3.62,0,0,0-.56.17,3.25,3.25,0,0,0-.52.28,2.69,2.69,0,0,0-.45.37,3,3,0,0,0-.89,2.12,3.93,3.93,0,0,0,.06.59,2.81,2.81,0,0,0,.18.56,2.86,2.86,0,0,0,.27.52,3.23,3.23,0,0,0,.38.45,3,3,0,0,0,4.24,0Z"/>
    <path class="c" d="M988.39,606.05a3,3,0,0,1,2-3.72h0a3,3,0,0,1,3.72,2h0a3,3,0,0,1-2,3.72h0a3.17,3.17,0,0,1-.85.12h0A3,3,0,0,1,988.39,606.05Zm-6.33-17.72a3,3,0,0,1,1.58-3.94h0a3,3,0,0,1,3.94,1.59h0a3,3,0,0,1-1.58,3.93h0a3,3,0,0,1-1.18.25h0A3,3,0,0,1,982.06,588.33Zm-8.46-16.76a3,3,0,0,1,1-4.11h0a3,3,0,0,1,4.11,1.06h0a3,3,0,0,1-1,4.11h0a3,3,0,0,1-1.53.42h0A3,3,0,0,1,973.6,571.57Zm-10.68-15.36a3,3,0,0,1,.43-4.22h0a3,3,0,0,1,4.22.43h0a3,3,0,0,1-.43,4.22h0a3,3,0,0,1-1.9.68h0A3,3,0,0,1,962.92,556.21ZM950,542.76h0a3,3,0,0,1-.27-4.23h0a3,3,0,0,1,4.24-.27h0a3,3,0,0,1,.27,4.23h0a3,3,0,0,1-2.26,1h0A3,3,0,0,1,950,542.76Zm-15-11h0a3,3,0,0,1-1-4.12h0a3,3,0,0,1,4.12-1h0a3,3,0,0,1,1,4.12h0a3,3,0,0,1-2.56,1.44h0A3,3,0,0,1,935,531.73Zm-16.68-8.24a3,3,0,0,1-1.7-3.89h0a3,3,0,0,1,3.88-1.7h0a3,3,0,0,1,1.7,3.89h0a3,3,0,0,1-2.79,1.91h0A3,3,0,0,1,918.33,523.49Zm-17.87-5.39a3,3,0,0,1-2.29-3.57h0a3,3,0,0,1,3.58-2.29h0a3,3,0,0,1,2.29,3.57h0a3,3,0,0,1-2.93,2.36h0A2.94,2.94,0,0,1,900.46,518.1Zm-16.19-3.59a2.76,2.76,0,0,0,.37-.46,3.15,3.15,0,0,0,.28-.51,3.62,3.62,0,0,0,.17-.56,3,3,0,0,0-.82-2.71,2.33,2.33,0,0,0-.46-.37,2.53,2.53,0,0,0-.51-.28,2.78,2.78,0,0,0-.56-.17,2.93,2.93,0,0,0-1.18,0,2.78,2.78,0,0,0-.56.17,2.92,2.92,0,0,0-.52.28,2.6,2.6,0,0,0-.45.37,3,3,0,0,0-.82,2.71,2.78,2.78,0,0,0,.17.56,3.1,3.1,0,0,0,.27.51,2.82,2.82,0,0,0,.38.46,3,3,0,0,0,4.24,0ZM996.12,626.86a3.62,3.62,0,0,0,.56-.17,3.22,3.22,0,0,0,1-.65,3.38,3.38,0,0,0,.37-.46,2.33,2.33,0,0,0,.27-.52,2.81,2.81,0,0,0,.18-.56,3.45,3.45,0,0,0,0-1.17,2.81,2.81,0,0,0-.18-.56,2.86,2.86,0,0,0-.27-.52,3.07,3.07,0,0,0-.83-.83,3.2,3.2,0,0,0-.52-.27,2.78,2.78,0,0,0-.56-.17,2.88,2.88,0,0,0-1.17,0,2.78,2.78,0,0,0-.56.17,3.2,3.2,0,0,0-.52.27,2.82,2.82,0,0,0-.46.38,3.28,3.28,0,0,0-.37.45,3.74,3.74,0,0,0-.28.52,3.62,3.62,0,0,0-.17.56,3.45,3.45,0,0,0,0,1.17,3.62,3.62,0,0,0,.17.56,2.87,2.87,0,0,0,.28.52,3.38,3.38,0,0,0,.37.46,2.76,2.76,0,0,0,.46.37,3.25,3.25,0,0,0,.52.28,3.62,3.62,0,0,0,.56.17,2.88,2.88,0,0,0,1.17,0Z"/>
    <path class="c" d="M405.41,434.51a3,3,0,0,1-2.12-.88,2.74,2.74,0,0,1-.38-.45,3.67,3.67,0,0,1-.27-.52,2.78,2.78,0,0,1-.17-.56,2.88,2.88,0,0,1,0-1.17,2.78,2.78,0,0,1,.17-.56,3.2,3.2,0,0,1,.27-.52,2.82,2.82,0,0,1,.38-.46,3.16,3.16,0,0,1,.45-.37,3.74,3.74,0,0,1,.52-.28,3.62,3.62,0,0,1,.56-.17,2.88,2.88,0,0,1,1.17,0,3.62,3.62,0,0,1,.56.17,2.87,2.87,0,0,1,.52.28,2.76,2.76,0,0,1,.46.37,3,3,0,0,1-2.12,5.12Zm-2.51-20.89h0a3.27,3.27,0,0,0,.53-.05h0a3,3,0,0,0,2.42-3.49h0a3,3,0,0,0-3.49-2.41h0a3,3,0,0,0,.54,5.95Zm-5.14-20.39h0a3.08,3.08,0,0,0,.94-.15h0a3,3,0,0,0,1.91-3.79h0a3,3,0,0,0-3.79-1.91h0a3,3,0,0,0-1.91,3.79h0A3,3,0,0,0,397.76,393.23Zm-8.14-19.37h0a3,3,0,0,0,1.38-.34h0a3,3,0,0,0,1.27-4h0a3,3,0,0,0-4-1.27h0a3,3,0,0,0,1.4,5.66ZM378.23,356.2h0a3,3,0,0,0,1.85-.64h0a3,3,0,0,0,.51-4.21h0a3,3,0,0,0-4.21-.51h0a3,3,0,0,0-.51,4.22h0A3,3,0,0,0,378.23,356.2ZM363.71,341h0a3,3,0,0,0,2.28-1h0a3,3,0,0,0-.32-4.23h0a3,3,0,0,0-4.23.32h0a3,3,0,0,0,.32,4.23A3,3,0,0,0,363.71,341Zm-17.19-12.09h0a3,3,0,0,0,2.62-1.52h0a3,3,0,0,0-1.13-4.09h0a3,3,0,0,0-4.09,1.13h0a3,3,0,0,0,1.12,4.09h0A3,3,0,0,0,346.52,328.92Zm-19.15-8.67h0a3,3,0,0,0,2.83-2h0a3,3,0,0,0-1.84-3.82h0a3,3,0,0,0-3.82,1.85h0a3,3,0,0,0,1.84,3.82A3.11,3.11,0,0,0,327.37,320.25ZM307,315.08h0a3,3,0,0,0,3-2.51h0a3,3,0,0,0-2.47-3.45h0a3,3,0,0,0-3.45,2.47h0a3,3,0,0,0,2.47,3.45h0A2.77,2.77,0,0,0,307,315.08Zm-20.43-1.78a2.78,2.78,0,0,0,.56-.17,3.2,3.2,0,0,0,.52-.27,2.82,2.82,0,0,0,.46-.38,3.16,3.16,0,0,0,.37-.45,3.74,3.74,0,0,0,.28-.52,3.62,3.62,0,0,0,.17-.56,3,3,0,0,0,.06-.59,3,3,0,0,0-.06-.59,4,4,0,0,0-.17-.56,3.15,3.15,0,0,0-.28-.51,2.74,2.74,0,0,0-.83-.83,3.25,3.25,0,0,0-.52-.28,3.62,3.62,0,0,0-.56-.17,3,3,0,0,0-2.7.82,2.82,2.82,0,0,0-.38.46,3.1,3.1,0,0,0-.27.51,2.39,2.39,0,0,0-.17.56,3,3,0,0,0-.06.59,3,3,0,0,0,.06.59,2.26,2.26,0,0,0,.17.56,3.67,3.67,0,0,0,.27.52,3.23,3.23,0,0,0,.38.45,3,3,0,0,0,2.12.88A2.86,2.86,0,0,0,286.55,313.3Z"/>
    <path class="c" d="M316.16,515.39a2.86,2.86,0,0,1-.58-.06,2.78,2.78,0,0,1-.56-.17,2.61,2.61,0,0,1-.52-.28,2.33,2.33,0,0,1-.46-.37,3.16,3.16,0,0,1-.37-.45,3.74,3.74,0,0,1-.28-.52,3.62,3.62,0,0,1-.17-.56,3.51,3.51,0,0,1,0-1.18,3.62,3.62,0,0,1,.17-.56,3.15,3.15,0,0,1,.28-.51,2.74,2.74,0,0,1,.83-.83,3.25,3.25,0,0,1,.52-.28,3.62,3.62,0,0,1,.56-.17,2.88,2.88,0,0,1,1.17,0,3.62,3.62,0,0,1,.56.17,3.25,3.25,0,0,1,.52.28,2.69,2.69,0,0,1,.45.37,2.82,2.82,0,0,1,.38.46,2.49,2.49,0,0,1,.27.51,2.81,2.81,0,0,1,.18.56,3.92,3.92,0,0,1,.05.59,3,3,0,0,1-.88,2.12,2.27,2.27,0,0,1-.45.37,2.61,2.61,0,0,1-.52.28,2.78,2.78,0,0,1-.56.17A2.88,2.88,0,0,1,316.16,515.39Zm-107,91.42h0a3,3,0,0,0,2.8-1.91h0a3,3,0,0,0-1.7-3.89h0a3,3,0,0,0-3.89,1.7h0a3,3,0,0,0,2.79,4.1Zm8.92-19h0a3,3,0,0,0,2.63-1.56h0a3,3,0,0,0-1.18-4.07h0a3,3,0,0,0-4.08,1.19h0a3,3,0,0,0,2.63,4.44ZM229.41,570h0a3,3,0,0,0,2.42-1.23h0a3,3,0,0,0-.65-4.19h0a3,3,0,0,0-4.19.65h0a3,3,0,0,0,2.42,4.78ZM243,554h0a3,3,0,0,0,2.15-.9h0a3,3,0,0,0,0-4.24h0a3,3,0,0,0-4.24,0h0A3,3,0,0,0,243,554Zm15.8-13.84h0a2.94,2.94,0,0,0,1.79-.6h0a3,3,0,0,0,.6-4.2h0a3,3,0,0,0-4.2-.6h0a3,3,0,0,0,1.8,5.4ZM276.54,529h0a3.07,3.07,0,0,0,1.4-.34h0a3,3,0,0,0,1.26-4h0a3,3,0,0,0-4.06-1.26h0a3,3,0,0,0,1.4,5.66Zm19.29-8.28h0a3,3,0,0,0,1-.16h0a3,3,0,0,0,1.87-3.8h0a3,3,0,0,0-3.8-1.88h0a3,3,0,0,0,1,5.84ZM205.27,626a2.76,2.76,0,0,0,.37-.46,2.87,2.87,0,0,0,.28-.52,3.62,3.62,0,0,0,.17-.56,2.86,2.86,0,0,0,.06-.58,3,3,0,0,0-.88-2.12,2.82,2.82,0,0,0-.46-.38,2.33,2.33,0,0,0-.52-.27,2.78,2.78,0,0,0-.56-.17,3,3,0,0,0-3.58,2.94,2.86,2.86,0,0,0,.06.58,2.26,2.26,0,0,0,.17.56,2.8,2.8,0,0,0,.65,1,3.16,3.16,0,0,0,.45.37,3.74,3.74,0,0,0,.52.28,3.62,3.62,0,0,0,.56.17,2.88,2.88,0,0,0,.59.06A3,3,0,0,0,205.27,626Z"/>
    <path class="c" d="M402.18,828.94a3.92,3.92,0,0,1-.59-.05,2.81,2.81,0,0,1-.56-.18,2.86,2.86,0,0,1-.52-.27,3.23,3.23,0,0,1-.45-.38,2.69,2.69,0,0,1-.37-.45,3.25,3.25,0,0,1-.28-.52,2.78,2.78,0,0,1-.17-.56,2.88,2.88,0,0,1,0-1.17,2.78,2.78,0,0,1,.17-.56,3.25,3.25,0,0,1,.28-.52,2.67,2.67,0,0,1,.37-.46,4,4,0,0,1,.45-.37,3.74,3.74,0,0,1,.52-.28,3.62,3.62,0,0,1,.56-.17,3.34,3.34,0,0,1,1.18,0,3.62,3.62,0,0,1,.56.17,3.74,3.74,0,0,1,.52.28,4,4,0,0,1,.45.37,2.67,2.67,0,0,1,.37.46,2.61,2.61,0,0,1,.28.52,2.78,2.78,0,0,1,.17.56,2.88,2.88,0,0,1,0,1.17,2.78,2.78,0,0,1-.17.56,3.25,3.25,0,0,1-.28.52,2.69,2.69,0,0,1-.37.45,2.82,2.82,0,0,1-.46.38,2.49,2.49,0,0,1-.51.27,2.81,2.81,0,0,1-.56.18A4,4,0,0,1,402.18,828.94Zm-2.35-19.29h0a3.51,3.51,0,0,0,.55,0h0a3,3,0,0,0,2.41-3.5h0a3,3,0,0,0-3.5-2.4h0a3,3,0,0,0-2.4,3.49h0A3,3,0,0,0,399.83,809.65Zm-4.77-18.83h0a3.08,3.08,0,0,0,.94-.15h0a3,3,0,0,0,1.91-3.79h0a3,3,0,0,0-3.79-1.91h0a3,3,0,0,0,.94,5.85Zm-7.46-17.93h0a2.94,2.94,0,0,0,1.37-.33h0a3,3,0,0,0,1.3-4h0a3,3,0,0,0-4-1.3h0a3,3,0,0,0-1.3,4h0A3,3,0,0,0,387.6,772.89ZM377.36,756.4h0a3,3,0,0,0,1.79-.6h0a3,3,0,0,0,.62-4.2h0a3,3,0,0,0-4.2-.61h0a3,3,0,0,0,1.79,5.41Zm-12.88-14.54h0a3,3,0,0,0,2.18-.93h0a3,3,0,0,0-.11-4.24h0a3,3,0,0,0-4.24.1h0a3,3,0,0,0,.11,4.24h0A3,3,0,0,0,364.48,741.86ZM349.34,729.7h0a3,3,0,0,0,2.49-1.33h0a3,3,0,0,0-.81-4.16h0a3,3,0,0,0-4.16.8h0a3,3,0,0,0,2.48,4.69Zm-16.91-9.57h0a3,3,0,0,0,2.72-1.73h0a3,3,0,0,0-1.45-4h0a3,3,0,0,0-4,1.45h0a3,3,0,0,0,1.45,4h0A3,3,0,0,0,332.43,720.13Zm-18.17-6.89h0a3,3,0,0,0,2.88-2.14h0a3,3,0,0,0-2-3.74h0a3,3,0,0,0-3.73,2h0a3,3,0,0,0,2,3.73h0A3.12,3.12,0,0,0,314.26,713.24Zm-19-4.19h0a3,3,0,0,0,3-2.56h0a3,3,0,0,0-2.53-3.41h0a3,3,0,0,0-3.41,2.53h0a3,3,0,0,0,2.53,3.41ZM278,706.73a3,3,0,0,0,.83-2.71,4,4,0,0,0-.17-.56,3.74,3.74,0,0,0-.28-.52,3.16,3.16,0,0,0-.37-.45,3.11,3.11,0,0,0-4.25,0,4,4,0,0,0-.37.45,3.74,3.74,0,0,0-.28.52,4,4,0,0,0-.17.56,3,3,0,0,0,2.95,3.59A3,3,0,0,0,278,706.73Z"/>
    <path class="c" d="M291.44,163.33h3.2l2,5.92,5.22-5.92h3.56l-3.76,14h-3.12l2.44-9.14-5.48,6h-.08l-2.24-5.92-2.44,9.08h-3.08Zm17.5,0H312l-3.76,14h-3.08Zm17.22-.1h3l2.22,14.1h-3.16l-.44-3.14h-5.92l-2.12,3.14h-3.32Zm1.22,8.22-.64-4.62-3.08,4.62Zm9.44-8.12h3.08l-3,11.2h7l-.76,2.8H333.06Zm12.52,0h3.08l-3,11.2h7l-.76,2.8H345.58Zm12.52,0h10.46l-.74,2.74h-7.4l-.76,2.86h6.5l-.74,2.7h-6.5l-.8,3h7.52l-.74,2.74H358.1Zm13.3,0H378l4.08,8.9,2.4-8.9h3l-3.76,14h-2.62l-4.24-9.18-2.46,9.18h-3ZM392,177.1a5.83,5.83,0,0,1-3.32-3.28,6.55,6.55,0,0,1-.46-2.45,8.13,8.13,0,0,1,.61-3.05,8.58,8.58,0,0,1,1.72-2.65,8.8,8.8,0,0,1,2.66-1.87,8.22,8.22,0,0,1,3.43-.71,7.07,7.07,0,0,1,2.62.47,6,6,0,0,1,2,1.31,5.83,5.83,0,0,1,1.3,2,6.4,6.4,0,0,1,.46,2.45,7.91,7.91,0,0,1-.61,3.05,8.18,8.18,0,0,1-1.72,2.65,8.35,8.35,0,0,1-2.66,1.87,8,8,0,0,1-3.43.71A6.9,6.9,0,0,1,392,177.1Zm5-2.85a5.29,5.29,0,0,0,1.54-1.23,5.58,5.58,0,0,0,1-1.69,5.08,5.08,0,0,0,.35-1.84,4.13,4.13,0,0,0-.23-1.43,3.16,3.16,0,0,0-.68-1.13,3.09,3.09,0,0,0-1.13-.74,4.3,4.3,0,0,0-1.53-.26,4.2,4.2,0,0,0-2,.48,5,5,0,0,0-1.54,1.23,6,6,0,0,0-1,1.69,5.34,5.34,0,0,0-.35,1.84,4.33,4.33,0,0,0,.23,1.43,3.24,3.24,0,0,0,.69,1.13,2.93,2.93,0,0,0,1.12.74,4.11,4.11,0,0,0,1.54.26A4.2,4.2,0,0,0,397,174.25Z"/>
    <path class="n" d="M166,388.71l2.32-2a6.35,6.35,0,0,0,1.78,1.37,4.65,4.65,0,0,0,2.14.47,2.69,2.69,0,0,0,1.54-.4,1.21,1.21,0,0,0,.6-1.06.93.93,0,0,0-.11-.47,1.31,1.31,0,0,0-.38-.42,4.8,4.8,0,0,0-.73-.44c-.3-.15-.69-.32-1.16-.51a14,14,0,0,1-1.3-.61,5.19,5.19,0,0,1-1.1-.78,3.49,3.49,0,0,1-.76-1,3.17,3.17,0,0,1-.28-1.36,4.07,4.07,0,0,1,.45-1.93,4.69,4.69,0,0,1,1.21-1.45,5.72,5.72,0,0,1,1.77-.92,7.18,7.18,0,0,1,2.13-.32,7.6,7.6,0,0,1,3.08.56,6.69,6.69,0,0,1,2.16,1.52l-2.12,2.12a6.85,6.85,0,0,0-1.57-1.12,4,4,0,0,0-1.79-.38,2.29,2.29,0,0,0-1.51.45,1.3,1.3,0,0,0-.53,1,1,1,0,0,0,.12.49,1.4,1.4,0,0,0,.4.41,4.18,4.18,0,0,0,.75.42c.32.15.71.32,1.19.52a13.77,13.77,0,0,1,1.33.64,5.1,5.1,0,0,1,1.06.78,3.41,3.41,0,0,1,.71,1,3.17,3.17,0,0,1,.26,1.34,4.09,4.09,0,0,1-.46,2,4.45,4.45,0,0,1-1.22,1.47,5.12,5.12,0,0,1-1.77.91,7,7,0,0,1-2.11.31Q168,391.29,166,388.71Zm17.92,2.19a6,6,0,0,1-2.09-1.22,5.45,5.45,0,0,1-1.36-1.92,6.38,6.38,0,0,1-.49-2.53,7.9,7.9,0,0,1,.67-3.19,9,9,0,0,1,1.81-2.67,8.75,8.75,0,0,1,2.69-1.84,8.3,8.3,0,0,1,3.33-.68,6.64,6.64,0,0,1,3.39.8,6.24,6.24,0,0,1,2.21,2.18l-2.54,1.78a5.47,5.47,0,0,0-1.4-1.4,3.67,3.67,0,0,0-2-.52,4.32,4.32,0,0,0-1.85.43,5.61,5.61,0,0,0-1.58,1.16,5.76,5.76,0,0,0-1.1,1.72,5.55,5.55,0,0,0-.41,2.11,3.77,3.77,0,0,0,.25,1.38,3.18,3.18,0,0,0,.71,1.07,3.22,3.22,0,0,0,1.08.69,4.24,4.24,0,0,0,3.14-.13,7.55,7.55,0,0,0,1.52-1l2,2.08a9.06,9.06,0,0,1-2.28,1.54,7,7,0,0,1-3,.6A7.7,7.7,0,0,1,183.92,390.9Zm13.24-13.81h10.46l-.74,2.74h-7.4l-.76,2.86h6.5l-.74,2.7H198l-.8,3h7.52l-.74,2.74H193.4ZM212,391a6.23,6.23,0,0,1-2.1-1.11,5.56,5.56,0,0,1-1.5-1.9,5.89,5.89,0,0,1-.58-2.71,7.81,7.81,0,0,1,.66-3.15,8.68,8.68,0,0,1,8.06-5.25,9.4,9.4,0,0,1,2,.2,7.9,7.9,0,0,1,1.6.53,5.72,5.72,0,0,1,1.23.77,5.46,5.46,0,0,1,.89.92l-2.28,2a5.75,5.75,0,0,0-1.49-1.15,4.61,4.61,0,0,0-2.19-.47,4.94,4.94,0,0,0-2.09.45,5.6,5.6,0,0,0-1.68,1.2,5.84,5.84,0,0,0-1.12,1.74,5.48,5.48,0,0,0-.41,2.09,3.64,3.64,0,0,0,.28,1.45,3,3,0,0,0,.77,1,3.36,3.36,0,0,0,1.14.64,4.26,4.26,0,0,0,1.39.22,5.47,5.47,0,0,0,1.43-.16A5.12,5.12,0,0,0,217,388l.66-2.28h-3.1l.72-2.66h6.08l-2,7a10.74,10.74,0,0,1-2.27.95,9.62,9.62,0,0,1-2.81.37A8.13,8.13,0,0,1,212,391Zm14.1-13.88h3.08l-3,11.2h7l-.76,2.8H222.3Zm12.66,0h3.08l-3.76,14H235ZM137,397.09H140l-3,11.2h7l-.76,2.8H133.2Zm17.16-.1h3l2.22,14.1h-3.16L155.7,408h-5.92l-2.12,3.14h-3.32Zm1.22,8.22-.64-4.62-3.08,4.62Zm15.44-8.12h4.44a8.77,8.77,0,0,1,2.57.33,4.35,4.35,0,0,1,1.83,1.09,3.89,3.89,0,0,1,1.08,2.88,4.87,4.87,0,0,1-.53,2.32,5,5,0,0,1-1.44,1.72,6.27,6.27,0,0,1-2.15,1.06,9.54,9.54,0,0,1-2.68.36h-2.66l-1.14,4.24H167Zm3.28,7.06a4.21,4.21,0,0,0,2.48-.65,2.1,2.1,0,0,0,.94-1.85,1.58,1.58,0,0,0-.46-1.16,2,2,0,0,0-.77-.47,3.69,3.69,0,0,0-1.15-.15h-2L172,404.15ZM187.92,397h3l2.22,14.1h-3.16L189.5,408h-5.92l-2.12,3.14h-3.32Zm1.22,8.22-.64-4.62-3.08,4.62Zm9.44-8.12h3.08l-3,11.2h7l-.76,2.8H194.82Zm12.52,0h10.46l-.74,2.74h-7.4l-.76,2.86h6.5l-.74,2.7h-6.5l-.8,3h7.52l-.74,2.74H207.34Zm9.1,11.62,2.32-2a6.35,6.35,0,0,0,1.78,1.37,4.65,4.65,0,0,0,2.14.47,2.69,2.69,0,0,0,1.54-.4,1.21,1.21,0,0,0,.6-1.06.93.93,0,0,0-.11-.47,1.31,1.31,0,0,0-.38-.42,4.8,4.8,0,0,0-.73-.44c-.3-.15-.69-.32-1.16-.51a14,14,0,0,1-1.3-.61,5.19,5.19,0,0,1-1.1-.78,3.49,3.49,0,0,1-.76-1,3.17,3.17,0,0,1-.28-1.36,4.07,4.07,0,0,1,.45-1.93,4.69,4.69,0,0,1,1.21-1.45,5.72,5.72,0,0,1,1.77-.92,7.18,7.18,0,0,1,2.13-.32,7.6,7.6,0,0,1,3.08.56,6.69,6.69,0,0,1,2.16,1.52l-2.12,2.12a6.85,6.85,0,0,0-1.57-1.12,4,4,0,0,0-1.79-.38,2.29,2.29,0,0,0-1.51.45,1.3,1.3,0,0,0-.53,1,1,1,0,0,0,.12.49,1.4,1.4,0,0,0,.4.41,4.18,4.18,0,0,0,.75.42c.32.15.71.32,1.19.52a13.77,13.77,0,0,1,1.33.64,5.1,5.1,0,0,1,1.06.78,3.41,3.41,0,0,1,.71,1,3.17,3.17,0,0,1,.26,1.34,4.09,4.09,0,0,1-.46,2,4.45,4.45,0,0,1-1.22,1.47,5.12,5.12,0,0,1-1.77.91,7,7,0,0,1-2.11.31Q222.21,411.29,220.2,408.71Zm18.52-8.78h-4.26l.76-2.84h11.6l-.76,2.84H241.8l-3,11.16h-3.08Zm10.22-2.84H254a8.82,8.82,0,0,1,2.65.35,4.45,4.45,0,0,1,1.79,1.05,3.81,3.81,0,0,1,1.08,2.82,4.64,4.64,0,0,1-1.14,3.19,6.18,6.18,0,0,1-3.38,1.81l2.38,4.78h-3.5l-2.16-4.48h-2.3l-1.2,4.48h-3.08Zm4,6.78a5.67,5.67,0,0,0,1.34-.15,3.53,3.53,0,0,0,1.08-.43,2.25,2.25,0,0,0,.72-.72,1.85,1.85,0,0,0,.26-1,1.47,1.47,0,0,0-.44-1.11,2.86,2.86,0,0,0-2-.58h-2.58l-1.08,4Zm15-6.88h3l2.22,14.1h-3.16L269.5,408h-5.92l-2.12,3.14h-3.32Zm1.22,8.22-.64-4.62-3.08,4.62Z"/>
    <path class="n" d="M342.55,590.83l2.32-2a6.21,6.21,0,0,0,1.78,1.37,4.62,4.62,0,0,0,2.14.47,2.71,2.71,0,0,0,1.54-.4,1.21,1.21,0,0,0,.6-1.06,1,1,0,0,0-.11-.47,1.44,1.44,0,0,0-.38-.42,5.36,5.36,0,0,0-.73-.44c-.31-.15-.7-.32-1.16-.51a12,12,0,0,1-1.3-.61,5,5,0,0,1-1.1-.78,3.32,3.32,0,0,1-.76-1,3,3,0,0,1-.28-1.36,4.07,4.07,0,0,1,.45-1.93,4.56,4.56,0,0,1,1.21-1.45,5.51,5.51,0,0,1,1.77-.92,7.08,7.08,0,0,1,2.13-.32,7.64,7.64,0,0,1,3.08.56,6.69,6.69,0,0,1,2.16,1.52l-2.12,2.12a7.31,7.31,0,0,0-1.57-1.12,4.06,4.06,0,0,0-1.79-.38,2.25,2.25,0,0,0-1.51.45,1.27,1.27,0,0,0-.53,1,1,1,0,0,0,.12.49,1.28,1.28,0,0,0,.4.41,3.57,3.57,0,0,0,.75.42c.31.15.71.32,1.19.52s.92.42,1.33.64a5.38,5.38,0,0,1,1.06.78,3.6,3.6,0,0,1,.71,1,3.34,3.34,0,0,1,.26,1.34,4.21,4.21,0,0,1-.46,2,4.71,4.71,0,0,1-1.22,1.47,5.3,5.3,0,0,1-1.77.91,7.09,7.09,0,0,1-2.11.31Q344.54,593.41,342.55,590.83ZM360.46,593a6,6,0,0,1-2.09-1.22,5.45,5.45,0,0,1-1.36-1.92,6.38,6.38,0,0,1-.48-2.53,7.89,7.89,0,0,1,.66-3.19,9,9,0,0,1,1.81-2.67,8.67,8.67,0,0,1,2.7-1.84A8.23,8.23,0,0,1,365,579a6.7,6.7,0,0,1,3.39.8,6.32,6.32,0,0,1,2.21,2.18l-2.54,1.78a5.64,5.64,0,0,0-1.4-1.4,3.67,3.67,0,0,0-2-.52,4.29,4.29,0,0,0-1.85.43,5.47,5.47,0,0,0-1.58,1.16,5.57,5.57,0,0,0-1.1,1.72,5.36,5.36,0,0,0-.41,2.11,3.57,3.57,0,0,0,.25,1.38,2.91,2.91,0,0,0,.71,1.07,3,3,0,0,0,1.08.69,3.77,3.77,0,0,0,1.38.24,3.87,3.87,0,0,0,1.76-.37,7.84,7.84,0,0,0,1.52-1l2,2.08a9.06,9.06,0,0,1-2.28,1.54,7,7,0,0,1-3,.6A7.75,7.75,0,0,1,360.46,593Zm14,0a5.83,5.83,0,0,1-2-1.31,5.74,5.74,0,0,1-1.3-2,6.36,6.36,0,0,1-.46-2.45,7.94,7.94,0,0,1,.61-3,8.4,8.4,0,0,1,1.72-2.65,8.67,8.67,0,0,1,2.66-1.87,8.16,8.16,0,0,1,3.43-.71,7.1,7.1,0,0,1,2.62.47,6.08,6.08,0,0,1,2,1.31,6,6,0,0,1,1.3,2,6.59,6.59,0,0,1,.46,2.45,8.1,8.1,0,0,1-.61,3.05,8.35,8.35,0,0,1-1.72,2.65,8.46,8.46,0,0,1-2.66,1.87,8.07,8.07,0,0,1-3.43.71A6.87,6.87,0,0,1,374.45,593Zm5-2.85A5.17,5.17,0,0,0,381,588.9a5.58,5.58,0,0,0,1-1.69,5.1,5.1,0,0,0,.36-1.84,4.13,4.13,0,0,0-.24-1.43,3.16,3.16,0,0,0-.68-1.13,3,3,0,0,0-1.12-.74,4.36,4.36,0,0,0-1.54-.26,4.2,4.2,0,0,0-2,.48,5.17,5.17,0,0,0-1.54,1.23,5.71,5.71,0,0,0-1,1.69,5.12,5.12,0,0,0-.35,1.84,4.09,4.09,0,0,0,.23,1.43,3.08,3.08,0,0,0,.68,1.13,3,3,0,0,0,1.12.74,4.15,4.15,0,0,0,1.54.26A4.2,4.2,0,0,0,379.43,590.13ZM390,579.21h4.44a8.7,8.7,0,0,1,2.56.33,4.35,4.35,0,0,1,1.83,1.09,3.85,3.85,0,0,1,1.08,2.88,5,5,0,0,1-.52,2.32,5.22,5.22,0,0,1-1.44,1.72,6.41,6.41,0,0,1-2.16,1.06,9.47,9.47,0,0,1-2.67.36h-2.66l-1.14,4.24h-3.08Zm3.28,7.06a4.2,4.2,0,0,0,2.47-.65,2.11,2.11,0,0,0,.95-1.85,1.62,1.62,0,0,0-.46-1.16,2,2,0,0,0-.77-.47,3.77,3.77,0,0,0-1.15-.15h-2l-1.14,4.28Zm10.3-7.06h5.1a8.86,8.86,0,0,1,2.65.35,4.59,4.59,0,0,1,1.79,1.05,3.85,3.85,0,0,1,1.08,2.82,4.64,4.64,0,0,1-1.14,3.19,6.22,6.22,0,0,1-3.38,1.81l2.38,4.78h-3.5l-2.16-4.48h-2.3l-1.2,4.48h-3.08Zm4,6.78a6.17,6.17,0,0,0,1.33-.14,3.71,3.71,0,0,0,1.09-.44,2.35,2.35,0,0,0,.72-.72,1.91,1.91,0,0,0,.26-1,1.51,1.51,0,0,0-.44-1.12,2.89,2.89,0,0,0-2-.58h-2.59l-1.08,4Zm10.67-6.78h3.08l-3.75,14h-3.08Zm14.08,13.88a6.23,6.23,0,0,1-2.1-1.11,5.81,5.81,0,0,1-1.5-1.9,6,6,0,0,1-.58-2.71,7.81,7.81,0,0,1,.66-3.15,8.68,8.68,0,0,1,8.06-5.25,9.4,9.4,0,0,1,2,.2,7.9,7.9,0,0,1,1.6.53,6.06,6.06,0,0,1,1.24.77,5.8,5.8,0,0,1,.88.92l-2.28,2a5.87,5.87,0,0,0-1.48-1.15,4.65,4.65,0,0,0-2.2-.47,4.94,4.94,0,0,0-2.09.45,5.43,5.43,0,0,0-2.79,2.94,5.31,5.31,0,0,0-.42,2.09,3.64,3.64,0,0,0,.28,1.45,3,3,0,0,0,.77,1,3.36,3.36,0,0,0,1.14.64,4.26,4.26,0,0,0,1.39.22,5.47,5.47,0,0,0,1.43-.16,5.12,5.12,0,0,0,1.07-.38l.67-2.28h-3.11l.72-2.66h6.08l-2,7a10.74,10.74,0,0,1-2.27,1,9.57,9.57,0,0,1-2.81.37A8.13,8.13,0,0,1,432.3,593.09Zm14.1-13.88h3.08l-3,11.2h7l-.77,2.8H442.64Zm12.66,0h3.08l-3.76,14H455.3Zm-126.81,19.9h3l2.22,14.1h-3.16l-.44-3.14h-5.92l-2.12,3.14h-3.32Zm1.22,8.22-.64-4.62-3.08,4.62Zm9.44-8.12h5.44a7.45,7.45,0,0,1,2.13.27,4.41,4.41,0,0,1,1.47.74,3.11,3.11,0,0,1,.86,1.1,3.34,3.34,0,0,1,.28,1.33,3.25,3.25,0,0,1-.82,2.28,4.17,4.17,0,0,1-2.18,1.17,3.8,3.8,0,0,1,1.42,1.09,2.74,2.74,0,0,1,.54,1.76,3.79,3.79,0,0,1-.4,1.72,4,4,0,0,1-1.16,1.35,5.55,5.55,0,0,1-1.88.88,9.6,9.6,0,0,1-2.58.31h-6.88Zm3.58,11.3a3.1,3.1,0,0,0,1.83-.47,1.5,1.5,0,0,0,.67-1.29,1.15,1.15,0,0,0-.48-1,2.46,2.46,0,0,0-1.44-.35h-3.38l-.82,3.08Zm1-5.66a3.57,3.57,0,0,0,1.86-.4,1.4,1.4,0,0,0,.66-1.28,1.12,1.12,0,0,0-.46-.9,2.42,2.42,0,0,0-1.48-.36h-2.9l-.78,2.94Zm9.76-5.64h5.44a7.45,7.45,0,0,1,2.13.27,4.41,4.41,0,0,1,1.47.74,3.11,3.11,0,0,1,.86,1.1,3.34,3.34,0,0,1,.28,1.33,3.25,3.25,0,0,1-.82,2.28,4.17,4.17,0,0,1-2.18,1.17,3.8,3.8,0,0,1,1.42,1.09,2.74,2.74,0,0,1,.54,1.76,3.79,3.79,0,0,1-.4,1.72,4,4,0,0,1-1.16,1.35,5.55,5.55,0,0,1-1.88.88,9.6,9.6,0,0,1-2.58.31h-6.88Zm3.58,11.3a3.1,3.1,0,0,0,1.83-.47,1.5,1.5,0,0,0,.67-1.29,1.15,1.15,0,0,0-.48-1,2.46,2.46,0,0,0-1.44-.35H358l-.82,3.08Zm1-5.66a3.57,3.57,0,0,0,1.86-.4,1.4,1.4,0,0,0,.66-1.28,1.12,1.12,0,0,0-.46-.9,2.42,2.42,0,0,0-1.48-.36h-2.9l-.78,2.94ZM372.71,613a5.83,5.83,0,0,1-2-1.31,5.74,5.74,0,0,1-1.3-2,6.36,6.36,0,0,1-.46-2.45,7.94,7.94,0,0,1,.61-3,8.4,8.4,0,0,1,1.72-2.65,8.67,8.67,0,0,1,2.66-1.87,8.16,8.16,0,0,1,3.43-.71,7.1,7.1,0,0,1,2.62.47,6.08,6.08,0,0,1,2,1.31,6,6,0,0,1,1.3,2,6.59,6.59,0,0,1,.46,2.45,8.1,8.1,0,0,1-.61,3.05,8.35,8.35,0,0,1-1.72,2.65,8.46,8.46,0,0,1-2.66,1.87,8.07,8.07,0,0,1-3.43.71A6.87,6.87,0,0,1,372.71,613Zm5-2.85a5,5,0,0,0,1.54-1.23,5.58,5.58,0,0,0,1-1.69,5.1,5.1,0,0,0,.36-1.84,4.13,4.13,0,0,0-.24-1.43,3.16,3.16,0,0,0-.68-1.13,3.13,3.13,0,0,0-1.12-.74,4.36,4.36,0,0,0-1.54-.26,4.2,4.2,0,0,0-2,.48,5.17,5.17,0,0,0-1.54,1.23,5.71,5.71,0,0,0-1,1.69,5.12,5.12,0,0,0-.35,1.84,4.09,4.09,0,0,0,.23,1.43,3.08,3.08,0,0,0,.68,1.13,3,3,0,0,0,1.13.74,4.06,4.06,0,0,0,1.53.26A4.2,4.2,0,0,0,377.69,610.13Zm10.54-10.92h2.84l4.08,8.9,2.4-8.9h3l-3.76,14h-2.62L390,604l-2.46,9.18h-3Zm20.36-.1h3l2.21,14.1h-3.15l-.44-3.14h-5.92l-2.12,3.14H398.8Zm1.21,8.22-.63-4.62-3.08,4.62Zm9.45-8.12h3.2l2,5.92,5.21-5.92h3.57l-3.76,14h-3.12l2.43-9.14-5.47,6h-.08L421,604.13l-2.45,9.08h-3.07Zm17.36,0h10.46l-.74,2.74h-7.4l-.76,2.86h6.5l-.74,2.7h-6.5l-.8,3h7.52l-.74,2.74H432.85Zm13.3,0h2.84l4.08,8.9,2.39-8.9h3l-3.75,14h-2.63L451.65,604l-2.47,9.18h-3Zm17.89,2.84h-4.25l.75-2.84h11.6l-.76,2.84h-4.26l-3,11.16H464.8Zm10.37-2.84h3.08l-3.77,14H474.4Zm-136,20h4.08a9.68,9.68,0,0,1,3.36.5,6.11,6.11,0,0,1,2.12,1.3,5.56,5.56,0,0,1,1.52,4.1,7.62,7.62,0,0,1-2.3,5.52,8.3,8.3,0,0,1-3.08,1.92,12.54,12.54,0,0,1-4.26.66h-5.2ZM344,630.43a7.78,7.78,0,0,0,2.62-.43,5.35,5.35,0,0,0,2.06-1.27,4.67,4.67,0,0,0,1-1.58,5.12,5.12,0,0,0,.36-1.92,3,3,0,0,0-.82-2.22,3.46,3.46,0,0,0-1.24-.74,6.12,6.12,0,0,0-2-.28h-1.5l-2.28,8.44Zm13.88-11.22h3.08l-3.76,14h-3.08Zm2.38,11.62,2.32-2a6.21,6.21,0,0,0,1.78,1.37,4.62,4.62,0,0,0,2.14.47,2.71,2.71,0,0,0,1.54-.4,1.21,1.21,0,0,0,.6-1.06,1,1,0,0,0-.11-.47,1.44,1.44,0,0,0-.38-.42,5.36,5.36,0,0,0-.73-.44c-.31-.15-.7-.32-1.16-.51a12,12,0,0,1-1.3-.61,5,5,0,0,1-1.1-.78,3.32,3.32,0,0,1-.76-1,3,3,0,0,1-.28-1.36,4.07,4.07,0,0,1,.45-1.93,4.56,4.56,0,0,1,1.21-1.45,5.51,5.51,0,0,1,1.77-.92,7.08,7.08,0,0,1,2.13-.32,7.64,7.64,0,0,1,3.08.56,6.69,6.69,0,0,1,2.16,1.52l-2.12,2.12a7.31,7.31,0,0,0-1.57-1.12,4.06,4.06,0,0,0-1.79-.38,2.25,2.25,0,0,0-1.51.45,1.27,1.27,0,0,0-.53,1,1,1,0,0,0,.12.49,1.28,1.28,0,0,0,.4.41,3.57,3.57,0,0,0,.75.42c.31.15.71.32,1.19.52s.92.42,1.33.64a5.38,5.38,0,0,1,1.06.78,3.6,3.6,0,0,1,.71,1,3.34,3.34,0,0,1,.26,1.34,4.21,4.21,0,0,1-.46,2,4.71,4.71,0,0,1-1.22,1.47,5.3,5.3,0,0,1-1.77.91,7.09,7.09,0,0,1-2.11.31Q362.22,633.41,360.23,630.83Zm16.92-11.62h4.44a8.82,8.82,0,0,1,2.57.33,4.47,4.47,0,0,1,1.83,1.09,3.89,3.89,0,0,1,1.08,2.88,5,5,0,0,1-.53,2.32,5.22,5.22,0,0,1-1.44,1.72,6.45,6.45,0,0,1-2.15,1.06,9.59,9.59,0,0,1-2.68.36h-2.66l-1.14,4.24h-3.08Zm3.28,7.06a4.25,4.25,0,0,0,2.48-.65,2.13,2.13,0,0,0,.94-1.85,1.62,1.62,0,0,0-.46-1.16,2,2,0,0,0-.77-.47,3.73,3.73,0,0,0-1.15-.15h-2l-1.14,4.28Zm11.5,6.71a5.83,5.83,0,0,1-2-1.31,5.76,5.76,0,0,1-1.31-2,6.55,6.55,0,0,1-.46-2.45,8,8,0,0,1,.62-3,8.55,8.55,0,0,1,1.71-2.65,8.92,8.92,0,0,1,2.66-1.87,8.22,8.22,0,0,1,3.43-.71,7,7,0,0,1,2.62.47,5.8,5.8,0,0,1,3.33,3.28,6.59,6.59,0,0,1,.46,2.45,7.92,7.92,0,0,1-.62,3.05,8,8,0,0,1-1.72,2.65,8.35,8.35,0,0,1-2.66,1.87,8,8,0,0,1-3.42.71A6.87,6.87,0,0,1,391.93,633Zm5-2.85a5.17,5.17,0,0,0,1.54-1.23,5.58,5.58,0,0,0,1-1.69,5.1,5.1,0,0,0,.36-1.84,4.13,4.13,0,0,0-.24-1.43,3.16,3.16,0,0,0-.68-1.13,3.13,3.13,0,0,0-1.12-.74,4.36,4.36,0,0,0-1.54-.26,4.2,4.2,0,0,0-2,.48,5.17,5.17,0,0,0-1.54,1.23,5.71,5.71,0,0,0-1,1.69,5.12,5.12,0,0,0-.35,1.84,4.09,4.09,0,0,0,.23,1.43,3.08,3.08,0,0,0,.68,1.13,3,3,0,0,0,1.12.74,4.15,4.15,0,0,0,1.54.26A4.2,4.2,0,0,0,396.91,630.13Zm10.53-10.92h2.84l4.08,8.9,2.4-8.9h3l-3.75,14h-2.62L409.18,624l-2.46,9.18h-3Zm15.86,0h3.08l-3.75,14h-3.08Zm6.58,0h5.44a7.36,7.36,0,0,1,2.13.27,4.37,4.37,0,0,1,1.48.74,3,3,0,0,1,.85,1.1,3.17,3.17,0,0,1,.28,1.33,3.21,3.21,0,0,1-.82,2.28,4.09,4.09,0,0,1-2.18,1.17,3.65,3.65,0,0,1,1.42,1.09A2.74,2.74,0,0,1,439,629a3.78,3.78,0,0,1-.39,1.72,4,4,0,0,1-1.16,1.35,5.55,5.55,0,0,1-1.88.88,9.6,9.6,0,0,1-2.58.31h-6.88Zm3.59,11.3a3.1,3.1,0,0,0,1.83-.47,1.5,1.5,0,0,0,.67-1.29,1.15,1.15,0,0,0-.49-1,2.45,2.45,0,0,0-1.43-.35h-3.39l-.82,3.08Zm1-5.66a3.55,3.55,0,0,0,1.85-.4,1.4,1.4,0,0,0,.66-1.28,1.09,1.09,0,0,0-.46-.9,2.39,2.39,0,0,0-1.47-.36h-2.91l-.78,2.94Zm9.89-5.64h3.08l-3.76,14H440.6Zm6.58,0H454l-3,11.2h7l-.77,2.8H447.18Zm12.66,0h3.08l-3.76,14h-3.08Z"/>
    <path class="n" d="M149.91,775.82H155a8.86,8.86,0,0,1,2.65.35,4.52,4.52,0,0,1,1.79,1.05,3.81,3.81,0,0,1,1.08,2.82,4.64,4.64,0,0,1-1.14,3.19A6.22,6.22,0,0,1,156,785l2.38,4.78h-3.5l-2.16-4.48h-2.3l-1.2,4.48h-3.08Zm4,6.78a5.67,5.67,0,0,0,1.34-.15,3.75,3.75,0,0,0,1.08-.43,2.25,2.25,0,0,0,.72-.72,2,2,0,0,0,.26-1,1.51,1.51,0,0,0-.44-1.11,2.89,2.89,0,0,0-2-.58h-2.58l-1.08,4Zm10.68-6.78h3.08l-3.76,14h-3.08ZM167,787.44l2.32-2a6.21,6.21,0,0,0,1.78,1.37,4.65,4.65,0,0,0,2.14.47,2.69,2.69,0,0,0,1.54-.4,1.21,1.21,0,0,0,.6-1.06,1,1,0,0,0-.11-.47,1.31,1.31,0,0,0-.38-.42,4.8,4.8,0,0,0-.73-.44c-.31-.15-.69-.32-1.16-.51a12.93,12.93,0,0,1-1.3-.61,5.19,5.19,0,0,1-1.1-.78,3.49,3.49,0,0,1-.76-1,3,3,0,0,1-.28-1.36,4.07,4.07,0,0,1,.45-1.93,4.56,4.56,0,0,1,1.21-1.45,5.72,5.72,0,0,1,1.77-.92,7.08,7.08,0,0,1,2.13-.32,7.64,7.64,0,0,1,3.08.56,6.69,6.69,0,0,1,2.16,1.52l-2.12,2.12a7.07,7.07,0,0,0-1.57-1.12,4,4,0,0,0-1.79-.38,2.27,2.27,0,0,0-1.51.45,1.3,1.3,0,0,0-.53,1,1,1,0,0,0,.12.49,1.28,1.28,0,0,0,.4.41,4.18,4.18,0,0,0,.75.42c.31.15.71.32,1.19.52s.92.42,1.33.64a5.1,5.1,0,0,1,1.06.78,3.41,3.41,0,0,1,.71,1,3.34,3.34,0,0,1,.26,1.34,4.09,4.09,0,0,1-.46,2A4.57,4.57,0,0,1,177,788.8a5.3,5.3,0,0,1-1.77.91,7,7,0,0,1-2.11.31C170.34,790,168.3,789.16,167,787.44Zm16.92-11.62h4.44a8.77,8.77,0,0,1,2.57.33,4.47,4.47,0,0,1,1.83,1.09,3.89,3.89,0,0,1,1.08,2.88,4.94,4.94,0,0,1-2,4,6.36,6.36,0,0,1-2.15,1.06,9.59,9.59,0,0,1-2.68.36h-2.66l-1.14,4.24h-3.08Zm3.28,7.06a4.23,4.23,0,0,0,2.48-.65,2.1,2.1,0,0,0,.94-1.85,1.58,1.58,0,0,0-.46-1.16,2,2,0,0,0-.77-.47,3.69,3.69,0,0,0-1.15-.15h-2l-1.14,4.28ZM201,775.72h3l2.22,14.1h-3.16l-.44-3.14h-5.92l-2.12,3.14h-3.32Zm1.22,8.22-.64-4.62-3.08,4.62Zm9.44-8.12h5.1a8.86,8.86,0,0,1,2.65.35,4.52,4.52,0,0,1,1.79,1.05,3.81,3.81,0,0,1,1.08,2.82,4.64,4.64,0,0,1-1.14,3.19,6.22,6.22,0,0,1-3.38,1.81l2.38,4.78h-3.5l-2.16-4.48h-2.3l-1.2,4.48h-3.08Zm4,6.78a5.67,5.67,0,0,0,1.34-.15,3.75,3.75,0,0,0,1.08-.43,2.25,2.25,0,0,0,.72-.72,2,2,0,0,0,.26-1,1.51,1.51,0,0,0-.44-1.11,2.89,2.89,0,0,0-2-.58H214l-1.08,4Zm10.54-6.78h3.2l2,5.92,5.22-5.92h3.56l-3.76,14h-3.12l2.44-9.14-5.48,6h-.08L228,780.74l-2.44,9.08h-3.08Zm17.5,0h3.08l-3.76,14H240Zm11.22-.1h3l2.22,14.1H257l-.44-3.14h-5.92l-2.12,3.14h-3.32Zm1.22,8.22-.64-4.62-3.08,4.62Z"/>
    <path class="n" d="M359.73,978.76h3l2.22,14.1h-3.16l-.44-3.14h-5.92l-2.12,3.14H350ZM361,987l-.64-4.62L357.23,987Zm9.44-8.12h3.08l-3,11.2h7l-.76,2.8H366.63Zm12.52,0H386l-3,11.2h7l-.76,2.8H379.15Zm12.52,0h10.46l-.74,2.74h-7.4l-.76,2.86h6.5l-.74,2.7h-6.5l-.8,3H403l-.74,2.74H391.67Zm13.3,0h2.84l4.08,8.9,2.4-8.9h3l-3.76,14h-2.62l-4.24-9.18L408,992.86h-3Zm20.36-.1h3l2.22,14.1h-3.16l-.44-3.14h-5.92l-2.12,3.14h-3.32Zm1.22,8.22-.64-4.62L426.59,987Zm10-5.28h-4.26l.76-2.84h11.6l-.76,2.84h-4.26l-3,11.16h-3.08Zm10.36-2.84h3.08l-3.76,14h-3.08Z"/>
    <path class="c" d="M774.3,163.33h2.84l4.08,8.9,2.4-8.9h3l-3.76,14h-2.62L776,168.15l-2.46,9.18h-3Zm16.84,13.77a5.83,5.83,0,0,1-3.32-3.28,6.55,6.55,0,0,1-.46-2.45,8.1,8.1,0,0,1,.61-3.05,8.46,8.46,0,0,1,1.72-2.65,8.62,8.62,0,0,1,2.66-1.87,8.22,8.22,0,0,1,3.43-.71,7.07,7.07,0,0,1,2.62.47,5.83,5.83,0,0,1,3.32,3.28,6.4,6.4,0,0,1,.46,2.45,7.91,7.91,0,0,1-.61,3.05,8.43,8.43,0,0,1-4.38,4.52,8.16,8.16,0,0,1-3.43.71A7.1,7.1,0,0,1,791.14,177.1Zm5-2.85a5.17,5.17,0,0,0,1.54-1.23,5.58,5.58,0,0,0,1-1.69,5.08,5.08,0,0,0,.35-1.84,4.13,4.13,0,0,0-.23-1.43,3.16,3.16,0,0,0-.68-1.13,3,3,0,0,0-1.13-.74,4.3,4.3,0,0,0-1.53-.26,4.2,4.2,0,0,0-2,.48,5,5,0,0,0-1.54,1.23,6,6,0,0,0-1,1.69,5.34,5.34,0,0,0-.35,1.84,4.33,4.33,0,0,0,.23,1.43,3.24,3.24,0,0,0,.69,1.13,2.93,2.93,0,0,0,1.12.74,4.32,4.32,0,0,0,1.54.26A4.2,4.2,0,0,0,796.13,174.25Zm10.53-10.92h2.84l4.08,8.9,2.4-8.9h3l-3.76,14h-2.62l-4.24-9.18-2.46,9.18h-3Zm21.72,0h3.2l2,5.92,5.22-5.92h3.56l-3.76,14H835.5l2.44-9.14-5.48,6h-.08l-2.24-5.92-2.44,9.08h-3.08Zm17.5,0H849l-3.76,14h-3.08Zm17.22-.1h3l2.22,14.1h-3.16l-.44-3.14h-5.92l-2.12,3.14h-3.32Zm1.22,8.22-.64-4.62-3.08,4.62Zm9.44-8.12h3.08l-3,11.2h7l-.76,2.8H870Zm12.52,0h3.08l-3,11.2h7l-.76,2.8H882.52Zm12.52,0h10.46l-.74,2.74h-7.4l-.76,2.86h6.5l-.74,2.7h-6.5l-.8,3h7.52l-.74,2.74H895Zm13.3,0h2.84l4.08,8.9,2.4-8.9h3l-3.76,14h-2.62l-4.24-9.18-2.46,9.18h-3Zm16.84,13.77a5.83,5.83,0,0,1-3.32-3.28,6.55,6.55,0,0,1-.46-2.45,8.1,8.1,0,0,1,.61-3.05,8.46,8.46,0,0,1,1.72-2.65,8.62,8.62,0,0,1,2.66-1.87,8.22,8.22,0,0,1,3.43-.71,7.07,7.07,0,0,1,2.62.47,5.83,5.83,0,0,1,3.32,3.28,6.4,6.4,0,0,1,.46,2.45,7.91,7.91,0,0,1-.61,3.05,8.43,8.43,0,0,1-4.38,4.52,8.16,8.16,0,0,1-3.43.71A7.1,7.1,0,0,1,928.94,177.1Zm5-2.85a5.29,5.29,0,0,0,1.54-1.23,5.58,5.58,0,0,0,1-1.69,5.3,5.3,0,0,0,.35-1.84,4.38,4.38,0,0,0-.23-1.43,3.16,3.16,0,0,0-.68-1.13,3,3,0,0,0-1.13-.74,4.3,4.3,0,0,0-1.53-.26,4.2,4.2,0,0,0-2,.48,5,5,0,0,0-1.54,1.23,6,6,0,0,0-1,1.69,5.34,5.34,0,0,0-.35,1.84,4.33,4.33,0,0,0,.23,1.43,3.24,3.24,0,0,0,.69,1.13,2.93,2.93,0,0,0,1.12.74,4.32,4.32,0,0,0,1.54.26A4.2,4.2,0,0,0,933.93,174.25Z"/>
    <path class="n" d="M862.8,388.71l2.32-2a6.35,6.35,0,0,0,1.78,1.37,4.78,4.78,0,0,0,2.14.47,2.69,2.69,0,0,0,1.54-.4,1.21,1.21,0,0,0,.6-1.06.93.93,0,0,0-.11-.47,1.31,1.31,0,0,0-.38-.42,4.8,4.8,0,0,0-.73-.44c-.3-.15-.69-.32-1.16-.51a14,14,0,0,1-1.3-.61,5.19,5.19,0,0,1-1.1-.78,3.49,3.49,0,0,1-.76-1,3.17,3.17,0,0,1-.28-1.36,4.07,4.07,0,0,1,.45-1.93,4.69,4.69,0,0,1,1.21-1.45,5.72,5.72,0,0,1,1.77-.92,7.18,7.18,0,0,1,2.13-.32,7.6,7.6,0,0,1,3.08.56,6.69,6.69,0,0,1,2.16,1.52L874,381.09a6.85,6.85,0,0,0-1.57-1.12,4,4,0,0,0-1.79-.38,2.29,2.29,0,0,0-1.51.45,1.28,1.28,0,0,0-.53,1,1,1,0,0,0,.12.49,1.4,1.4,0,0,0,.4.41,4.9,4.9,0,0,0,.75.42c.32.15.71.32,1.19.52a13.77,13.77,0,0,1,1.33.64,5.1,5.1,0,0,1,1.06.78,3.41,3.41,0,0,1,.71,1,3.14,3.14,0,0,1,.26,1.34,4.09,4.09,0,0,1-.46,2,4.45,4.45,0,0,1-1.22,1.47A5.12,5.12,0,0,1,871,391a7,7,0,0,1-2.11.31Q864.81,391.29,862.8,388.71Zm17.92,2.19a6,6,0,0,1-2.09-1.22,5.32,5.32,0,0,1-1.36-1.92,6.41,6.41,0,0,1-.49-2.53,7.9,7.9,0,0,1,.67-3.19,8.88,8.88,0,0,1,1.81-2.67,8.75,8.75,0,0,1,2.69-1.84,8.3,8.3,0,0,1,3.33-.68,6.64,6.64,0,0,1,3.39.8,6.15,6.15,0,0,1,2.21,2.18l-2.54,1.78a5.47,5.47,0,0,0-1.4-1.4,3.67,3.67,0,0,0-2-.52,4.32,4.32,0,0,0-1.85.43,5.61,5.61,0,0,0-1.58,1.16,5.76,5.76,0,0,0-1.1,1.72,5.55,5.55,0,0,0-.41,2.11,3.77,3.77,0,0,0,.25,1.38,3.18,3.18,0,0,0,.71,1.07,3.22,3.22,0,0,0,1.08.69,4.24,4.24,0,0,0,3.14-.13,8,8,0,0,0,1.52-1l2,2.08a9.06,9.06,0,0,1-2.28,1.54,7,7,0,0,1-3,.6A7.7,7.7,0,0,1,880.72,390.9ZM894,377.09h10.46l-.74,2.74h-7.4l-.76,2.86H902l-.74,2.7h-6.5l-.8,3h7.52l-.74,2.74H890.2ZM908.76,391a6.23,6.23,0,0,1-2.1-1.11,5.56,5.56,0,0,1-1.5-1.9,6,6,0,0,1-.58-2.71,7.81,7.81,0,0,1,.66-3.15,8.68,8.68,0,0,1,8.06-5.25,9.4,9.4,0,0,1,2,.2,7.32,7.32,0,0,1,1.6.53,5.72,5.72,0,0,1,1.23.77,5.11,5.11,0,0,1,.89.92l-2.28,2a5.75,5.75,0,0,0-1.49-1.15,4.61,4.61,0,0,0-2.19-.47,4.94,4.94,0,0,0-2.09.45,5.6,5.6,0,0,0-1.68,1.2,5.84,5.84,0,0,0-1.12,1.74,5.48,5.48,0,0,0-.41,2.09,3.64,3.64,0,0,0,.28,1.45,3,3,0,0,0,.77,1,3.54,3.54,0,0,0,1.14.64,4.26,4.26,0,0,0,1.39.22,5.47,5.47,0,0,0,1.43-.16,5.12,5.12,0,0,0,1.07-.38l.66-2.28h-3.1l.72-2.66h6.08l-2,7A10.74,10.74,0,0,1,914,391a9.62,9.62,0,0,1-2.81.37A8.13,8.13,0,0,1,908.76,391Zm14.1-13.88h3.08l-3,11.2h7l-.76,2.8H919.1Zm12.66,0h3.08l-3.76,14h-3.08Zm12.58,0h2.84L955,386l2.4-8.9h3l-3.76,14h-2.62l-4.24-9.18-2.46,9.18h-3Zm15.72,0h10.46l-.74,2.74h-7.4l-.76,2.86h6.5l-.74,2.7h-6.5l-.8,3h7.52l-.74,2.74H960.06Zm13.3,0h3.08l-3,11.2h7l-.76,2.8H973.36Zm19.79,13.81a6,6,0,0,1-2.08-1.22,5.32,5.32,0,0,1-1.36-1.92,6.24,6.24,0,0,1-.49-2.53,7.74,7.74,0,0,1,.67-3.19,8.88,8.88,0,0,1,1.81-2.67,8.75,8.75,0,0,1,2.69-1.84,8.3,8.3,0,0,1,3.33-.68,6.64,6.64,0,0,1,3.39.8,6.15,6.15,0,0,1,2.21,2.18l-2.54,1.78a5.47,5.47,0,0,0-1.4-1.4,3.67,3.67,0,0,0-2-.52,4.32,4.32,0,0,0-1.85.43,5.61,5.61,0,0,0-1.58,1.16,5.76,5.76,0,0,0-1.1,1.72,5.55,5.55,0,0,0-.41,2.11,3.77,3.77,0,0,0,.25,1.38,3.18,3.18,0,0,0,.71,1.07,3.22,3.22,0,0,0,1.08.69,4.24,4.24,0,0,0,3.14-.13,8,8,0,0,0,1.52-1l2,2.08a9.06,9.06,0,0,1-2.28,1.54,7,7,0,0,1-3,.6A7.79,7.79,0,0,1,996.91,390.9ZM1014.8,377h3l2.22,14.1h-3.16l-.44-3.14h-5.92l-2.12,3.14H1005Zm1.22,8.22-.64-4.62-3.08,4.62Zm9.44-8.12h3.08l-3,11.2h7l-.76,2.8H1021.7Zm12.52,0h10.46l-.74,2.74h-7.4l-.76,2.86h6.5l-.74,2.7h-6.5l-.8,3h7.52l-.74,2.74h-10.56Zm13.3,0h2.84l4.08,8.9,2.4-8.9h3l-3.76,14h-2.62l-4.24-9.18-2.46,9.18h-3Zm15.7,0h4.08a9.68,9.68,0,0,1,3.36.5,6,6,0,0,1,2.12,1.3,5.56,5.56,0,0,1,1.52,4.1,7.61,7.61,0,0,1-.58,3,7.78,7.78,0,0,1-1.72,2.54,8.22,8.22,0,0,1-3.08,1.92,12.46,12.46,0,0,1-4.26.66h-5.2Zm1.82,11.22a7.7,7.7,0,0,0,2.62-.43,5.28,5.28,0,0,0,2.06-1.27,4.53,4.53,0,0,0,1-1.58,5.12,5.12,0,0,0,.36-1.92,3,3,0,0,0-.82-2.22,3.38,3.38,0,0,0-1.24-.74,6.12,6.12,0,0,0-2-.28h-1.5l-2.28,8.44ZM1086.7,377h3l2.22,14.1h-3.16l-.44-3.14h-5.92l-2.12,3.14h-3.32Zm1.22,8.22-.64-4.62-3.08,4.62Zm9.44-8.12h5.1a8.86,8.86,0,0,1,2.65.35,4.52,4.52,0,0,1,1.79,1.05,3.81,3.81,0,0,1,1.08,2.82,4.64,4.64,0,0,1-1.14,3.19,6.22,6.22,0,0,1-3.38,1.81l2.38,4.78h-3.5l-2.16-4.48h-2.3l-1.2,4.48h-3.08Zm4,6.78a5.67,5.67,0,0,0,1.34-.15,3.75,3.75,0,0,0,1.08-.43,2.25,2.25,0,0,0,.72-.72,1.85,1.85,0,0,0,.26-1,1.51,1.51,0,0,0-.44-1.11,2.83,2.83,0,0,0-2-.58h-2.58l-1.08,4Zm10.68-6.78h3.08l-3.76,14h-3.08Zm7.7,13.77a5.83,5.83,0,0,1-3.32-3.28,6.36,6.36,0,0,1-.46-2.45,7.94,7.94,0,0,1,.61-3.05,8.58,8.58,0,0,1,1.72-2.65,8.8,8.8,0,0,1,2.66-1.87,8.19,8.19,0,0,1,3.43-.71,7.1,7.1,0,0,1,2.62.47,5.83,5.83,0,0,1,3.32,3.28,6.4,6.4,0,0,1,.46,2.45,7.91,7.91,0,0,1-.61,3.05,8.35,8.35,0,0,1-1.72,2.65,8.46,8.46,0,0,1-2.66,1.87,8.19,8.19,0,0,1-3.43.71A7.1,7.1,0,0,1,1119.74,390.86Zm5-2.85a5.12,5.12,0,0,0,1.53-1.23,5.61,5.61,0,0,0,1-1.69,5.3,5.3,0,0,0,.35-1.84,4.38,4.38,0,0,0-.23-1.43,3.16,3.16,0,0,0-.68-1.13,3,3,0,0,0-1.13-.74,4.32,4.32,0,0,0-1.54-.26,4.26,4.26,0,0,0-2,.48,5.12,5.12,0,0,0-1.53,1.23,6,6,0,0,0-1,1.69,5.34,5.34,0,0,0-.35,1.84,4.33,4.33,0,0,0,.23,1.43,3.1,3.1,0,0,0,.69,1.13,2.93,2.93,0,0,0,1.12.74,4.11,4.11,0,0,0,1.54.26A4.2,4.2,0,0,0,1124.73,388ZM886.56,410.49a7.72,7.72,0,0,1-1.75.62,8.27,8.27,0,0,1-1.95.22,7.1,7.1,0,0,1-2.62-.47,5.83,5.83,0,0,1-3.32-3.28,6.55,6.55,0,0,1-.46-2.45,8.13,8.13,0,0,1,.61-3.05,8.58,8.58,0,0,1,1.72-2.65,8.8,8.8,0,0,1,2.66-1.87,8.22,8.22,0,0,1,3.43-.71,7.07,7.07,0,0,1,2.62.47,6,6,0,0,1,2,1.31,5.83,5.83,0,0,1,1.3,2,6.4,6.4,0,0,1,.46,2.45,7.82,7.82,0,0,1-.62,3.09,8.33,8.33,0,0,1-1.76,2.67l1.12,1.48L887.48,412Zm-2.42-2.1a4.33,4.33,0,0,0,.84-.26l-1.8-2.44,2.54-1.7,1.42,2.28a5.34,5.34,0,0,0,.72-1.48,5.2,5.2,0,0,0,.24-1.54,4.13,4.13,0,0,0-.23-1.43,3.16,3.16,0,0,0-.68-1.13,3,3,0,0,0-1.13-.74,4.27,4.27,0,0,0-1.53-.26,4.2,4.2,0,0,0-2,.48A5.17,5.17,0,0,0,881,401.4a5.71,5.71,0,0,0-1,1.69,5.14,5.14,0,0,0-.36,1.84,4.09,4.09,0,0,0,.24,1.43,3.08,3.08,0,0,0,.68,1.13,2.93,2.93,0,0,0,1.12.74,4.11,4.11,0,0,0,1.54.26A3.93,3.93,0,0,0,884.14,408.39Zm12.29,2.6a4.74,4.74,0,0,1-1.65-.92,3.93,3.93,0,0,1-1-1.48,5.21,5.21,0,0,1-.36-2,7.06,7.06,0,0,1,.09-1.09c.06-.38.15-.76.25-1.15l1.94-7.26h3.08l-2,7.54c-.06.24-.12.48-.16.72a4.92,4.92,0,0,0-.06.8,2.3,2.3,0,0,0,.62,1.68,2.42,2.42,0,0,0,1.82.64,3.15,3.15,0,0,0,2.28-.88,5.5,5.5,0,0,0,1.36-2.6l2.12-7.9h3.08l-2.24,8.34a9,9,0,0,1-2.16,4.16,5.46,5.46,0,0,1-2,1.29,7.82,7.82,0,0,1-2.73.43A6.81,6.81,0,0,1,896.43,411Zm18.85-14h3l2.22,14.1H917.3l-.44-3.14h-5.92l-2.12,3.14H905.5Zm1.22,8.22-.64-4.62-3.08,4.62Zm9.44-8.12h2.84l4.08,8.9,2.4-8.9h3l-3.76,14h-2.62l-4.24-9.18-2.46,9.18h-3Zm15.7,0h4.08a9.68,9.68,0,0,1,3.36.5,6,6,0,0,1,2.12,1.3,5.52,5.52,0,0,1,1.52,4.1,7.62,7.62,0,0,1-2.3,5.52,8.22,8.22,0,0,1-3.08,1.92,12.46,12.46,0,0,1-4.26.66h-5.2Zm1.82,11.22a7.7,7.7,0,0,0,2.62-.43,5.28,5.28,0,0,0,2.06-1.27,4.53,4.53,0,0,0,1-1.58,5.12,5.12,0,0,0,.36-1.92,3,3,0,0,0-.82-2.22,3.38,3.38,0,0,0-1.24-.74,6.12,6.12,0,0,0-2-.28H944l-2.28,8.44Zm14.86,2.55a5.83,5.83,0,0,1-3.32-3.28,6.55,6.55,0,0,1-.46-2.45,8.13,8.13,0,0,1,.61-3.05,8.58,8.58,0,0,1,1.72-2.65,8.8,8.8,0,0,1,2.66-1.87,8.22,8.22,0,0,1,3.43-.71,7.07,7.07,0,0,1,2.62.47,6,6,0,0,1,2,1.31,5.83,5.83,0,0,1,1.3,2,6.4,6.4,0,0,1,.46,2.45,7.91,7.91,0,0,1-.61,3.05,8.18,8.18,0,0,1-1.72,2.65,8.35,8.35,0,0,1-2.66,1.87,8.16,8.16,0,0,1-3.43.71A7.1,7.1,0,0,1,958.32,410.86Zm5-2.85a5.17,5.17,0,0,0,1.54-1.23,5.58,5.58,0,0,0,1-1.69,5.08,5.08,0,0,0,.35-1.84,4.13,4.13,0,0,0-.23-1.43,3.16,3.16,0,0,0-.68-1.13,3,3,0,0,0-1.13-.74,4.3,4.3,0,0,0-1.53-.26,4.2,4.2,0,0,0-2,.48,5,5,0,0,0-1.54,1.23,6,6,0,0,0-1,1.69,5.34,5.34,0,0,0-.35,1.84,4.33,4.33,0,0,0,.23,1.43,3.24,3.24,0,0,0,.69,1.13,2.93,2.93,0,0,0,1.12.74,4.11,4.11,0,0,0,1.54.26A4.2,4.2,0,0,0,963.31,408Zm16.53-10.92h2.84l4.08,8.9,2.4-8.9h3l-3.76,14h-2.62l-4.24-9.18-2.46,9.18h-3Zm16.84,13.77a5.83,5.83,0,0,1-3.32-3.28,6.55,6.55,0,0,1-.46-2.45,8.13,8.13,0,0,1,.61-3.05,8.58,8.58,0,0,1,1.72-2.65,8.8,8.8,0,0,1,2.66-1.87,8.22,8.22,0,0,1,3.43-.71,7.07,7.07,0,0,1,2.62.47,6,6,0,0,1,2,1.31,5.83,5.83,0,0,1,1.3,2,6.4,6.4,0,0,1,.46,2.45,7.91,7.91,0,0,1-.61,3.05,8.18,8.18,0,0,1-1.72,2.65,8.35,8.35,0,0,1-2.66,1.87,8.16,8.16,0,0,1-3.43.71A7.1,7.1,0,0,1,996.68,410.86Zm5-2.85a5.29,5.29,0,0,0,1.54-1.23,5.58,5.58,0,0,0,1-1.69,5.08,5.08,0,0,0,.35-1.84,4.13,4.13,0,0,0-.23-1.43,3.16,3.16,0,0,0-.68-1.13,3,3,0,0,0-1.13-.74,4.3,4.3,0,0,0-1.53-.26,4.2,4.2,0,0,0-2,.48,5,5,0,0,0-1.54,1.23,6,6,0,0,0-1,1.69,5.34,5.34,0,0,0-.35,1.84,4.33,4.33,0,0,0,.23,1.43,3.24,3.24,0,0,0,.69,1.13,2.93,2.93,0,0,0,1.12.74,4.11,4.11,0,0,0,1.54.26A4.2,4.2,0,0,0,1001.67,408Zm10.53-10.92H1015l4.08,8.9,2.4-8.9h3l-3.76,14h-2.62l-4.24-9.18-2.46,9.18h-3Zm26.36-.1h3l2.22,14.1h-3.16l-.44-3.14h-5.92l-2.12,3.14h-3.32Zm1.22,8.22-.64-4.62-3.08,4.62Zm9.44-8.12h2.84l4.08,8.9,2.4-8.9h3l-3.76,14h-2.62l-4.24-9.18-2.46,9.18h-3Zm15.7,0H1069a9.68,9.68,0,0,1,3.36.5,6,6,0,0,1,2.12,1.3A5.52,5.52,0,0,1,1076,403a7.62,7.62,0,0,1-2.3,5.52,8.22,8.22,0,0,1-3.08,1.92,12.46,12.46,0,0,1-4.26.66h-5.2Zm1.82,11.22a7.7,7.7,0,0,0,2.62-.43,5.28,5.28,0,0,0,2.06-1.27,4.53,4.53,0,0,0,1-1.58,5.12,5.12,0,0,0,.36-1.92,3,3,0,0,0-.82-2.22,3.38,3.38,0,0,0-1.24-.74,6.12,6.12,0,0,0-2-.28h-1.5l-2.28,8.44Zm17.9-11.32h3l2.22,14.1h-3.16l-.44-3.14h-5.92l-2.12,3.14h-3.32Zm1.22,8.22-.64-4.62-3.08,4.62Zm9.44-8.12h5.1a8.82,8.82,0,0,1,2.65.35,4.45,4.45,0,0,1,1.79,1.05,3.81,3.81,0,0,1,1.08,2.82,4.64,4.64,0,0,1-1.14,3.19,6.22,6.22,0,0,1-3.38,1.81l2.38,4.78h-3.5l-2.16-4.48h-2.3l-1.2,4.48h-3.08Zm4,6.78a5.67,5.67,0,0,0,1.34-.15,3.64,3.64,0,0,0,1.08-.43,2.25,2.25,0,0,0,.72-.72,1.85,1.85,0,0,0,.26-1,1.51,1.51,0,0,0-.44-1.11,2.81,2.81,0,0,0-2-.58h-2.58l-1.08,4Zm10.54-6.78h10.46l-.74,2.74h-7.4l-.76,2.86h6.5l-.74,2.7h-6.5l-.8,3h7.52l-.74,2.74h-10.56Z"/>
    <path class="n" d="M741.14,593a6,6,0,0,1-2.08-1.22,5.32,5.32,0,0,1-1.36-1.92,6.21,6.21,0,0,1-.49-2.53,7.74,7.74,0,0,1,.67-3.19,8.69,8.69,0,0,1,4.5-4.51,8.23,8.23,0,0,1,3.33-.68,6.64,6.64,0,0,1,3.39.8,6.32,6.32,0,0,1,2.21,2.18l-2.54,1.78a5.47,5.47,0,0,0-1.4-1.4,3.67,3.67,0,0,0-2-.52,4.29,4.29,0,0,0-1.85.43,5.46,5.46,0,0,0-2.68,2.88,5.55,5.55,0,0,0-.41,2.11,3.57,3.57,0,0,0,.25,1.38,3,3,0,0,0,.71,1.07,3.22,3.22,0,0,0,1.08.69,3.77,3.77,0,0,0,1.38.24,3.84,3.84,0,0,0,1.76-.37,7.84,7.84,0,0,0,1.52-1l2,2.08a9.06,9.06,0,0,1-2.28,1.54,7,7,0,0,1-3,.6A7.79,7.79,0,0,1,741.14,593Zm13.25-13.81h10.46l-.74,2.74h-7.4l-.76,2.86h6.5l-.74,2.7h-6.5l-.8,3h7.52l-.74,2.74H750.63Zm13.28,0h4.08a9.68,9.68,0,0,1,3.36.5,6,6,0,0,1,2.12,1.3,5.56,5.56,0,0,1,1.52,4.1,7.61,7.61,0,0,1-.58,3,7.78,7.78,0,0,1-1.72,2.54,8.22,8.22,0,0,1-3.08,1.92,12.46,12.46,0,0,1-4.26.66h-5.2Zm1.82,11.22a7.7,7.7,0,0,0,2.62-.43,5.28,5.28,0,0,0,2.06-1.27,4.53,4.53,0,0,0,1-1.58,5.12,5.12,0,0,0,.36-1.92,3,3,0,0,0-.82-2.22,3.46,3.46,0,0,0-1.24-.74,6.12,6.12,0,0,0-2-.28H770l-2.28,8.44Zm13.88-11.22h3.08l-3.76,14h-3.08Zm12.72,0h3.08l-3.76,14h-3.08Zm6.58,0h3.08l-3,11.2h7l-.76,2.8H798.91Zm20.7,2.84h-4.26l.76-2.84h11.6l-.76,2.84h-4.26l-3,11.16h-3.08Zm10.89,11.06a4.56,4.56,0,0,1-1.65-.92,3.93,3.93,0,0,1-1-1.48,5.21,5.21,0,0,1-.36-2,7.06,7.06,0,0,1,.09-1.09,9.89,9.89,0,0,1,.25-1.15l1.94-7.26h3.08l-2,7.54a6.2,6.2,0,0,0-.16.72,4.92,4.92,0,0,0-.06.8A2.3,2.3,0,0,0,835,590a2.4,2.4,0,0,0,1.82.64,3.15,3.15,0,0,0,2.28-.88,5.59,5.59,0,0,0,1.36-2.6l2.12-7.9h3.08l-2.24,8.34a9,9,0,0,1-2.16,4.16,5.34,5.34,0,0,1-2,1.29,7.82,7.82,0,0,1-2.73.43A6.81,6.81,0,0,1,834.26,593.11ZM850,593a5.83,5.83,0,0,1-3.32-3.28,6.36,6.36,0,0,1-.46-2.45,7.94,7.94,0,0,1,.61-3,8.58,8.58,0,0,1,1.72-2.65,8.8,8.8,0,0,1,2.66-1.87,8.19,8.19,0,0,1,3.43-.71,7.1,7.1,0,0,1,2.62.47,5.83,5.83,0,0,1,3.32,3.28,6.4,6.4,0,0,1,.46,2.45,7.91,7.91,0,0,1-.61,3.05,8.35,8.35,0,0,1-1.72,2.65,8.46,8.46,0,0,1-2.66,1.87,8,8,0,0,1-3.43.71A6.9,6.9,0,0,1,850,593Zm5-2.85a5.12,5.12,0,0,0,1.53-1.23,5.61,5.61,0,0,0,1-1.69,5.3,5.3,0,0,0,.35-1.84,4.38,4.38,0,0,0-.23-1.43,3,3,0,0,0-1.81-1.87,4.32,4.32,0,0,0-1.54-.26,4.26,4.26,0,0,0-2,.48,5.12,5.12,0,0,0-1.53,1.23,5.74,5.74,0,0,0-1,1.69,5.34,5.34,0,0,0-.35,1.84,4.33,4.33,0,0,0,.23,1.43,3.22,3.22,0,0,0,.68,1.13,3,3,0,0,0,1.13.74,4.11,4.11,0,0,0,1.54.26A4.26,4.26,0,0,0,855,590.13Zm-131.07,9h3l2.22,14.1h-3.16l-.44-3.14h-5.92l-2.12,3.14h-3.32Zm1.22,8.22-.64-4.62-3.08,4.62Zm9.44-8.12H740a7.36,7.36,0,0,1,2.13.27,4.41,4.41,0,0,1,1.47.74,3,3,0,0,1,.86,1.1,3.46,3.46,0,0,1-.54,3.6,4.07,4.07,0,0,1-2.18,1.18,3.8,3.8,0,0,1,1.42,1.08,2.79,2.79,0,0,1,.54,1.77,3.69,3.69,0,0,1-.4,1.72,3.91,3.91,0,0,1-1.16,1.35,5.46,5.46,0,0,1-1.88.88,9.6,9.6,0,0,1-2.58.31h-6.88Zm3.58,11.3A3.1,3.1,0,0,0,740,610a1.48,1.48,0,0,0,.67-1.29,1.15,1.15,0,0,0-.48-1,2.46,2.46,0,0,0-1.44-.35h-3.38l-.82,3.08Zm1-5.66a3.57,3.57,0,0,0,1.86-.4,1.41,1.41,0,0,0,.66-1.29,1.09,1.09,0,0,0-.46-.89,2.42,2.42,0,0,0-1.48-.36h-2.9l-.78,2.94Zm9.76-5.64h5.44a7.36,7.36,0,0,1,2.13.27,4.41,4.41,0,0,1,1.47.74,3,3,0,0,1,.86,1.1,3.46,3.46,0,0,1-.54,3.6,4.07,4.07,0,0,1-2.18,1.18,3.8,3.8,0,0,1,1.42,1.08,2.79,2.79,0,0,1,.54,1.77,3.69,3.69,0,0,1-.4,1.72,3.91,3.91,0,0,1-1.16,1.35,5.46,5.46,0,0,1-1.88.88,9.6,9.6,0,0,1-2.58.31h-6.88Zm3.58,11.3a3.1,3.1,0,0,0,1.83-.47,1.48,1.48,0,0,0,.67-1.29,1.15,1.15,0,0,0-.48-1,2.46,2.46,0,0,0-1.44-.35h-3.38l-.82,3.08Zm1-5.66a3.57,3.57,0,0,0,1.86-.4,1.41,1.41,0,0,0,.66-1.29,1.09,1.09,0,0,0-.46-.89,2.42,2.42,0,0,0-1.48-.36h-2.9l-.78,2.94ZM764.37,613a5.83,5.83,0,0,1-3.32-3.28,6.36,6.36,0,0,1-.46-2.45,7.94,7.94,0,0,1,.61-3,8.58,8.58,0,0,1,1.72-2.65,8.8,8.8,0,0,1,2.66-1.87A8.19,8.19,0,0,1,769,599a7.1,7.1,0,0,1,2.62.47,5.83,5.83,0,0,1,3.32,3.28,6.4,6.4,0,0,1,.46,2.45,7.91,7.91,0,0,1-.61,3.05,8.35,8.35,0,0,1-1.72,2.65,8.46,8.46,0,0,1-2.66,1.87,8,8,0,0,1-3.43.71A6.9,6.9,0,0,1,764.37,613Zm5-2.85a5.12,5.12,0,0,0,1.53-1.23,5.61,5.61,0,0,0,1-1.69,5.3,5.3,0,0,0,.35-1.84,4.38,4.38,0,0,0-.23-1.43,3.31,3.31,0,0,0-.68-1.13,3.17,3.17,0,0,0-1.13-.74,4.32,4.32,0,0,0-1.54-.26,4.26,4.26,0,0,0-2,.48,5.12,5.12,0,0,0-1.53,1.23,5.74,5.74,0,0,0-1,1.69,5.34,5.34,0,0,0-.35,1.84,4.33,4.33,0,0,0,.23,1.43,3.22,3.22,0,0,0,.68,1.13,3,3,0,0,0,1.13.74,4.11,4.11,0,0,0,1.54.26A4.26,4.26,0,0,0,769.36,610.13Zm10.53-10.92h2.84l4.08,8.9,2.4-8.9h3l-3.76,14h-2.62L781.63,604l-2.46,9.18h-3Zm20.36-.1h3l2.22,14.1h-3.16l-.44-3.14h-5.92l-2.12,3.14h-3.32Zm1.22,8.22-.64-4.62-3.08,4.62Zm9.44-8.12h3.2l2,5.92,5.22-5.92h3.56l-3.76,14H818l2.44-9.14-5.48,6h-.08l-2.24-5.92-2.44,9.08h-3.08Zm17.36,0h10.46L838,602h-7.4l-.76,2.86h6.5l-.74,2.7h-6.5l-.8,3h7.52l-.74,2.74H824.51Zm13.3,0h2.84l4.08,8.9,2.4-8.9h3l-3.76,14h-2.62L843.31,604l-2.46,9.18h-3Zm17.9,2.84h-4.26l.76-2.84h11.6l-.76,2.84h-4.26l-3,11.16h-3.08ZM870.61,613a5.83,5.83,0,0,1-3.32-3.28,6.36,6.36,0,0,1-.46-2.45,7.94,7.94,0,0,1,.61-3,8.58,8.58,0,0,1,1.72-2.65,8.8,8.8,0,0,1,2.66-1.87,8.19,8.19,0,0,1,3.43-.71,7.1,7.1,0,0,1,2.62.47,5.83,5.83,0,0,1,3.32,3.28,6.4,6.4,0,0,1,.46,2.45,7.91,7.91,0,0,1-.61,3.05,8.35,8.35,0,0,1-1.72,2.65,8.46,8.46,0,0,1-2.66,1.87,8,8,0,0,1-3.43.71A6.9,6.9,0,0,1,870.61,613Zm5-2.85a5.12,5.12,0,0,0,1.53-1.23,5.83,5.83,0,0,0,1-1.69,5.3,5.3,0,0,0,.35-1.84,4.38,4.38,0,0,0-.23-1.43,3.19,3.19,0,0,0-.69-1.13,3,3,0,0,0-1.12-.74,4.32,4.32,0,0,0-1.54-.26,4.26,4.26,0,0,0-2,.48,5.12,5.12,0,0,0-1.53,1.23,5.53,5.53,0,0,0-1,1.69,5.34,5.34,0,0,0-.35,1.84,4.33,4.33,0,0,0,.23,1.43,3.08,3.08,0,0,0,.68,1.13,3,3,0,0,0,1.13.74,4.11,4.11,0,0,0,1.54.26A4.26,4.26,0,0,0,875.6,610.13Zm-193.51,9.08h4.44a8.77,8.77,0,0,1,2.57.33,4.47,4.47,0,0,1,1.83,1.09,3.89,3.89,0,0,1,1.08,2.88,4.94,4.94,0,0,1-2,4,6.36,6.36,0,0,1-2.15,1.06,9.59,9.59,0,0,1-2.68.36h-2.66l-1.14,4.24h-3.08Zm3.28,7.06a4.23,4.23,0,0,0,2.48-.65,2.1,2.1,0,0,0,.94-1.85,1.58,1.58,0,0,0-.46-1.16,2,2,0,0,0-.77-.47,3.69,3.69,0,0,0-1.15-.15h-2l-1.14,4.28Zm10.3-7.06h10.46l-.74,2.74H698l-.76,2.86h6.5l-.74,2.7h-6.5l-.8,3h7.52l-.74,2.74H691.91Zm13.3,0h5.1a8.86,8.86,0,0,1,2.65.35,4.52,4.52,0,0,1,1.79,1.05,3.81,3.81,0,0,1,1.08,2.82,4.64,4.64,0,0,1-1.14,3.19,6.22,6.22,0,0,1-3.38,1.81l2.38,4.78H714l-2.16-4.48h-2.3l-1.2,4.48h-3.08Zm4,6.78a5.67,5.67,0,0,0,1.34-.15,3.49,3.49,0,0,0,1.08-.43,2.15,2.15,0,0,0,.72-.72,2,2,0,0,0,.26-1,1.51,1.51,0,0,0-.44-1.11,2.89,2.89,0,0,0-2-.58h-2.58l-1.08,4Zm17.21,7.12a4.56,4.56,0,0,1-1.65-.92,3.93,3.93,0,0,1-1-1.48,5.21,5.21,0,0,1-.36-2,7.06,7.06,0,0,1,.09-1.09,9.89,9.89,0,0,1,.25-1.15l1.94-7.26h3.08l-2,7.54a6.2,6.2,0,0,0-.16.72,4.92,4.92,0,0,0-.06.8,2.3,2.3,0,0,0,.62,1.68,2.4,2.4,0,0,0,1.82.64,3.15,3.15,0,0,0,2.28-.88,5.59,5.59,0,0,0,1.36-2.6l2.12-7.9h3.08l-2.24,8.34a9,9,0,0,1-2.16,4.16,5.34,5.34,0,0,1-2,1.29,7.82,7.82,0,0,1-2.73.43A6.81,6.81,0,0,1,730.18,633.11Zm14.61-13.9h2.84l4.08,8.9,2.4-8.9h3l-3.76,14h-2.62L746.53,624l-2.46,9.18h-3ZM761.63,633a5.83,5.83,0,0,1-3.32-3.28,6.36,6.36,0,0,1-.46-2.45,7.94,7.94,0,0,1,.61-3,8.58,8.58,0,0,1,1.72-2.65,8.8,8.8,0,0,1,2.66-1.87,8.19,8.19,0,0,1,3.43-.71,7.1,7.1,0,0,1,2.62.47,5.83,5.83,0,0,1,3.32,3.28,6.4,6.4,0,0,1,.46,2.45,7.91,7.91,0,0,1-.61,3.05,8.35,8.35,0,0,1-1.72,2.65,8.46,8.46,0,0,1-2.66,1.87,8,8,0,0,1-3.43.71A6.9,6.9,0,0,1,761.63,633Zm5-2.85a5.12,5.12,0,0,0,1.53-1.23,5.61,5.61,0,0,0,1-1.69,5.3,5.3,0,0,0,.35-1.84,4.38,4.38,0,0,0-.23-1.43,3.31,3.31,0,0,0-.68-1.13,3.17,3.17,0,0,0-1.13-.74,4.32,4.32,0,0,0-1.54-.26,4.26,4.26,0,0,0-2,.48,5.12,5.12,0,0,0-1.53,1.23,5.74,5.74,0,0,0-1,1.69,5.34,5.34,0,0,0-.35,1.84,4.33,4.33,0,0,0,.23,1.43,3.22,3.22,0,0,0,.68,1.13,3,3,0,0,0,1.13.74,4.11,4.11,0,0,0,1.54.26A4.26,4.26,0,0,0,766.62,630.13ZM784.27,633A5.83,5.83,0,0,1,781,629.7a6.36,6.36,0,0,1-.46-2.45,7.94,7.94,0,0,1,.61-3,8.58,8.58,0,0,1,1.72-2.65,8.8,8.8,0,0,1,2.66-1.87,8.19,8.19,0,0,1,3.43-.71,7.1,7.1,0,0,1,2.62.47,5.83,5.83,0,0,1,3.32,3.28,6.4,6.4,0,0,1,.46,2.45,7.91,7.91,0,0,1-.61,3.05,8.35,8.35,0,0,1-1.72,2.65,8.46,8.46,0,0,1-2.66,1.87,8,8,0,0,1-3.43.71A6.9,6.9,0,0,1,784.27,633Zm5-2.85a5.12,5.12,0,0,0,1.53-1.23,5.61,5.61,0,0,0,1-1.69,5.3,5.3,0,0,0,.35-1.84,4.38,4.38,0,0,0-.23-1.43,3.31,3.31,0,0,0-.68-1.13,3.17,3.17,0,0,0-1.13-.74,4.32,4.32,0,0,0-1.54-.26,4.26,4.26,0,0,0-2,.48,5.12,5.12,0,0,0-1.53,1.23,5.74,5.74,0,0,0-1,1.69,5.34,5.34,0,0,0-.35,1.84,4.33,4.33,0,0,0,.23,1.43,3.08,3.08,0,0,0,.68,1.13,3,3,0,0,0,1.13.74,4.11,4.11,0,0,0,1.54.26A4.26,4.26,0,0,0,789.26,630.13Zm16.53-10.92h4.44a8.77,8.77,0,0,1,2.57.33,4.47,4.47,0,0,1,1.83,1.09,3.89,3.89,0,0,1,1.08,2.88,4.94,4.94,0,0,1-2,4,6.36,6.36,0,0,1-2.15,1.06,9.59,9.59,0,0,1-2.68.36h-2.66l-1.14,4.24H802Zm3.28,7.06a4.23,4.23,0,0,0,2.48-.65,2.1,2.1,0,0,0,.94-1.85,1.58,1.58,0,0,0-.46-1.16,2,2,0,0,0-.77-.47,3.69,3.69,0,0,0-1.15-.15h-2L807,626.27Zm10.44-7.06h3.08l-3.76,14h-3.08Zm7.25,13.9a4.56,4.56,0,0,1-1.65-.92,3.82,3.82,0,0,1-1-1.48,5.21,5.21,0,0,1-.36-2,7.06,7.06,0,0,1,.09-1.09,9.89,9.89,0,0,1,.25-1.15l1.94-7.26h3.08l-2,7.54a6.2,6.2,0,0,0-.16.72,4.92,4.92,0,0,0-.06.8,2.26,2.26,0,0,0,.62,1.68,2.4,2.4,0,0,0,1.82.64,3.16,3.16,0,0,0,2.28-.88,5.68,5.68,0,0,0,1.36-2.6l2.12-7.9h3.08l-2.24,8.34a9,9,0,0,1-2.16,4.16,5.42,5.42,0,0,1-2,1.29,7.82,7.82,0,0,1-2.73.43A6.73,6.73,0,0,1,826.76,633.11Zm2.69-17.4,2.68-1.14,1.3,3.54h-2.08Zm19.42,17.38a6.18,6.18,0,0,1-2.11-1.11,5.81,5.81,0,0,1-1.5-1.9,6,6,0,0,1-.57-2.71,8,8,0,0,1,.65-3.15,8.66,8.66,0,0,1,4.57-4.55,8.71,8.71,0,0,1,3.5-.7,9.47,9.47,0,0,1,2,.2,8.11,8.11,0,0,1,1.6.53,6.26,6.26,0,0,1,1.23.77,5.88,5.88,0,0,1,.89.92l-2.28,2a5.92,5.92,0,0,0-1.49-1.15,4.61,4.61,0,0,0-2.19-.47,4.87,4.87,0,0,0-2.09.45,5.36,5.36,0,0,0-1.68,1.2,5.65,5.65,0,0,0-1.12,1.74,5.48,5.48,0,0,0-.41,2.09,3.47,3.47,0,0,0,.28,1.45,2.92,2.92,0,0,0,.77,1,3.36,3.36,0,0,0,1.14.64,4.22,4.22,0,0,0,1.39.22,5.53,5.53,0,0,0,1.43-.16,5.33,5.33,0,0,0,1.07-.38l.66-2.28h-3.1l.72-2.66h6.08l-2,7a11,11,0,0,1-2.27,1,9.66,9.66,0,0,1-2.81.37A8.13,8.13,0,0,1,848.87,633.09Zm14.24-13.88h3.08l-3.76,14h-3.08Zm7.7,13.77a5.83,5.83,0,0,1-2-1.31,5.74,5.74,0,0,1-1.3-2,6.36,6.36,0,0,1-.46-2.45,7.94,7.94,0,0,1,.61-3,8.4,8.4,0,0,1,1.72-2.65,8.67,8.67,0,0,1,2.66-1.87,8.16,8.16,0,0,1,3.43-.71,7.1,7.1,0,0,1,2.62.47,6.08,6.08,0,0,1,2,1.31,6,6,0,0,1,1.3,2,6.59,6.59,0,0,1,.46,2.45,8.1,8.1,0,0,1-.61,3.05,8.35,8.35,0,0,1-1.72,2.65,8.46,8.46,0,0,1-2.66,1.87,8.07,8.07,0,0,1-3.43.71A6.87,6.87,0,0,1,870.81,633Zm5-2.85a5,5,0,0,0,1.54-1.23,5.83,5.83,0,0,0,1-1.69,5.3,5.3,0,0,0,.35-1.84,4.38,4.38,0,0,0-.23-1.43,3.34,3.34,0,0,0-.69-1.13,3,3,0,0,0-1.12-.74,4.32,4.32,0,0,0-1.54-.26,4.2,4.2,0,0,0-2,.48,5.29,5.29,0,0,0-1.54,1.23,5.71,5.71,0,0,0-1,1.69,5.12,5.12,0,0,0-.35,1.84,4.09,4.09,0,0,0,.23,1.43,3.08,3.08,0,0,0,.68,1.13,3,3,0,0,0,1.13.74,4.09,4.09,0,0,0,1.53.26A4.2,4.2,0,0,0,875.79,630.13Zm10.54-10.92h5.1a8.86,8.86,0,0,1,2.65.35,4.59,4.59,0,0,1,1.79,1.05,3.81,3.81,0,0,1,1.08,2.82,4.64,4.64,0,0,1-1.14,3.19,6.22,6.22,0,0,1-3.38,1.81l2.38,4.78h-3.5l-2.16-4.48h-2.3l-1.2,4.48h-3.08Zm4,6.78a5.73,5.73,0,0,0,1.34-.15,3.49,3.49,0,0,0,1.08-.43,2.35,2.35,0,0,0,.72-.72,2,2,0,0,0,.26-1,1.51,1.51,0,0,0-.44-1.11,2.89,2.89,0,0,0-2-.58h-2.58l-1.08,4Zm10.54-6.78h2.84l4.08,8.9,2.4-8.9h3l-3.76,14h-2.62L902.61,624l-2.46,9.18h-3Zm15.86,0h3.08l-3.76,14H913Z"/>
    <path class="n" d="M942.36,789.71a6.44,6.44,0,0,1-2.1-1.12,5.61,5.61,0,0,1-1.5-1.89,6,6,0,0,1-.58-2.71,7.82,7.82,0,0,1,.66-3.16,8.82,8.82,0,0,1,1.81-2.67,8.74,8.74,0,0,1,6.25-2.58,8.77,8.77,0,0,1,2,.21,6.83,6.83,0,0,1,1.6.53,5.7,5.7,0,0,1,1.23.76,5.87,5.87,0,0,1,.89.92l-2.28,2a5.57,5.57,0,0,0-1.49-1.16,4.61,4.61,0,0,0-2.19-.46,4.94,4.94,0,0,0-2.09.45,5.6,5.6,0,0,0-1.68,1.2,5.79,5.79,0,0,0-1.12,1.73,5.52,5.52,0,0,0-.41,2.09,3.64,3.64,0,0,0,.28,1.45,3,3,0,0,0,.77,1,3.56,3.56,0,0,0,1.14.65,4.55,4.55,0,0,0,1.39.22,5.44,5.44,0,0,0,1.43-.17,5.79,5.79,0,0,0,1.07-.37l.66-2.29H945l.72-2.65h6.08l-2,7a11.89,11.89,0,0,1-2.27,1,10,10,0,0,1-2.81.37A8.13,8.13,0,0,1,942.36,789.71Zm14.77,0a4.9,4.9,0,0,1-1.65-.92,4,4,0,0,1-1-1.48,5.28,5.28,0,0,1-.36-2,7,7,0,0,1,.09-1.09c.06-.38.15-.77.25-1.16l1.94-7.25h3.08l-2,7.54c-.06.24-.12.47-.16.71a5,5,0,0,0-.06.8,2.35,2.35,0,0,0,.62,1.69,2.46,2.46,0,0,0,1.82.64,3.19,3.19,0,0,0,2.28-.88,5.59,5.59,0,0,0,1.36-2.6l2.12-7.9h3.08l-2.24,8.33a9,9,0,0,1-2.16,4.17,5.59,5.59,0,0,1-2,1.29,8.07,8.07,0,0,1-2.73.42A7.11,7.11,0,0,1,957.13,789.73Zm18.87-14h3l2.22,14.1H978l-.44-3.14h-5.92l-2.12,3.14h-3.32Zm1.22,8.22-.64-4.62L973.5,784Zm9.42-8.12h4.08a9.45,9.45,0,0,1,3.36.5,5.87,5.87,0,0,1,2.12,1.29,5.53,5.53,0,0,1,1.52,4.11,7.62,7.62,0,0,1-2.3,5.52,8.2,8.2,0,0,1-3.08,1.91,12.21,12.21,0,0,1-4.26.67h-5.2ZM988.46,787a8,8,0,0,0,2.62-.42,5.3,5.3,0,0,0,2.06-1.28,4.49,4.49,0,0,0,1-1.57,5.17,5.17,0,0,0,.36-1.93,3,3,0,0,0-.82-2.22,3.38,3.38,0,0,0-1.24-.74,6.14,6.14,0,0,0-2-.27H989L986.72,787Zm17.9-11.31h3l2.22,14.1h-3.16l-.44-3.14H1002l-2.12,3.14h-3.32Zm1.22,8.22-.64-4.62-3.08,4.62Zm9.86,5.76a6.44,6.44,0,0,1-2.1-1.12,5.61,5.61,0,0,1-1.5-1.89,6,6,0,0,1-.58-2.71,7.82,7.82,0,0,1,.66-3.16,8.82,8.82,0,0,1,1.81-2.67,8.74,8.74,0,0,1,6.25-2.58,8.77,8.77,0,0,1,2,.21,6.83,6.83,0,0,1,1.6.53,5.7,5.7,0,0,1,1.23.76,5.87,5.87,0,0,1,.89.92l-2.28,2a5.57,5.57,0,0,0-1.49-1.16,4.61,4.61,0,0,0-2.19-.46,4.94,4.94,0,0,0-2.09.45,5.6,5.6,0,0,0-1.68,1.2,5.79,5.79,0,0,0-1.12,1.73,5.52,5.52,0,0,0-.41,2.09,3.64,3.64,0,0,0,.28,1.45,3,3,0,0,0,.77,1,3.56,3.56,0,0,0,1.14.65,4.55,4.55,0,0,0,1.39.22,5.44,5.44,0,0,0,1.43-.17,5.79,5.79,0,0,0,1.07-.37l.66-2.29h-3.1l.72-2.65h6.08l-2,7a11.89,11.89,0,0,1-2.27,1,10,10,0,0,1-2.81.37A8.13,8.13,0,0,1,1017.44,789.71Zm14.1-13.88h2.84l4.08,8.9,2.4-8.9h3l-3.76,14h-2.62l-4.24-9.18-2.46,9.18h-3Zm20.36-.1h3l2.22,14.1h-3.16l-.44-3.14h-5.92l-2.12,3.14h-3.32Zm1.22,8.22-.64-4.62L1049.4,784Z"/>
    <path class="n" d="M749.84,978.86h5.1a8.55,8.55,0,0,1,2.65.35,4.3,4.3,0,0,1,1.79,1,3.81,3.81,0,0,1,1.08,2.82,4.66,4.66,0,0,1-1.14,3.19,6.28,6.28,0,0,1-3.38,1.81l2.38,4.78h-3.5l-2.16-4.48h-2.3l-1.2,4.48h-3.08Zm4,6.78a5.67,5.67,0,0,0,1.34-.15,3.76,3.76,0,0,0,1.08-.44,2.07,2.07,0,0,0,.72-.72,1.91,1.91,0,0,0,.26-1,1.55,1.55,0,0,0-.44-1.12,2.89,2.89,0,0,0-2-.57h-2.58l-1.08,4Zm10.68-6.78h3.08l-3.76,14h-3.08Zm6.58,0h3.08l-3,11.2h7l-.76,2.8H767.34Zm17.16-.1h3l2.22,14.1h-3.16l-.44-3.14h-5.92l-2.12,3.14h-3.32Zm1.22,8.22-.64-4.62L785.76,987Zm5,3.5,2.32-2a6.4,6.4,0,0,0,1.78,1.37,4.78,4.78,0,0,0,2.14.47,2.77,2.77,0,0,0,1.54-.4,1.23,1.23,0,0,0,.6-1.06,1,1,0,0,0-.11-.47,1.31,1.31,0,0,0-.38-.42,4.1,4.1,0,0,0-.73-.44,11.53,11.53,0,0,0-1.16-.51c-.45-.19-.89-.39-1.3-.61a5.19,5.19,0,0,1-1.1-.78,3.62,3.62,0,0,1-.76-1,3.06,3.06,0,0,1-.28-1.36,4,4,0,0,1,.45-1.93,4.45,4.45,0,0,1,1.21-1.45,5.52,5.52,0,0,1,1.77-.92,6.78,6.78,0,0,1,2.13-.32,7.47,7.47,0,0,1,3.08.56,6.55,6.55,0,0,1,2.16,1.52l-2.12,2.12a6.47,6.47,0,0,0-1.57-1.12,3.9,3.9,0,0,0-1.79-.38,2.27,2.27,0,0,0-1.51.45,1.28,1.28,0,0,0-.53,1,1,1,0,0,0,.12.49,1.39,1.39,0,0,0,.4.41,5.93,5.93,0,0,0,.75.42l1.19.52a12.66,12.66,0,0,1,1.33.64,4.48,4.48,0,0,1,1.06.78,3.17,3.17,0,0,1,.71,1,3.27,3.27,0,0,1,.26,1.34,4.12,4.12,0,0,1-.46,2,4.57,4.57,0,0,1-1.22,1.47,5.5,5.5,0,0,1-1.77.91,7.38,7.38,0,0,1-2.11.31C797.89,993.06,795.85,992.2,794.52,990.48Zm12.52,0,2.32-2a6.4,6.4,0,0,0,1.78,1.37,4.78,4.78,0,0,0,2.14.47,2.77,2.77,0,0,0,1.54-.4,1.23,1.23,0,0,0,.6-1.06,1,1,0,0,0-.11-.47,1.31,1.31,0,0,0-.38-.42,4.1,4.1,0,0,0-.73-.44,11.53,11.53,0,0,0-1.16-.51c-.45-.19-.89-.39-1.3-.61a5.19,5.19,0,0,1-1.1-.78,3.62,3.62,0,0,1-.76-1,3.06,3.06,0,0,1-.28-1.36,4,4,0,0,1,.45-1.93,4.45,4.45,0,0,1,1.21-1.45A5.52,5.52,0,0,1,813,979a6.78,6.78,0,0,1,2.13-.32,7.47,7.47,0,0,1,3.08.56,6.55,6.55,0,0,1,2.16,1.52l-2.12,2.12a6.47,6.47,0,0,0-1.57-1.12,3.9,3.9,0,0,0-1.79-.38,2.27,2.27,0,0,0-1.51.45,1.28,1.28,0,0,0-.53,1,1,1,0,0,0,.12.49,1.39,1.39,0,0,0,.4.41,5.93,5.93,0,0,0,.75.42l1.19.52a12.66,12.66,0,0,1,1.33.64,4.48,4.48,0,0,1,1.06.78,3.17,3.17,0,0,1,.71,1,3.27,3.27,0,0,1,.26,1.34,4.12,4.12,0,0,1-.46,2,4.57,4.57,0,0,1-1.22,1.47,5.5,5.5,0,0,1-1.77.91,7.38,7.38,0,0,1-2.11.31C810.41,993.06,808.37,992.2,807,990.48Zm21.48-11.72h3l2.22,14.1h-3.16l-.44-3.14h-5.92l-2.12,3.14h-3.32Zm1.22,8.22-.64-4.62L826,987Zm10-5.28h-4.26l.76-2.84h11.6l-.76,2.84h-4.26l-3,11.16h-3.08Zm10.36-2.84h3.08l-3.76,14h-3.08Z"/>
    <path class="o" d="M562.69,113l2.32-2a6.35,6.35,0,0,0,1.78,1.37,4.78,4.78,0,0,0,2.14.47,2.69,2.69,0,0,0,1.54-.4,1.23,1.23,0,0,0,.6-1.06A.93.93,0,0,0,571,111a1.31,1.31,0,0,0-.38-.42,4.1,4.1,0,0,0-.73-.44c-.3-.15-.69-.32-1.16-.51s-.89-.39-1.3-.61a5.19,5.19,0,0,1-1.1-.78,3.49,3.49,0,0,1-.76-1,3.06,3.06,0,0,1-.28-1.36,4.07,4.07,0,0,1,.45-1.93,4.58,4.58,0,0,1,1.21-1.45,5.52,5.52,0,0,1,1.77-.92,7.13,7.13,0,0,1,2.13-.32,7.6,7.6,0,0,1,3.08.56,6.55,6.55,0,0,1,2.16,1.52l-2.12,2.12a6.55,6.55,0,0,0-1.57-1.12,4,4,0,0,0-1.79-.38,2.29,2.29,0,0,0-1.51.45,1.28,1.28,0,0,0-.53,1,1,1,0,0,0,.12.49,1.4,1.4,0,0,0,.4.41,5.93,5.93,0,0,0,.75.42c.32.15.71.32,1.19.52a11.77,11.77,0,0,1,1.33.64,5.1,5.1,0,0,1,1.06.78,3.17,3.17,0,0,1,.71,1,3.3,3.3,0,0,1,.26,1.34,4.12,4.12,0,0,1-.46,2,4.45,4.45,0,0,1-1.22,1.47,5.3,5.3,0,0,1-1.77.91,7,7,0,0,1-2.11.31Q564.69,115.6,562.69,113Zm17.91,2.19a6.15,6.15,0,0,1-2.08-1.22,5.5,5.5,0,0,1-1.36-1.92,6.24,6.24,0,0,1-.49-2.53,7.74,7.74,0,0,1,.67-3.19,8.69,8.69,0,0,1,4.5-4.51,8.3,8.3,0,0,1,3.33-.68,6.64,6.64,0,0,1,3.39.8,6.23,6.23,0,0,1,2.21,2.18l-2.54,1.78a5.32,5.32,0,0,0-1.4-1.4,3.59,3.59,0,0,0-2-.52,4.18,4.18,0,0,0-1.85.43,5.42,5.42,0,0,0-1.58,1.16,5.76,5.76,0,0,0-1.1,1.72,5.51,5.51,0,0,0-.41,2.11,3.57,3.57,0,0,0,.25,1.38,3.28,3.28,0,0,0,.71,1.07,3.22,3.22,0,0,0,1.08.69,3.77,3.77,0,0,0,1.38.24,3.84,3.84,0,0,0,1.76-.37,8,8,0,0,0,1.52-1l2,2.08a9.06,9.06,0,0,1-2.28,1.54,7,7,0,0,1-3,.6A7.79,7.79,0,0,1,580.6,115.21Zm13.25-13.81h10.46l-.74,2.74h-7.4l-.76,2.86h6.5l-.74,2.7h-6.5l-.8,3h7.52l-.74,2.74H590.09Zm14.8,13.88a6.14,6.14,0,0,1-2.1-1.11,5.56,5.56,0,0,1-1.5-1.9,5.92,5.92,0,0,1-.58-2.71,7.81,7.81,0,0,1,.66-3.15,8.57,8.57,0,0,1,1.81-2.68,8.75,8.75,0,0,1,2.75-1.87,8.62,8.62,0,0,1,3.5-.7,9.4,9.4,0,0,1,2,.2,7.51,7.51,0,0,1,1.6.53,5.72,5.72,0,0,1,1.23.77,5.48,5.48,0,0,1,.89.92l-2.28,2a5.54,5.54,0,0,0-1.49-1.15A4.61,4.61,0,0,0,613,104a4.91,4.91,0,0,0-2.09.45,5.48,5.48,0,0,0-1.68,1.2,5.84,5.84,0,0,0-1.12,1.74,5.48,5.48,0,0,0-.41,2.09,3.47,3.47,0,0,0,.28,1.45,2.92,2.92,0,0,0,.77,1,3.54,3.54,0,0,0,1.14.64,4.22,4.22,0,0,0,1.39.22,5.47,5.47,0,0,0,1.43-.16,5.76,5.76,0,0,0,1.07-.38l.66-2.28h-3.1l.72-2.66h6.08l-2,7a11.28,11.28,0,0,1-2.27,1,9.62,9.62,0,0,1-2.81.37A8.13,8.13,0,0,1,608.65,115.28Zm14.1-13.88h3.08l-3,11.2h7l-.76,2.8H619Zm12.66,0h3.08l-3.76,14h-3.08Z"/>
  </g>
</svg>
